<?xml version="1.0" encoding="utf-8"?>
<!-- Generator: Adobe Illustrator 27.5.0, SVG Export Plug-In . SVG Version: 6.00 Build 0)  -->
<svg version="1.1" xmlns="http://www.w3.org/2000/svg" xmlns:xlink="http://www.w3.org/1999/xlink" x="0px" y="0px"
	 viewBox="0 0 500 500" style="enable-background:new 0 0 500 500;" xml:space="preserve">
<g id="Background_Simple">
	<g>
		<g>
			<path style="opacity:0.7;fill:#92E3A9;" d="M74.493,368.523c-24.569-63.073-56.704-197.925-26.196-260.493
				C80.97,41.02,188.324,5,257.091,41.442c62.781,33.27,8.402,138.214,50.592,168.647c42.908,30.951,64.123-46.74,100.97,11.63
				c30.611,48.49,0.952,119.363-12.743,146.804H74.493z"/>
		</g>
		<path style="opacity:0.7;fill:#FFFFFF;" d="M74.493,368.523c-24.569-63.073-56.704-197.925-26.196-260.493
			C80.97,41.02,188.324,5,257.091,41.442c62.781,33.27,8.402,138.214,50.592,168.647c42.908,30.951,64.123-46.74,100.97,11.63
			c30.611,48.49,0.952,119.363-12.743,146.804H74.493z"/>
	</g>
</g>
<g id="Shadow">
	<path style="fill:#92E3A9;" d="M70.781,389.356c0-13.653,21.766-21.072,35.207-21.072H85.173
		c-13.378,2.703-25.381,6.299-25.45,10.512c-0.038,2.344-1.162,4.538-3.328,5.435c-8.201,3.395-20.816,10.068-6.299,14.426
		c2.567,0.771,2.758,4.336,0.277,5.35c-12.852,5.253-29.546,14.933,16.279,16.725c3.677,0.144,4.94,5.016,1.762,6.871
		c-13.426,7.833-22.942,19.92,45.024,20.36c2.917,0.019,3.527,4.138,0.735,4.98c-12.067,3.64-14.837,7.891,35.848,8.255
		c1.873,0.013,2.782,2.245,1.491,3.602c-3.981,4.185-0.074,10.549,60.525,10.549c69.283,0,137.716-10.771,165.806-15.782
		C220.028,454.682,70.781,428.44,70.781,389.356z"/>
</g>
<g id="Buildings">
	<g>
		<g>
			<g>
				<defs>
					<path id="XMLID_75_" d="M351.278,157.469v-27.828c-16.699,0-30.59,11.989-33.556,27.828h-7.75v210.815h45.671V157.469H351.278z
						"/>
				</defs>
				<use xlink:href="#XMLID_75_"  style="overflow:visible;fill:#92E3A9;"/>
				<clipPath id="XMLID_00000098930170594024514890000004060195996334868892_">
					<use xlink:href="#XMLID_75_"  style="overflow:visible;"/>
				</clipPath>
				<path style="opacity:0.3;clip-path:url(#XMLID_00000098930170594024514890000004060195996334868892_);fill:#FFFFFF;" d="
					M351.278,157.469v-27.828c-16.699,0-30.59,11.989-33.556,27.828h-7.75v210.815h45.671V157.469H351.278z"/>
				
					<use xlink:href="#XMLID_75_"  style="overflow:visible;fill:none;stroke:#263238;stroke-width:0.75;stroke-linecap:round;stroke-linejoin:round;stroke-miterlimit:10;"/>
			</g>
			<g>
				<rect x="313.856" y="168.503" style="fill:#FAFAFA;" width="7.303" height="7.304"/>
				<rect x="313.856" y="179.517" style="fill:#FAFAFA;" width="7.303" height="7.304"/>
				<rect x="334.255" y="179.517" style="fill:#FAFAFA;" width="7.303" height="7.304"/>
				<rect x="344.455" y="179.517" style="fill:#FAFAFA;" width="7.303" height="7.304"/>
				<rect x="324.056" y="190.531" style="fill:#FAFAFA;" width="7.303" height="7.304"/>
				<rect x="344.455" y="190.531" style="fill:#FAFAFA;" width="7.303" height="7.304"/>
				<rect x="313.856" y="201.546" style="fill:#FAFAFA;" width="7.303" height="7.304"/>
				<rect x="334.255" y="201.546" style="fill:#FAFAFA;" width="7.303" height="7.304"/>
				<rect x="334.255" y="212.56" style="fill:#FAFAFA;" width="7.303" height="7.304"/>
				<rect x="344.455" y="212.56" style="fill:#FAFAFA;" width="7.303" height="7.304"/>
				<rect x="324.056" y="223.574" style="fill:#FAFAFA;" width="7.303" height="7.303"/>
				<rect x="344.455" y="223.574" style="fill:#FAFAFA;" width="7.303" height="7.303"/>
				<rect x="324.056" y="234.588" style="fill:#FAFAFA;" width="7.303" height="7.304"/>
				<rect x="334.255" y="234.588" style="fill:#FAFAFA;" width="7.303" height="7.304"/>
				<rect x="334.255" y="245.602" style="fill:#FAFAFA;" width="7.303" height="7.304"/>
				<rect x="344.455" y="245.602" style="fill:#FAFAFA;" width="7.303" height="7.304"/>
				
					<rect x="324.056" y="267.557" transform="matrix(0.9999 0.0143 -0.0143 0.9999 3.9216 -4.67)" style="fill:#FAFAFA;" width="7.304" height="7.303"/>
				
					<rect x="344.454" y="267.85" transform="matrix(0.9999 0.0143 -0.0143 0.9999 3.9279 -4.9624)" style="fill:#FAFAFA;" width="7.303" height="7.304"/>
				<rect x="344.455" y="278.645" style="fill:#FAFAFA;" width="7.303" height="7.304"/>
			</g>
			<rect x="313.856" y="296.962" style="fill:#FAFAFA;" width="7.303" height="7.304"/>
			<rect x="334.255" y="296.962" style="fill:#FAFAFA;" width="7.303" height="7.304"/>
			<rect x="324.056" y="307.976" style="fill:#FAFAFA;" width="7.303" height="7.304"/>
			<rect x="344.455" y="307.976" style="fill:#FAFAFA;" width="7.303" height="7.304"/>
			<rect x="334.255" y="318.991" style="fill:#FAFAFA;" width="7.303" height="7.304"/>
			<rect x="334.255" y="330.005" style="fill:#FAFAFA;" width="7.303" height="7.304"/>
			<rect x="324.056" y="341.019" style="fill:#FAFAFA;" width="7.303" height="7.304"/>
			<rect x="344.455" y="341.019" style="fill:#FAFAFA;" width="7.303" height="7.304"/>
		</g>
		<g>
			<g>
				<g>
					<defs>
						<polygon id="XMLID_74_" points="386.378,368.284 443.553,368.284 443.553,139.713 386.378,162.946 						"/>
					</defs>
					<use xlink:href="#XMLID_74_"  style="overflow:visible;fill:#92E3A9;"/>
					<clipPath id="XMLID_00000086692144404019780920000001766406178778734735_">
						<use xlink:href="#XMLID_74_"  style="overflow:visible;"/>
					</clipPath>
					
						<polygon style="opacity:0.6;clip-path:url(#XMLID_00000086692144404019780920000001766406178778734735_);fill:#FFFFFF;" points="
						386.378,368.284 443.553,368.284 443.553,139.713 386.378,162.946 					"/>
					
						<use xlink:href="#XMLID_74_"  style="overflow:visible;fill:none;stroke:#263238;stroke-width:0.75;stroke-linecap:round;stroke-linejoin:round;stroke-miterlimit:10;"/>
				</g>
			</g>
			
				<rect x="416.674" y="159.925" transform="matrix(-1 -1.224647e-16 1.224647e-16 -1 841.9685 328.4691)" style="fill:#FFFFFF;" width="8.62" height="8.62"/>
			
				<rect x="428.712" y="172.924" transform="matrix(-1 -1.224647e-16 1.224647e-16 -1 866.0447 354.4672)" style="fill:#FFFFFF;" width="8.62" height="8.62"/>
			
				<rect x="416.674" y="185.923" transform="matrix(-1 -1.224647e-16 1.224647e-16 -1 841.9685 380.4655)" style="fill:#FFFFFF;" width="8.62" height="8.62"/>
			
				<rect x="404.636" y="185.923" transform="matrix(-1 -1.224647e-16 1.224647e-16 -1 817.8929 380.4655)" style="fill:#FFFFFF;" width="8.62" height="8.62"/>
			
				<rect x="428.712" y="211.921" transform="matrix(-1 -1.224647e-16 1.224647e-16 -1 866.0447 432.4618)" style="fill:#FFFFFF;" width="8.62" height="8.62"/>
			
				<rect x="404.636" y="211.921" transform="matrix(-1 -1.224647e-16 1.224647e-16 -1 817.8929 432.4618)" style="fill:#FFFFFF;" width="8.62" height="8.62"/>
			
				<rect x="416.674" y="224.92" transform="matrix(-1 -1.224647e-16 1.224647e-16 -1 841.9685 458.46)" style="fill:#FFFFFF;" width="8.62" height="8.62"/>
			
				<rect x="428.712" y="237.919" transform="matrix(-1 -1.224647e-16 1.224647e-16 -1 866.0447 484.4582)" style="fill:#FFFFFF;" width="8.62" height="8.62"/>
			
				<rect x="404.636" y="237.919" transform="matrix(-1 -1.224647e-16 1.224647e-16 -1 817.8929 484.4582)" style="fill:#FFFFFF;" width="8.62" height="8.62"/>
			
				<rect x="392.598" y="237.919" transform="matrix(-1 -1.224647e-16 1.224647e-16 -1 793.8166 484.4582)" style="fill:#FFFFFF;" width="8.62" height="8.62"/>
			
				<rect x="416.674" y="250.918" transform="matrix(-1 -1.224647e-16 1.224647e-16 -1 841.9685 510.4563)" style="fill:#FFFFFF;" width="8.62" height="8.62"/>
			
				<rect x="428.712" y="263.917" transform="matrix(-1 -1.224647e-16 1.224647e-16 -1 866.0447 536.4544)" style="fill:#FFFFFF;" width="8.62" height="8.62"/>
			
				<rect x="392.598" y="263.917" transform="matrix(-1 -1.224647e-16 1.224647e-16 -1 793.8166 536.4544)" style="fill:#FFFFFF;" width="8.62" height="8.62"/>
			
				<rect x="404.637" y="277.003" transform="matrix(-0.9999 0.0143 -0.0143 -0.9999 821.8826 556.7373)" style="fill:#FFFFFF;" width="8.62" height="8.62"/>
			
				<rect x="416.674" y="289.608" transform="matrix(-1 -1.224647e-16 1.224647e-16 -1 841.9685 587.8349)" style="fill:#FFFFFF;" width="8.62" height="8.62"/>
			
				<rect x="404.636" y="302.607" transform="matrix(-1 -1.224647e-16 1.224647e-16 -1 817.8929 613.8331)" style="fill:#FFFFFF;" width="8.62" height="8.62"/>
			
				<rect x="392.598" y="302.607" transform="matrix(-1 -1.224647e-16 1.224647e-16 -1 793.8166 613.8331)" style="fill:#FFFFFF;" width="8.62" height="8.62"/>
			
				<rect x="416.674" y="315.606" transform="matrix(-1 -1.224647e-16 1.224647e-16 -1 841.9685 639.8312)" style="fill:#FFFFFF;" width="8.62" height="8.62"/>
			
				<rect x="428.712" y="328.605" transform="matrix(-1 -1.224647e-16 1.224647e-16 -1 866.0447 665.8295)" style="fill:#FFFFFF;" width="8.62" height="8.62"/>
			
				<rect x="404.637" y="341.69" transform="matrix(-0.9999 0.0143 -0.0143 -0.9999 822.8094 686.1057)" style="fill:#FFFFFF;" width="8.62" height="8.62"/>
			
				<rect x="392.6" y="277.176" transform="matrix(-0.9999 0.0143 -0.0143 -0.9999 797.813 557.2551)" style="fill:#FFFFFF;" width="8.62" height="8.62"/>
		</g>
		<g>
			<g>
				<defs>
					<polygon id="XMLID_73_" points="346.805,209.597 346.805,200.561 365.078,200.561 365.078,209.597 395.404,209.597 
						395.404,368.284 342.384,368.284 342.384,209.597 					"/>
				</defs>
				<use xlink:href="#XMLID_73_"  style="overflow:visible;fill:#92E3A9;"/>
				<clipPath id="XMLID_00000039814300671240876280000002401713860457184928_">
					<use xlink:href="#XMLID_73_"  style="overflow:visible;"/>
				</clipPath>
				
					<polygon style="opacity:0.8;clip-path:url(#XMLID_00000039814300671240876280000002401713860457184928_);fill:#FFFFFF;" points="
					346.805,209.597 346.805,200.561 365.078,200.561 365.078,209.597 395.404,209.597 395.404,368.284 342.384,368.284 
					342.384,209.597 				"/>
				
					<use xlink:href="#XMLID_73_"  style="overflow:visible;fill:none;stroke:#263238;stroke-width:0.75;stroke-linecap:round;stroke-linejoin:round;stroke-miterlimit:10;"/>
			</g>
			<g>
				
					<rect x="359.511" y="221.023" transform="matrix(-1 -1.224647e-16 1.224647e-16 -1 726.852 449.8768)" style="fill:#92E3A9;" width="7.831" height="7.831"/>
				
					<rect x="370.447" y="232.832" transform="matrix(-1 -1.224647e-16 1.224647e-16 -1 748.7236 473.4951)" style="fill:#92E3A9;" width="7.831" height="7.831"/>
				
					<rect x="348.575" y="232.832" transform="matrix(-1 -1.224647e-16 1.224647e-16 -1 704.9802 473.4951)" style="fill:#92E3A9;" width="7.831" height="7.831"/>
				
					<rect x="381.382" y="244.641" transform="matrix(-1 -1.224647e-16 1.224647e-16 -1 770.5954 497.113)" style="fill:#92E3A9;" width="7.831" height="7.831"/>
				
					<rect x="359.511" y="244.641" transform="matrix(-1 -1.224647e-16 1.224647e-16 -1 726.852 497.113)" style="fill:#92E3A9;" width="7.831" height="7.831"/>
				
					<rect x="348.575" y="244.641" transform="matrix(-1 -1.224647e-16 1.224647e-16 -1 704.9802 497.113)" style="fill:#92E3A9;" width="7.831" height="7.831"/>
				
					<rect x="381.382" y="268.259" transform="matrix(-1 -1.224647e-16 1.224647e-16 -1 770.5954 544.3493)" style="fill:#92E3A9;" width="7.831" height="7.831"/>
				
					<rect x="359.511" y="268.259" transform="matrix(-1 -1.224647e-16 1.224647e-16 -1 726.852 544.3493)" style="fill:#92E3A9;" width="7.831" height="7.831"/>
				
					<rect x="370.447" y="280.069" transform="matrix(-1 -1.224647e-16 1.224647e-16 -1 748.7236 567.9678)" style="fill:#92E3A9;" width="7.831" height="7.831"/>
				
					<rect x="348.575" y="280.069" transform="matrix(-1 -1.224647e-16 1.224647e-16 -1 704.9802 567.9678)" style="fill:#92E3A9;" width="7.831" height="7.831"/>
				
					<rect x="348.575" y="291.878" transform="matrix(-1 -1.224647e-16 1.224647e-16 -1 704.9802 591.5859)" style="fill:#92E3A9;" width="7.831" height="7.831"/>
				
					<rect x="381.382" y="303.687" transform="matrix(-1 -1.224647e-16 1.224647e-16 -1 770.5954 615.2041)" style="fill:#92E3A9;" width="7.831" height="7.831"/>
				
					<rect x="370.447" y="303.687" transform="matrix(-1 -1.224647e-16 1.224647e-16 -1 748.7236 615.2041)" style="fill:#92E3A9;" width="7.831" height="7.831"/>
				
					<rect x="359.511" y="315.574" transform="matrix(-0.9999 0.0143 -0.0143 -0.9999 731.3932 633.7393)" style="fill:#92E3A9;" width="7.831" height="7.831"/>
				
					<rect x="381.382" y="327.305" transform="matrix(-1 -1.224647e-16 1.224647e-16 -1 770.5954 662.4408)" style="fill:#92E3A9;" width="7.831" height="7.831"/>
			</g>
		</g>
		<g>
			<g>
				<defs>
					<polygon id="XMLID_76_" points="289.74,237.91 289.74,233.575 278.766,233.575 256.124,221.588 256.124,233.575 
						253.518,233.575 253.518,237.91 250.749,237.91 250.749,368.284 292.509,368.284 292.509,237.91 					"/>
				</defs>
				<use xlink:href="#XMLID_76_"  style="overflow:visible;fill:#92E3A9;"/>
				<clipPath id="XMLID_00000088819188000092219010000010590446642097382275_">
					<use xlink:href="#XMLID_76_"  style="overflow:visible;"/>
				</clipPath>
				
					<polygon style="opacity:0.4;clip-path:url(#XMLID_00000088819188000092219010000010590446642097382275_);fill:#FFFFFF;" points="
					289.74,237.91 289.74,233.575 278.766,233.575 256.124,221.588 256.124,233.575 253.518,233.575 253.518,237.91 250.749,237.91 
					250.749,368.284 292.509,368.284 292.509,237.91 				"/>
				
					<use xlink:href="#XMLID_76_"  style="overflow:visible;fill:none;stroke:#263238;stroke-width:0.75;stroke-linecap:round;stroke-linejoin:round;stroke-miterlimit:10;"/>
			</g>
			<g>
				<rect x="263.266" y="243.635" style="fill:#FAFAFA;" width="6.979" height="6.979"/>
				<rect x="263.266" y="254.161" style="fill:#FAFAFA;" width="6.979" height="6.979"/>
				<rect x="253.518" y="264.686" style="fill:#FAFAFA;" width="6.979" height="6.98"/>
				<rect x="273.013" y="264.686" style="fill:#FAFAFA;" width="6.979" height="6.98"/>
				<rect x="282.76" y="264.686" style="fill:#FAFAFA;" width="6.979" height="6.98"/>
				<rect x="273.013" y="275.212" style="fill:#FAFAFA;" width="6.979" height="6.98"/>
				<rect x="263.266" y="285.738" style="fill:#FAFAFA;" width="6.979" height="6.979"/>
				<rect x="282.76" y="285.738" style="fill:#FAFAFA;" width="6.979" height="6.979"/>
				<rect x="253.518" y="296.263" style="fill:#FAFAFA;" width="6.979" height="6.979"/>
				<rect x="263.266" y="296.263" style="fill:#FAFAFA;" width="6.979" height="6.979"/>
				<rect x="273.013" y="296.263" style="fill:#FAFAFA;" width="6.979" height="6.979"/>
				<rect x="282.76" y="306.789" style="fill:#FAFAFA;" width="6.979" height="6.979"/>
				<rect x="253.518" y="317.315" style="fill:#FAFAFA;" width="6.979" height="6.979"/>
				<rect x="282.76" y="327.84" style="fill:#FAFAFA;" width="6.979" height="6.98"/>
				
					<rect x="253.52" y="338.156" transform="matrix(0.9999 0.0143 -0.0143 0.9999 4.9213 -3.6472)" style="fill:#FAFAFA;" width="6.98" height="6.98"/>
				<rect x="282.76" y="348.891" style="fill:#FAFAFA;" width="6.979" height="6.98"/>
			</g>
		</g>
	</g>
</g>
<g id="Cloud">
	<g>
		<path style="fill:none;stroke:#263238;stroke-width:0.75;stroke-linecap:round;stroke-linejoin:round;stroke-miterlimit:10;" d="
			M301.689,140.65c-4.639-2.532-6.765-0.425-8.447-2.532c-1.682-2.107,2.163-7.994-8.04-13.123
			c-4.895-2.461-0.832-11.829-18.169-12.254c-17.337-0.425-14.528,9.999-19.186,12.938c-4.658,2.939-5.915-1.701-10.572,1.257
			c-4.658,2.957-2.532,8.89-6.34,9.722c-3.807,0.832-7.024-1.848-11.681,1.017c-4.658,2.865-4.658,5.545-6.765,5.545
			c-2.107,0-6.34-1.682-8.872,0l-0.076,0.051c-1.699,1.129-0.899,3.775,1.14,3.775h96.774c2.67,0,3.969-3.25,2.042-5.099
			C303.027,141.494,302.434,141.055,301.689,140.65z"/>
		<g>
			<path style="fill:none;stroke:#263238;stroke-width:0.75;stroke-linecap:round;stroke-linejoin:round;stroke-miterlimit:10;" d="
				M238.421,138.913c-0.599,0.329-1.216,0.625-1.848,0.887"/>
			<path style="fill:none;stroke:#263238;stroke-width:0.75;stroke-linecap:round;stroke-linejoin:round;stroke-miterlimit:10;" d="
				M257.182,124.311c-0.776,3.882-2.588,6.451-4.658,6.709c-2.07,0.259-9.796-0.499-11.09,2.329
				c-0.338,0.832-0.58,1.701-0.721,2.588"/>
			<path style="fill:none;stroke:#263238;stroke-width:0.75;stroke-linecap:round;stroke-linejoin:round;stroke-miterlimit:10;" d="
				M261.303,119.154c-1.354,0.608-2.468,1.608-3.217,2.844"/>
		</g>
	</g>
	<g>
		<path style="fill:none;stroke:#263238;stroke-width:0.75;stroke-linecap:round;stroke-linejoin:round;stroke-miterlimit:10;" d="
			M424.265,111.493c-3.05-1.665-4.447-0.279-5.553-1.665c-1.106-1.385,1.422-5.255-5.285-8.627
			c-3.218-1.618-0.547-7.776-11.944-8.056c-11.397-0.279-9.55,6.573-12.612,8.505c-3.062,1.932-3.888-1.118-6.95,0.826
			c-3.062,1.944-1.665,5.844-4.168,6.391c-2.503,0.547-4.617-1.215-7.679,0.668c-3.062,1.883-3.062,3.645-4.447,3.645
			c-1.385,0-4.168-1.106-5.832,0l-0.05,0.033c-1.117,0.742-0.591,2.482,0.75,2.482h63.617c1.755,0,2.609-2.137,1.343-3.352
			C425.145,112.048,424.755,111.759,424.265,111.493z"/>
		<g>
			<path style="fill:none;stroke:#263238;stroke-width:0.75;stroke-linecap:round;stroke-linejoin:round;stroke-miterlimit:10;" d="
				M382.674,110.351c-0.394,0.216-0.8,0.411-1.215,0.583"/>
			<path style="fill:none;stroke:#263238;stroke-width:0.75;stroke-linecap:round;stroke-linejoin:round;stroke-miterlimit:10;" d="
				M395.007,100.752c-0.51,2.552-1.701,4.241-3.062,4.411c-1.361,0.17-6.44-0.328-7.29,1.531c-0.222,0.547-0.381,1.118-0.474,1.701"
				/>
			<path style="fill:none;stroke:#263238;stroke-width:0.75;stroke-linecap:round;stroke-linejoin:round;stroke-miterlimit:10;" d="
				M397.716,97.362c-0.89,0.4-1.622,1.057-2.115,1.869"/>
		</g>
	</g>
	<g>
		<path style="fill:none;stroke:#263238;stroke-width:0.75;stroke-linecap:round;stroke-linejoin:round;stroke-miterlimit:10;" d="
			M179.059,118.557c-4.38-2.391-6.387-0.401-7.975-2.391c-1.588-1.989,2.042-7.547-7.591-12.39
			c-4.622-2.323-0.785-11.168-17.153-11.569c-16.368-0.401-13.716,9.44-18.113,12.215c-4.397,2.775-5.584-1.605-9.981,1.187
			s-2.391,8.394-5.985,9.179c-3.595,0.785-6.631-1.745-11.028,0.96c-4.397,2.705-4.397,5.235-6.387,5.235
			c-1.989,0-5.985-1.588-8.376,0l-0.072,0.048c-1.604,1.066-0.849,3.564,1.076,3.564h91.365c2.521,0,3.747-3.069,1.928-4.814
			C180.322,119.354,179.762,118.939,179.059,118.557z"/>
		<g>
			<path style="fill:none;stroke:#263238;stroke-width:0.75;stroke-linecap:round;stroke-linejoin:round;stroke-miterlimit:10;" d="
				M119.327,116.916c-0.566,0.311-1.149,0.59-1.745,0.838"/>
			<path style="fill:none;stroke:#263238;stroke-width:0.75;stroke-linecap:round;stroke-linejoin:round;stroke-miterlimit:10;" d="
				M137.039,103.131c-0.733,3.665-2.443,6.09-4.397,6.334c-1.954,0.244-9.248-0.471-10.47,2.199
				c-0.319,0.786-0.547,1.605-0.681,2.443"/>
			<path style="fill:none;stroke:#263238;stroke-width:0.75;stroke-linecap:round;stroke-linejoin:round;stroke-miterlimit:10;" d="
				M140.93,98.262c-1.278,0.574-2.33,1.518-3.038,2.685"/>
		</g>
	</g>
</g>
<g id="Tree">
	<g>
		<g>
			<defs>
				<path id="XMLID_71_" d="M54.071,181.536c1.899,2.15,5.39,0.865,5.39,0.865c-1.587,1.228-1.782,3.553-1.782,3.553
					c2.09,1.244,5.068-0.478,5.068-0.478c-1.258,2.367-0.301,4.764-0.301,4.764c2.985-0.104,4.535-3.939,4.535-3.939
					c-0.976,2.831,0.895,4.631,0.895,4.631c2.358-0.116,3.53-3.637,3.53-3.637c0.512,3.449,2.075,4.556,2.075,4.556
					c2.953-1.537,2.956-5.549,2.956-5.549c0.212,3.045,2.416,4.293,2.416,4.293c0.984-1.069,1.441-2.211,1.621-3.262
					c0.857,0.354,1.877,0.252,2.716,0.048c0.385,0.18,0.732,0.298,1,0.371c-1.369,2.271-1.12,3.743-1.12,3.743
					c3.175,1.001,6.014-1.834,6.014-1.834c-2.003,2.303-1.328,4.744-1.328,4.744c3.062-0.126,4.718-2.124,5.435-3.305
					c-1.29,3.01,0.64,5.525,0.64,5.525c3.74-1.924,4.211-5.821,4.211-5.821s0.043,2.661,2.317,3.897
					c1.85-1.444,1.824-4.663,1.824-4.663c1.28,2.686,2.686,3.142,2.686,3.142c1.603-1.4,1.166-5.169,1.166-5.169
					c0.849,2.281,2.654,2.566,2.654,2.566c2.148-2.376,0.792-5.607,0.792-5.607c1.869,1.844,3.75,1.318,3.75,1.318
					c1.197-2.021-1.115-4.967-1.115-4.967c2.407,1.026,4.764-0.304,4.764-0.304v-5.474c-0.589-2.186-4.054-3.041-4.054-3.041
					c2.8-0.342,4.257-2.635,4.257-2.635c-1.647-2.306-5.879-2.23-5.879-2.23c2.445-0.418,3.953-2.939,3.953-2.939
					c-2.857-2.325-7.197-0.305-7.197-0.305c3.238-1.83,3.751-5.169,3.751-5.169c-3.079-1.318-6.893,2.027-6.893,2.027
					s2.382-3.396,1.571-5.625c0,0-1.403-0.023-3.156,1.745c-0.195-0.309-0.582-0.771-1.319-1.24
					c-0.039-0.356-0.108-0.705-0.216-1.028c0.959-0.294,2.223-0.897,3.054-2.127c0,0-0.743-1.814-4.756-1.814
					c0,0,3.6-0.632,4.756-3.247c-1.639-1.29-4.828-0.788-4.828-0.788c2.078-0.43,3.225-2.294,3.225-2.294
					c-1.792-0.788-4.229-0.502-4.229-0.502c2.795-0.932,3.584-2.795,3.584-2.795c-2.938-1.004-5.304,0.072-5.304,0.072
					c3.082-2.15,3.01-4.659,3.01-4.659c-3.01-0.502-5.447,1.72-5.447,1.72c2.007-3.297,1.29-5.16,1.29-5.16
					c-2.078-0.143-4.229,3.225-4.229,3.225c0.932-4.3-0.717-5.877-0.717-5.877c-2.15,1.003-2.867,5.089-2.867,5.089
					s-0.331-5.062-3.44-6.307c0,0-1.998,2.724-1.003,6.307c0,0-1.64-4.497-5.305-4.874c0,0-0.717,2.849,0.717,4.874
					c0,0-2.938-3.046-5.734-2.58c0,0-0.591,2.652,1.147,4.874c0,0-3.055-1.846-5.017-0.717c0,0-0.215,2.499,1.863,3.87
					c0,0-3.207-1.72-5.734,0c0,0,0.726,2.607,3.154,3.584c0,0-3.718,0.448-4.3,2.724c0,0,0.959,1.702,3.584,1.72
					c0,0-1.283,0.526-2.275,1.712c-0.357-0.486-0.782-0.898-1.29-1.134c0,0-1.648,1.577-0.717,5.877c0,0-2.15-3.368-4.229-3.225
					c0,0-0.717,1.864,1.29,5.161c0,0-2.437-2.222-5.447-1.72c0,0-0.072,2.509,3.01,4.659c0,0-2.365-1.075-5.304-0.072
					c0,0,0.788,1.863,3.584,2.795c0,0-2.437-0.287-4.229,0.502c0,0,1.147,1.863,3.225,2.293c0,0-3.189-0.502-4.828,0.788
					c1.157,2.616,4.757,3.247,4.757,3.247c-4.014,0-4.757,1.815-4.757,1.815c1.495,2.213,4.394,2.4,4.394,2.4
					c-2.68,0.986-3.061,2.368-3.061,2.368L54.071,181.536z"/>
			</defs>
			<use xlink:href="#XMLID_71_"  style="overflow:visible;fill:#92E3A9;"/>
			<clipPath id="XMLID_00000142878070584378219950000002883843181918077324_">
				<use xlink:href="#XMLID_71_"  style="overflow:visible;"/>
			</clipPath>
			<path style="opacity:0.2;clip-path:url(#XMLID_00000142878070584378219950000002883843181918077324_);" d="M113.973,196.664
				c-1.899,2.15-5.39,0.865-5.39,0.865c1.587,1.228,1.782,3.553,1.782,3.553c-2.09,1.244-5.068-0.477-5.068-0.477
				c1.258,2.367,0.301,4.764,0.301,4.764c-2.985-0.104-4.535-3.939-4.535-3.939c0.976,2.831-0.895,4.631-0.895,4.631
				c-2.358-0.116-3.529-3.637-3.529-3.637c-0.512,3.449-2.076,4.556-2.076,4.556c-2.953-1.537-2.956-5.549-2.956-5.549
				c-0.212,3.045-2.415,4.293-2.415,4.293c-0.984-1.069-1.441-2.211-1.621-3.262c-0.857,0.354-1.877,0.252-2.716,0.048
				c-0.385,0.18-0.732,0.297-1,0.371c1.369,2.271,1.12,3.743,1.12,3.743c-3.175,1.001-6.014-1.834-6.014-1.834
				c2.003,2.303,1.328,4.744,1.328,4.744c-3.062-0.126-4.718-2.123-5.435-3.305c1.29,3.01-0.64,5.525-0.64,5.525
				c-3.74-1.924-4.211-5.821-4.211-5.821s-0.043,2.661-2.317,3.897c-1.85-1.444-1.824-4.663-1.824-4.663
				c-1.28,2.686-2.686,3.142-2.686,3.142c-1.603-1.4-1.166-5.17-1.166-5.17c-0.849,2.281-2.654,2.566-2.654,2.566
				c-2.147-2.376-0.792-5.606-0.792-5.606c-1.869,1.844-3.75,1.318-3.75,1.318c-1.197-2.021,1.115-4.967,1.115-4.967
				c-2.407,1.026-4.764-0.304-4.764-0.304v-5.473c0.589-2.186,4.055-3.041,4.055-3.041c-2.8-0.342-4.257-2.635-4.257-2.635
				c1.647-2.306,5.879-2.23,5.879-2.23c-2.445-0.418-3.953-2.939-3.953-2.939c2.857-2.325,7.197-0.304,7.197-0.304
				c-3.238-1.83-3.751-5.169-3.751-5.169c3.079-1.318,6.893,2.027,6.893,2.027s-2.382-3.396-1.571-5.625
				c0,0,1.403-0.023,3.156,1.745c0.195-0.309,0.582-0.771,1.319-1.24c0.039-0.356,0.108-0.705,0.216-1.028
				c-0.959-0.294-2.223-0.897-3.054-2.127c0,0,0.743-1.814,4.756-1.814c0,0-3.6-0.631-4.756-3.247
				c1.639-1.29,4.828-0.788,4.828-0.788c-2.078-0.43-3.225-2.293-3.225-2.293c1.792-0.788,4.229-0.502,4.229-0.502
				c-2.795-0.932-3.584-2.795-3.584-2.795c2.939-1.003,5.304,0.072,5.304,0.072c-3.082-2.15-3.01-4.659-3.01-4.659
				c3.01-0.502,5.447,1.72,5.447,1.72c-2.007-3.297-1.29-5.16-1.29-5.16c2.078-0.143,4.229,3.225,4.229,3.225
				c-0.932-4.3,0.717-5.877,0.717-5.877c2.15,1.003,2.867,5.089,2.867,5.089s0.331-5.062,3.44-6.307c0,0,1.998,2.723,1.003,6.307
				c0,0,1.64-4.497,5.304-4.874c0,0,0.717,2.849-0.717,4.874c0,0,2.939-3.046,5.734-2.58c0,0,0.591,2.652-1.147,4.874
				c0,0,3.055-1.846,5.017-0.717c0,0,0.215,2.5-1.863,3.87c0,0,3.207-1.72,5.734,0c0,0-0.726,2.607-3.153,3.584
				c0,0,3.718,0.448,4.3,2.724c0,0-0.959,1.702-3.584,1.72c0,0,1.283,0.526,2.275,1.712c0.357-0.486,0.782-0.898,1.29-1.135
				c0,0,1.648,1.577,0.717,5.877c0,0,2.15-3.368,4.229-3.225c0,0,0.717,1.863-1.29,5.16c0,0,2.437-2.222,5.447-1.72
				c0,0,0.072,2.508-3.01,4.659c0,0,2.365-1.075,5.304-0.072c0,0-0.788,1.863-3.584,2.795c0,0,2.437-0.287,4.229,0.502
				c0,0-1.147,1.863-3.225,2.293c0,0,3.189-0.502,4.828,0.788c-1.157,2.616-4.757,3.247-4.757,3.247
				c4.014,0,4.757,1.814,4.757,1.814c-1.495,2.213-4.394,2.4-4.394,2.4c2.68,0.986,3.061,2.368,3.061,2.368L113.973,196.664z"/>
		</g>
		
			<path style="fill:#999999;stroke:#263238;stroke-width:0.75;stroke-linecap:round;stroke-linejoin:round;stroke-miterlimit:10;" d="
			M75.775,183.708c5.199,7.166,9.523,21.934,9.319,35.688h6.96c-0.401-7.9-3.606-15.415-2.901-19.779
			c0.502-3.104,4.514-11.74,4.514-11.74l8.304-12.009l-1.063-0.027l-7.475,8.891l0.692-11.27l-0.893-0.09
			c-0.201,2.634-1.214,10.189-2.097,12.906c-0.957,2.947-5.313,10.879-5.313,10.879s-6.579-12.355-6.941-14.1
			c-0.384-1.851,0.68-7.093,1.129-8.995l-0.944,0l-2.088,8.165l-7.416-5.975l-1.357,0.387
			C70.485,177.952,74.138,181.453,75.775,183.708z"/>
		<g>
			<defs>
				<path id="XMLID_72_" d="M124.824,245.059c0.084-0.261,0.149-0.517,0.207-0.77c0.321-0.136,0.497-0.263,0.497-0.263
					c-0.026-0.519-0.126-0.992-0.27-1.43c0.075-1.943-0.485-3.559-0.998-4.612c0.226-0.128,0.423-0.262,0.593-0.396
					c0.94,0.468,2.287,0.851,3.823,0.396c0.339-2.757-2.376-5.429-2.376-5.429c3.319,1.177,4.878,0.382,4.878,0.382
					c0.17-2.513-3.351-5.302-3.351-5.302c2.619,1.198,4.369-0.074,4.369-0.074c-0.191-3.786-4.03-5.355-4.03-5.355
					c3.107-0.021,4.242-2.036,4.242-2.036c-0.689-2.694-5.09-3.224-5.09-3.224c2.874-1.156,3.733-4.242,3.733-4.242
					c-2.99-2.036-6.787,0-6.787,0c2.46-1.622,2.206-4.581,2.206-4.581c-2.323-1.336-5.939,0.848-5.939,0.848
					c2.057-2.63,1.357-5.769,1.357-5.769c-3.309-0.551-6.787,3.054-6.787,3.054c1.697-2.397,0.848-5.769,0.848-5.769
					c-4.337,0.445-6.279,5.769-6.279,5.769c1.178-4.242-1.187-7.466-1.187-7.466c-3.68,1.474-4.072,7.466-4.072,7.466
					s-0.848-4.836-3.394-6.023c0,0-1.951,1.866-0.848,6.957c0,0-2.545-3.987-5.005-3.818c0,0-0.848,2.206,1.527,6.108
					c0,0-2.884-2.63-6.448-2.036c0,0-0.085,2.969,3.563,5.514c0,0-2.8-1.273-6.278-0.085c0,0,0.355,0.834,1.395,1.732
					c-0.741,0.617-1.34,1.344-1.802,2.03c-0.121,0.044-0.24,0.09-0.357,0.141c0,0,0.047,0.075,0.136,0.2
					c-0.049,0.078-0.102,0.158-0.147,0.234c-0.18-0.087-0.361-0.164-0.543-0.233c0.159-3.235-1.498-5.507-1.498-5.507
					c-2.288,0.917-3.305,3.579-3.747,5.463c-0.285,0.081-0.549,0.164-0.782,0.248c-0.039-0.121-0.079-0.243-0.124-0.369
					c1.983-2.075,1.742-4.897,1.742-4.897c-2.918-1.679-7.462,1.066-7.462,1.066c2.585-3.305,1.706-7.249,1.706-7.249
					c-4.158-0.693-8.528,3.838-8.528,3.838c2.132-3.012,1.066-7.249,1.066-7.249c-5.45,0.56-7.89,7.249-7.89,7.249
					c1.48-5.33-1.491-9.381-1.491-9.381c-4.624,1.852-5.117,9.381-5.117,9.381s-1.066-6.076-4.264-7.569
					c0,0-2.452,2.345-1.066,8.742c0,0-3.198-5.01-6.29-4.797c0,0-1.066,2.772,1.919,7.675c0,0-3.625-3.305-8.102-2.559
					c0,0-0.107,3.731,4.477,6.929c0,0-3.518-1.599-7.889-0.107c0,0,1.173,2.772,5.33,4.158c0,0-3.625-0.426-6.29,0.746
					c0,0,1.706,2.772,4.797,3.411c0,0-4.744-0.746-7.181,1.173c1.72,3.891,7.075,4.83,7.075,4.83c-5.97,0-7.075,2.699-7.075,2.699
					c2.224,3.291,6.536,3.57,6.536,3.57c-3.987,1.467-4.553,3.523-4.553,3.523l2.64,6.913c2.825,3.198,8.017,1.286,8.017,1.286
					c-2.361,1.827-2.65,5.285-2.65,5.285c3.108,1.85,7.538-0.71,7.538-0.71c-1.871,3.52-0.448,7.086-0.448,7.086
					c4.44-0.155,6.745-5.858,6.745-5.858c-1.452,4.211,1.331,6.889,1.331,6.889c3.507-0.172,5.25-5.41,5.25-5.41
					c0.762,5.131,3.087,6.777,3.087,6.777c4.392-2.286,4.397-8.254,4.397-8.254c0.315,4.529,3.593,6.386,3.593,6.386
					c2.113-2.295,2.611-4.821,2.559-6.829c0.323-0.112,0.609-0.228,0.84-0.332c0.105,0.133,0.216,0.253,0.326,0.375
					c-0.993,2.558-0.045,4.947-0.045,4.947c1.803-0.063,3.16-1.275,4.061-2.447c0.593,0.178,0.983,0.231,0.983,0.231
					c0.006-0.019,0.009-0.037,0.015-0.057c0.176,1.939,1.367,3.093,1.367,3.093c2.791-0.137,4.178-4.305,4.178-4.305
					c0.606,4.083,2.457,5.393,2.457,5.393c1.376-0.716,2.206-1.887,2.713-3.043c0.802-0.258,1.404-0.566,1.604-0.675
					c0.01,0.019,0.021,0.037,0.032,0.056c-1.411,2.769-0.31,5.54-0.31,5.54c3.534-0.123,5.368-4.662,5.368-4.662
					c-1.155,3.351,1.059,5.482,1.059,5.482c2.791-0.137,4.178-4.305,4.178-4.305c0.606,4.083,2.457,5.393,2.457,5.393
					c3.495-1.819,3.499-6.569,3.499-6.569c0.251,3.604,2.859,5.082,2.859,5.082c2.457-2.668,2.172-5.726,1.784-7.315
					c1.439,3.599,5.159,4.089,5.159,4.089c1.52-4.741-1.348-8.397-1.348-8.397s2.263,2.192,5.201,1.322
					c0.339-2.757-2.376-5.43-2.376-5.43c3.319,1.177,4.878,0.382,4.878,0.382L124.824,245.059z"/>
			</defs>
			<use xlink:href="#XMLID_72_"  style="overflow:visible;fill:#92E3A9;"/>
			<clipPath id="XMLID_00000003069769983470566240000011067809690580914852_">
				<use xlink:href="#XMLID_72_"  style="overflow:visible;"/>
			</clipPath>
			<path style="opacity:0.3;clip-path:url(#XMLID_00000003069769983470566240000011067809690580914852_);fill:#FFFFFF;" d="
				M124.824,245.059c0.084-0.261,0.149-0.517,0.207-0.77c0.321-0.136,0.497-0.263,0.497-0.263c-0.026-0.519-0.126-0.992-0.27-1.43
				c0.075-1.943-0.485-3.559-0.998-4.612c0.226-0.128,0.423-0.262,0.593-0.396c0.94,0.468,2.287,0.851,3.823,0.396
				c0.339-2.757-2.376-5.429-2.376-5.429c3.319,1.177,4.878,0.382,4.878,0.382c0.17-2.513-3.351-5.302-3.351-5.302
				c2.619,1.198,4.369-0.074,4.369-0.074c-0.191-3.786-4.03-5.355-4.03-5.355c3.107-0.021,4.242-2.036,4.242-2.036
				c-0.689-2.694-5.09-3.224-5.09-3.224c2.874-1.156,3.733-4.242,3.733-4.242c-2.99-2.036-6.787,0-6.787,0
				c2.46-1.622,2.206-4.581,2.206-4.581c-2.323-1.336-5.939,0.848-5.939,0.848c2.057-2.63,1.357-5.769,1.357-5.769
				c-3.309-0.551-6.787,3.054-6.787,3.054c1.697-2.397,0.848-5.769,0.848-5.769c-4.337,0.445-6.279,5.769-6.279,5.769
				c1.178-4.242-1.187-7.466-1.187-7.466c-3.68,1.474-4.072,7.466-4.072,7.466s-0.848-4.836-3.394-6.023
				c0,0-1.951,1.866-0.848,6.957c0,0-2.545-3.987-5.005-3.818c0,0-0.848,2.206,1.527,6.108c0,0-2.884-2.63-6.448-2.036
				c0,0-0.085,2.969,3.563,5.514c0,0-2.8-1.273-6.278-0.085c0,0,0.355,0.834,1.395,1.732c-0.741,0.617-1.34,1.344-1.802,2.03
				c-0.121,0.044-0.24,0.09-0.357,0.141c0,0,0.047,0.075,0.136,0.2c-0.049,0.078-0.102,0.158-0.147,0.234
				c-0.18-0.087-0.361-0.164-0.543-0.233c0.159-3.235-1.498-5.507-1.498-5.507c-2.288,0.917-3.305,3.579-3.747,5.463
				c-0.285,0.081-0.549,0.164-0.782,0.248c-0.039-0.121-0.079-0.243-0.124-0.369c1.983-2.075,1.742-4.897,1.742-4.897
				c-2.918-1.679-7.462,1.066-7.462,1.066c2.585-3.305,1.706-7.249,1.706-7.249c-4.158-0.693-8.528,3.838-8.528,3.838
				c2.132-3.012,1.066-7.249,1.066-7.249c-5.45,0.56-7.89,7.249-7.89,7.249c1.48-5.33-1.491-9.381-1.491-9.381
				c-4.624,1.852-5.117,9.381-5.117,9.381s-1.066-6.076-4.264-7.569c0,0-2.452,2.345-1.066,8.742c0,0-3.198-5.01-6.29-4.797
				c0,0-1.066,2.772,1.919,7.675c0,0-3.625-3.305-8.102-2.559c0,0-0.107,3.731,4.477,6.929c0,0-3.518-1.599-7.889-0.107
				c0,0,1.173,2.772,5.33,4.158c0,0-3.625-0.426-6.29,0.746c0,0,1.706,2.772,4.797,3.411c0,0-4.744-0.746-7.181,1.173
				c1.72,3.891,7.075,4.83,7.075,4.83c-5.97,0-7.075,2.699-7.075,2.699c2.224,3.291,6.536,3.57,6.536,3.57
				c-3.987,1.467-4.553,3.523-4.553,3.523l2.64,6.913c2.825,3.198,8.017,1.286,8.017,1.286c-2.361,1.827-2.65,5.285-2.65,5.285
				c3.108,1.85,7.538-0.71,7.538-0.71c-1.871,3.52-0.448,7.086-0.448,7.086c4.44-0.155,6.745-5.858,6.745-5.858
				c-1.452,4.211,1.331,6.889,1.331,6.889c3.507-0.172,5.25-5.41,5.25-5.41c0.762,5.131,3.087,6.777,3.087,6.777
				c4.392-2.286,4.397-8.254,4.397-8.254c0.315,4.529,3.593,6.386,3.593,6.386c2.113-2.295,2.611-4.821,2.559-6.829
				c0.323-0.112,0.609-0.228,0.84-0.332c0.105,0.133,0.216,0.253,0.326,0.375c-0.993,2.558-0.045,4.947-0.045,4.947
				c1.803-0.063,3.16-1.275,4.061-2.447c0.593,0.178,0.983,0.231,0.983,0.231c0.006-0.019,0.009-0.037,0.015-0.057
				c0.176,1.939,1.367,3.093,1.367,3.093c2.791-0.137,4.178-4.305,4.178-4.305c0.606,4.083,2.457,5.393,2.457,5.393
				c1.376-0.716,2.206-1.887,2.713-3.043c0.802-0.258,1.404-0.566,1.604-0.675c0.01,0.019,0.021,0.037,0.032,0.056
				c-1.411,2.769-0.31,5.54-0.31,5.54c3.534-0.123,5.368-4.662,5.368-4.662c-1.155,3.351,1.059,5.482,1.059,5.482
				c2.791-0.137,4.178-4.305,4.178-4.305c0.606,4.083,2.457,5.393,2.457,5.393c3.495-1.819,3.499-6.569,3.499-6.569
				c0.251,3.604,2.859,5.082,2.859,5.082c2.457-2.668,2.172-5.726,1.784-7.315c1.439,3.599,5.159,4.089,5.159,4.089
				c1.52-4.741-1.348-8.397-1.348-8.397s2.263,2.192,5.201,1.322c0.339-2.757-2.376-5.43-2.376-5.43
				c3.319,1.177,4.878,0.382,4.878,0.382L124.824,245.059z"/>
			<path style="opacity:0.2;clip-path:url(#XMLID_00000003069769983470566240000011067809690580914852_);" d="M130.728,265.666
				c0.084-0.261,0.149-0.517,0.207-0.77c0.321-0.136,0.497-0.263,0.497-0.263c-0.026-0.519-0.126-0.992-0.269-1.43
				c0.075-1.943-0.485-3.559-0.998-4.612c0.226-0.128,0.423-0.262,0.593-0.396c0.94,0.468,2.287,0.851,3.823,0.397
				c0.339-2.757-2.376-5.43-2.376-5.43c3.319,1.177,4.878,0.382,4.878,0.382c0.17-2.513-3.351-5.302-3.351-5.302
				c2.619,1.198,4.369-0.074,4.369-0.074c-0.191-3.786-4.03-5.355-4.03-5.355c3.107-0.021,4.242-2.036,4.242-2.036
				c-0.689-2.693-5.09-3.224-5.09-3.224c2.874-1.156,3.733-4.242,3.733-4.242c-2.99-2.036-6.787,0-6.787,0
				c2.46-1.622,2.206-4.581,2.206-4.581c-2.322-1.336-5.939,0.848-5.939,0.848c2.057-2.63,1.357-5.769,1.357-5.769
				c-3.309-0.551-6.787,3.054-6.787,3.054c1.697-2.397,0.848-5.769,0.848-5.769c-4.337,0.445-6.279,5.769-6.279,5.769
				c1.178-4.242-1.187-7.466-1.187-7.466c-3.68,1.474-4.072,7.466-4.072,7.466s-0.848-4.836-3.394-6.023
				c0,0-1.951,1.866-0.848,6.957c0,0-2.545-3.987-5.005-3.818c0,0-0.848,2.206,1.527,6.108c0,0-2.884-2.63-6.448-2.036
				c0,0-0.085,2.969,3.563,5.514c0,0-2.8-1.273-6.278-0.085c0,0,0.355,0.834,1.395,1.732c-0.741,0.617-1.34,1.344-1.802,2.03
				c-0.121,0.044-0.24,0.09-0.357,0.141c0,0,0.047,0.075,0.136,0.2c-0.049,0.078-0.102,0.158-0.147,0.234
				c-0.18-0.087-0.361-0.165-0.543-0.233c0.159-3.235-1.498-5.507-1.498-5.507c-2.288,0.917-3.305,3.579-3.747,5.463
				c-0.285,0.081-0.549,0.164-0.782,0.248c-0.039-0.121-0.079-0.242-0.124-0.369c1.983-2.075,1.742-4.897,1.742-4.897
				c-2.918-1.679-7.462,1.066-7.462,1.066c2.585-3.305,1.706-7.249,1.706-7.249c-4.158-0.693-8.528,3.838-8.528,3.838
				c2.132-3.012,1.066-7.249,1.066-7.249c-5.45,0.56-7.89,7.249-7.89,7.249c1.48-5.33-1.491-9.381-1.491-9.381
				c-4.624,1.852-5.117,9.381-5.117,9.381s-1.066-6.077-4.264-7.569c0,0-2.452,2.345-1.066,8.742c0,0-3.198-5.01-6.29-4.797
				c0,0-1.066,2.772,1.919,7.675c0,0-3.625-3.305-8.102-2.558c0,0-0.107,3.731,4.477,6.929c0,0-3.518-1.599-7.889-0.107
				c0,0,1.173,2.772,5.33,4.158c0,0-3.625-0.426-6.29,0.746c0,0,1.706,2.772,4.797,3.411c0,0-4.744-0.746-7.181,1.173
				c1.72,3.891,7.075,4.83,7.075,4.83c-5.97,0-7.075,2.699-7.075,2.699c2.224,3.291,6.536,3.57,6.536,3.57
				c-3.987,1.467-4.553,3.523-4.553,3.523l2.64,6.913c2.825,3.198,8.017,1.286,8.017,1.286c-2.361,1.827-2.65,5.285-2.65,5.285
				c3.108,1.85,7.538-0.71,7.538-0.71c-1.871,3.52-0.448,7.086-0.448,7.086c4.44-0.155,6.745-5.858,6.745-5.858
				c-1.452,4.211,1.331,6.889,1.331,6.889c3.507-0.172,5.25-5.41,5.25-5.41c0.762,5.131,3.087,6.777,3.087,6.777
				c4.392-2.286,4.397-8.254,4.397-8.254c0.315,4.529,3.593,6.386,3.593,6.386c2.113-2.295,2.611-4.822,2.559-6.829
				c0.323-0.112,0.609-0.228,0.84-0.332c0.105,0.133,0.216,0.253,0.326,0.375c-0.993,2.558-0.045,4.948-0.045,4.948
				c1.803-0.063,3.161-1.275,4.061-2.447c0.593,0.177,0.984,0.231,0.984,0.231c0.006-0.019,0.009-0.037,0.015-0.056
				c0.176,1.939,1.367,3.093,1.367,3.093c2.791-0.137,4.178-4.305,4.178-4.305c0.606,4.083,2.457,5.393,2.457,5.393
				c1.376-0.717,2.206-1.887,2.713-3.043c0.802-0.258,1.404-0.566,1.604-0.675c0.011,0.019,0.022,0.037,0.032,0.055
				c-1.411,2.769-0.31,5.54-0.31,5.54c3.534-0.123,5.368-4.662,5.368-4.662c-1.155,3.351,1.059,5.482,1.059,5.482
				c2.791-0.137,4.178-4.305,4.178-4.305c0.606,4.083,2.456,5.393,2.456,5.393c3.495-1.819,3.499-6.569,3.499-6.569
				c0.251,3.604,2.859,5.082,2.859,5.082c2.457-2.668,2.172-5.726,1.784-7.315c1.439,3.599,5.159,4.089,5.159,4.089
				c1.52-4.741-1.348-8.397-1.348-8.397s2.263,2.192,5.201,1.322c0.339-2.757-2.376-5.43-2.376-5.43
				c3.319,1.177,4.878,0.382,4.878,0.382L130.728,265.666z"/>
		</g>
		
			<path style="fill:#A8ADAF;stroke:#263238;stroke-width:0.75;stroke-linecap:round;stroke-linejoin:round;stroke-miterlimit:10;" d="
			M113.156,246.795c-3.792,2.179-9.866,7.999-12.586,11.749c-18.593,25.626-6.427,109.74-6.427,109.74H74.46
			c0,0,7.196-62.712,3.868-83.289c-0.834-5.16-7.504-19.518-7.504-19.518l-13.806-19.966l1.768-0.045l12.427,14.782l-1.151-18.737
			l1.485-0.15c0.334,4.379,2.019,16.94,3.487,21.458c1.592,4.899,9.872,18.087,9.872,18.087s9.9-20.541,10.502-23.441
			c0.638-3.077-1.131-11.793-1.877-14.955l1.569,0l3.471,13.576l12.329-9.933L113.156,246.795z"/>
	</g>
</g>
<g id="Bridge">
	<g>
		
			<path style="fill:#92E3A9;stroke:#263238;stroke-width:0.75;stroke-linecap:round;stroke-linejoin:round;stroke-miterlimit:10;" d="
			M269.612,340.401c16.146,0,29.465,12.061,31.465,27.662h0.269c0-17.526-14.208-31.734-31.734-31.734
			c-17.526,0-31.734,14.208-31.734,31.734h0.269C240.147,352.461,253.467,340.401,269.612,340.401z"/>
		<g>
			<defs>
				<path id="XMLID_12_" d="M269.612,336.549c17.526,0,31.734,14.208,31.734,31.734h159.488v-5.74
					c0-6.322-5.022-11.496-11.341-11.685c-12.461-0.372-93.867-2.012-103.668-8.358c-20.22-13.092-50.564-37.29-76.213-37.29
					s-55.993,24.198-76.213,37.29c-9.8,6.346-130.431,7.986-142.892,8.358c-6.319,0.189-11.341,5.363-11.341,11.685v5.74h198.713
					C237.878,350.757,252.086,336.549,269.612,336.549z"/>
			</defs>
			<use xlink:href="#XMLID_12_"  style="overflow:visible;fill:#92E3A9;"/>
			<clipPath id="XMLID_00000127035288671709121160000001935585394778326439_">
				<use xlink:href="#XMLID_12_"  style="overflow:visible;"/>
			</clipPath>
			
				<path id="XMLID_9_" style="opacity:0.6;clip-path:url(#XMLID_00000127035288671709121160000001935585394778326439_);fill:#FFFFFF;" d="
				M269.612,336.549c17.526,0,31.734,14.208,31.734,31.734h159.488v-5.74c0-6.322-5.022-11.496-11.341-11.685
				c-12.461-0.372-93.867-2.012-103.668-8.358c-20.22-13.092-50.564-37.29-76.213-37.29s-55.993,24.198-76.213,37.29
				c-9.8,6.346-130.431,7.986-142.892,8.358c-6.319,0.189-11.341,5.363-11.341,11.685v5.74h198.713
				C237.878,350.757,252.086,336.549,269.612,336.549z"/>
			
				<use xlink:href="#XMLID_12_"  style="overflow:visible;fill:none;stroke:#263238;stroke-width:0.75;stroke-linecap:round;stroke-linejoin:round;stroke-miterlimit:10;"/>
		</g>
		<g>
			<path style="fill:#FFFFFF;" d="M226.659,335.425h-5.262c-0.519,0-0.972,0.349-1.104,0.851l-0.234,0.889
				c-0.193,0.734,0.37,1.449,1.129,1.432l5.652-0.126c0.712-0.016,1.236-0.672,1.093-1.37l-0.156-0.763
				C227.668,335.807,227.201,335.425,226.659,335.425z"/>
			<path style="fill:#FFFFFF;" d="M232.113,331.531h-5.262c-0.519,0-0.972,0.349-1.104,0.851l-0.234,0.889
				c-0.193,0.734,0.37,1.449,1.129,1.432l5.652-0.126c0.712-0.016,1.236-0.672,1.093-1.37l-0.156-0.763
				C233.123,331.912,232.656,331.531,232.113,331.531z"/>
			<path style="fill:#FFFFFF;" d="M236.081,335.425h-5.262c-0.518,0-0.972,0.349-1.104,0.851l-0.234,0.889
				c-0.193,0.734,0.37,1.449,1.129,1.432l5.652-0.126c0.712-0.016,1.236-0.672,1.093-1.37l-0.156-0.763
				C237.091,335.807,236.624,335.425,236.081,335.425z"/>
		</g>
		<g>
			<path style="fill:#FFFFFF;" d="M371.138,358.974h-5.262c-0.518,0-0.972,0.349-1.104,0.851l-0.234,0.889
				c-0.193,0.734,0.37,1.449,1.129,1.432l5.652-0.126c0.712-0.016,1.236-0.672,1.093-1.37l-0.156-0.763
				C372.148,359.356,371.68,358.974,371.138,358.974z"/>
			<path style="fill:#FFFFFF;" d="M376.592,355.079h-5.262c-0.518,0-0.972,0.349-1.104,0.851l-0.234,0.889
				c-0.193,0.734,0.37,1.449,1.129,1.432l5.652-0.126c0.712-0.016,1.236-0.672,1.093-1.37l-0.156-0.763
				C377.602,355.461,377.135,355.079,376.592,355.079z"/>
			<path style="fill:#FFFFFF;" d="M380.56,358.974h-5.262c-0.518,0-0.972,0.349-1.104,0.851l-0.234,0.889
				c-0.193,0.734,0.37,1.449,1.129,1.432l5.652-0.126c0.712-0.016,1.235-0.672,1.093-1.37l-0.156-0.763
				C381.57,359.356,381.103,358.974,380.56,358.974z"/>
		</g>
		<g>
			<path style="fill:#FFFFFF;" d="M309.8,339.22h-5.262c-0.518,0-0.972,0.349-1.104,0.851l-0.234,0.889
				c-0.193,0.734,0.37,1.449,1.129,1.432l5.652-0.126c0.712-0.016,1.236-0.672,1.093-1.37l-0.156-0.763
				C310.81,339.602,310.343,339.22,309.8,339.22z"/>
			<path style="fill:#FFFFFF;" d="M315.398,334.803h-5.262c-0.518,0-0.972,0.349-1.104,0.851l-0.234,0.889
				c-0.193,0.734,0.37,1.449,1.129,1.432l5.652-0.126c0.712-0.016,1.236-0.672,1.093-1.37l-0.156-0.763
				C316.408,335.185,315.941,334.803,315.398,334.803z"/>
			<path style="fill:#FFFFFF;" d="M306.68,334.803h-5.262c-0.518,0-0.972,0.349-1.104,0.851l-0.234,0.889
				c-0.193,0.734,0.37,1.449,1.129,1.432l5.652-0.126c0.712-0.016,1.236-0.672,1.093-1.37l-0.156-0.763
				C307.69,335.185,307.223,334.803,306.68,334.803z"/>
		</g>
		<g>
			<path style="fill:#FFFFFF;" d="M69.17,360.407h-5.262c-0.518,0-0.972,0.349-1.104,0.851l-0.234,0.889
				c-0.193,0.734,0.371,1.449,1.129,1.432l5.652-0.126c0.712-0.016,1.236-0.672,1.093-1.37l-0.156-0.763
				C70.18,360.789,69.713,360.407,69.17,360.407z"/>
			<path style="fill:#FFFFFF;" d="M60.056,360.407h-5.262c-0.519,0-0.972,0.349-1.104,0.851l-0.234,0.889
				c-0.193,0.734,0.37,1.449,1.129,1.432l5.652-0.126c0.712-0.016,1.236-0.672,1.093-1.37l-0.156-0.763
				C61.065,360.789,60.598,360.407,60.056,360.407z"/>
			<path style="fill:#FFFFFF;" d="M72.112,355.99H66.85c-0.519,0-0.972,0.35-1.104,0.851l-0.234,0.889
				c-0.193,0.734,0.37,1.449,1.129,1.432l5.652-0.126c0.712-0.016,1.236-0.673,1.093-1.37l-0.156-0.763
				C73.121,356.372,72.654,355.99,72.112,355.99z"/>
			<path style="fill:#FFFFFF;" d="M63.394,355.99h-5.262c-0.518,0-0.972,0.35-1.104,0.851l-0.234,0.889
				c-0.193,0.734,0.37,1.449,1.129,1.432l5.652-0.126c0.712-0.016,1.236-0.673,1.093-1.37l-0.156-0.763
				C64.403,356.372,63.936,355.99,63.394,355.99z"/>
		</g>
		<g>
			<path style="fill:#FFFFFF;" d="M216.781,356.818h-5.262c-0.518,0-0.972,0.349-1.104,0.851l-0.234,0.889
				c-0.193,0.734,0.37,1.449,1.129,1.432l5.652-0.126c0.712-0.016,1.236-0.672,1.093-1.37l-0.156-0.763
				C217.791,357.2,217.324,356.818,216.781,356.818z"/>
			<path style="fill:#FFFFFF;" d="M207.667,356.818h-5.262c-0.519,0-0.972,0.349-1.104,0.851l-0.234,0.889
				c-0.193,0.734,0.37,1.449,1.129,1.432l5.652-0.126c0.712-0.016,1.236-0.672,1.093-1.37l-0.156-0.763
				C208.676,357.2,208.209,356.818,207.667,356.818z"/>
			<path style="fill:#FFFFFF;" d="M219.723,352.401h-5.262c-0.518,0-0.972,0.349-1.104,0.851l-0.234,0.889
				c-0.193,0.734,0.37,1.449,1.129,1.432l5.652-0.126c0.712-0.016,1.236-0.672,1.093-1.37l-0.156-0.763
				C220.732,352.783,220.265,352.401,219.723,352.401z"/>
			<path style="fill:#FFFFFF;" d="M211.005,352.401h-5.262c-0.519,0-0.972,0.349-1.104,0.851l-0.234,0.889
				c-0.193,0.734,0.37,1.449,1.129,1.432l5.652-0.126c0.712-0.016,1.236-0.672,1.093-1.37l-0.156-0.763
				C212.014,352.783,211.547,352.401,211.005,352.401z"/>
		</g>
		<g>
			<path style="fill:#FFFFFF;" d="M282.581,323.533h-5.262c-0.518,0-0.972,0.349-1.104,0.851l-0.234,0.889
				c-0.193,0.734,0.37,1.449,1.129,1.432l5.652-0.126c0.712-0.016,1.236-0.672,1.093-1.37l-0.156-0.763
				C283.591,323.914,283.124,323.533,282.581,323.533z"/>
			<path style="fill:#FFFFFF;" d="M273.467,323.533h-5.262c-0.518,0-0.972,0.349-1.104,0.851l-0.234,0.889
				c-0.193,0.734,0.37,1.449,1.129,1.432l5.652-0.126c0.712-0.016,1.236-0.672,1.093-1.37l-0.156-0.763
				C274.476,323.914,274.009,323.533,273.467,323.533z"/>
			<path style="fill:#FFFFFF;" d="M285.523,319.116h-5.262c-0.518,0-0.972,0.349-1.104,0.851l-0.234,0.889
				c-0.193,0.734,0.37,1.449,1.129,1.432l5.652-0.126c0.712-0.016,1.236-0.672,1.093-1.37l-0.156-0.763
				C286.533,319.497,286.065,319.116,285.523,319.116z"/>
			<path style="fill:#FFFFFF;" d="M276.805,319.116h-5.262c-0.518,0-0.972,0.349-1.104,0.851l-0.234,0.889
				c-0.193,0.734,0.37,1.449,1.129,1.432l5.652-0.126c0.712-0.016,1.236-0.672,1.093-1.37l-0.156-0.763
				C277.814,319.497,277.347,319.116,276.805,319.116z"/>
		</g>
		<g>
			<path style="fill:#FFFFFF;" d="M334.684,355.027h-5.262c-0.518,0-0.972,0.349-1.104,0.851l-0.234,0.889
				c-0.193,0.734,0.37,1.449,1.129,1.432l5.652-0.126c0.712-0.016,1.236-0.672,1.093-1.37l-0.156-0.763
				C335.694,355.408,335.227,355.027,334.684,355.027z"/>
			<path style="fill:#FFFFFF;" d="M325.57,355.027h-5.262c-0.519,0-0.972,0.349-1.104,0.851l-0.234,0.889
				c-0.193,0.734,0.37,1.449,1.129,1.432l5.652-0.126c0.712-0.016,1.236-0.672,1.093-1.37l-0.156-0.763
				C326.579,355.408,326.112,355.027,325.57,355.027z"/>
			<path style="fill:#FFFFFF;" d="M337.626,350.61h-5.262c-0.519,0-0.972,0.349-1.104,0.851l-0.234,0.889
				c-0.193,0.734,0.37,1.449,1.129,1.432l5.652-0.126c0.712-0.016,1.236-0.672,1.093-1.37l-0.156-0.763
				C338.636,350.991,338.168,350.61,337.626,350.61z"/>
			<path style="fill:#FFFFFF;" d="M328.908,350.61h-5.262c-0.518,0-0.972,0.349-1.104,0.851l-0.234,0.889
				c-0.193,0.734,0.37,1.449,1.129,1.432l5.652-0.126c0.712-0.016,1.236-0.672,1.093-1.37l-0.156-0.763
				C329.917,350.991,329.45,350.61,328.908,350.61z"/>
		</g>
	</g>
</g>
<g id="River">
	<g>
		<path style="fill:#92E3A9;" d="M447.156,377.761c8.433,0,7.678-5.758,6.312-9.477h-285.1l-2.147,16.627l15.958,38.346
			l26.213,6.242l56.475,5.007l147.097,2.536c0,0,31.126-2.114,31.126-7.543c0-5.43-8.387-4.533-8.387-9.404
			c0-4.871,22.198-2.324,22.198-9.906s-16.242-2.382-16.242-9.577c0-7.195,22.729-2.768,22.729-10.742
			C463.388,381.893,434.704,377.761,447.156,377.761z"/>
		<path style="opacity:0.3;fill:#FFFFFF;" d="M447.156,377.761c8.433,0,7.678-5.758,6.312-9.477h-285.1l-2.147,16.627l15.958,38.346
			l26.213,6.242l56.475,5.007l147.097,2.536c0,0,31.126-2.114,31.126-7.543c0-5.43-8.387-4.533-8.387-9.404
			c0-4.871,22.198-2.324,22.198-9.906s-16.242-2.382-16.242-9.577c0-7.195,22.729-2.768,22.729-10.742
			C463.388,381.893,434.704,377.761,447.156,377.761z"/>
	</g>
	<g>
		<g>
			
				<line style="fill:none;stroke:#FFFFFF;stroke-linecap:round;stroke-linejoin:round;stroke-miterlimit:10;" x1="354.06" y1="379.416" x2="357.075" y2="379.416"/>
			
				<line style="fill:none;stroke:#FFFFFF;stroke-linecap:round;stroke-linejoin:round;stroke-miterlimit:10;" x1="329.412" y1="379.416" x2="350.053" y2="379.416"/>
			
				<line style="fill:none;stroke:#FFFFFF;stroke-linecap:round;stroke-linejoin:round;stroke-miterlimit:10;" x1="273.908" y1="379.416" x2="322.91" y2="379.416"/>
			
				<line style="fill:none;stroke:#FFFFFF;stroke-linecap:round;stroke-linejoin:round;stroke-miterlimit:10;" x1="264.064" y1="379.416" x2="267.958" y2="379.416"/>
		</g>
		<g>
			
				<line style="fill:none;stroke:#FFFFFF;stroke-linecap:round;stroke-linejoin:round;stroke-miterlimit:10;" x1="344.871" y1="386.265" x2="351.51" y2="386.265"/>
			
				<line style="fill:none;stroke:#FFFFFF;stroke-linecap:round;stroke-linejoin:round;stroke-miterlimit:10;" x1="310.523" y1="386.265" x2="340.853" y2="386.265"/>
			
				<line style="fill:none;stroke:#FFFFFF;stroke-linecap:round;stroke-linejoin:round;stroke-miterlimit:10;" x1="278.28" y1="386.265" x2="304.694" y2="386.265"/>
			
				<line style="fill:none;stroke:#FFFFFF;stroke-linecap:round;stroke-linejoin:round;stroke-miterlimit:10;" x1="267.958" y1="386.265" x2="273.908" y2="386.265"/>
		</g>
		<g>
			
				<line style="fill:none;stroke:#FFFFFF;stroke-linecap:round;stroke-linejoin:round;stroke-miterlimit:10;" x1="343.859" y1="393.114" x2="347.551" y2="393.114"/>
			
				<line style="fill:none;stroke:#FFFFFF;stroke-linecap:round;stroke-linejoin:round;stroke-miterlimit:10;" x1="333.749" y1="393.114" x2="340.65" y2="393.114"/>
			
				<line style="fill:none;stroke:#FFFFFF;stroke-linecap:round;stroke-linejoin:round;stroke-miterlimit:10;" x1="287.341" y1="393.114" x2="328.557" y2="393.114"/>
			
				<line style="fill:none;stroke:#FFFFFF;stroke-linecap:round;stroke-linejoin:round;stroke-miterlimit:10;" x1="271.122" y1="393.114" x2="281.741" y2="393.114"/>
		</g>
		<g>
			
				<line style="fill:none;stroke:#FFFFFF;stroke-linecap:round;stroke-linejoin:round;stroke-miterlimit:10;" x1="335.479" y1="399.962" x2="340.854" y2="399.962"/>
			
				<line style="fill:none;stroke:#FFFFFF;stroke-linecap:round;stroke-linejoin:round;stroke-miterlimit:10;" x1="312.026" y1="399.962" x2="330.926" y2="399.962"/>
			
				<line style="fill:none;stroke:#FFFFFF;stroke-linecap:round;stroke-linejoin:round;stroke-miterlimit:10;" x1="283.199" y1="399.962" x2="307.949" y2="399.962"/>
			
				<line style="fill:none;stroke:#FFFFFF;stroke-linecap:round;stroke-linejoin:round;stroke-miterlimit:10;" x1="273.908" y1="399.962" x2="279.008" y2="399.962"/>
		</g>
		<g>
			
				<line style="fill:none;stroke:#FFFFFF;stroke-linecap:round;stroke-linejoin:round;stroke-miterlimit:10;" x1="328.558" y1="406.811" x2="333.749" y2="406.811"/>
			
				<line style="fill:none;stroke:#FFFFFF;stroke-linecap:round;stroke-linejoin:round;stroke-miterlimit:10;" x1="301.062" y1="406.811" x2="321.476" y2="406.811"/>
			
				<line style="fill:none;stroke:#FFFFFF;stroke-linecap:round;stroke-linejoin:round;stroke-miterlimit:10;" x1="280.649" y1="406.811" x2="297.224" y2="406.811"/>
			
				<line style="fill:none;stroke:#FFFFFF;stroke-linecap:round;stroke-linejoin:round;stroke-miterlimit:10;" x1="272.268" y1="406.811" x2="275.001" y2="406.811"/>
		</g>
	</g>
</g>
<g id="Floor">
	
		<line style="fill:none;stroke:#263238;stroke-linecap:round;stroke-linejoin:round;stroke-miterlimit:10;" x1="34.812" y1="368.284" x2="466.517" y2="368.284"/>
</g>
<g id="Bush">
	<g>
		<g>
			<defs>
				<path id="XMLID_41_" d="M366.008,434.504c-3.809-2.432-9.36-2.335-9.36-2.335c4.821-0.824,7.794-5.796,7.794-5.796
					c-5.633-4.584-14.19-0.6-14.19-0.6c6.383-3.609,7.395-10.191,7.395-10.191c-6.07-2.598-13.589,3.997-13.589,3.997
					s4.696-6.695,3.098-11.091c0,0-4.496-0.1-9.193,7.194c0,0,1.699-7.694-1.399-10.392c0,0-3.597,1.599-5.396,8.993
					c0,0-0.3-6.495-5.196-9.992c0,0-3.597,3.397-2.298,10.691c0,0-1.799-4.796-7.294-7.494c0,0-1.499,3.697,1.099,8.893
					c0,0-2.998-3.797-6.595-5.196c0,0-0.999,4.197,1.299,7.694c0,0-3.747-5.146-7.83-5.632c-2.035,5.26,2.104,11.159,2.104,11.159
					c-5.595-5.596-9.161-4.102-9.161-4.102c-1,5.17,2.78,9.472,2.78,9.472c-5.112-2.362-7.569-0.966-7.569-0.966
					c-0.421,2.069,0.415,4.102,1.429,5.693H366.008z"/>
			</defs>
			<use xlink:href="#XMLID_41_"  style="overflow:visible;fill:#92E3A9;"/>
			<clipPath id="XMLID_00000024704656526405092030000008163227167115826107_">
				<use xlink:href="#XMLID_41_"  style="overflow:visible;"/>
			</clipPath>
			<path style="opacity:0.2;clip-path:url(#XMLID_00000024704656526405092030000008163227167115826107_);" d="M366.008,434.504
				c-3.809-2.432-9.36-2.335-9.36-2.335c4.821-0.824,7.794-5.796,7.794-5.796c-5.633-4.584-14.19-0.6-14.19-0.6
				c6.383-3.609,7.395-10.191,7.395-10.191c-6.07-2.598-13.589,3.997-13.589,3.997s4.696-6.695,3.098-11.091
				c0,0-4.496-0.1-9.193,7.194c0,0,1.699-7.694-1.399-10.392c0,0-3.597,1.599-5.396,8.993c0,0-0.3-6.495-5.196-9.992
				c0,0-3.597,3.397-2.298,10.691c0,0-1.799-4.796-7.294-7.494c0,0-1.499,3.697,1.099,8.893c0,0-2.998-3.797-6.595-5.196
				c0,0-0.999,4.197,1.299,7.694c0,0-3.747-5.146-7.83-5.632c-2.035,5.26,2.104,11.159,2.104,11.159
				c-5.595-5.596-9.161-4.102-9.161-4.102c-1,5.17,2.78,9.472,2.78,9.472c-5.112-2.362-7.569-0.966-7.569-0.966
				c-0.421,2.069,0.415,4.102,1.429,5.693H366.008z"/>
		</g>
		<g>
			<defs>
				<path id="XMLID_1_" d="M329.884,426.687c1.109,4.372,7.271,6.019,7.271,6.019c-1.259,0.385-2.311,0.979-3.187,1.641h71.195
					c-1.742-4.52-7.115-6.155-7.115-6.155c4.523,0.928,7.518-2.632,7.518-2.632c-1.093-4.053-7.518-5.639-7.518-5.639
					c5.192-0.634,7.894-4.887,7.894-4.887c-3.054-4.276-10.902-4.135-10.902-4.135c4.535-0.775,7.331-5.451,7.331-5.451
					c-5.298-4.311-13.346-0.565-13.346-0.565c6.004-3.394,6.955-9.585,6.955-9.585c-5.709-2.444-12.781,3.759-12.781,3.759
					s4.417-6.297,2.913-10.432c0,0-4.229-0.094-8.646,6.767c0,0,1.598-7.237-1.316-9.774c0,0-3.383,1.504-5.075,8.458
					c0,0-0.282-6.109-4.887-9.398c0,0-3.383,3.195-2.161,10.056c0,0-1.692-4.511-6.861-7.049c0,0-1.41,3.477,1.034,8.364
					c0,0-2.819-3.571-6.203-4.887c0,0-0.94,3.947,1.222,7.237c0,0-3.524-4.84-7.365-5.297c-1.914,4.947,1.979,10.495,1.979,10.495
					c-5.263-5.263-8.616-3.858-8.616-3.858c-0.941,4.862,2.615,8.909,2.615,8.909c-4.808-2.221-7.119-0.908-7.119-0.908
					c-0.853,4.193,3.771,8.252,3.771,8.252c-2.401-2.182-7.537,0.169-7.537,0.169c-0.329,5.31,5.934,8.201,5.934,8.201
					C333.188,423.893,329.884,426.687,329.884,426.687z"/>
			</defs>
			<use xlink:href="#XMLID_1_"  style="overflow:visible;fill:#92E3A9;"/>
			<clipPath id="XMLID_00000020375890877657085040000013553429410307994776_">
				<use xlink:href="#XMLID_1_"  style="overflow:visible;"/>
			</clipPath>
			<path style="opacity:0.2;clip-path:url(#XMLID_00000020375890877657085040000013553429410307994776_);" d="M422.415,444.092
				c-1.109,4.371-7.271,6.019-7.271,6.019c1.259,0.385,2.311,0.979,3.187,1.641h-71.195c1.742-4.52,7.115-6.155,7.115-6.155
				c-4.523,0.928-7.518-2.632-7.518-2.632c1.092-4.053,7.518-5.639,7.518-5.639c-5.192-0.634-7.894-4.887-7.894-4.887
				c3.054-4.276,10.902-4.135,10.902-4.135c-4.535-0.775-7.33-5.451-7.33-5.451c5.298-4.311,13.346-0.565,13.346-0.565
				c-6.004-3.394-6.956-9.585-6.956-9.585c5.709-2.444,12.781,3.759,12.781,3.759s-4.417-6.297-2.913-10.432
				c0,0,4.229-0.094,8.646,6.767c0,0-1.598-7.237,1.316-9.774c0,0,3.383,1.504,5.075,8.458c0,0,0.282-6.109,4.887-9.398
				c0,0,3.383,3.195,2.162,10.056c0,0,1.692-4.511,6.861-7.049c0,0,1.41,3.477-1.034,8.364c0,0,2.82-3.571,6.203-4.887
				c0,0,0.94,3.947-1.222,7.237c0,0,3.524-4.84,7.365-5.297c1.914,4.947-1.979,10.495-1.979,10.495
				c5.263-5.263,8.616-3.858,8.616-3.858c0.941,4.862-2.615,8.909-2.615,8.909c4.808-2.221,7.119-0.908,7.119-0.908
				c0.853,4.192-3.771,8.252-3.771,8.252c2.401-2.182,7.537,0.169,7.537,0.169c0.329,5.31-5.934,8.201-5.934,8.201
				C419.111,441.298,422.415,444.092,422.415,444.092z"/>
		</g>
		<g>
			<defs>
				<path id="XMLID_42_" d="M193.413,422.169c3.868,0.755,7.995-0.972,7.995-0.972c-3.219,1.55-4.42,4.031-4.871,5.721h58.221
					c-0.238-1.096-0.532-1.799-0.532-1.799c0.844,0.824,1.686,1.395,2.487,1.799h5.191c1.419-3.838-2.547-8.838-2.547-8.838
					c4.697,1.987,9.289-0.575,9.289-0.575c-1.12-5.799-7.917-7.839-7.917-7.839c4.758,0.973,7.903-2.73,7.903-2.73
					c-1.154-4.221-7.914-5.881-7.914-5.881c5.46-0.654,8.295-5.078,8.295-5.078c-3.218-4.457-11.47-4.32-11.47-4.32
					c4.767-0.801,7.702-5.666,7.702-5.666c-5.578-4.496-14.036-0.606-14.036-0.606c6.309-3.526,7.302-9.971,7.302-9.971
					c-6.007-2.552-13.436,3.897-13.436,3.897s4.637-6.55,3.05-10.858c0,0-4.448-0.104-9.083,7.034c0,0,1.67-7.533-1.397-10.179
					c0,0-3.556,1.561-5.325,8.8c0,0-0.305-6.361-5.152-9.792c0,0-3.554,3.322-2.26,10.468c0,0-1.785-4.699-7.224-7.348
					c0,0-1.478,3.619,1.098,8.71c0,0-2.97-3.722-6.529-5.097c0,0-0.001,0.005-0.001,0.006c-1.755-0.708-3.405-0.91-3.405-0.91
					c4.176-1.68,5.424-6.163,5.424-6.163c-4.345-2.958-9.861,0-9.861,0c3.575-2.357,3.205-6.656,3.205-6.656
					c-3.374-1.941-8.629,1.233-8.629,1.233c2.989-3.821,1.972-8.382,1.972-8.382c-3.35-0.558-6.815,1.814-8.611,3.305
					c0.193-0.874,0.233-1.728,0.154-2.544c0.378-2.501-0.172-4.705-0.172-4.705c-0.464,0.048-0.903,0.144-1.329,0.262
					c-0.945-1.643-1.972-2.68-1.972-2.68c3.96,3.445,8.158,2.284,8.158,2.284c-0.217-5.266-3.652-8.114-5.684-9.348
					c5.176,2.219,9.502-1.1,9.502-1.1c-3.31-6.433-10.011-7.242-10.011-7.242s4.577-0.073,6.701-3.984
					c-2.484-3.181-8.019-3.138-8.019-3.138c4.62-2.201,5.404-4.62,5.404-4.62c-2.408-2.756-8.89-2.005-8.89-2.005
					c3.922-1.46,4.412-4.565,4.412-4.565c-4.086-3.693-9.642-1.362-9.642-1.362c3.17-3.214,2.266-6.45,2.266-6.45
					c-3.476-2.059-8.542,1.918-8.542,1.918c1.765-4.14-0.523-8.193-0.523-8.193c-5.164,0.98-6.973,6.973-6.973,6.973
					c0.861-4.195-2.44-6.973-2.44-6.973c-3.759,1.013-5.23,6.973-5.23,6.973c-0.588-4.816-4.532-7.321-4.532-7.321
					c-3.966,2.833-3.835,10.111-3.835,10.111c-0.719-4.206-5.055-6.798-5.055-6.798c-3.999,4.914-0.524,12.378-0.524,12.378
					c-1.615-2.856-3.909-4.474-5.763-5.378c-0.096-0.147-0.158-0.233-0.158-0.233c-0.059,0.024-0.114,0.053-0.173,0.078
					c-1.597-0.728-2.796-0.918-2.796-0.918c-0.472,1.104-0.583,2.261-0.484,3.404c-1.379,1.628-2.295,3.657-2.898,5.541
					c-0.969-0.132-1.927-0.106-2.785,0.201c-0.984-2.295-2.458-4.666-4.581-5.656c0,0-3.585,3.429-1.559,12.781
					c0,0-4.676-7.326-9.196-7.014c0,0-1.559,4.052,2.806,11.223c0,0-5.299-4.832-11.846-3.741c0,0-0.156,5.455,6.546,10.131
					c0,0-5.144-2.338-11.534-0.156c0,0,1.715,4.052,7.793,6.079c0,0-5.3-0.624-9.196,1.091c0,0,2.494,4.052,7.014,4.988
					c0,0-6.936-1.091-10.5,1.714c2.515,5.689,10.344,7.063,10.344,7.063c-8.729,0-10.344,3.946-10.344,3.946
					c3.252,4.812,9.556,5.219,9.556,5.219c-5.829,2.145-6.657,5.15-6.657,5.15c0.416,0.629,0.939,1.142,1.516,1.578l-7.216,9.321
					l6.834,18.281l56.456,21.799l33.487,7.032L193.413,422.169z"/>
			</defs>
			<use xlink:href="#XMLID_42_"  style="overflow:visible;fill:#92E3A9;"/>
			<clipPath id="XMLID_00000145041343467698602980000016701384877705183374_">
				<use xlink:href="#XMLID_42_"  style="overflow:visible;"/>
			</clipPath>
			<path style="opacity:0.2;clip-path:url(#XMLID_00000145041343467698602980000016701384877705183374_);" d="M147.169,415.737
				l35.367,7.519l39.159,5.311l25.938,4.104c-2.388-2.953-6.133-4.081-6.133-4.081c4.758,0.972,7.903-2.73,7.903-2.73
				c-1.154-4.221-7.914-5.882-7.914-5.882c5.46-0.654,8.295-5.078,8.295-5.078c-3.218-4.457-11.47-4.32-11.47-4.32
				c4.768-0.801,7.702-5.666,7.702-5.666c-5.577-4.496-14.036-0.606-14.036-0.606c6.309-3.526,7.301-9.971,7.301-9.971
				c-6.007-2.552-13.436,3.897-13.436,3.897s4.637-6.55,3.05-10.858c0,0-4.448-0.104-9.083,7.034c0,0,1.671-7.533-1.397-10.179
				c0,0-3.556,1.561-5.326,8.8c0,0-0.305-6.361-5.152-9.792c0,0-3.554,3.323-2.26,10.468c0,0-1.785-4.699-7.224-7.348
				c0,0-1.478,3.619,1.098,8.711c0,0-2.97-3.722-6.53-5.097c0,0-0.983,4.109,1.295,7.536c0,0-3.713-5.044-7.752-5.526
				c-2.006,5.148,2.095,10.931,2.095,10.931c-2.464-2.439-4.525-3.502-6.059-3.935c0.51-0.646,0.784-1.098,0.784-1.098
				c-5.577-4.496-14.036-0.606-14.036-0.606c6.309-3.526,7.302-9.971,7.302-9.971c-6.007-2.552-13.436,3.897-13.436,3.897
				s4.637-6.55,3.05-10.858c0,0-4.448-0.104-9.083,7.034c0,0,1.67-7.533-1.397-10.179c0,0-3.556,1.561-5.326,8.8
				c0,0-0.305-6.361-5.152-9.792c0,0-3.554,3.323-2.26,10.467c0,0-1.785-4.699-7.224-7.348c0,0-1.478,3.619,1.099,8.71
				c0,0-2.97-3.722-6.53-5.097c0,0-0.983,4.109,1.295,7.536c0,0-3.713-5.044-7.752-5.525c-2.006,5.148,2.095,10.93,2.095,10.93
				c-5.542-5.487-9.066-4.028-9.066-4.028c-0.983,5.061,2.762,9.279,2.762,9.279c-5.059-2.319-7.488-0.955-7.488-0.955
				c-0.009,0.044-0.009,0.088-0.017,0.132L147.169,415.737z"/>
		</g>
		<path style="fill:none;stroke:#263238;stroke-linecap:round;stroke-linejoin:round;stroke-miterlimit:10;" d="M105.988,368.284
			c-13.441,0-35.207,7.419-35.207,21.072c0,43.455,184.493,71.035,360.13,71.035"/>
		<path style="fill:#92E3A9;stroke:#263238;stroke-linecap:round;stroke-linejoin:round;stroke-miterlimit:10;" d="M113.749,375.149
			H96.596c-2.36,0-4.397-1.653-4.883-3.962l-0.205-0.972c-0.622-2.955,1.502-5.781,4.514-6.005l17.756-1.318
			c3.24-0.24,5.843,2.63,5.286,5.832l-0.398,2.29C118.25,373.404,116.175,375.149,113.749,375.149z"/>
		<g>
			<defs>
				<path id="XMLID_82_" d="M104.434,383.614H88.18c-2.118,0-3.928-1.526-4.286-3.614l-0.516-3.008
					c-0.469-2.737,1.712-5.207,4.486-5.079l17.196,0.792c2.647,0.122,4.57,2.562,4.071,5.164l-0.425,2.216
					C108.312,382.133,106.52,383.614,104.434,383.614z"/>
			</defs>
			<use xlink:href="#XMLID_82_"  style="overflow:visible;fill:#92E3A9;"/>
			<clipPath id="XMLID_00000066498216420851453710000005781216447160768422_">
				<use xlink:href="#XMLID_82_"  style="overflow:visible;"/>
			</clipPath>
			<path style="opacity:0.5;clip-path:url(#XMLID_00000066498216420851453710000005781216447160768422_);fill:#FFFFFF;" d="
				M104.434,383.614H88.18c-2.118,0-3.928-1.526-4.286-3.614l-0.516-3.008c-0.469-2.737,1.712-5.207,4.486-5.079l17.196,0.792
				c2.647,0.122,4.57,2.562,4.071,5.164l-0.425,2.216C108.312,382.133,106.52,383.614,104.434,383.614z"/>
			
				<use xlink:href="#XMLID_82_"  style="overflow:visible;fill:none;stroke:#263238;stroke-linecap:round;stroke-linejoin:round;stroke-miterlimit:10;"/>
		</g>
		<path style="fill:#92E3A9;stroke:#263238;stroke-linecap:round;stroke-linejoin:round;stroke-miterlimit:10;" d="M99.36,393.086
			l-11.224,0.691c-2.061,0.127-3.887-1.319-4.236-3.354l-0.619-3.608c-0.426-2.483,1.498-4.748,4.017-4.729l12.385,0.092
			c2.528,0.019,4.419,2.325,3.943,4.808l-0.542,2.824C102.736,391.624,101.204,392.972,99.36,393.086z"/>
		<g>
			<defs>
				<path id="XMLID_69_" d="M111.468,405.949H97.668c-2.789,0-5.142-2.077-5.488-4.844l-0.628-5.019
					c-0.426-3.403,2.316-6.37,5.743-6.212l15.016,0.691c3.245,0.15,5.663,3.05,5.227,6.269l-0.587,4.328
					C116.577,403.904,114.236,405.949,111.468,405.949z"/>
			</defs>
			<use xlink:href="#XMLID_69_"  style="overflow:visible;fill:#92E3A9;"/>
			<clipPath id="XMLID_00000126286937903722350460000000949768244906106757_">
				<use xlink:href="#XMLID_69_"  style="overflow:visible;"/>
			</clipPath>
			<path style="opacity:0.4;clip-path:url(#XMLID_00000126286937903722350460000000949768244906106757_);fill:#FFFFFF;" d="
				M111.468,405.949H97.668c-2.789,0-5.142-2.077-5.488-4.844l-0.628-5.019c-0.426-3.403,2.316-6.37,5.743-6.212l15.016,0.691
				c3.245,0.15,5.663,3.05,5.227,6.269l-0.587,4.328C116.577,403.904,114.236,405.949,111.468,405.949z"/>
			
				<use xlink:href="#XMLID_69_"  style="overflow:visible;fill:none;stroke:#263238;stroke-linecap:round;stroke-linejoin:round;stroke-miterlimit:10;"/>
		</g>
		
			<path style="fill:#92E3A9;stroke:#263238;stroke-width:0.75;stroke-linecap:round;stroke-linejoin:round;stroke-miterlimit:10;" d="
			M173.523,369.904c4.697,1.987,9.289-0.575,9.289-0.575c-1.119-5.799-7.917-7.839-7.917-7.839c4.757,0.972,7.903-2.73,7.903-2.73
			c-1.154-4.221-7.914-5.881-7.914-5.881c5.46-0.654,8.295-5.078,8.295-5.078c-3.218-4.457-11.47-4.32-11.47-4.32
			c4.768-0.801,7.702-5.666,7.702-5.666c-5.577-4.496-14.036-0.606-14.036-0.606c6.309-3.526,7.302-9.971,7.302-9.971
			c-6.007-2.552-13.436,3.897-13.436,3.897s4.637-6.55,3.05-10.858c0,0-4.447-0.104-9.083,7.034c0,0,1.67-7.533-1.397-10.179
			c0,0-3.556,1.561-5.326,8.8c0,0-0.305-6.361-5.152-9.792c0,0-3.554,3.323-2.26,10.468c0,0-1.785-4.699-7.224-7.348
			c0,0-1.478,3.619,1.099,8.711c0,0-2.97-3.722-6.53-5.097c0,0-0.983,4.109,1.295,7.536c0,0-3.713-5.044-7.752-5.525
			c-2.006,5.148,2.095,10.931,2.095,10.931c-5.542-5.487-9.066-4.028-9.066-4.028c-0.983,5.061,2.762,9.28,2.762,9.28
			c-5.059-2.319-7.488-0.955-7.488-0.955c-0.892,4.364,3.976,8.598,3.976,8.598c-2.528-2.275-7.926,0.166-7.926,0.166
			c-0.339,5.528,6.251,8.547,6.251,8.547c-3.883-0.495-7.354,2.409-7.354,2.409c1.172,4.553,7.655,6.277,7.655,6.277
			c-4.996,1.507-6.977,6.084-6.977,6.084c4.265,3.939,11.686,0.829,11.686,0.829c-5.247,2.526-5.143,7.538-5.143,7.538"/>
		<g>
			<defs>
				<path id="XMLID_67_" d="M138.565,415.705l-23.029-2.17c-3.032-0.286-5.526-2.511-6.153-5.491l-0.366-1.74
					c-0.867-4.118,2.094-8.057,6.291-8.368l24.39-1.81c4.516-0.335,8.143,3.666,7.367,8.127l-0.995,5.72
					C145.447,413.549,142.179,416.046,138.565,415.705z"/>
			</defs>
			<use xlink:href="#XMLID_67_"  style="overflow:visible;fill:#92E3A9;"/>
			<clipPath id="XMLID_00000019655420804505622930000001308721913861357462_">
				<use xlink:href="#XMLID_67_"  style="overflow:visible;"/>
			</clipPath>
			<path style="opacity:0.3;clip-path:url(#XMLID_00000019655420804505622930000001308721913861357462_);fill:#FFFFFF;" d="
				M138.565,415.705l-23.029-2.17c-3.032-0.286-5.526-2.511-6.153-5.491l-0.366-1.74c-0.867-4.118,2.094-8.057,6.291-8.368
				l24.39-1.81c4.516-0.335,8.143,3.666,7.367,8.127l-0.995,5.72C145.447,413.549,142.179,416.046,138.565,415.705z"/>
			
				<use xlink:href="#XMLID_67_"  style="overflow:visible;fill:none;stroke:#263238;stroke-linecap:round;stroke-linejoin:round;stroke-miterlimit:10;"/>
		</g>
		<path style="fill:#92E3A9;stroke:#263238;stroke-linecap:round;stroke-linejoin:round;stroke-miterlimit:10;" d="M163.639,425.426
			l-26.4-4.164c-2.161-0.341-3.923-1.915-4.503-4.024l0,0c-1.025-3.721,1.954-7.332,5.802-7.033l26.873,2.084
			c3.39,0.263,5.756,3.475,5.002,6.79l-0.473,2.08C169.29,424.017,166.535,425.883,163.639,425.426z"/>
		<g>
			<defs>
				<path id="XMLID_64_" d="M194.268,429.497h-23.73c-3.252,0-6.06-2.278-6.73-5.461l-0.29-1.376
					c-0.857-4.073,2.071-7.968,6.221-8.276l24.576-1.824c4.466-0.331,8.053,3.625,7.285,8.037l-0.556,3.2
					C200.471,427.092,197.612,429.497,194.268,429.497z"/>
			</defs>
			<use xlink:href="#XMLID_64_"  style="overflow:visible;fill:#92E3A9;"/>
			<clipPath id="XMLID_00000021111732405717041800000012143399066562146715_">
				<use xlink:href="#XMLID_64_"  style="overflow:visible;"/>
			</clipPath>
			<path style="opacity:0.5;clip-path:url(#XMLID_00000021111732405717041800000012143399066562146715_);fill:#FFFFFF;" d="
				M194.268,429.497h-23.73c-3.252,0-6.06-2.278-6.73-5.461l-0.29-1.376c-0.857-4.073,2.071-7.968,6.221-8.276l24.576-1.824
				c4.466-0.331,8.053,3.625,7.285,8.037l-0.556,3.2C200.471,427.092,197.612,429.497,194.268,429.497z"/>
			
				<use xlink:href="#XMLID_64_"  style="overflow:visible;fill:none;stroke:#263238;stroke-linecap:round;stroke-linejoin:round;stroke-miterlimit:10;"/>
		</g>
		<g>
			<defs>
				<path id="XMLID_68_" d="M228.897,437.04h-23.569c-3.298,0-6.146-2.31-6.825-5.538l-0.251-1.19c-0.869-4.13,2.1-8.08,6.309-8.393
					l24.341-1.807c4.529-0.336,8.166,3.677,7.388,8.151l-0.521,2.997C235.187,434.602,232.288,437.04,228.897,437.04z"/>
			</defs>
			<use xlink:href="#XMLID_68_"  style="overflow:visible;fill:#92E3A9;"/>
			<clipPath id="XMLID_00000123399808495461468910000002913447425760050053_">
				<use xlink:href="#XMLID_68_"  style="overflow:visible;"/>
			</clipPath>
			<path style="opacity:0.3;clip-path:url(#XMLID_00000123399808495461468910000002913447425760050053_);fill:#FFFFFF;" d="
				M228.897,437.04h-23.569c-3.298,0-6.146-2.31-6.825-5.538l-0.251-1.19c-0.869-4.13,2.1-8.08,6.309-8.393l24.341-1.807
				c4.529-0.336,8.166,3.677,7.388,8.151l-0.521,2.997C235.187,434.602,232.288,437.04,228.897,437.04z"/>
			
				<use xlink:href="#XMLID_68_"  style="overflow:visible;fill:none;stroke:#263238;stroke-linecap:round;stroke-linejoin:round;stroke-miterlimit:10;"/>
		</g>
		<g>
			<defs>
				<path id="XMLID_43_" d="M262.297,440.6H239.18c-3.428,0-6.387-2.401-7.093-5.755l-1.031-4.897
					c-0.982-4.664,2.728-8.991,7.488-8.731l24.765,1.35c4.334,0.236,7.491,4.203,6.747,8.48l-0.617,3.547
					C268.835,438.065,265.821,440.6,262.297,440.6z"/>
			</defs>
			<use xlink:href="#XMLID_43_"  style="overflow:visible;fill:#92E3A9;"/>
			<clipPath id="XMLID_00000120520182534423510800000016936094920657072569_">
				<use xlink:href="#XMLID_43_"  style="overflow:visible;"/>
			</clipPath>
			<path style="opacity:0.4;clip-path:url(#XMLID_00000120520182534423510800000016936094920657072569_);fill:#FFFFFF;" d="
				M262.297,440.6H239.18c-3.428,0-6.387-2.401-7.093-5.755l-1.031-4.897c-0.982-4.664,2.728-8.991,7.488-8.731l24.765,1.35
				c4.334,0.236,7.491,4.203,6.747,8.48l-0.617,3.547C268.835,438.065,265.821,440.6,262.297,440.6z"/>
			
				<use xlink:href="#XMLID_43_"  style="overflow:visible;fill:none;stroke:#263238;stroke-linecap:round;stroke-linejoin:round;stroke-miterlimit:10;"/>
		</g>
		<g>
			<defs>
				<path id="XMLID_66_" d="M274.836,444.044h23.095c3.434,0,6.399-2.405,7.106-5.766l1.025-4.869
					c0.984-4.673-2.733-9.007-7.501-8.747l-24.732,1.348c-4.342,0.237-7.505,4.211-6.759,8.496l0.612,3.521
					C268.286,441.504,271.305,444.044,274.836,444.044z"/>
			</defs>
			<use xlink:href="#XMLID_66_"  style="overflow:visible;fill:#92E3A9;"/>
			<clipPath id="XMLID_00000098196710554261908670000003893790013678359172_">
				<use xlink:href="#XMLID_66_"  style="overflow:visible;"/>
			</clipPath>
			<path style="opacity:0.6;clip-path:url(#XMLID_00000098196710554261908670000003893790013678359172_);fill:#FFFFFF;" d="
				M274.836,444.044h23.095c3.434,0,6.399-2.405,7.106-5.766l1.025-4.869c0.984-4.673-2.733-9.007-7.501-8.747l-24.732,1.348
				c-4.342,0.237-7.505,4.211-6.759,8.496l0.612,3.521C268.286,441.504,271.305,444.044,274.836,444.044z"/>
			
				<use xlink:href="#XMLID_66_"  style="overflow:visible;fill:none;stroke:#263238;stroke-linecap:round;stroke-linejoin:round;stroke-miterlimit:10;"/>
		</g>
		<path style="fill:#92E3A9;stroke:#263238;stroke-linecap:round;stroke-linejoin:round;stroke-miterlimit:10;" d="M309.02,444.044
			h28.408c2.799,0,5.247-1.887,5.96-4.594l1.264-4.799c1.044-3.964-2-7.823-6.098-7.731l-30.514,0.681
			c-3.843,0.086-6.671,3.63-5.901,7.396l0.842,4.118C303.568,441.984,306.092,444.044,309.02,444.044z"/>
		<g>
			<defs>
				<path id="XMLID_63_" d="M376.774,447.672H349.47c-4.061,0-7.566-2.844-8.402-6.818l-1.212-5.756
					c-1.163-5.525,3.232-10.65,8.87-10.343l29.24,1.594c5.134,0.28,8.873,4.979,7.992,10.045l-0.724,4.162
					C384.519,444.669,380.949,447.672,376.774,447.672z"/>
			</defs>
			<use xlink:href="#XMLID_63_"  style="overflow:visible;fill:#92E3A9;"/>
			<clipPath id="XMLID_00000013880947222985172830000003159999696311146934_">
				<use xlink:href="#XMLID_63_"  style="overflow:visible;"/>
			</clipPath>
			<path style="opacity:0.6;clip-path:url(#XMLID_00000013880947222985172830000003159999696311146934_);fill:#FFFFFF;" d="
				M376.774,447.672H349.47c-4.061,0-7.566-2.844-8.402-6.818l-1.212-5.756c-1.163-5.525,3.232-10.65,8.87-10.343l29.24,1.594
				c5.134,0.28,8.873,4.979,7.992,10.045l-0.724,4.162C384.519,444.669,380.949,447.672,376.774,447.672z"/>
			
				<use xlink:href="#XMLID_63_"  style="overflow:visible;fill:none;stroke:#263238;stroke-linecap:round;stroke-linejoin:round;stroke-miterlimit:10;"/>
		</g>
		<g>
			<defs>
				<path id="XMLID_65_" d="M421.536,451.909h-27.577c-4.582,0-8.514-3.263-9.359-7.766l-1.499-7.99
					c-1.144-6.095,3.751-11.639,9.94-11.26l30.03,1.836c5.597,0.342,9.688,5.422,8.829,10.963l-0.954,6.154
					C430.226,448.485,426.232,451.909,421.536,451.909z"/>
			</defs>
			<use xlink:href="#XMLID_65_"  style="overflow:visible;fill:#92E3A9;"/>
			<clipPath id="XMLID_00000018942843334485078620000005431852088805224841_">
				<use xlink:href="#XMLID_65_"  style="overflow:visible;"/>
			</clipPath>
			<path style="opacity:0.2;clip-path:url(#XMLID_00000018942843334485078620000005431852088805224841_);fill:#FFFFFF;" d="
				M421.536,451.909h-27.577c-4.582,0-8.514-3.263-9.359-7.766l-1.499-7.99c-1.144-6.095,3.751-11.639,9.94-11.26l30.03,1.836
				c5.597,0.342,9.688,5.422,8.829,10.963l-0.954,6.154C430.226,448.485,426.232,451.909,421.536,451.909z"/>
			
				<use xlink:href="#XMLID_65_"  style="overflow:visible;fill:none;stroke:#263238;stroke-linecap:round;stroke-linejoin:round;stroke-miterlimit:10;"/>
		</g>
	</g>
</g>
<g id="Character">
	<g>
		<g>
			<path style="fill:#FFFFFF;stroke:#263238;stroke-linecap:round;stroke-linejoin:round;stroke-miterlimit:10;" d="
				M204.516,275.665c0,0,2.408,6.873,11.541,15.59v1.66c0,0-1.799,1.845-1.338,6.365c0.461,4.52,0.646,8.026,2.214,7.934
				c1.568-0.092,1.476-3.505,1.476-5.996c0-2.491,2.952,0.83,2.952,0.83v4.336l-1.98,3.413c0,0-2.817,2.066-2.079,3.57
				c0,0-1.199,1.32,0,1.873c1.199,0.553,6.273-0.369,7.657-1.015c1.384-0.646,2.952-1.568,3.598-3.505
				c0.646-1.937,1.291-6.642,0.738-8.302c-0.553-1.661-4.336-10.609-4.336-10.609l-1.384-3.321l-4.243-21.31l-2.322-3.874
				l-12.494,5.812l-0.59,2.675l-0.375,2.122L204.516,275.665z"/>
			<path style="fill:#999999;stroke:#263238;stroke-linecap:round;stroke-linejoin:round;stroke-miterlimit:10;" d="
				M199.774,204.449c0,0,5.719,3.321,7.38,13.284c1.661,9.963,0,11.808,2.03,19.557c2.029,7.749,8.118,23.985,8.118,23.985
				s-10.956,1.263-14.923,9.04l-6.663-15.313C195.715,255.001,184.461,211.091,199.774,204.449z"/>
			<path style="fill:#757575;stroke:#263238;stroke-linecap:round;stroke-linejoin:round;stroke-miterlimit:10;" d="
				M200.994,270.411l0.902,1.103c0,0,0.445,1.865,0.781,2.398c0.339,0.537,1.839,1.753,1.839,1.753s0.148-4.52,5.406-7.195
				c5.258-2.675,9.409-1.291,9.409-1.291s0.111-1.74,0-2.306c-0.129-0.66-1.015-2.491-1.015-2.491l-0.239-1.861
				c-0.124-0.968-1.046-1.622-1.999-1.412c-3.404,0.751-10.888,3.05-15.152,9.281C200.503,269.009,200.519,269.831,200.994,270.411z
				"/>
			
				<line style="fill:none;stroke:#263238;stroke-width:0.75;stroke-linecap:round;stroke-linejoin:round;stroke-miterlimit:10;" x1="219.381" y1="296.514" x2="218.593" y2="298.82"/>
			<path style="fill:none;stroke:#263238;stroke-width:0.75;stroke-linecap:round;stroke-linejoin:round;stroke-miterlimit:10;" d="
				M218.132,313.81c0,0,0.6,0.784,1.799-0.323c1.199-1.107,4.52-4.566,4.843-5.858c0.323-1.292,1.245-6.411,1.753-7.103"/>
			<path style="fill:none;stroke:#263238;stroke-width:0.75;stroke-linecap:round;stroke-linejoin:round;stroke-miterlimit:10;" d="
				M221.545,314.08c0,0,5.074-1.976,5.581-3.637c0.507-1.66,0.923-5.12,1.107-5.95c0.184-0.83,0.369-1.292,0.369-1.292"/>
			<path style="fill:none;stroke:#263238;stroke-width:0.75;stroke-linecap:round;stroke-linejoin:round;stroke-miterlimit:10;" d="
				M205.817,232.585c0,0-0.578,1.387-2.266,3.973"/>
		</g>
		<g>
			<path style="fill:#263238;stroke:#263238;stroke-linecap:round;stroke-linejoin:round;stroke-miterlimit:10;" d="
				M136.122,404.261l-10.147,7.011c0,0-2.916-3.774-12.554,0.754c-0.817,0.384-1.43,1.107-1.618,1.99
				c-0.298,1.403-0.413,3.888,0.753,7.732c0.666,2.197,2.576,4.513,3.456,7.974c1.476,5.8,0,11.808,5.719,21.033
				c5.719,9.225,9.04,11.07,11.254,10.516c2.214-0.553,3.874-2.583,0.553-12.546c-3.321-9.963,1.476-22.693,1.476-22.693
				l11.133-9.778L136.122,404.261z"/>
			<path style="fill:#757575;stroke:#263238;stroke-linecap:round;stroke-linejoin:round;stroke-miterlimit:10;" d="
				M113.421,412.025c-0.817,0.384-1.43,1.107-1.618,1.99c-0.298,1.403-0.413,3.888,0.753,7.732c0.666,2.197,2.576,4.513,3.456,7.974
				c1.476,5.8,0,11.808,5.719,21.033c5.719,9.225,9.04,11.07,11.254,10.516c2.214-0.553,3.874-2.583,0.553-12.546
				c-2.341-7.024-0.648-15.417,0.554-19.762c-1.152-1.912-5.213,1.358-7.289-5.422s-0.83-12.269-0.83-12.269
				S123.059,407.497,113.421,412.025z"/>
			<path style="fill:none;stroke:#263238;stroke-linecap:round;stroke-linejoin:round;stroke-miterlimit:10;" d="M134.169,431.805
				c0,0-2.478-1.5-6.872-0.544"/>
			<path style="fill:none;stroke:#263238;stroke-linecap:round;stroke-linejoin:round;stroke-miterlimit:10;" d="M133.567,434.476
				c0,0-2.261-1.038-5.285,0.312"/>
			<path style="fill:none;stroke:#263238;stroke-linecap:round;stroke-linejoin:round;stroke-miterlimit:10;" d="M133.085,437.728
				c0,0-2.098-0.775-4.004,0.267"/>
			<g>
				<defs>
					<path id="XMLID_7_" d="M170.431,282.945h26.115l1.661,13.291c0,0,4.981,29.335,4.428,40.128
						c-0.554,10.793-2.765,27.786-2.86,37.084c-0.037,3.616,0.673,10.016-5.719,13.284c-14.98,7.659-30.938,15.498-52.968,41.512
						c0,0-12.898-4.428-14.281-18.819c0,0,13.416-9.559,17.435-13.284c7.692-7.129,17.066-19.188,31.365-27.859l-9.502-47.288
						c0,0-10.516-7.616-12.177-38.05H170.431z"/>
				</defs>
				<use xlink:href="#XMLID_7_"  style="overflow:visible;fill:#263238;"/>
				<clipPath id="XMLID_00000139985246687028197460000004205415857131851147_">
					<use xlink:href="#XMLID_7_"  style="overflow:visible;"/>
				</clipPath>
				<path style="opacity:0.3;clip-path:url(#XMLID_00000139985246687028197460000004205415857131851147_);" d="M185.753,296.514
					c0,0,4.76,9.648,3.321,16.853c-1.439,7.206,4.743-6.337,7.787-0.987c3.044,5.351-8.767,13.653-9.226,21.956
					c-0.46,8.302,9.301,39.851-7.325,41.235s-4.704-43.727-4.704-43.727l4.183-31.319L185.753,296.514z"/>
				
					<use xlink:href="#XMLID_7_"  style="overflow:visible;fill:none;stroke:#263238;stroke-linecap:round;stroke-linejoin:round;stroke-miterlimit:10;"/>
			</g>
			<g>
				
					<path style="fill:none;stroke:#999999;stroke-width:0.75;stroke-linecap:round;stroke-linejoin:round;stroke-miterlimit:10;" d="
					M192.568,316.143c-0.79,1.298-2.248,2.894-4.934,4.43"/>
				
					<path style="fill:none;stroke:#999999;stroke-width:0.75;stroke-linecap:round;stroke-linejoin:round;stroke-miterlimit:10;" d="
					M193.501,313.367c0,0,0.017,0.375-0.15,0.996"/>
			</g>
			<path style="fill:none;stroke:#999999;stroke-width:0.75;stroke-linecap:round;stroke-linejoin:round;stroke-miterlimit:10;" d="
				M185.753,327.325c0,0,4.613,3.875,6.642,9.04"/>
		</g>
		<g>
			<path style="fill:#263238;stroke:#263238;stroke-linecap:round;stroke-linejoin:round;stroke-miterlimit:10;" d="
				M213.151,460.071c-3.953-0.283-15.221-4.428-15.221-4.428l-4.612-15.498l-14.299,1.937l4.52,16.882c0,0-3.097,5.972-0.985,13.369
				c0.466,1.63,1.92,2.789,3.613,2.881c5.268,0.288,17.763,0.437,31.135-3.243c4.212-1.159,12.73-2.952,11.9-8.579
				S217.509,460.383,213.151,460.071z"/>
			<path style="fill:#757575;stroke:#263238;stroke-linecap:round;stroke-linejoin:round;stroke-miterlimit:10;" d="
				M183.539,458.965c0,0-3.097,5.972-0.985,13.369c0.466,1.63,1.92,2.788,3.613,2.881c5.268,0.288,17.763,0.437,31.135-3.243
				c4.212-1.159,12.73-2.952,11.9-8.579s-11.693-3.009-16.051-3.321c-3.953-0.283-15.221-4.428-15.221-4.428
				c-8.026,1.845-8.671,5.258-11.347,5.443C183.908,461.271,183.539,458.965,183.539,458.965z"/>
			<path style="fill:none;stroke:#263238;stroke-linecap:round;stroke-linejoin:round;stroke-miterlimit:10;" d="M201.738,456.352
				c0,0-3.744-1.404-6.972,2.84"/>
			<path style="fill:none;stroke:#263238;stroke-linecap:round;stroke-linejoin:round;stroke-miterlimit:10;" d="M203.99,457.162
				c0,0-3.136-1.015-4.612,3.229"/>
			<path style="fill:none;stroke:#263238;stroke-linecap:round;stroke-linejoin:round;stroke-miterlimit:10;" d="M206.431,457.888
				c0,0-2.81-0.633-2.441,3.333"/>
			<g>
				<defs>
					<path id="XMLID_6_" d="M141.842,288.027c0,0-4.059,16.974,6.642,44.28l15.498,49.815c0,0-2.583,18.45,7.011,45.387
						c9.594,26.937,8.856,30.627,8.856,30.627s14.76-0.738,19.926-5.904c0,0-12.915-46.494-14.76-61.253
						c0,0,3.69-19.926-0.738-41.328c-4.428-21.402,1.845-24.354,2.583-37.638c0.738-13.284-2.583-26.937-2.583-26.937l-43.19-6.642
						L141.842,288.027z"/>
				</defs>
				<use xlink:href="#XMLID_6_"  style="overflow:visible;fill:#263238;"/>
				<clipPath id="XMLID_00000011021461214693710070000015994941492203761082_">
					<use xlink:href="#XMLID_6_"  style="overflow:visible;"/>
				</clipPath>
				<path style="opacity:0.3;clip-path:url(#XMLID_00000011021461214693710070000015994941492203761082_);" d="M182.432,290.056
					c0,0-16.29,1.937-29.85,0c-13.561-1.937,2.214,49.815,5.535,61.438c3.321,11.623,5.866,30.626,5.866,30.626l-16.439-13.837
					l-17.601-70.617l7.418-27.352l22.97-4.335l22.102,8.302V290.056z"/>
				
					<use xlink:href="#XMLID_6_"  style="overflow:visible;fill:none;stroke:#263238;stroke-linecap:round;stroke-linejoin:round;stroke-miterlimit:10;"/>
			</g>
			<path style="fill:#263238;stroke:#263238;stroke-linecap:round;stroke-linejoin:round;stroke-miterlimit:10;" d="
				M228.029,467.229c4.28-7.011-13.692,2.955-29.822,6.126c-11.015,2.165-14.284,0.911-15.251-0.112
				c0.665,1.134,1.857,1.896,3.211,1.971c5.268,0.288,17.763,0.437,31.135-3.243C220.353,471.132,225.649,469.951,228.029,467.229z"
				/>
			<g>
				
					<path style="fill:none;stroke:#263238;stroke-width:0.75;stroke-linecap:round;stroke-linejoin:round;stroke-miterlimit:10;" d="
					M178.562,318.812c-1.934-1.458-4.622-3.11-8.132-3.11"/>
				
					<path style="fill:none;stroke:#999999;stroke-width:0.75;stroke-linecap:round;stroke-linejoin:round;stroke-miterlimit:10;" d="
					M180.83,320.572c-0.303-0.21-0.65-0.485-1.041-0.799"/>
			</g>
			<path style="fill:none;stroke:#999999;stroke-width:0.75;stroke-linecap:round;stroke-linejoin:round;stroke-miterlimit:10;" d="
				M168.779,305.738c0,0,13.653,7.38,13.653,13.284"/>
			<path style="fill:none;stroke:#999999;stroke-width:0.75;stroke-linecap:round;stroke-linejoin:round;stroke-miterlimit:10;" d="
				M175.605,388.025c0,0,2.398,2.214,6.826,2.214"/>
		</g>
		<g>
			<path style="fill:#999999;stroke:#263238;stroke-linecap:round;stroke-linejoin:round;stroke-miterlimit:10;" d="
				M139.194,278.161c0.334,2.87,2.473,5.194,5.302,5.779c9.464,1.956,30.933,6.116,42.363,6.116c14.944,0,11.254-9.409,11.07-20.664
				c-0.184-11.254,3.222-25.645,4.748-37.269c1.525-11.623,1.341-25.276-2.903-27.675c-4.243-2.398-23.062-12.361-31.918-12.361
				c-4.393,0-13.373,3.786-21.104,7.409c-7.853,3.681-14.418,7.229-13.582,11.04C134.698,217.494,136.849,257.989,139.194,278.161z"
				/>
			<polygon style="fill:#757575;stroke:#263238;stroke-linecap:round;stroke-linejoin:round;stroke-miterlimit:10;" points="
				155.934,194.716 161.537,189.827 173.437,203.111 176.897,208.785 181.463,199.306 184.784,194.809 187.281,197.46 
				184.231,207.816 182.985,203.111 176.758,211.137 169.701,203.388 164.72,208.785 			"/>
			<g>
				
					<path style="fill:none;stroke:#263238;stroke-width:0.75;stroke-linecap:round;stroke-linejoin:round;stroke-miterlimit:10;" d="
					M187.775,283.554c-0.005,0.898-0.027,1.724-0.065,2.466"/>
				
					<path style="fill:none;stroke:#263238;stroke-width:0.75;stroke-linecap:round;stroke-linejoin:round;stroke-miterlimit:10;" d="
					M179.598,220.101c1.484,5.696,3.44,13.86,4.494,20.971c1.31,8.84,3.456,28.696,3.667,40.266"/>
				
					<path style="fill:none;stroke:#263238;stroke-width:0.75;stroke-linecap:round;stroke-linejoin:round;stroke-miterlimit:10;" d="
					M177.635,212.936c0,0,0.413,1.405,1.042,3.708"/>
			</g>
			<g>
				
					<path style="fill:none;stroke:#263238;stroke-width:0.75;stroke-linecap:round;stroke-linejoin:round;stroke-miterlimit:10;" d="
					M143.326,253.727c-0.345,0.85-0.716,1.707-1.115,2.566"/>
				
					<path style="fill:none;stroke:#263238;stroke-width:0.75;stroke-linecap:round;stroke-linejoin:round;stroke-miterlimit:10;" d="
					M147.543,238.028c0,0-0.707,6.049-3.292,13.274"/>
			</g>
			<g>
				<defs>
					<path id="XMLID_5_" d="M161.336,191.308c0,0,1.908-1.342,0.893-5.586c-1.015-4.243-2.768-7.749-4.428-9.502
						c-1.661-1.753-3.413-8.948-3.413-8.948s-3.874-6.273,2.398-13.376c6.273-7.103,15.28-6.287,18.174-9.502
						c2.895-3.215,0,3.229,0,3.229s3.412,1.568,7.01,0.092c3.598-1.476,6.888-1.107,8.241,0.092
						c1.353,1.199-3.352,0.461-2.522,1.753c0.83,1.291,5.812,2.767,5.535,7.195c-0.277,4.428-3.013,0.369-3.013,0.369l-1.23,2.306
						c0,0,2.306,3.967,3.044,7.38v4.612l3.657,3.927c0.701,0.753,0.578,1.952-0.262,2.546l-2.195,1.552l-0.092,2.03l-1.199,1.845
						l1.845,1.015l-0.646,2.122c0,0,2.306,5.166,0.461,6.55c-1.845,1.384-9.409,0.553-9.409,0.553l-0.04,3.199l-1.818,4.728
						l-5.522,8.494L165.458,196.7l-4.981-4.612L161.336,191.308z"/>
				</defs>
				<use xlink:href="#XMLID_5_"  style="overflow:visible;fill:#FFFFFF;"/>
				<clipPath id="XMLID_00000016764633019615408440000015450266250984433043_">
					<use xlink:href="#XMLID_5_"  style="overflow:visible;"/>
				</clipPath>
				<path style="clip-path:url(#XMLID_00000016764633019615408440000015450266250984433043_);fill:#999999;" d="M193.133,186.46
					c-3.552-2.398-10.104-1.718-4.344-4.797c2.599-1.389,2.26,0.092,4.365-0.664l0.07-1.55l0.597-0.422
					c-4.221,0.127-2.493,1.885-6.549,0.561c-4.66-1.522-6.595-8.601-6.595-8.601l-3.505,2.467
					c0.602,2.362-2.076,10.424-2.502,13.468c-0.426,3.044,9.513,6.642,9.513,6.642s7.564,0.83,9.409-0.553
					C195.439,191.626,193.133,186.46,193.133,186.46z"/>
				
					<use xlink:href="#XMLID_5_"  style="overflow:visible;fill:none;stroke:#263238;stroke-linecap:round;stroke-linejoin:round;stroke-miterlimit:10;"/>
			</g>
			
				<path style="fill:#757575;stroke:#263238;stroke-width:0.75;stroke-linecap:round;stroke-linejoin:round;stroke-miterlimit:10;" d="
				M183.815,157.863l5.166,1.568l1.23-2.306c0,0,2.737,4.059,3.013-0.369c0.277-4.428-4.705-5.904-5.535-7.195
				c-0.83-1.291,3.875-0.553,2.522-1.753c-1.353-1.199-4.643-1.568-8.241-0.092c-3.598,1.476-7.01-0.092-7.01-0.092
				s2.895-6.443,0-3.229c-2.895,3.214-11.902,2.398-18.174,9.502c-6.273,7.103-2.398,13.376-2.398,13.376s1.753,7.195,3.413,8.948
				c1.557,1.643,3.187,4.837,4.221,8.725c1.374-0.161,3.367-0.191,3.897,0.869c0.83,1.661,7.933-7.195,7.933-7.195
				s-5.258-3.136-4.612-8.579c0.646-5.443,6.828-0.923,6.828-0.923l1.106,4.336l3.505-2.467c0,0-0.923-3.806,0-6.02
				S183.815,157.863,183.815,157.863z"/>
			<path style="fill:#263238;stroke:#263238;stroke-linecap:round;stroke-linejoin:round;stroke-miterlimit:10;" d="
				M190.211,157.125c0,0,2.737,4.059,3.013-0.369c0.277-4.428-4.705-5.904-5.535-7.195c-0.83-1.291,3.875-0.553,2.522-1.753
				c-1.353-1.199-4.643-1.568-8.241-0.092c-3.598,1.476-7.01-0.092-7.01-0.092s2.895-6.443,0-3.229
				c-2.895,3.214-11.902,2.398-18.174,9.502c-6.273,7.103-2.398,13.376-2.398,13.376s1.753,7.195,3.413,8.948
				c1.309,1.381,2.665,3.866,3.68,6.931c0.241-1.615,0.239-4.078-0.728-7.484c-1.937-6.826-1.937-14.206,4.428-15.682
				c6.365-1.476,15.313,2.491,15.959,1.107c0.646-1.384,0.922-4.797,2.675-3.229l5.166,1.568L190.211,157.125z"/>
			<path style="fill:#263238;" d="M190.826,171.193c0,0.739-0.33,1.337-0.738,1.337c-0.408,0-0.738-0.599-0.738-1.337
				c0-0.739,0.33-1.338,0.738-1.338C190.496,169.855,190.826,170.454,190.826,171.193z"/>
			
				<path style="fill:#263238;stroke:#263238;stroke-width:0.75;stroke-linecap:round;stroke-linejoin:round;stroke-miterlimit:10;" d="
				M187.281,168.01c0,0,2.992-0.738,5.114,0.923c0,0,1.107-0.554-0.369-2.122C192.026,166.811,187.056,165.427,187.281,168.01z"/>
			<path style="fill:none;stroke:#263238;stroke-width:0.75;stroke-linecap:round;stroke-linejoin:round;stroke-miterlimit:10;" d="
				M172.469,188.766c0,0-1.291,5.35,3.321,14.575"/>
			<g>
				<path style="fill:#263238;stroke:#263238;stroke-linecap:round;stroke-linejoin:round;stroke-miterlimit:10;" d="
					M174.671,186.921c0,0-0.444,2.998,2.318,5.535c1.817,1.669,5.11,3.339,7.156,4.29l0.04-3.183
					C184.184,193.563,174.245,189.966,174.671,186.921z"/>
			</g>
			<path style="fill:none;stroke:#263238;stroke-width:0.75;stroke-linecap:round;stroke-linejoin:round;stroke-miterlimit:10;" d="
				M188.143,183.151c0,0,0.956,0.396,2.282,0.107"/>
		</g>
		<g>
			<path style="fill:#FFFFFF;stroke:#263238;stroke-linecap:round;stroke-linejoin:round;stroke-miterlimit:10;" d="
				M129.573,276.865c0,0-0.415,7.611-1.245,16.19c-0.83,8.579,0,24.769,0,24.769s4.607,6.642,4.771,8.948
				c0.094,1.315,0.066,5.6,0.008,9.04c-0.044,2.592,1.115,4.221-0.038,4.705c-1.747,0.733-3.495-3.321-3.311-7.841
				c0,0-0.369,4.705-0.277,8.579l0.554,1.199c0,0,1.199,0.461,1.015,1.292c0,0-1.107,2.214-4.243,0c0,0-0.83,1.384-2.86,0.184
				c-2.029-1.199-2.306-2.491-2.306-2.491s-2.03,0.646-3.136-2.398c0,0-1.937,0.369-2.675-3.044
				c-0.738-3.413-0.646-10.24,1.384-16.42c0,0-2.767-37.361-2.122-44.095L129.573,276.865z"/>
			<path style="fill:#999999;stroke:#263238;stroke-linecap:round;stroke-linejoin:round;stroke-miterlimit:10;" d="
				M135.227,206.165c0,0-5.009,2.528-8.422,11.753c-3.413,9.225-11.716,44.095-11.716,49.446c0,5.35,0,5.35,0,5.35l15.498,2.398
				c0,0,1.291-6.089,0.923-7.749c0,0,13.284-26.383,13.653-31.365c0.082-1.11,0.686-3.208-0.145-5.798"/>
			<path style="fill:#757575;stroke:#263238;stroke-linecap:round;stroke-linejoin:round;stroke-miterlimit:10;" d="
				M131.305,277.145l0.113-1.388l0.553-2.952c-9.686-6.826-18.542-2.675-18.542-2.675l0.461,2.86l-0.216,1.769
				c-0.127,1.043,0.658,1.967,1.708,2.015c2.191,0.101,6.437,0.516,13.768,1.987C130.206,278.973,131.218,278.218,131.305,277.145z"
				/>
			<path style="fill:none;stroke:#263238;stroke-width:0.75;stroke-linecap:round;stroke-linejoin:round;stroke-miterlimit:10;" d="
				M130.68,328.801c0,0-0.553,0.738-0.738,2.306"/>
			<path style="fill:none;stroke:#263238;stroke-width:0.75;stroke-linecap:round;stroke-linejoin:round;stroke-miterlimit:10;" d="
				M123.83,335.535c0,0,0.83,0.311,1.003,1.28c0.173,0.969-0.104,4.486,0.934,5.708"/>
			<path style="fill:none;stroke:#263238;stroke-width:0.75;stroke-linecap:round;stroke-linejoin:round;stroke-miterlimit:10;" d="
				M120.717,335.812c0,0,0.842,1.983,0.923,5.627"/>
			<path style="fill:none;stroke:#263238;stroke-width:0.75;stroke-linecap:round;stroke-linejoin:round;stroke-miterlimit:10;" d="
				M117.258,333.321c0,0,1.314,2.064,1.245,5.719"/>
		</g>
	</g>
	<path id="XMLID_3_" style="fill:none;stroke:#999999;stroke-linecap:round;stroke-linejoin:round;stroke-miterlimit:10;" d="
		M185.015,390.977c0,0,3.69-19.926-0.738-41.328c-4.428-21.402,1.845-24.354,2.583-37.638c0.738-13.284-2.583-26.937-2.583-26.937
		l-43.19-6.642"/>
	<path id="XMLID_2_" style="fill:none;stroke:#999999;stroke-linecap:round;stroke-linejoin:round;stroke-miterlimit:10;" d="
		M164.942,381.995l1.339,4.305c0,0-1.164,8.317,1.003,21.917"/>
</g>
</svg>
