<svg width="175" height="213" viewBox="0 0 175 213" fill="none" xmlns="http://www.w3.org/2000/svg">
<path d="M70.5452 63.8049C70.3442 64.7309 70.1422 65.6769 70.2532 66.6169C70.3642 67.5569 70.8492 68.5079 71.6982 68.9269C72.0472 69.0989 72.4383 69.1729 72.8283 69.1889C73.4593 69.2149 74.1202 69.0799 74.6132 68.6839C75.1392 68.2609 75.4192 67.5909 75.9432 67.1659C76.4812 66.7299 77.2502 66.5729 77.6472 66.0049C78.0942 65.3659 79.3742 62.7319 79.0612 62.0169C78.7482 61.3019 78.9432 60.924 79.0612 60.153C79.1952 59.281 77.8883 59.9619 77.8613 59.0809L70.5452 63.8049Z" fill="#9B262C"/>
<path d="M19.502 183.58C21.574 185.309 23.022 186.016 25.651 185.405C27.827 184.899 30.306 183.618 31.986 185.472C32.4 185.93 32.672 186.499 32.81 187.1C33.154 188.596 33.134 193.37 32.539 193.922C31.979 194.442 27.225 194.749 25.645 194.844C25.903 193.958 25.656 192.604 24.55 192.885C24.099 193 23.769 193.373 23.642 193.821C23.138 195.6 21.275 195.65 19.742 195.538C13.803 195.104 7.88701 194.361 2.02601 193.312C1.49201 193.217 1.04599 192.818 0.937994 192.287C0.750994 191.368 1.67501 190.929 2.44501 190.684C5.17601 189.817 7.938 189.048 10.724 188.381C13.643 187.683 17.679 185.966 19.502 183.58Z" fill="black"/>
<path d="M21.1372 188.401C21.5592 191.82 21.9812 195.239 22.4032 198.658C26.2992 199.29 30.4872 199.883 34.0342 198.152C33.5472 193.348 33.0602 188.544 32.5732 183.74C29.5052 185.206 26.0602 185.876 22.6662 185.666L21.1372 188.401Z" fill="#F6A472"/>
<path d="M21.5998 196.197C23.6718 197.926 33.9628 196.445 33.9628 196.445C33.9628 196.445 36.2198 199.098 36.3588 199.699C36.7028 201.195 36.6828 205.97 36.0878 206.521C35.5278 207.041 30.7738 207.348 29.1938 207.443C29.4518 206.557 29.2048 205.203 28.0988 205.484C27.6478 205.599 27.3178 205.972 27.1908 206.42C26.6868 208.199 24.8238 208.249 23.2908 208.137C17.3518 207.703 11.4358 206.96 5.57484 205.911C5.04084 205.816 4.59482 205.417 4.48682 204.886C4.29982 203.967 5.22384 203.528 5.99384 203.283C8.72484 202.416 11.4868 201.647 14.2728 200.98C17.1918 200.281 19.7768 198.583 21.5998 196.197Z" fill="black"/>
<path d="M43.336 196.895C41.414 196.297 39.138 197.847 38.991 199.854C38.959 200.294 39.015 200.743 39.183 201.151C39.386 201.643 39.746 202.061 40.17 202.385C41.316 203.261 42.992 203.421 44.24 202.697C45.488 201.973 46.184 200.372 45.778 198.988C45.372 197.604 43.848 196.62 42.433 196.901L43.336 196.895Z" fill="black"/>
<path d="M39.3491 184.112C37.6511 183.804 35.7692 184.945 35.4002 186.631C35.0312 188.317 36.4061 190.21 38.1311 190.245C39.0501 190.264 39.9251 189.819 40.6301 189.229C40.9821 188.935 41.3052 188.597 41.5302 188.198C42.1002 187.185 41.9221 185.806 41.1131 184.971C40.3041 184.136 38.9321 183.915 37.9011 184.453L39.3491 184.112Z" fill="black"/>
<path d="M99.8638 187.338C98.6518 187.252 97.5318 188.327 97.4098 189.536C97.2878 190.745 98.0518 191.945 99.1278 192.51C99.7658 192.845 100.514 192.983 101.222 192.85C102.467 192.616 103.486 191.488 103.593 190.226C103.7 188.964 102.884 187.68 101.696 187.241C100.508 186.801 99.0528 187.245 98.3128 188.272L99.8638 187.338Z" fill="black"/>
<path d="M64.983 180.482C61.013 183.17 56.2031 184.242 51.7651 186.056C47.3271 187.87 42.887 190.871 41.563 195.479C41.261 196.531 41.272 197.921 42.243 198.427C43.113 198.881 44.2 198.27 44.748 197.456C45.297 196.642 45.52 195.649 46.021 194.805C47.034 193.1 48.999 192.248 50.837 191.503C55.028 189.803 59.219 188.104 63.41 186.404C64.097 186.125 64.8151 185.825 65.2831 185.249C66.2621 184.046 65.748 182.269 65.19 180.822L64.983 180.482Z" fill="#84734F"/>
<path d="M65.4892 179.622C64.0712 178.612 62.2062 178.566 60.4662 178.559C57.0792 178.545 53.6922 178.531 50.3052 178.517C47.9122 178.507 45.4612 178.507 43.2112 179.32C40.9612 180.133 38.9142 181.941 38.5072 184.299C38.4542 184.605 38.4322 184.931 38.5552 185.215C38.8612 185.922 39.8992 185.987 40.5602 185.592C41.2212 185.196 41.6442 184.51 42.1812 183.957C44.2302 181.847 47.5812 181.924 50.5142 182.149C53.8662 182.406 57.2182 182.663 60.5692 182.92C61.6372 183.002 62.7562 183.076 63.7352 182.64C64.7132 182.205 65.4752 181.08 65.1252 180.068L65.4892 179.622Z" fill="#84734F"/>
<path d="M73.6088 179.794C79.1268 179.437 84.6718 179.51 90.1778 180.014C92.7488 180.249 95.3678 180.594 97.6788 181.744C99.9898 182.894 101.972 184.994 102.341 187.549C102.411 188.033 102.352 188.644 101.901 188.834C101.564 188.976 101.184 188.798 100.869 188.611C99.0248 187.514 97.4478 185.97 95.4848 185.103C93.1978 184.093 90.6088 184.094 88.1088 184.114C84.5458 184.141 80.9838 184.169 77.4218 184.196C76.2168 184.205 74.9428 184.197 73.9068 183.581C72.8708 182.965 72.2338 181.509 72.9118 180.513L73.6088 179.794Z" fill="#84734F"/>
<path d="M67.875 153.423C67.828 155.579 67.781 157.736 67.734 159.892C67.727 160.202 67.722 160.522 67.841 160.808C68.173 161.61 69.231 161.746 70.099 161.761C70.292 161.764 70.498 161.764 70.659 161.656C70.903 161.492 70.943 161.156 70.958 160.862C71.084 158.406 71.102 155.945 71.012 153.488C70.014 153.275 69.004 153.124 67.987 153.037L67.875 153.423Z" fill="black"/>
<path d="M66.3628 178.026C68.0088 179.063 70.0978 179.233 71.8468 177.991C71.7578 177.991 71.8468 159.626 71.8468 159.626H66.7288L66.3628 178.026Z" fill="#9B262C"/>
<path d="M66.6978 177.745C65.7808 177.691 64.9618 178.419 64.6148 179.269C64.2678 180.119 64.2909 181.07 64.3299 181.988C64.3679 182.884 64.4158 183.78 64.4748 184.674C64.5018 185.086 64.5348 185.512 64.7298 185.876C65.2068 186.766 66.3939 186.921 67.4029 186.97C68.4329 187.019 69.4758 187.068 70.4828 186.849C71.4898 186.63 72.4738 186.107 73.0288 185.239C73.6138 184.324 73.6498 183.172 73.6258 182.086C73.6048 181.135 73.5519 180.185 73.4679 179.238C73.4199 178.698 73.3398 178.112 72.9528 177.732C72.5938 177.38 72.0569 177.294 71.5559 177.249C70.0529 177.116 68.5309 177.206 67.0539 177.513L66.6978 177.745Z" fill="#DC4345"/>
<path d="M84.6289 198.826C83.0389 199.136 81.8709 200.82 82.0749 202.427C82.2789 204.034 83.7729 205.356 85.3909 205.43C86.9579 205.502 88.5149 204.417 88.9619 202.913C89.4089 201.409 88.6799 199.633 87.2919 198.903C85.9029 198.173 84.0059 198.595 83.0809 199.862L84.6289 198.826Z" fill="black"/>
<path d="M70.8402 184.871C72.7042 187.65 75.7012 189.407 78.4142 191.366C81.1272 193.324 83.7922 195.826 84.3832 199.12C84.5302 199.941 84.6652 200.958 85.4472 201.25C86.0192 201.463 86.6862 201.116 87.0032 200.595C87.3202 200.074 87.3572 199.429 87.3102 198.821C87.0572 195.56 84.7332 192.869 82.3822 190.595C78.9802 187.304 75.2702 184.332 71.3142 181.732C70.6072 182.69 70.4412 184.021 70.8922 185.123L70.8402 184.871Z" fill="#84734F"/>
<path d="M87.7239 152.518C90.0759 151.623 92.2079 150.023 93.4559 147.838C94.7039 145.653 94.979 142.865 93.903 140.592C94.362 140.522 94.8219 140.451 95.2809 140.381C95.4799 140.351 95.692 140.322 95.874 140.408C96.085 140.508 96.1989 140.736 96.2979 140.947C97.4999 143.522 98.723 146.45 97.726 149.112C97.005 151.039 95.2119 152.407 93.2789 153.111C91.3459 153.815 89.2589 153.948 87.2059 154.075C87.1929 153.736 87.181 153.397 87.168 153.058L87.7239 152.518Z" fill="black"/>
<path d="M73.2671 156.432C64.0401 156.787 55.482 156.006 47.186 156.663C45.371 156.807 43.4641 156.975 41.8011 156.233C39.2591 155.1 38.0011 151.728 39.1801 149.206C40.3221 146.764 43.0911 145.587 45.6701 144.8C53.3081 142.469 61.3211 141.694 69.2701 140.931C71.4181 140.725 73.5661 140.519 75.7141 140.312C77.6041 140.131 79.5431 139.953 81.3761 140.449C84.5651 141.313 86.8871 144.065 88.5211 146.936C89.5741 148.786 90.4271 151.112 89.3921 152.972C88.4211 154.717 86.2161 155.281 84.2441 155.594C80.2421 156.229 76.186 156.526 72.134 156.481L73.2671 156.432Z" fill="#9B262C"/>
<path d="M100.309 92.7069C100.541 90.7319 98.4579 90.1809 96.5209 89.7279C94.0779 89.1569 91.4339 89.4929 89.2119 90.6569C85.3509 92.6789 83.1089 96.8869 81.9729 101.095C80.8369 105.303 80.5759 109.709 79.4369 113.916C78.6019 116.999 77.3039 119.94 76.4499 123.018C75.5959 126.096 75.2039 129.422 76.1999 132.457C77.0919 135.173 79.4659 136.255 81.5179 138.245C82.9349 139.62 88.3169 142.66 90.2129 143.213C92.1079 143.766 90.1419 142.81 91.3179 141.225C92.2699 139.942 92.3059 138.22 92.2739 136.623C92.2159 133.726 92.0589 130.829 92.1709 127.933C92.4089 121.805 93.8459 115.796 95.2759 109.833C96.2289 105.858 97.1959 101.846 98.9849 98.1709L100.309 92.7069Z" fill="#DC4345"/>
<path d="M49.594 127.731C43.32 128.668 37.046 129.606 30.772 130.543C27.93 130.968 25.055 131.401 22.399 132.497C19.743 133.593 17.285 135.437 16.035 138.024C14.377 141.455 15.078 145.502 15.778 149.248C18.054 161.439 19.933 173.703 21.412 186.016C21.446 186.296 21.489 186.597 21.684 186.799C21.88 187.003 22.182 187.056 22.463 187.091C25.619 187.479 28.898 186.774 31.616 185.125C31.995 184.895 32.372 184.639 32.622 184.273C32.905 183.859 32.997 183.348 33.077 182.854C34.841 171.947 34.074 160.639 30.854 150.07C30.673 149.477 30.483 148.857 30.592 148.247C30.788 147.144 31.861 146.453 32.834 145.897C38.385 142.726 43.935 139.555 49.486 136.384C49.665 136.282 49.909 136.185 50.059 136.327C50.209 136.469 49.862 136.74 49.838 136.535L49.594 127.731Z" fill="#51432A"/>
<path d="M72.0039 45.976C70.3149 47.395 68.4819 48.644 66.5419 49.696C66.0699 49.952 65.0599 50.308 65.0599 50.308L59.8369 47.5419L61.1879 52.278C61.1879 52.278 60.3469 53.523 60.0159 53.812C58.9449 54.748 57.8739 55.6829 56.8029 56.6189C56.2499 57.1019 55.6739 57.6179 55.4299 58.3109C55.0179 59.4809 55.7089 60.7979 56.6949 61.5499C57.6809 62.3019 60.4359 63.4849 61.6009 63.9089C61.9239 64.0269 62.2619 64.1649 62.4699 64.4399C62.7099 64.7569 62.4859 76.0889 62.7569 76.3349C63.0359 76.5889 63.4419 76.6319 63.8189 76.6509C67.1709 76.8259 70.5639 76.1289 73.5759 74.6469C73.6479 70.8309 73.7189 67.0149 73.7909 63.1989C74.9139 63.9979 75.7579 64.9849 77.7029 63.7049C79.9229 62.2439 76.8549 58.4199 75.8489 59.3619C77.7799 57.5439 79.7099 55.7259 81.6409 53.9089C78.4099 51.4369 75.2369 48.8909 72.1229 46.2729L72.0039 45.976Z" fill="#F6A472"/>
<path d="M68.8849 72.3199C66.7109 72.4089 64.4719 72.5119 62.4959 73.4229C60.0179 74.5639 58.2679 76.8199 56.6179 78.9939C54.5009 81.7829 51.7559 84.1909 50.2689 87.3599C46.2079 96.0129 48.2619 125.024 48.4359 128.753C50.5859 127.33 53.4259 127.48 55.9079 128.179C58.3889 128.878 60.7269 130.064 63.2509 130.587C67.8739 131.543 72.6279 130.197 77.1569 128.863C77.6969 128.704 78.2619 128.531 78.6609 128.133C79.1619 127.634 79.3029 126.888 79.4189 126.19C80.2819 120.999 81.1469 115.72 80.4939 110.498C80.2319 108.407 79.7279 106.325 79.8479 104.221C80.0319 101.004 81.7679 97.9099 84.4189 96.0779C83.5239 94.7599 80.0359 91.995 81.1629 90.868C81.3409 90.691 82.9369 90.3359 82.9369 90.3359C82.6379 86.1049 82.5819 83.0609 79.0329 78.0929C78.5969 77.4829 75.2089 72.3369 74.5899 72.7599L68.8849 72.3199Z" fill="black"/>
<path d="M49.5861 128.012C41.3861 133.303 31.834 135.988 22.657 139.306C19.046 140.611 15.199 142.254 13.316 145.6C12.056 147.839 11.8821 150.528 12.0431 153.092C12.2291 156.055 12.82 158.977 13.451 161.878C14.232 165.472 15.076 169.051 15.92 172.631C17.118 177.71 18.3151 182.788 19.5131 187.867C19.5941 188.21 19.681 188.565 19.904 188.838C20.118 189.101 20.4351 189.256 20.7471 189.389C24.7531 191.103 29.727 190.256 32.941 187.314C33.13 181.747 33.316 176.133 32.365 170.645C31.372 164.916 30.3051 160.963 29.6171 155.19C41.6191 157.646 53.0801 155.527 64.8021 151.967C68.5941 150.816 72.4631 149.24 74.9921 146.19C77.2091 143.516 78.1461 139.965 78.2521 136.493C78.3581 133.021 77.6981 129.576 77.0421 126.165C70.4021 125.902 63.7621 125.64 57.1221 125.377C54.0761 125.257 50.4301 125.439 48.8511 128.047L49.5861 128.012Z" fill="#84734F"/>
<path d="M96.5321 141.278C95.2211 143.264 92.4311 143.948 90.1751 143.188C87.9201 142.428 86.2141 140.466 85.3061 138.266C84.3991 136.066 84.2021 133.638 84.2171 131.259C84.2481 126.271 85.1921 121.231 87.4621 116.79C88.6601 114.446 90.2071 112.302 91.6451 110.097C95.1921 104.661 98.1051 98.8129 100.308 92.7079C99.9891 97.5189 99.6661 102.354 98.5831 107.052C97.4941 111.771 95.6481 116.306 94.8301 121.079C93.8841 126.599 94.3561 132.329 95.9731 137.691C96.3671 138.998 96.8351 140.333 96.7041 141.693L96.5321 141.278Z" fill="#9B262C"/>
<path d="M72.5572 95.0379C75.4022 92.4739 79.2412 91.354 82.8492 90.07C83.0552 89.997 88.3732 97.963 91.1562 102.052C92.2992 103.732 93.4431 105.946 92.3581 107.664C91.9171 108.363 91.1812 108.813 90.4652 109.225C85.6892 111.971 80.5792 114.134 75.2832 115.652L78.9392 120.814C79.4042 121.47 78.7652 122.363 78.0042 122.106C78.7022 122.185 78.9642 123.286 78.4172 123.755C77.8702 124.224 76.9101 123.927 76.6231 123.266C77.9701 124.567 79.5602 126.727 80.4392 128.72C80.6832 129.273 80.0472 129.8 79.5432 129.468C77.8382 128.347 75.9911 126.69 74.8971 125.377C75.8491 126.472 77.2022 127.969 78.4172 129.327C78.8692 129.832 78.2792 130.59 77.6802 130.274C74.4272 128.557 71.5461 125.005 69.4931 122.201C68.9921 123.458 68.4902 124.716 67.9892 125.973C67.6552 126.809 66.6881 127.799 66.0691 127.153C65.8811 126.956 65.8022 126.678 65.8252 126.406C66.0642 123.65 66.5701 120.917 67.3341 118.259C67.7041 116.972 68.1502 115.673 68.9792 114.62C69.6962 113.709 70.6612 113.031 71.5902 112.337C75.0192 109.776 76.9031 107.52 79.6411 104.231C79.8321 104.087 72.5572 95.0379 72.5572 95.0379Z" fill="#F6A472"/>
<path d="M48.5008 125.018C46.6028 125.238 44.7848 126.098 43.4108 127.425C42.3888 128.412 41.5538 129.905 42.5928 131.253C42.9308 131.692 43.4058 132.003 43.9228 132.203C46.0138 133.012 48.2728 132.523 50.4678 132.648C55.7618 132.95 60.2999 136.886 62.8059 141.558C65.3129 146.23 66.1528 151.588 66.9548 156.829C68.4078 156.871 69.8648 156.738 71.2858 156.435C71.5458 156.38 71.8188 156.311 72.0058 156.123C72.3228 155.807 72.2808 155.292 72.2138 154.849C71.5878 150.673 70.7648 146.526 69.7508 142.427C68.9808 139.318 68.1428 135.848 69.7298 133.066C70.7958 131.197 72.9418 129.516 72.4108 127.431C71.9258 125.529 69.5678 124.924 67.6178 124.7C64.0428 124.29 60.4548 124.004 56.8598 123.843C54.6278 123.743 52.3938 123.984 50.2338 124.557L48.5008 125.018Z" fill="#DC4345"/>
<path d="M82.6789 192.555C84.5099 194.545 86.6949 196.987 86.2259 199.922C86.1689 200.277 86.7118 200.429 86.7688 200.072C87.2758 196.899 85.0719 194.325 83.0769 192.157C82.8319 191.889 82.4339 192.288 82.6789 192.555Z" fill="#51432A"/>
<path d="M98.3249 183.978C99.7619 185.036 100.751 186.63 101.099 188.376C101.17 188.731 101.713 188.581 101.642 188.226C101.264 186.329 100.163 184.635 98.6089 183.491C98.3169 183.276 98.0349 183.765 98.3249 183.978Z" fill="#51432A"/>
<path d="M74.8499 180.843C80.3479 180.661 85.8759 180.8 91.3509 181.347C92.7189 181.484 94.1119 181.701 95.3349 182.364C95.6539 182.537 95.9389 182.05 95.6189 181.877C94.5139 181.278 93.2889 181.016 92.0519 180.861C90.6999 180.691 89.3359 180.6 87.9769 180.507C85.1889 180.317 82.3939 180.217 79.5989 180.207C78.0149 180.202 76.4309 180.226 74.8479 180.278C74.4889 180.292 74.4869 180.855 74.8499 180.843Z" fill="#51432A"/>
<path d="M73.417 180.144C73.478 181.052 73.539 181.96 73.601 182.868C73.611 183.02 73.723 183.15 73.883 183.15C74.028 183.15 74.175 183.021 74.165 182.868C74.104 181.96 74.043 181.052 73.982 180.144C73.972 179.992 73.86 179.862 73.7 179.862C73.554 179.862 73.407 179.991 73.417 180.144Z" fill="#51432A"/>
<path d="M59.2921 183.377C60.5561 183.024 61.8561 182.853 63.1681 182.867C63.5311 182.871 63.5311 182.307 63.1681 182.304C61.8091 182.29 60.4511 182.469 59.1421 182.834C58.7931 182.931 58.9421 183.475 59.2921 183.377Z" fill="#51432A"/>
<path d="M42.6052 196.558C44.0532 192.549 47.3722 189.583 51.0372 187.592C52.1382 186.994 53.2782 186.472 54.4402 186.004C54.7722 185.87 54.6272 185.325 54.2902 185.461C50.1872 187.113 46.2392 189.486 43.7022 193.205C43.0232 194.2 42.4702 195.275 42.0612 196.407C41.9392 196.75 42.4832 196.897 42.6052 196.558Z" fill="#51432A"/>
<path d="M40.2891 183.95C41.6781 181.769 44.35 180.97 46.758 180.541C50.017 179.961 53.366 179.728 56.673 179.68C58.611 179.652 60.549 179.705 62.482 179.836C62.844 179.861 62.843 179.297 62.482 179.273C58.968 179.035 55.4381 179.058 51.9271 179.348C50.2511 179.486 48.5731 179.671 46.9141 179.946C45.6061 180.164 44.308 180.473 43.087 181.001C41.766 181.572 40.5821 182.441 39.8021 183.666C39.6071 183.973 40.0941 184.255 40.2891 183.95Z" fill="#51432A"/>
<path d="M90.8188 91.7609C93.6098 90.9349 96.6979 91.4089 99.1169 93.0259C99.4189 93.2279 99.7019 92.7399 99.4009 92.5399C96.8639 90.8439 93.5939 90.3519 90.6689 91.2179C90.3229 91.3199 90.4698 91.8639 90.8188 91.7609Z" fill="#9B262C"/>
<path d="M44.378 128.185C43.697 128.794 44 129.866 44.647 130.364C45.022 130.653 45.4801 130.803 45.9371 130.905C46.4891 131.028 47.0511 131.11 47.6111 131.181C49.9301 131.473 52.272 131.418 54.6 131.593C55.741 131.679 56.8671 131.838 57.9861 132.075C59.1161 132.314 60.237 132.599 61.376 132.799C63.262 133.129 65.2101 133.203 67.0181 132.478C67.8741 132.135 68.6811 131.639 69.3011 130.948C69.6121 130.601 69.8791 130.21 70.0721 129.785C70.2581 129.375 70.4061 128.854 69.9651 128.552C69.6651 128.347 69.3831 128.835 69.6811 129.039C69.8441 129.15 69.429 129.814 69.363 129.924C69.175 130.238 68.9461 130.522 68.6851 130.777C68.1531 131.296 67.498 131.69 66.808 131.96C65.166 132.601 63.417 132.573 61.701 132.287C59.667 131.948 57.689 131.352 55.634 131.126C53.551 130.897 51.4511 130.921 49.3621 130.783C48.2091 130.707 47.027 130.607 45.904 130.321C45.47 130.21 44.9711 130.034 44.7191 129.636C44.5141 129.312 44.472 128.858 44.777 128.586C45.047 128.341 44.647 127.944 44.378 128.185Z" fill="#9B262C"/>
<path d="M60.8438 136.27C63.4078 139.351 65.3548 142.94 66.5488 146.765C66.8858 147.844 67.1618 148.941 67.3788 150.051C67.4488 150.406 67.9918 150.256 67.9218 149.901C67.1388 145.897 65.5608 142.05 63.3088 138.647C62.6718 137.684 61.9798 136.759 61.2418 135.871C61.0098 135.593 60.6138 135.993 60.8438 136.27Z" fill="#9B262C"/>
<path d="M64.543 139.388C65.788 141.548 66.9089 143.776 67.9019 146.062C68.0459 146.394 68.5319 146.107 68.3889 145.778C67.3959 143.492 66.274 141.263 65.03 139.103C64.848 138.79 64.361 139.073 64.543 139.388Z" fill="#9B262C"/>
<path d="M6.36389 204.086C10.5459 205.506 14.9089 206.378 19.3159 206.676C20.3519 206.746 21.4119 206.831 22.4469 206.723C23.4649 206.617 24.3379 206.269 25.1549 205.655C25.9489 205.058 26.7129 204.435 27.6839 204.149C28.5389 203.897 29.4739 203.941 30.2379 204.432C30.6729 204.712 30.8799 205.099 31.1429 205.526C31.3949 205.935 31.7509 206.208 32.2339 206.265C33.1039 206.367 33.9509 205.766 34.8129 205.996C35.1639 206.09 35.3129 205.546 34.9629 205.453C34.1639 205.24 33.4229 205.621 32.6389 205.703C32.2369 205.745 31.9029 205.654 31.6689 205.306C31.4239 204.941 31.2569 204.56 30.9269 204.257C29.4589 202.91 27.3139 203.418 25.8299 204.445C25.0109 205.011 24.3029 205.716 23.3209 205.994C22.3419 206.271 21.3019 206.217 20.2969 206.169C18.0919 206.064 15.8949 205.813 13.7239 205.416C11.2789 204.97 8.86789 204.342 6.51489 203.543C6.16989 203.426 6.02189 203.97 6.36389 204.086Z" fill="white"/>
<path d="M15.5309 203.324C16.3679 204.124 17.5359 204.93 18.6939 204.241C19.1609 203.963 19.5089 203.508 19.7459 203.027C20.0019 202.508 20.2149 201.886 20.1689 201.3C20.1259 200.734 19.8019 200.193 19.2319 200.027C18.7409 199.883 18.2469 200.136 18.0619 200.606C17.8959 201.029 17.9809 201.545 18.2699 201.894C18.6289 202.33 19.2309 202.478 19.7729 202.471C21.1049 202.455 22.4229 201.743 23.2739 200.741C23.5079 200.466 23.1109 200.066 22.8759 200.343C22.2809 201.043 21.4939 201.552 20.6029 201.785C19.9729 201.949 18.6829 202.086 18.5489 201.179C18.5109 200.922 18.6039 200.578 18.9079 200.55C19.3719 200.507 19.6069 201.043 19.6099 201.421C19.6159 202.207 19.1819 203.196 18.5419 203.669C17.6119 204.357 16.6129 203.581 15.9289 202.927C15.6679 202.675 15.2689 203.073 15.5309 203.324Z" fill="white"/>
<path d="M10.794 190.03C11.009 191.136 12.2149 191.614 13.2269 191.377C14.2669 191.133 15.106 190.299 15.481 189.316C15.673 188.813 15.766 188.183 15.473 187.699C15.24 187.313 14.739 187.07 14.296 187.214C13.807 187.374 13.6259 187.92 13.7139 188.388C13.7979 188.83 14.1309 189.197 14.5219 189.4C15.6789 190 16.8319 189.27 17.7139 188.529C17.9919 188.295 17.5919 187.899 17.3159 188.131C16.7589 188.599 16.0419 189.158 15.2639 189.056C14.9649 189.017 14.662 188.88 14.46 188.653C14.28 188.452 14.1469 188.077 14.3419 187.839C14.5609 187.572 14.941 187.847 15.036 188.088C15.179 188.451 15.055 188.889 14.911 189.233C14.619 189.927 14.023 190.526 13.305 190.769C12.526 191.032 11.514 190.792 11.338 189.88C11.269 189.524 10.726 189.675 10.794 190.03Z" fill="white"/>
<path d="M3.14288 191.764C7.21488 192.61 11.3259 193.271 15.4579 193.744C16.6339 193.879 17.8109 193.998 18.9899 194.102C19.3509 194.134 19.3489 193.57 18.9899 193.539C14.8819 193.175 10.7909 192.627 6.73187 191.891C5.58287 191.682 4.43591 191.459 3.29291 191.221C2.93891 191.147 2.78688 191.69 3.14288 191.764Z" fill="white"/>
<path d="M19.5469 184.603C21.2669 184.815 22.9989 184.923 24.7329 184.921C26.2589 184.92 27.8419 184.903 29.3289 184.517C30.1089 184.315 30.8599 183.993 31.5079 183.509C31.7949 183.294 31.5139 182.805 31.2239 183.022C30.0839 183.874 28.6709 184.162 27.2789 184.271C25.6549 184.399 24.0129 184.383 22.3879 184.293C21.4379 184.241 20.4909 184.155 19.5469 184.038C19.1879 183.996 19.1909 184.559 19.5469 184.603Z" fill="#51432A"/>
<path d="M23.837 149.894C24.47 150.659 25.216 151.334 25.941 152.009C26.778 152.789 27.629 153.555 28.446 154.355C28.813 154.715 29.177 155.081 29.506 155.477C29.737 155.757 30.134 155.356 29.904 155.079C29.271 154.314 28.525 153.639 27.8 152.964C26.963 152.184 26.112 151.419 25.295 150.618C24.928 150.258 24.564 149.892 24.235 149.496C24.004 149.216 23.608 149.617 23.837 149.894Z" fill="#51432A"/>
<path d="M26.0859 148.763C27.1359 150.813 28.2339 152.839 29.2849 154.889C29.4499 155.212 29.9369 154.927 29.7709 154.605C28.7209 152.555 27.6229 150.529 26.5729 148.479C26.4069 148.155 25.9209 148.44 26.0859 148.763Z" fill="#51432A"/>
<path d="M58.4489 139.974C56.7639 141.362 54.8769 142.504 52.8679 143.357C50.7469 144.257 48.5089 144.847 46.2779 145.402C41.6669 146.55 37.0109 147.522 32.3259 148.316C31.1599 148.513 29.9919 148.697 28.8229 148.875C27.8919 149.017 26.9569 149.182 26.0879 149.558C25.2219 149.932 24.4969 150.548 24.0469 151.384C23.5809 152.25 23.3959 153.229 23.2529 154.193C22.5599 158.844 22.6219 163.57 23.1119 168.238C23.6089 172.976 24.5249 177.658 25.5229 182.312C25.6439 182.878 25.7669 183.444 25.8909 184.01C25.9679 184.364 26.5109 184.214 26.4339 183.86C25.4309 179.258 24.4649 174.639 23.8749 169.962C23.2909 165.331 23.0769 160.633 23.5849 155.984C23.7019 154.913 23.8179 153.816 24.1059 152.775C24.3549 151.876 24.7899 151.027 25.5729 150.482C26.3429 149.946 27.2739 149.713 28.1839 149.547C29.2469 149.353 30.3209 149.214 31.3879 149.039C36.0479 148.279 40.6789 147.341 45.2679 146.23C47.4859 145.693 49.7129 145.147 51.8569 144.358C53.8989 143.607 55.8379 142.608 57.6039 141.335C58.0299 141.028 58.4439 140.706 58.8489 140.373C59.1279 140.142 58.7269 139.745 58.4489 139.974Z" fill="#51432A"/>
<path d="M77.1658 135.052C75.9928 135.019 74.8188 135.004 73.6458 135.01C73.2038 135.012 72.5858 134.916 72.3038 135.349C72.1888 135.526 72.1588 135.733 72.1318 135.938C72.0918 136.244 72.0548 136.549 72.0158 136.855C71.8688 138.016 71.7218 139.178 71.5758 140.34C71.4368 141.443 71.1698 142.614 71.3578 143.723C71.5288 144.736 72.1528 145.635 73.0008 146.201C73.3028 146.403 73.5858 145.915 73.2848 145.714C72.6128 145.266 72.1278 144.568 71.9428 143.781C71.7158 142.816 71.9588 141.762 72.0808 140.797C72.2118 139.758 72.3438 138.718 72.4748 137.679C72.5428 137.144 72.6098 136.609 72.6778 136.074C72.6978 135.916 72.6938 135.665 72.8648 135.596C73.0638 135.515 73.3908 135.573 73.5998 135.572C74.7888 135.566 75.9778 135.58 77.1668 135.614C77.5278 135.626 77.5278 135.062 77.1658 135.052Z" fill="#51432A"/>
<path d="M72.1932 138.035C73.7762 138.489 75.3942 138.8 77.0312 138.973C77.3912 139.011 77.3882 138.447 77.0312 138.41C75.4442 138.242 73.8762 137.932 72.3432 137.492C71.9942 137.392 71.8452 137.935 72.1932 138.035Z" fill="#51432A"/>
<path d="M74.0922 124.369C75.4292 126.057 76.8552 127.672 78.3652 129.207C78.6202 129.466 79.0182 129.068 78.7632 128.809C77.2532 127.274 75.8272 125.659 74.4902 123.971C74.2662 123.686 73.8692 124.087 74.0922 124.369Z" fill="#8C4A29"/>
<path d="M75.4829 121.897C76.1199 122.665 76.7569 123.432 77.3949 124.2C77.4919 124.317 77.6929 124.301 77.7929 124.2C77.9089 124.084 77.8909 123.919 77.7929 123.802C77.1559 123.034 76.5189 122.267 75.8809 121.499C75.7839 121.382 75.5829 121.398 75.4829 121.499C75.3669 121.614 75.3859 121.779 75.4829 121.897Z" fill="#8C4A29"/>
<path d="M76.6669 120.751C77.0669 121.365 77.5219 121.944 78.0239 122.478C78.1249 122.585 78.3219 122.588 78.4219 122.478C78.5279 122.363 78.5299 122.194 78.4219 122.08C77.9349 121.563 77.5369 121.058 77.1529 120.467C77.0729 120.344 76.8999 120.281 76.7679 120.366C76.6449 120.445 76.5809 120.619 76.6669 120.751Z" fill="#8C4A29"/>
<path d="M73.6432 125.134C74.7142 123.348 75.9552 121.672 77.3542 120.128C77.5972 119.86 77.2002 119.46 76.9562 119.73C75.5262 121.308 74.2522 123.023 73.1572 124.85C72.9692 125.161 73.4562 125.444 73.6432 125.134Z" fill="#8C4A29"/>
<path d="M72.1931 115.678C73.0531 115.326 74.0321 115.386 74.8331 115.862C75.1451 116.048 75.4291 115.561 75.1171 115.375C74.2001 114.829 73.0341 114.728 72.0431 115.134C71.9021 115.192 71.8031 115.321 71.8461 115.481C71.8831 115.614 72.0511 115.736 72.1931 115.678Z" fill="#8C4A29"/>
<path d="M79.885 104.369C81.743 104.375 83.6 104.382 85.458 104.388C85.821 104.389 85.821 103.826 85.458 103.824C83.6 103.818 81.743 103.812 79.885 103.805C79.522 103.805 79.522 104.368 79.885 104.369Z" fill="#8C4A29"/>
<path d="M74.101 62.0879C74.922 61.7239 75.804 61.4769 76.695 61.3639C76.846 61.3449 76.977 61.2479 76.977 61.0819C76.977 60.9449 76.847 60.7809 76.695 60.7999C75.697 60.9259 74.736 61.1929 73.816 61.6009C73.677 61.6629 73.644 61.8659 73.715 61.9859C73.8 62.1309 73.962 62.1499 74.101 62.0879Z" fill="#8C4A29"/>
<path d="M75.0589 61.7349C75.3159 62.1259 75.5729 62.5169 75.8309 62.9079C75.9119 63.0309 76.0839 63.0939 76.2159 63.0089C76.3389 62.9299 76.4039 62.7549 76.3169 62.6239C76.0599 62.2329 75.8029 61.8419 75.5459 61.4519C75.4649 61.3289 75.2929 61.2659 75.1609 61.3509C75.0369 61.4289 74.9719 61.6029 75.0589 61.7349Z" fill="#8C4A29"/>
<path opacity="0.53" d="M62.4697 64.4379L69.9977 65.4909L62.6277 66.5919L62.4697 64.4379Z" fill="#8C4A29"/>
<path d="M60.6621 54.94C61.4261 55.866 62.7711 56.246 63.9081 55.87C64.2511 55.757 64.1041 55.212 63.7581 55.327C62.7931 55.646 61.7051 55.3249 61.0601 54.5419C60.9631 54.4249 60.7621 54.4419 60.6621 54.5419C60.5461 54.6569 60.5651 54.822 60.6621 54.94Z" fill="#8C4A29"/>
<path d="M66.1188 51.3079C65.8018 51.9439 65.8698 52.7149 66.3128 53.2739C66.7308 53.8019 67.4398 54.0299 68.0908 53.9049C68.2398 53.8759 68.3258 53.6969 68.2878 53.5589C68.2448 53.4029 68.0908 53.3339 67.9418 53.3619C67.8498 53.3799 67.7248 53.3849 67.6018 53.3749C67.5238 53.3689 67.3768 53.3339 67.2698 53.2949C67.1918 53.2669 67.0718 53.2019 66.9808 53.1389C66.9048 53.0869 66.8038 52.9919 66.7318 52.9009C66.4508 52.5439 66.4038 51.9979 66.6058 51.5919C66.6738 51.4559 66.6418 51.2869 66.5048 51.2069C66.3788 51.1339 66.1868 51.1709 66.1188 51.3079Z" fill="black"/>
<path d="M77.3072 59.8449C76.3042 59.0019 74.6702 59.0489 73.7172 59.9479C73.2022 59.5709 72.6871 59.1939 72.1731 58.8169C73.7281 58.1849 75.2362 57.4369 76.6802 56.5789C77.3272 56.1949 77.9792 55.7719 78.4002 55.1489C78.8212 54.5259 78.9582 53.6519 78.5382 53.0279C77.6002 51.6309 74.8822 52.4649 74.1402 50.9549C73.8292 50.3219 74.0472 49.5329 73.7622 48.8889C73.1062 47.4089 70.7092 47.9779 69.5052 46.8949C68.6812 46.1539 68.7072 44.7369 69.4212 43.8899C70.1362 43.0429 71.3662 42.7479 72.4522 42.9659C73.1052 43.0969 73.7272 43.3919 74.3932 43.4289C75.5702 43.4949 76.6952 42.7479 77.8662 42.8869C78.9062 43.0109 79.7402 43.8099 80.3402 44.6679C80.9412 45.5259 81.4012 46.4929 82.1322 47.2429C83.0282 48.1609 84.2581 48.6809 85.2121 49.5389C86.6061 50.7939 87.2792 52.6429 87.9012 54.4129C88.0512 54.8389 88.2022 55.2759 88.1902 55.7279C88.1662 56.6019 87.5272 57.3519 86.7902 57.8229C86.0532 58.2939 85.2052 58.5589 84.4272 58.9579C82.1342 60.1339 79.6531 64.6209 77.1991 65.4059C79.2321 61.8479 78.4422 60.5169 77.3682 59.8149L77.3072 59.8449Z" fill="#9B262C"/>
<path d="M74.294 44.1488C73.294 43.9568 72.607 44.8918 72.659 45.8158C72.71 46.7158 73.247 47.5438 74.001 48.0218C74.763 48.5048 75.741 48.5748 76.574 48.2378C76.97 48.0778 77.424 47.8208 77.654 47.4448C77.911 47.0258 77.693 46.5568 77.265 46.3718C76.432 46.0108 75.537 46.7508 75.394 47.5628C75.223 48.5348 75.818 49.5168 76.56 50.0978C77.255 50.6428 78.309 50.9898 79.154 50.5768C79.541 50.3878 79.81 49.9638 79.681 49.5278C79.549 49.0798 79.06 48.9648 78.656 49.0788C77.732 49.3408 76.936 50.3978 77.585 51.2948C77.869 51.6878 78.303 51.9388 78.741 52.1248C79.313 52.3678 79.904 52.5548 80.512 52.6858C80.866 52.7618 81.017 52.2188 80.662 52.1428C79.998 51.9998 77.107 51.2998 78.085 50.1108C78.267 49.8898 78.556 49.6788 78.838 49.6138C78.931 49.5918 79.067 49.5688 79.129 49.6628C79.201 49.7728 79.107 49.9248 79.024 49.9958C78.552 50.3928 77.7 50.1468 77.232 49.8768C76.665 49.5498 76.189 49.0018 76.002 48.3698C75.832 47.7938 75.983 47.0538 76.638 46.8708C76.831 46.8168 77.372 46.8828 77.146 47.1888C76.971 47.4268 76.659 47.5978 76.391 47.7078C75.819 47.9408 75.149 47.9538 74.583 47.6968C73.973 47.4208 73.483 46.8738 73.298 46.2278C73.197 45.8758 73.173 45.4718 73.346 45.1368C73.493 44.8518 73.815 44.6278 74.145 44.6918C74.498 44.7608 74.65 44.2178 74.294 44.1488Z" fill="#6D1820"/>
<path d="M83.1552 52.718C83.6562 53.668 83.4552 54.8559 82.7762 55.6659C82.1782 56.3789 81.0842 57.04 80.1172 56.863C79.6712 56.781 79.3392 56.46 79.2892 56.003C79.2442 55.582 79.4731 55.202 79.8681 55.049C80.2581 54.898 80.6942 55.001 80.9602 55.327C81.2152 55.64 81.2832 56.073 81.2782 56.465C81.2662 57.362 80.6641 59.068 79.4641 58.577C79.1291 58.44 78.9832 58.985 79.3142 59.12C79.9362 59.375 80.6591 59.106 81.0871 58.619C81.5061 58.142 81.7272 57.498 81.8092 56.876C81.9492 55.814 81.5201 54.389 80.2171 54.415C79.6291 54.427 79.0621 54.77 78.8341 55.32C78.6091 55.863 78.7332 56.522 79.1302 56.954C80.0742 57.979 81.7982 57.26 82.6872 56.54C83.8942 55.562 84.3841 53.841 83.6411 52.434C83.4721 52.112 82.9862 52.397 83.1552 52.718Z" fill="#6D1820"/>
<path d="M85.8328 53.6469C86.2988 54.0549 86.4958 54.7519 86.2488 55.3339C86.0008 55.9179 85.3688 56.2629 84.7468 56.2139C84.5948 56.2019 84.4648 56.3519 84.4648 56.4959C84.4648 56.6589 84.5938 56.7659 84.7468 56.7779C85.5898 56.8449 86.4358 56.3299 86.7638 55.5519C87.0928 54.7719 86.8678 53.8069 86.2308 53.2489C85.9598 53.0109 85.5598 53.4079 85.8328 53.6469Z" fill="#6D1820"/>
<path d="M83.2442 50.0489C83.2822 50.0549 83.3192 50.0619 83.3562 50.0729C83.3732 50.0779 83.3892 50.0839 83.4062 50.0889C83.4662 50.1069 83.3812 50.0739 83.4032 50.0859C83.4362 50.1039 83.4702 50.1189 83.5032 50.1379C83.5182 50.1469 83.5322 50.1559 83.5472 50.1659C83.5852 50.1939 83.5802 50.1889 83.5462 50.1629C83.5522 50.1829 83.6072 50.2159 83.6242 50.2329C83.6492 50.2579 83.6722 50.2839 83.6952 50.3109C83.7342 50.3539 83.6642 50.2649 83.6942 50.3089C83.7042 50.3239 83.7142 50.3379 83.7242 50.3529C83.7452 50.3849 83.7642 50.4179 83.7822 50.4519C83.7902 50.4679 83.7982 50.4839 83.8052 50.4999C83.8332 50.5569 83.7982 50.4729 83.8042 50.4979C83.8142 50.5349 83.8302 50.5699 83.8402 50.6069C83.8492 50.6409 83.8562 50.6749 83.8632 50.7099C83.8742 50.7639 83.8582 50.6449 83.8622 50.7039C83.8632 50.7209 83.8652 50.7389 83.8662 50.7559C83.8682 50.7909 83.8682 50.8259 83.8652 50.8599C83.8642 50.8759 83.8582 50.8959 83.8602 50.9119C83.8672 50.8659 83.8672 50.8579 83.8622 50.8889C83.8522 50.9399 83.8432 50.9739 83.8322 51.0069C83.8292 51.0159 83.8082 51.0859 83.8212 51.0389C83.8342 50.9929 83.8102 51.0589 83.8052 51.0689C83.7372 51.1999 83.7672 51.3809 83.9062 51.4539C84.0362 51.5219 84.2192 51.4919 84.2912 51.3529C84.4842 50.9809 84.4592 50.5539 84.2742 50.1839C84.1052 49.8469 83.7712 49.5619 83.3912 49.5059C83.2462 49.4839 83.0812 49.5419 83.0442 49.7029C83.0172 49.8359 83.0882 50.0259 83.2442 50.0489Z" fill="#6D1820"/>
<path d="M81.1709 48.0569C81.2109 48.0899 81.2488 48.1239 81.2848 48.1609C81.3038 48.1809 81.3219 48.2009 81.3399 48.2209C81.4029 48.2959 81.3378 48.2119 81.3578 48.2419C81.3878 48.2839 81.4168 48.3259 81.4428 48.3699C81.4698 48.4159 81.4878 48.4709 81.5178 48.5149C81.5328 48.5569 81.5418 48.5829 81.5498 48.6089C81.5648 48.6579 81.5768 48.7079 81.5868 48.7589C81.6018 48.8409 81.5888 48.7449 81.5918 48.7829C81.5938 48.8099 81.5968 48.8369 81.5988 48.8639C81.6018 48.9179 81.6009 48.9729 81.5979 49.0269C81.5889 49.1739 81.7338 49.3149 81.8798 49.3089C82.0408 49.3019 82.1518 49.1849 82.1618 49.0269C82.1938 48.5169 81.9668 47.9829 81.5708 47.6589C81.5108 47.6099 81.4508 47.5769 81.3718 47.5769C81.3028 47.5769 81.2198 47.6079 81.1728 47.6589C81.0758 47.7619 81.0489 47.9569 81.1709 48.0569Z" fill="#6D1820"/>
<path d="M80.452 60.213C80.227 60.312 80.045 60.4799 79.9 60.6749C79.752 60.8739 79.675 61.1089 79.645 61.3529C79.637 61.4189 79.682 61.5069 79.728 61.5519C79.777 61.6009 79.857 61.6379 79.927 61.6349C80 61.6319 80.0749 61.6079 80.1259 61.5519C80.1799 61.4929 80.1989 61.4309 80.2089 61.3529C80.2069 61.3649 80.2039 61.3899 80.2009 61.4149C80.2139 61.3189 80.24 61.2259 80.276 61.1369C80.267 61.1599 80.2569 61.1819 80.2479 61.2039C80.2869 61.1109 80.338 61.0239 80.4 60.9439C80.385 60.9629 80.371 60.9819 80.356 61.0009C80.418 60.9209 80.4889 60.8499 80.5689 60.7879C80.5499 60.8029 80.531 60.8169 80.512 60.8319C80.582 60.7789 80.6569 60.7349 80.7379 60.6989C80.7979 60.6719 80.851 60.5909 80.867 60.5309C80.886 60.4639 80.8769 60.3739 80.8389 60.3139C80.7999 60.2539 80.743 60.2009 80.671 60.1849C80.59 60.1669 80.525 60.181 80.452 60.213Z" fill="#6D1820"/>
<path d="M78.1059 57.4709C77.9329 57.6009 77.7609 57.7309 77.5879 57.8609C77.5549 57.8789 77.5288 57.9029 77.5088 57.9339C77.4838 57.9609 77.4668 57.9929 77.4588 58.0299C77.4398 58.0969 77.4489 58.1869 77.4869 58.2469C77.5259 58.3069 77.5829 58.3599 77.6549 58.3759C77.7239 58.3919 77.8129 58.3919 77.8719 58.3479C78.0449 58.2179 78.2179 58.0879 78.3899 57.9579C78.4229 57.9399 78.4489 57.9159 78.4689 57.8849C78.4939 57.8579 78.5108 57.8259 78.5188 57.7889C78.5368 57.7219 78.5289 57.6319 78.4909 57.5719C78.4519 57.5119 78.3939 57.4589 78.3229 57.4429C78.2549 57.4269 78.1659 57.4259 78.1059 57.4709Z" fill="#6D1820"/>
<path d="M69.2931 49.2889C68.8641 49.4649 68.3661 49.7349 68.3491 50.1979C68.3291 50.7689 69.0181 51.0379 69.5331 51.2839C70.3601 51.6789 71.0131 52.4219 71.2991 53.2929C71.9891 51.7119 70.861 49.888 69.235 49.312L69.2931 49.2889Z" fill="#6D1820"/>
<path d="M60.4848 75.375C62.0008 73.915 62.0419 71.201 60.5699 69.696C60.2259 69.344 59.7849 68.828 60.0939 68.444C60.2059 68.305 60.3879 68.245 60.5619 68.208C61.7249 67.958 62.9079 68.4059 64.0639 68.6879C67.4029 69.5029 70.8978 68.9379 74.3158 68.5799C74.9998 68.5079 75.8688 68.5469 76.1388 69.1799C76.3808 69.7489 75.9438 70.353 75.6128 70.875C74.8168 72.132 74.5519 73.713 74.8929 75.161L60.4848 75.375Z" fill="black"/>
<path d="M117.627 109.588C124.416 105.711 135.57 105.021 144 105.497C149.29 105.795 155.844 107.45 160.213 109.766C151.413 110.881 141.424 110.375 132.507 110.311L117.627 109.588Z" fill="#663A12"/>
<path d="M122.043 108.653C125.518 107.089 129.423 106.862 133.228 106.659C139.157 106.342 145.165 106.03 150.98 107.232C152.012 107.445 153.207 107.867 153.475 108.886C152.565 109.759 151.219 109.953 149.966 110.105C147.973 110.346 145.981 110.587 143.988 110.828C137.29 111.638 130.285 112.414 123.967 110.045L122.043 108.653Z" fill="#B56012"/>
<path d="M132.644 19.0469C132.672 17.2199 134.384 15.7809 136.171 15.4009C137.086 15.2069 138.03 15.2199 138.964 15.1719C144.966 14.8629 150.774 11.8309 154.459 7.08293C155.67 5.52193 158.594 2.15794 158.512 1.64294C154.014 2.36594 149.59 3.55395 145.335 5.18195C141.81 6.52995 138.205 8.35194 136.259 11.5859C134.968 13.7309 134.49 16.3809 132.761 18.1919L132.644 19.0469Z" fill="#84734F"/>
<path d="M131.09 25.193C131.568 22.539 130.709 19.783 129.284 17.494C127.859 15.204 125.9 13.304 123.962 11.429C122.506 10.02 121.05 8.61097 119.594 7.20197C117.974 5.63497 116.318 4.04097 114.289 3.05997C112.475 2.18297 110.409 1.81997 108.752 0.672974C110.203 6.27697 113.977 11.241 118.988 14.139C121.526 15.607 124.353 16.561 126.774 18.215C129.195 19.868 131.251 22.506 131.086 25.433L131.09 25.193Z" fill="#84734F"/>
<path d="M127.131 39.311C126.953 37.591 126.057 35.956 124.703 34.881C124.013 34.333 123.217 33.929 122.531 33.376C121.009 32.149 120.147 30.302 118.929 28.773C116.271 25.439 111.725 23.725 107.527 24.474C105.873 24.769 104.175 25.413 102.565 24.932C103.743 26.317 104.928 27.698 106.118 29.073C107.461 30.624 108.913 32.237 110.871 32.851C112.967 33.508 115.279 32.897 117.414 33.414C119.001 33.798 120.371 34.773 121.86 35.443C123.807 36.319 126.317 37.029 126.789 39.111L127.131 39.311Z" fill="#84734F"/>
<path d="M129.998 30.202C132.351 27.979 135.262 26.127 138.491 25.912C139.465 25.847 140.442 25.932 141.415 26.018C145.556 26.382 150.167 26.983 152.785 30.213C154.17 31.922 154.767 34.134 155.126 36.305C153.741 35.342 151.912 36.401 150.253 36.712C149.197 36.91 148.1 36.782 147.07 36.477C143.385 35.387 140.673 32.194 137.101 30.778C134.801 29.866 132.274 29.742 129.801 29.67L129.998 30.202Z" fill="#84734F"/>
<path d="M126.66 42.5469C128.071 40.9439 129.505 39.3219 131.284 38.1399C133.063 36.9579 135.258 36.2479 137.351 36.6739C138.547 36.9169 139.651 37.5139 140.849 37.7459C142.834 38.1299 144.892 37.4819 146.898 37.7319C148.852 37.9759 150.592 39.0449 152.253 40.1029C152.541 40.2859 152.847 40.4929 152.961 40.8149C153.077 41.1439 152.96 41.5089 152.809 41.8229C151.629 44.2769 148.666 45.2379 145.985 45.7149C144.112 46.0489 142.171 46.2679 140.321 45.8219C137.818 45.2189 135.762 43.4739 133.413 42.4179C131.903 41.7389 130.265 41.3459 128.611 41.2679C127.982 41.2379 127.151 41.4269 127.107 42.0559L126.66 42.5469Z" fill="#84734F"/>
<path d="M125.334 50.6709C123.786 49.0009 122.158 47.3679 120.211 46.1879C118.264 45.0079 115.948 44.307 113.697 44.65C112.215 44.876 110.839 45.534 109.502 46.211C105.469 48.252 101.556 50.53 97.79 53.03C99.686 53.977 101.9 53.963 104.019 53.927C106.513 53.886 109.123 53.815 111.302 52.601C112.34 52.023 113.229 51.21 114.239 50.582C117.614 48.485 122.314 48.801 125.378 51.331L125.334 50.6709Z" fill="#84734F"/>
<path d="M125.488 53.103C130.041 49.597 136.419 49.609 142.016 50.912C143.493 51.256 144.965 51.683 146.301 52.4C149.81 54.284 152.094 58.249 151.963 62.23C147.981 61.689 144.773 58.457 140.802 57.846C139.618 57.664 138.41 57.724 137.22 57.587C135.368 57.374 133.574 56.675 132.067 55.579C131.067 54.852 130.193 53.957 129.151 53.294C128.109 52.631 126.813 52.211 125.633 52.577L125.488 53.103Z" fill="#84734F"/>
<path d="M124.664 56.87C123.116 54.762 120.143 54.374 117.529 54.462C115.771 54.521 113.99 54.721 112.366 55.397C110.743 56.073 109.279 57.277 108.6 58.899C108.061 60.186 108.047 61.623 108.041 63.018C108.035 64.459 108.029 65.9 108.023 67.341C109.58 65.453 111.268 63.474 113.6 62.732C114.69 62.385 115.851 62.336 116.963 62.07C118.075 61.804 119.208 61.253 119.742 60.242C120.025 59.706 120.125 59.068 120.522 58.61C121.574 57.396 123.998 58.0961 124.712 56.6571L124.664 56.87Z" fill="#84734F"/>
<path d="M142.781 112.993C143.666 110.27 144.75 107.613 146.028 105.051C146.101 104.905 146.175 104.758 146.249 104.613C146.286 104.54 146.323 104.467 146.361 104.395C146.386 104.347 146.411 104.298 146.436 104.25C146.452 104.219 146.493 104.14 146.454 104.216C146.618 103.902 146.786 103.59 146.956 103.279C147.296 102.657 147.648 102.042 148.012 101.433C148.748 100.199 149.574 99.023 150.313 97.792C150.707 97.136 151.069 96.455 151.343 95.74C151.613 95.038 151.798 94.31 151.957 93.576C152.262 92.171 152.418 90.739 152.711 89.331C152.719 89.291 152.728 89.251 152.736 89.211C152.733 89.227 152.711 89.322 152.732 89.229C152.75 89.153 152.767 89.077 152.784 89.001C152.826 88.824 152.87 88.648 152.916 88.472C153.002 88.146 153.095 87.823 153.196 87.501C153.4 86.847 153.634 86.203 153.893 85.569C154.147 84.946 154.425 84.332 154.723 83.729C154.792 83.589 154.862 83.45 154.933 83.312C154.957 83.266 154.98 83.22 155.004 83.173C155.005 83.17 155.065 83.057 155.028 83.126C154.991 83.196 155.051 83.082 155.053 83.08C155.077 83.034 155.102 82.988 155.126 82.942C155.286 82.643 155.45 82.347 155.617 82.053C156.983 79.659 158.594 77.417 160.23 75.203C160.432 74.93 160.634 74.657 160.837 74.384C161.086 74.048 160.997 73.499 160.641 73.272C160.268 73.034 159.795 73.11 159.529 73.468C157.888 75.679 156.25 77.899 154.825 80.258C153.391 82.633 152.155 85.158 151.437 87.846C151.058 89.264 150.857 90.712 150.611 92.157C150.551 92.507 150.488 92.857 150.416 93.205C150.409 93.239 150.367 93.434 150.393 93.316C150.372 93.409 150.351 93.502 150.329 93.594C150.288 93.766 150.244 93.937 150.197 94.107C150.004 94.805 149.749 95.478 149.427 96.127C149.386 96.209 149.42 96.142 149.429 96.126C149.41 96.162 149.39 96.199 149.371 96.235C149.326 96.319 149.279 96.403 149.232 96.487C149.144 96.642 149.054 96.795 148.962 96.948C148.77 97.265 148.57 97.576 148.367 97.887C147.978 98.482 147.588 99.076 147.214 99.68C146.449 100.914 145.733 102.179 145.061 103.466C143.72 106.035 142.565 108.698 141.62 111.438C141.505 111.773 141.392 112.109 141.283 112.446C141.154 112.843 141.337 113.338 141.759 113.471C142.156 113.595 142.643 113.418 142.781 112.993Z" fill="#8E571F"/>
<path d="M127.793 61.9631C127.324 61.0841 127.21 59.8931 127.895 59.1691C128.458 58.5741 129.385 58.4811 130.186 58.6521C130.986 58.8241 131.722 59.214 132.504 59.456C134.017 59.926 135.637 59.83 137.218 59.935C138.798 60.041 140.477 60.413 141.555 61.574C142.481 62.572 142.801 63.974 143.085 65.306C143.44 66.969 143.795 68.632 144.15 70.296C140.102 71.102 136.023 69.183 132.553 66.948C130.326 65.514 128.091 63.79 127.137 61.319L127.793 61.9631Z" fill="#84734F"/>
<path d="M152.763 90.54C154.206 88.089 156.647 86.2451 159.4 85.5281C160.926 85.1311 162.518 85.07 164.07 84.792C167.254 84.222 170.298 82.74 173.532 82.777C171.383 85.084 168.758 86.885 166.152 88.66C164.035 90.102 161.861 91.565 159.38 92.202C156.899 92.839 154.011 92.498 152.192 90.695L152.763 90.54Z" fill="#51432A"/>
<path d="M153.78 84.937C154.089 83.172 152.957 81.5179 151.972 80.0219C150.001 77.0269 148.406 73.7859 147.233 70.3979C149.964 71.2019 152.317 73.2129 153.535 75.7859C154.754 78.3589 154.819 81.4529 153.711 84.0759L153.78 84.937Z" fill="#51432A"/>
<path d="M159.222 74.834C160.201 73.299 161.311 71.806 162.788 70.742C166.022 68.411 170.352 68.5319 174.333 68.7489C172.582 69.9429 170.831 71.138 169.08 72.333C167.6 73.343 166.098 74.3639 164.404 74.9469C162.71 75.5299 160.773 75.633 159.175 74.823L159.222 74.834Z" fill="#51432A"/>
<path d="M150.267 94.6089C150.131 93.4219 149.309 92.3379 148.203 91.8859C147.687 91.6749 147.125 91.596 146.601 91.407C145.352 90.957 144.393 89.9079 143.774 88.7329C143.156 87.5579 142.838 86.253 142.526 84.963C142.014 82.848 141.502 80.7329 140.99 78.6169C142.029 79.9849 143.22 81.2299 144.315 82.5539C147.168 86.0059 149.356 90.0039 150.727 94.2669L150.267 94.6089Z" fill="#51432A"/>
<path d="M126.278 64.9819C123.474 65.5249 120.755 66.6979 118.628 68.6029C116.501 70.5089 115.006 73.1819 114.787 76.0289C114.688 77.3139 114.844 78.6089 114.736 79.8929C114.629 81.1769 114.204 82.5169 113.199 83.3239C114.625 82.5259 116.051 81.7289 117.476 80.9309C119.093 80.0269 120.723 79.1129 122.114 77.8899C123.505 76.6669 124.657 75.0939 125.055 73.2849C125.294 72.1979 125.253 71.0729 125.33 69.9629C125.45 68.2129 125.866 66.4829 126.554 64.8689L126.278 64.9819Z" fill="#84734F"/>
<path d="M135.473 115.137C138.659 100.487 133.713 85.3919 128.296 71.4129C127.121 68.3799 125.914 65.339 125.239 62.157C123.629 54.572 125.121 46.712 126.613 39.103C127.273 35.736 127.937 32.3549 129.08 29.1199C129.895 26.8139 130.952 24.587 131.554 22.215C132.433 18.749 130.83 4.05396 130.83 4.05396L133.294 12.699C134.191 17.765 133.466 22.984 131.222 27.613L130.453 30.772C130.325 31.297 128.038 41.6579 127.914 42.2309C124.732 56.8519 127.581 62.242 131.966 76.549L132.518 78.3519C133.248 79.9859 133.856 81.671 134.338 83.394L134.523 84.0539C136.819 92.2649 138.918 100.181 138.566 108.7L138.211 115.798L135.473 115.137Z" fill="#8E571F"/>
<path d="M125.12 143.825C125.15 143.668 125.16 143.51 125.138 143.683C125.13 143.751 125.127 143.774 125.123 143.797C125.122 143.807 125.121 143.816 125.12 143.825Z" fill="#8E571F"/>
<path d="M158.941 208.759C158.881 208.342 158.824 207.925 158.767 207.508C158.726 207.206 158.685 206.905 158.644 206.603C158.622 206.443 158.601 206.283 158.579 206.123C158.56 205.983 158.548 205.889 158.535 205.794C158.282 203.906 158.033 202.018 157.784 200.13C157.456 197.638 157.129 195.145 156.802 192.653C156.424 189.768 156.048 186.883 155.672 183.999C155.44 182.218 155.208 180.437 154.976 178.655C155.747 178.317 156.287 177.548 156.287 176.652C156.287 175.558 155.483 174.654 154.434 174.493C154.15 172.31 153.867 170.127 153.583 167.944C153.653 167.852 153.707 167.748 153.732 167.637C153.772 167.462 153.772 167.283 153.732 167.108C153.694 166.942 153.562 166.732 153.409 166.602C153.37 166.301 153.331 166 153.292 165.699C152.93 162.908 152.568 160.117 152.207 157.325C152.177 157.097 152.148 156.87 152.119 156.643C152.638 156.243 152.973 155.617 152.973 154.911C152.973 154.004 152.42 153.225 151.634 152.894C151.523 152.035 151.411 151.175 151.3 150.316C151.084 148.647 150.868 146.977 150.653 145.308C150.551 144.516 150.448 143.725 150.347 142.932C150.343 142.898 150.336 142.863 150.334 142.828C150.303 142.31 149.899 141.809 149.34 141.834C148.828 141.857 148.313 142.272 148.346 142.828C148.379 143.373 148.486 143.924 148.556 144.465C148.746 145.941 148.937 147.417 149.128 148.892C149.307 150.273 149.485 151.654 149.664 153.035C149.027 153.417 148.599 154.113 148.599 154.91C148.599 155.907 149.266 156.746 150.178 157.01C150.463 159.209 150.748 161.409 151.033 163.608C151.12 164.277 151.207 164.945 151.293 165.614C149.943 165.002 148.593 164.39 147.242 163.778C146.124 163.271 145.006 162.764 143.888 162.258C143.865 162.248 143.842 162.237 143.82 162.227C143.681 160.876 143.542 159.526 143.402 158.175C143.978 157.781 144.356 157.12 144.356 156.369C144.356 155.459 143.8 154.679 143.009 154.349C142.888 153.176 142.768 152.003 142.647 150.83C142.495 149.346 142.342 147.863 142.19 146.379C142.118 145.676 142.048 144.972 141.975 144.269C141.972 144.239 141.967 144.207 141.966 144.177C141.952 143.658 141.519 143.158 140.972 143.183C140.446 143.207 139.963 143.62 139.978 144.177C139.991 144.657 140.076 145.145 140.125 145.622C140.26 146.937 140.395 148.252 140.53 149.567C140.699 151.212 140.868 152.856 141.037 154.501C140.406 154.885 139.983 155.577 139.983 156.369C139.983 157.321 140.593 158.129 141.442 158.429C141.563 159.604 141.684 160.778 141.805 161.953C141.281 161.995 140.756 162.037 140.232 162.08C138.954 162.183 137.675 162.286 136.397 162.389C134.872 162.512 133.347 162.635 131.821 162.758C131.688 162.769 131.556 162.779 131.423 162.79C131.478 161.715 131.533 160.64 131.589 159.565C131.621 158.95 131.652 158.335 131.684 157.719C132.215 157.32 132.559 156.687 132.559 155.972C132.559 155.338 132.288 154.769 131.856 154.369C131.888 153.751 131.92 153.133 131.952 152.515C132.039 150.835 132.126 149.156 132.213 147.476C132.254 146.679 132.314 145.881 132.338 145.083C132.339 145.048 132.34 145.012 132.344 144.977C132.408 144.443 131.841 143.983 131.35 143.983C130.759 143.983 130.42 144.442 130.356 144.977C130.291 145.519 130.298 146.079 130.269 146.623C130.192 148.106 130.115 149.59 130.038 151.074C129.99 151.996 129.943 152.917 129.895 153.839C128.916 154.057 128.184 154.928 128.184 155.973C128.184 156.938 128.81 157.756 129.678 158.046C129.594 159.681 129.51 161.316 129.426 162.951C128.737 163.007 128.048 163.062 127.359 163.118C126.175 163.213 124.991 163.309 123.807 163.404C123.422 163.435 123.037 163.466 122.652 163.497C122.914 161.407 123.175 159.318 123.437 157.229C124.273 156.922 124.871 156.121 124.871 155.178C124.871 154.429 124.494 153.769 123.92 153.374C124.05 152.335 124.18 151.296 124.311 150.257C124.498 148.771 124.684 147.285 124.871 145.799C124.954 145.141 125.037 144.483 125.12 143.826C125.119 143.834 125.121 143.816 125.123 143.798C125.126 143.775 125.129 143.752 125.132 143.729C125.176 143.252 124.925 142.743 124.421 142.628C123.926 142.515 123.308 142.777 123.198 143.322C123.085 143.877 123.051 144.46 122.981 145.021C122.817 146.321 122.654 147.621 122.491 148.921C122.316 150.319 122.14 151.717 121.965 153.114C121.111 153.412 120.497 154.222 120.497 155.178C120.497 155.94 120.887 156.61 121.477 157.001C121.269 158.662 121.061 160.323 120.853 161.985C120.519 164.653 120.185 167.322 119.851 169.99C119.712 171.099 119.574 172.208 119.435 173.317C118.656 173.652 118.11 174.426 118.11 175.327C118.11 176.034 118.447 176.661 118.967 177.061C118.918 177.452 118.869 177.844 118.82 178.236C118.49 180.878 118.161 183.519 117.832 186.161C117.54 188.509 117.248 190.857 116.957 193.205C116.726 195.072 116.495 196.939 116.265 198.807C116.117 200.009 115.969 201.212 115.826 202.415C115.806 202.583 115.786 202.751 115.766 202.919C115.706 203.437 116.266 203.935 116.76 203.913C117.35 203.887 117.689 203.474 117.754 202.919C117.872 201.911 117.996 200.904 118.119 199.897C118.33 198.176 118.542 196.455 118.755 194.734C119.032 192.496 119.31 190.258 119.588 188.02C119.63 187.685 119.671 187.35 119.713 187.015C120.588 187.506 121.464 187.995 122.341 188.481C123.621 189.189 124.903 189.894 126.197 190.575C126.701 190.84 127.207 191.103 127.719 191.352C127.802 191.392 127.886 191.434 127.971 191.475C127.943 192.038 127.914 192.602 127.886 193.165C127.754 195.787 127.623 198.408 127.493 201.03C127.391 203.095 127.289 205.16 127.191 207.226C127.129 208.525 127.066 209.824 127.012 211.124C127.005 211.299 126.997 211.473 126.991 211.648C126.971 212.185 127.462 212.642 127.985 212.642C128.54 212.642 128.959 212.186 128.979 211.648C129.019 210.57 129.072 209.492 129.123 208.414C129.212 206.517 129.305 204.62 129.398 202.723C129.522 200.207 129.647 197.692 129.773 195.176C129.828 194.072 129.885 192.967 129.94 191.863C130.002 191.856 130.063 191.85 130.122 191.845C130.952 191.772 131.781 191.686 132.609 191.599C133.817 191.472 135.024 191.338 136.232 191.202C137.678 191.039 139.124 190.872 140.569 190.702C141.955 190.539 143.34 190.372 144.725 190.203C144.854 191.447 144.984 192.691 145.113 193.936C145.308 195.803 145.503 197.671 145.7 199.538C145.827 200.741 145.954 201.944 146.085 203.146C146.103 203.314 146.122 203.483 146.141 203.651C146.198 204.166 146.557 204.671 147.135 204.645C147.624 204.623 148.191 204.204 148.129 203.651C148.017 202.645 147.911 201.638 147.804 200.631C147.621 198.903 147.44 197.175 147.259 195.447C147.068 193.619 146.878 191.79 146.687 189.961C147.701 189.835 148.715 189.708 149.728 189.577C151.124 189.397 152.52 189.213 153.915 189.019C154.053 189 154.19 188.98 154.328 188.961C154.404 189.541 154.479 190.12 154.555 190.7C154.897 193.313 155.239 195.925 155.582 198.537C155.851 200.584 156.121 202.631 156.394 204.677C156.575 206.039 156.756 207.401 156.946 208.761C156.97 208.936 156.995 209.111 157.02 209.286C157.097 209.818 157.772 210.11 158.243 209.98C158.817 209.825 159.017 209.292 158.941 208.759ZM153.456 186.399C152.827 186.098 152.205 185.783 151.585 185.466C150.291 184.803 149.007 184.119 147.716 183.452C147.199 183.185 146.682 182.92 146.158 182.668C146.08 182.63 146 182.592 145.921 182.554C145.864 182.004 145.807 181.454 145.75 180.904C145.675 180.177 145.6 179.45 145.524 178.723C146.1 178.329 146.477 177.668 146.477 176.918C146.477 176.007 145.92 175.227 145.128 174.898C145.051 174.158 144.975 173.419 144.898 172.679C144.783 171.564 144.668 170.45 144.553 169.335C145.706 169.199 146.86 169.064 148.013 168.928C149.057 168.805 150.102 168.682 151.146 168.559C151.319 168.539 151.493 168.518 151.666 168.498C151.843 169.864 152.021 171.231 152.198 172.597C152.308 173.442 152.418 174.287 152.528 175.132C152.147 175.526 151.911 176.061 151.911 176.652C151.911 177.446 152.336 178.139 152.969 178.522C153.114 179.635 153.258 180.748 153.403 181.862C153.612 183.464 153.821 185.065 154.03 186.667C153.839 186.578 153.647 186.49 153.456 186.399ZM120.23 184.391C120.167 184.391 120.104 184.389 120.041 184.388C120.213 183.012 120.384 181.636 120.555 180.26C120.673 179.315 120.791 178.369 120.909 177.424C121.818 177.159 122.483 176.321 122.483 175.326C122.483 174.524 122.05 173.824 121.406 173.444C121.464 172.977 121.523 172.51 121.581 172.042C121.829 170.055 122.078 168.068 122.327 166.081C122.448 166.151 122.568 166.221 122.688 166.292C123.396 166.709 124.093 167.145 124.786 167.587C126.109 168.432 127.416 169.302 128.714 170.183C128.824 170.257 128.933 170.333 129.043 170.408C128.973 171.778 128.902 173.149 128.832 174.519C127.854 174.737 127.123 175.609 127.123 176.652C127.123 177.618 127.75 178.436 128.618 178.725C128.53 180.458 128.441 182.19 128.353 183.923C126.941 184.055 125.528 184.172 124.113 184.259C122.821 184.337 121.526 184.394 120.23 184.391ZM130.624 178.398C131.154 177.999 131.499 177.366 131.499 176.651C131.499 176.016 131.227 175.447 130.795 175.047C130.865 173.674 130.935 172.3 131.006 170.927C131.367 170.884 131.728 170.842 132.089 170.8C133.17 170.673 134.251 170.546 135.332 170.418C136.714 170.255 138.096 170.093 139.478 169.93C140.515 169.808 141.552 169.686 142.589 169.564C142.627 169.935 142.666 170.306 142.704 170.677C142.855 172.134 143.005 173.591 143.156 175.049C142.526 175.433 142.103 176.125 142.103 176.917C142.103 177.869 142.712 178.677 143.562 178.977C143.67 180.02 143.778 181.063 143.886 182.106C143.79 182.117 143.694 182.129 143.6 182.139C142.765 182.23 141.932 182.338 141.099 182.443C139.892 182.596 138.684 182.751 137.477 182.902C136.044 183.081 134.611 183.254 133.177 183.418C132.236 183.525 131.295 183.626 130.354 183.724C130.443 181.949 130.533 180.174 130.624 178.398ZM145.686 165.245C146.834 165.766 147.983 166.286 149.131 166.807C148.791 166.847 148.45 166.887 148.109 166.927C147.121 167.043 146.134 167.159 145.146 167.276C144.881 167.307 144.615 167.338 144.35 167.37C144.253 166.432 144.156 165.493 144.059 164.555C144.599 164.752 145.142 164.999 145.686 165.245ZM135.044 164.487C136.784 164.347 138.524 164.207 140.264 164.066C140.844 164.019 141.426 163.983 142.007 163.935C142.133 165.156 142.259 166.378 142.385 167.6C142.229 167.618 142.072 167.637 141.916 167.655C140.824 167.784 139.732 167.912 138.64 168.04C137.622 168.16 136.603 168.28 135.585 168.399C134.728 168.5 133.872 168.601 133.015 168.701C132.395 168.774 131.776 168.847 131.156 168.92C131.139 168.922 131.123 168.924 131.106 168.926C131.121 168.624 131.137 168.323 131.152 168.021C131.207 166.943 131.263 165.864 131.318 164.786C132.561 164.687 133.803 164.587 135.044 164.487ZM129.003 164.974C129.11 164.965 129.216 164.957 129.323 164.948C129.307 165.256 129.291 165.563 129.276 165.871C129.238 166.611 129.2 167.351 129.162 168.091C128.91 167.921 128.658 167.751 128.405 167.582C127.245 166.807 126.078 166.04 124.893 165.305C126.263 165.194 127.633 165.084 129.003 164.974ZM126.803 188.646C125.382 187.89 123.972 187.113 122.566 186.33C123.286 186.299 124.005 186.256 124.723 186.208C125.901 186.129 127.077 186.03 128.252 185.921C128.195 187.051 128.138 188.181 128.081 189.312C127.653 189.093 127.227 188.871 126.803 188.646ZM140.996 188.663C139.168 188.879 137.34 189.09 135.511 189.294C134.116 189.45 132.72 189.603 131.323 189.742C130.897 189.785 130.47 189.832 130.042 189.868C130.099 188.735 130.156 187.602 130.214 186.469C130.227 186.221 130.239 185.972 130.252 185.724C130.501 185.698 130.75 185.674 130.999 185.647C133.041 185.43 135.08 185.188 137.118 184.935C138.736 184.734 140.353 184.524 141.971 184.322C142.502 184.256 143.034 184.189 143.566 184.131C143.74 184.112 143.916 184.09 144.092 184.075C144.188 185.004 144.284 185.932 144.381 186.861C144.429 187.32 144.477 187.78 144.524 188.239C143.347 188.382 142.172 188.524 140.996 188.663ZM146.852 187.953C146.73 187.968 146.608 187.983 146.486 187.998C146.378 186.96 146.271 185.923 146.163 184.885C146.47 185.042 146.776 185.2 147.082 185.36C148.402 186.046 149.716 186.744 151.044 187.417C149.647 187.6 148.25 187.779 146.852 187.953Z" fill="#8E571F"/>
<path d="M120.998 140.155C119.674 140.177 119.051 142.032 119.698 143.187C120.345 144.342 121.695 144.885 122.962 145.268C129.381 147.209 136.224 147.202 142.914 146.728C146.618 146.465 150.406 146.037 153.724 144.369C154.521 143.969 155.353 143.406 155.544 142.535C155.837 141.198 154.476 140.092 153.203 139.589C151.039 138.734 148.675 138.553 146.351 138.424C139.942 138.069 133.516 138.045 127.104 138.354C124.89 138.461 122.571 138.64 120.703 139.833L120.998 140.155Z" fill="#663A12"/>
<path d="M119.142 115.918C118.994 114.751 118.845 113.584 118.697 112.418C122.815 111.459 127.107 112.171 131.316 112.572C139.401 113.343 147.598 112.941 155.569 111.382C156.157 114.743 155.096 118.141 154.289 121.457C153.125 126.235 152.471 131.138 152.341 136.054C143.442 140.637 132.59 141.255 123.228 137.711C122.826 130.773 121.868 123.867 120.367 117.082L119.142 115.918Z" fill="#F59F18"/>
<path d="M114.893 112.046C114.882 112.06 114.872 112.075 114.861 112.089C121.588 113.511 130.443 114.35 138.312 114.53C145.656 114.698 161.795 110.509 161.223 110.197C158.992 108.978 154.748 107.169 152.256 107.674C133.75 111.42 128.748 109.636 121.72 108.209L121.635 108.219C118.963 108.531 116.513 109.897 114.893 112.046Z" fill="#663A12"/>
<path d="M121.336 136.316C120.901 137.677 121.68 139.119 123.085 139.567C131.733 142.321 141.293 142.388 149.969 139.705C150.99 139.389 152.038 139.013 152.777 138.265C153.54 137.493 153.884 136.357 153.672 135.311C143.491 139.375 131.769 139.739 121.336 136.316Z" fill="#B56012"/>
<path d="M121.778 117.896C126.17 118.809 130.574 119.722 135.045 120.151C139.215 120.551 143.452 120.507 147.566 119.657C149.831 119.189 152.04 118.468 154.125 117.465C154.452 117.308 154.166 116.822 153.841 116.978C150.177 118.741 146.13 119.572 142.086 119.779C137.784 119.999 133.482 119.519 129.247 118.787C126.797 118.364 124.362 117.858 121.928 117.352C121.574 117.279 121.422 117.822 121.778 117.896Z" fill="#B56012"/>
<path d="M122.037 121.659C123.959 125.595 125.266 129.825 125.912 134.157C126.094 135.377 126.218 136.604 126.293 137.835C126.315 138.194 126.851 138.201 126.856 137.835C126.888 135.431 126.92 133.026 126.953 130.622C126.976 128.894 126.997 127.1 127.63 125.466C127.959 124.618 128.493 123.85 129.247 123.329C129.175 123.338 129.102 123.348 129.03 123.357C129.833 123.566 130.33 124.254 130.674 124.967C131.101 125.852 131.352 126.835 131.602 127.781C132.174 129.937 132.53 132.147 132.662 134.374C132.736 135.618 132.739 136.865 132.676 138.11C132.86 138.085 133.045 138.06 133.229 138.035C132.933 136.025 132.879 133.979 133.057 131.955C133.146 130.94 133.296 129.932 133.505 128.935C133.695 128.03 133.904 127.106 134.242 126.244C134.495 125.598 134.877 124.91 135.514 124.578C136.237 124.201 137.055 124.517 137.593 125.061C138.236 125.711 138.453 126.647 138.558 127.527C138.681 128.553 138.743 129.589 138.831 130.619C139.035 133.021 139.24 135.424 139.444 137.826C139.475 138.184 140.037 138.188 140.007 137.826C139.672 133.707 139.954 129.543 140.863 125.511C141.02 124.814 141.144 123.63 142.017 123.476C142.879 123.323 143.519 124.062 143.844 124.761C144.241 125.617 144.456 126.59 144.664 127.506C144.885 128.478 145.049 129.463 145.152 130.454C145.385 132.694 145.324 134.966 144.959 137.189C145.143 137.214 145.328 137.239 145.512 137.264C145.592 135.149 145.722 133.037 145.904 130.929C146.084 128.848 146.285 126.757 146.599 124.691C146.699 124.034 146.848 123.227 147.398 122.785C148.008 122.295 148.825 122.586 149.32 123.094C149.962 123.752 150.035 124.745 150.027 125.616C150.017 126.649 149.952 127.683 149.912 128.715C149.817 131.12 149.722 133.525 149.627 135.931C149.615 136.242 150.126 136.323 150.18 136.006C150.747 132.688 151.507 129.405 152.458 126.176C152.727 125.264 153.011 124.357 153.31 123.454C153.424 123.109 152.88 122.961 152.767 123.304C151.71 126.499 150.839 129.755 150.163 133.052C149.972 133.983 149.797 134.918 149.637 135.855C149.821 135.88 150.006 135.905 150.19 135.93C150.28 133.65 150.37 131.369 150.46 129.089C150.505 127.96 150.571 126.829 150.589 125.699C150.604 124.761 150.524 123.725 149.936 122.952C149.455 122.319 148.663 121.864 147.85 121.989C147.049 122.112 146.548 122.784 146.296 123.504C145.989 124.381 145.941 125.359 145.828 126.275C145.69 127.394 145.567 128.515 145.458 129.637C145.213 132.174 145.043 134.718 144.947 137.264C144.935 137.575 145.448 137.656 145.5 137.339C145.849 135.209 145.941 133.042 145.754 130.891C145.662 129.833 145.507 128.78 145.288 127.742C145.078 126.749 144.839 125.73 144.459 124.786C144.128 123.964 143.583 123.181 142.674 122.957C142.278 122.86 141.853 122.881 141.486 123.066C141.083 123.269 140.828 123.654 140.665 124.063C140.489 124.507 140.399 124.986 140.295 125.451C140.174 125.995 140.064 126.541 139.965 127.089C139.771 128.166 139.619 129.251 139.509 130.339C139.258 132.827 139.236 135.335 139.439 137.827C139.627 137.827 139.815 137.827 140.002 137.827C139.807 135.533 139.612 133.239 139.417 130.945C139.323 129.834 139.251 128.717 139.126 127.609C139.018 126.652 138.814 125.671 138.198 124.902C137.668 124.241 136.827 123.758 135.959 123.864C135.15 123.963 134.537 124.522 134.126 125.196C133.659 125.962 133.424 126.852 133.205 127.713C132.938 128.763 132.739 129.829 132.601 130.904C132.29 133.323 132.325 135.774 132.679 138.186C132.727 138.514 133.217 138.412 133.232 138.111C133.352 135.744 133.222 133.369 132.853 131.028C132.668 129.856 132.421 128.693 132.114 127.547C131.847 126.55 131.573 125.521 131.107 124.594C130.722 123.828 130.139 123.114 129.295 122.849C129.03 122.766 128.89 122.88 128.687 123.039C128.52 123.17 128.362 123.31 128.216 123.463C127.926 123.765 127.676 124.11 127.47 124.474C126.597 126.02 126.444 127.885 126.397 129.625C126.324 132.36 126.321 135.099 126.284 137.835C126.472 137.835 126.66 137.835 126.847 137.835C126.577 133.385 125.626 128.98 124.019 124.821C123.567 123.651 123.065 122.502 122.514 121.375C122.365 121.048 121.879 121.334 122.037 121.659Z" fill="#B56012"/>
<path d="M134.063 16.796C138.251 14.152 141.227 9.86296 145.798 7.78496C147.017 7.23096 148.329 6.87496 149.67 6.82196C150.031 6.80796 150.033 6.24396 149.67 6.25896C144.509 6.46196 140.79 10.5 137.181 13.688C136.106 14.637 134.992 15.543 133.778 16.31C133.473 16.503 133.755 16.99 134.063 16.796Z" fill="#51432A"/>
<path d="M119.264 9.09802C120.509 11.222 122.176 13.051 123.885 14.808C125.591 16.562 127.371 18.267 128.85 20.224C129.68 21.322 130.406 22.497 130.957 23.759C131.102 24.09 131.587 23.804 131.444 23.475C130.466 21.238 128.943 19.307 127.298 17.525C125.627 15.715 123.82 14.033 122.205 12.171C121.295 11.122 120.454 10.013 119.751 8.81401C119.567 8.50101 119.08 8.78502 119.264 9.09802Z" fill="#51432A"/>
<path d="M111.828 27.467C116.389 29.516 120.569 32.382 124.12 35.903C125.123 36.897 126.074 37.943 126.97 39.034C127.2 39.314 127.597 38.914 127.368 38.636C124.164 34.74 120.251 31.43 115.882 28.908C114.659 28.202 113.4 27.56 112.112 26.981C111.785 26.833 111.498 27.319 111.828 27.467Z" fill="#51432A"/>
<path d="M128.345 41.465C129.523 40.862 130.734 40.302 132.022 39.975C133.329 39.643 134.631 39.632 135.942 39.949C137.258 40.267 138.526 40.742 139.856 41.01C141.158 41.273 142.486 41.414 143.814 41.426C144.555 41.433 145.306 41.413 146.042 41.322C146.628 41.249 147.239 41.09 147.627 40.611C147.853 40.332 147.457 39.931 147.229 40.213C146.889 40.632 146.347 40.733 145.836 40.782C145.165 40.846 144.489 40.87 143.815 40.863C142.477 40.851 141.142 40.707 139.832 40.431C138.535 40.158 137.295 39.687 136.007 39.385C134.714 39.082 133.417 39.076 132.121 39.372C130.697 39.697 129.356 40.316 128.061 40.979C127.738 41.144 128.022 41.63 128.345 41.465Z" fill="#51432A"/>
<path d="M131.162 29.658C133.7 29.149 136.321 28.754 138.91 29.07C140.158 29.222 141.394 29.562 142.516 30.135C143.672 30.725 144.685 31.566 145.876 32.089C147.289 32.71 148.884 32.805 150.358 32.343C150.703 32.235 150.556 31.691 150.208 31.8C148.883 32.216 147.438 32.158 146.16 31.603C144.967 31.085 143.955 30.239 142.8 29.649C140.523 28.486 137.916 28.267 135.402 28.462C133.926 28.577 132.463 28.824 131.012 29.115C130.657 29.186 130.808 29.729 131.162 29.658Z" fill="#51432A"/>
<path d="M106.007 50.7639C107.33 50.5579 108.668 50.3479 109.914 49.8349C111.117 49.3399 112.146 48.5159 113.341 48.0079C115.692 47.0079 118.416 47.3019 120.706 48.3229C122.009 48.9039 123.208 49.6989 124.303 50.6109C124.58 50.8409 124.98 50.4449 124.701 50.2129C122.704 48.5509 120.358 47.2389 117.749 46.9089C116.461 46.7459 115.129 46.8279 113.886 47.2129C112.587 47.6149 111.512 48.4209 110.315 49.0339C108.931 49.7419 107.377 49.9849 105.857 50.2209C105.5 50.2759 105.652 50.8189 106.007 50.7639Z" fill="#51432A"/>
<path d="M126.566 52.512C127.942 52.365 129.323 52.274 130.707 52.243C132.058 52.213 133.42 52.237 134.751 52.493C136.084 52.749 137.373 53.197 138.664 53.608C139.973 54.024 141.281 54.44 142.59 54.856C144.107 55.338 145.624 55.82 147.14 56.302C147.486 56.412 147.635 55.868 147.29 55.759C144.584 54.899 141.877 54.039 139.171 53.178C137.875 52.766 136.582 52.313 135.252 52.022C133.937 51.734 132.59 51.66 131.247 51.671C129.684 51.684 128.121 51.782 126.567 51.948C126.209 51.987 126.205 52.551 126.566 52.512Z" fill="#51432A"/>
<path d="M127.554 61.7959C129.278 61.4119 131.085 61.467 132.784 61.95C133.64 62.193 134.435 62.5599 135.22 62.9739C135.99 63.3799 136.767 63.803 137.613 64.031C138.366 64.233 139.72 64.1749 139.987 65.1199C140.086 65.4679 140.629 65.32 140.53 64.97C140.28 64.087 139.372 63.787 138.561 63.648C138.088 63.567 137.629 63.468 137.179 63.298C136.727 63.127 136.297 62.9049 135.869 62.6809C135.041 62.2469 134.218 61.818 133.327 61.527C132.442 61.238 131.518 61.0649 130.589 61.0029C129.521 60.9319 128.447 61.0199 127.403 61.2529C127.051 61.3319 127.2 61.8749 127.554 61.7959Z" fill="#51432A"/>
<path d="M124.11 56.5909C123.139 56.6749 122.164 56.7599 121.189 56.7149C120.249 56.6719 119.334 56.4559 118.403 56.3359C117.529 56.2229 116.627 56.2189 115.802 56.5669C114.935 56.9319 114.17 57.5709 113.4 58.1019C112.466 58.7469 111.532 59.391 110.598 60.036C110.302 60.241 110.583 60.729 110.882 60.523C111.688 59.967 112.494 59.4099 113.3 58.8539C114.078 58.3169 114.841 57.7149 115.668 57.2569C117.287 56.3599 119.161 57.1309 120.87 57.2609C121.95 57.3429 123.033 57.2489 124.11 57.1559C124.469 57.1229 124.472 56.5589 124.11 56.5909Z" fill="#51432A"/>
<path d="M125.822 65.388C124.588 66.215 123.34 67.065 122.331 68.167C121.261 69.335 120.541 70.774 119.768 72.142C119.297 72.975 118.826 73.808 118.355 74.642C118.176 74.958 118.663 75.242 118.841 74.926C119.643 73.507 120.432 72.08 121.25 70.67C121.626 70.021 122.025 69.38 122.513 68.809C122.979 68.263 123.51 67.775 124.07 67.327C124.721 66.805 125.413 66.339 126.106 65.875C126.406 65.674 126.124 65.186 125.822 65.388Z" fill="#51432A"/>
<path d="M159.46 74.756C160.986 74.858 162.297 73.946 163.546 73.199C164.936 72.368 166.41 71.687 167.944 71.164C168.285 71.048 168.139 70.503 167.794 70.621C166.297 71.131 164.849 71.785 163.483 72.582C162.247 73.303 160.969 74.294 159.46 74.193C159.098 74.169 159.1 74.732 159.46 74.756Z" fill="#84734F"/>
<path d="M152.15 90.772C155.757 91.986 159.263 89.8221 162.332 88.1871C163.25 87.6981 164.185 87.2361 165.167 86.8891C165.506 86.7691 165.36 86.2241 165.017 86.3461C161.67 87.5301 158.806 90.0941 155.191 90.5021C154.214 90.6121 153.234 90.5441 152.299 90.2301C151.956 90.1121 151.808 90.656 152.15 90.772Z" fill="#84734F"/>
<path d="M144.82 85.5049C145.223 86.9409 145.958 88.2729 146.96 89.3769C147.434 89.8989 147.981 90.3369 148.51 90.7999C149.005 91.2319 149.518 91.7109 149.775 92.3309C150.055 93.0079 149.885 93.8359 150.446 94.3879C150.704 94.6429 151.103 94.2449 150.844 93.9899C150.624 93.7729 150.574 93.4659 150.531 93.1699C150.484 92.8439 150.45 92.5209 150.33 92.2119C150.094 91.6019 149.669 91.1009 149.196 90.6599C148.709 90.2059 148.176 89.8049 147.702 89.3369C147.183 88.8249 146.73 88.2519 146.351 87.6289C145.918 86.9179 145.588 86.1549 145.363 85.3539C145.265 85.0069 144.721 85.1549 144.82 85.5049Z" fill="#84734F"/>
<path d="M150.888 74.3809C151.6 75.7369 152.224 77.1359 152.749 78.5749C153.005 79.2769 153.241 79.9859 153.449 80.7029C153.654 81.4099 153.84 82.1749 153.647 82.9059C153.48 83.5419 153.121 84.2449 153.631 84.8199C153.872 85.0919 154.269 84.6919 154.029 84.4219C153.839 84.2079 153.939 83.8829 154.009 83.6399C154.098 83.3359 154.209 83.0439 154.254 82.7279C154.357 82.0079 154.202 81.2849 154.003 80.5939C153.592 79.1629 153.073 77.7609 152.479 76.3959C152.139 75.6159 151.77 74.8489 151.374 74.0959C151.206 73.7759 150.719 74.0599 150.888 74.3809Z" fill="#84734F"/>
<path d="M141.581 154.757C141.055 155.221 140.807 155.941 140.917 156.63C141.021 157.285 141.489 157.877 142.094 158.144C142.233 158.205 142.396 158.185 142.479 158.043C142.549 157.923 142.518 157.719 142.378 157.658C141.908 157.451 141.555 157.036 141.467 156.524C141.379 156.014 141.597 155.492 141.979 155.156C142.252 154.915 141.852 154.518 141.581 154.757Z" fill="#663A12"/>
<path d="M149.658 153.874C149.207 154.235 149.056 154.904 149.281 155.429C149.524 155.999 150.143 156.298 150.742 156.212C150.893 156.19 150.975 155.999 150.939 155.865C150.895 155.703 150.744 155.646 150.592 155.668C150.65 155.66 150.574 155.668 150.561 155.669C150.535 155.67 150.508 155.67 150.481 155.669C150.455 155.668 150.428 155.666 150.402 155.663C150.462 155.67 150.378 155.657 150.372 155.656C150.32 155.645 150.269 155.629 150.219 155.611C150.144 155.584 150.258 155.636 150.189 155.597C150.166 155.584 150.142 155.573 150.119 155.559C150.096 155.546 150.073 155.531 150.051 155.516C150.042 155.51 149.984 155.463 150.023 155.496C149.986 155.465 149.95 155.431 149.917 155.396C149.91 155.389 149.865 155.334 149.88 155.353C149.895 155.373 149.854 155.314 149.849 155.306C149.835 155.284 149.822 155.261 149.809 155.237C149.777 155.163 149.763 155.118 149.753 155.071C149.749 155.054 149.739 154.993 149.746 155.043C149.743 155.017 149.741 154.991 149.74 154.965C149.738 154.913 149.741 154.861 149.744 154.809C149.74 154.869 149.748 154.788 149.749 154.781C149.754 154.755 149.76 154.73 149.767 154.705C149.774 154.68 149.781 154.655 149.79 154.63C149.794 154.619 149.823 154.55 149.8 154.6C149.822 154.553 149.846 154.507 149.874 154.463C149.888 154.441 149.902 154.419 149.918 154.399C149.894 154.43 149.92 154.4 149.932 154.386C149.97 154.344 150.011 154.306 150.056 154.271C150.175 154.176 150.155 153.972 150.056 153.873C149.939 153.757 149.777 153.779 149.658 153.874Z" fill="#663A12"/>
<path d="M129.219 154.899C128.664 155.381 128.5 156.215 128.8 156.879C129.112 157.568 129.895 157.928 130.623 157.818C130.774 157.795 130.857 157.606 130.82 157.472C130.776 157.311 130.625 157.252 130.474 157.275C130.02 157.344 129.485 157.055 129.295 156.613C129.103 156.165 129.243 155.623 129.618 155.298C129.733 155.198 129.72 155.002 129.618 154.9C129.503 154.785 129.334 154.799 129.219 154.899Z" fill="#663A12"/>
<path d="M121.473 154.236C121.066 154.708 120.911 155.39 121.141 155.981C121.358 156.539 121.867 156.974 122.463 157.067C122.613 157.09 122.766 157.029 122.809 156.87C122.846 156.736 122.764 156.547 122.612 156.523C122.205 156.459 121.841 156.202 121.683 155.83C121.518 155.44 121.59 154.959 121.871 154.634C121.97 154.519 121.984 154.349 121.871 154.236C121.77 154.134 121.573 154.12 121.473 154.236Z" fill="#663A12"/>
<path d="M118.944 174.263C118.533 174.71 118.438 175.412 118.753 175.94C119.064 176.461 119.705 176.716 120.29 176.583C120.438 176.549 120.526 176.378 120.487 176.237C120.445 176.085 120.289 176.006 120.14 176.04C120.115 176.046 120.089 176.051 120.064 176.055C120.125 176.045 120.036 176.056 120.023 176.057C119.971 176.06 119.92 176.058 119.868 176.053C119.862 176.053 119.845 176.05 119.828 176.046C119.802 176.041 119.777 176.035 119.752 176.028C119.727 176.021 119.702 176.014 119.678 176.005C119.667 176.001 119.597 175.974 119.649 175.996C119.601 175.976 119.555 175.951 119.511 175.924C119.489 175.911 119.468 175.896 119.446 175.881C119.381 175.837 119.479 175.915 119.421 175.862C119.383 175.827 119.345 175.793 119.31 175.754C119.302 175.744 119.261 175.691 119.289 175.73C119.271 175.705 119.255 175.68 119.239 175.654C119.226 175.631 119.213 175.608 119.201 175.585C119.168 175.502 119.152 175.447 119.14 175.391C119.137 175.378 119.128 175.303 119.134 175.362C119.131 175.336 119.129 175.31 119.128 175.283C119.126 175.23 119.128 175.177 119.132 175.125C119.138 175.042 119.12 175.177 119.136 175.095C119.141 175.069 119.146 175.043 119.153 175.018C119.166 174.967 119.182 174.916 119.202 174.868C119.181 174.919 119.213 174.85 119.218 174.84C119.23 174.817 119.243 174.794 119.257 174.771C119.266 174.756 119.276 174.741 119.286 174.727C119.317 174.687 119.329 174.674 119.341 174.661C119.444 174.549 119.452 174.373 119.341 174.263C119.238 174.158 119.047 174.15 118.944 174.263Z" fill="#663A12"/>
<path d="M127.579 175.955C127.535 177.267 128.705 178.458 130.014 178.449C130.376 178.447 130.377 177.883 130.014 177.886C129.941 177.887 129.87 177.883 129.798 177.876C129.769 177.873 129.721 177.865 129.66 177.852C129.545 177.827 129.394 177.778 129.32 177.744C129.064 177.629 128.874 177.492 128.686 177.3C128.516 177.126 128.369 176.911 128.275 176.687C128.175 176.449 128.133 176.218 128.142 175.955C128.147 175.803 128.009 175.673 127.86 175.673C127.704 175.673 127.584 175.803 127.579 175.955Z" fill="#663A12"/>
<path d="M142.623 176.004C142.397 176.659 142.558 177.415 143.018 177.93C143.481 178.449 144.226 178.659 144.897 178.51C145.046 178.477 145.133 178.305 145.094 178.164C145.052 178.011 144.896 177.934 144.747 177.967C144.619 177.996 144.516 178.004 144.368 177.995C144.257 177.989 144.152 177.968 144.026 177.928C143.796 177.855 143.584 177.72 143.416 177.532C143.087 177.163 143.005 176.62 143.166 176.154C143.216 176.01 143.109 175.846 142.969 175.807C142.814 175.765 142.673 175.86 142.623 176.004Z" fill="#663A12"/>
<path d="M152.485 175.82C152.156 176.294 152.203 176.934 152.474 177.423C152.767 177.951 153.329 178.262 153.916 178.345C154.276 178.396 154.633 178.377 154.989 178.303C155.138 178.272 155.224 178.096 155.186 177.957C155.143 177.802 154.989 177.729 154.839 177.76C154.289 177.874 153.611 177.831 153.183 177.427C152.991 177.246 152.882 177.039 152.83 176.771C152.822 176.728 152.817 176.689 152.816 176.611C152.816 176.577 152.816 176.543 152.819 176.508C152.82 176.489 152.822 176.469 152.825 176.45C152.856 176.301 152.882 176.236 152.972 176.106C153.059 175.981 152.995 175.793 152.871 175.721C152.73 175.637 152.572 175.695 152.485 175.82Z" fill="#663A12"/>
</svg>
