<svg width="97" height="182" viewBox="0 0 97 182" fill="none" xmlns="http://www.w3.org/2000/svg">
<path d="M61.825 7.9509C60.588 5.8769 58.192 4.6319 55.767 3.9469C51.475 2.7339 46.631 3.0139 42.75 5.1189C38.869 7.2239 36.122 11.2459 36.162 15.4519C36.178 17.0789 36.548 18.8589 35.595 20.2189C35.009 21.0549 34.029 21.5539 33.115 22.0699C30.75 23.4069 28.594 25.0669 26.736 26.9819C25.777 27.9699 24.864 29.0969 24.675 30.4219C24.292 33.1189 26.989 35.4679 26.982 38.1879C26.978 40.0699 25.676 41.7259 24.25 43.0489C22.824 44.3719 21.186 45.5489 20.177 47.1749C18.989 49.0899 18.827 51.5349 19.754 53.5729C20.681 55.6109 22.675 57.1929 24.971 57.7119C23.622 57.4859 22.932 55.8199 23.539 54.6679C24.146 53.5159 25.678 52.9729 27.032 53.1719C28.386 53.3709 29.56 54.1779 30.478 55.1319C31.011 55.6859 31.483 56.3019 32.121 56.7479C33.281 57.5599 34.827 57.6989 36.27 57.6059C38.064 57.4899 39.903 57.0279 41.25 55.9089C42.597 54.7909 43.326 52.9119 42.656 51.3459C44.262 53.9399 47.643 54.9929 50.773 55.6059C53.45 56.1299 56.234 56.4859 58.909 55.9489C61.584 55.4129 64.153 53.8379 65.162 51.4529C65.08 52.3339 63.806 52.7289 62.951 52.3569C62.096 51.9849 61.592 51.1569 61.142 50.3789C60.758 49.7149 60.382 48.8639 60.858 48.2549C61.537 47.3859 62.97 47.9999 63.956 48.5509C66.511 49.9789 69.774 50.5169 72.497 49.3949C75.22 48.2729 77.081 45.2409 76.188 42.5789C76.171 43.3149 75.299 43.8239 74.515 43.7839C73.731 43.7449 73.036 43.3229 72.382 42.9149C70.768 41.9069 68.992 40.6549 68.823 38.8419C68.656 37.0529 70.124 35.5569 71.162 34.0479C72.605 31.9529 73.203 28.9159 71.348 27.1299C70.28 26.1009 68.573 25.6729 67.835 24.4149C67.206 23.3409 67.5 21.9959 68.021 20.8719C68.542 19.7479 69.278 18.6929 69.53 17.4899C69.907 15.6929 69.136 13.8399 68.035 12.3279C66.539 10.2719 61.825 7.9509 61.825 7.9509Z" fill="black"/>
<path d="M72.2076 96.851C75.3276 97.229 78.6136 97.108 81.4356 95.725C84.2576 94.342 86.5076 91.486 86.4716 88.343C86.4466 86.135 85.3456 84.07 85.1246 81.873C84.8286 78.926 86.1256 76.078 87.3916 73.401C88.8696 70.274 90.3476 67.1469 91.8256 64.0199C93.1566 61.2029 94.5066 57.958 93.3056 55.083C91.8546 51.61 87.5246 50.541 83.7876 50.092C78.2256 49.424 72.6186 49.122 67.0166 49.188C65.7846 49.202 64.5236 49.241 63.3776 49.693C60.8036 50.708 59.4156 53.605 59.1956 56.363C58.9756 59.121 59.6686 61.8589 60.0216 64.6029C60.6886 69.7949 60.1366 75.055 59.9786 80.288C59.9056 82.699 59.9266 85.171 60.7446 87.44C62.2736 91.68 66.3966 94.542 70.7176 95.822L72.2076 96.851Z" fill="#C2B38C"/>
<path d="M83.6039 89.3729C84.6019 92.1629 85.4189 95.0189 86.0479 97.9149C86.6709 100.784 87.094 103.857 86.03 106.593C85.254 108.589 83.7599 110.208 82.6439 112.036C82.5569 112.179 82.469 112.341 82.504 112.504C82.574 112.827 83.015 112.864 83.343 112.826C85.328 112.595 87.4809 112.275 88.8599 110.83C90.4429 109.172 90.477 106.611 90.356 104.322C90.055 98.6089 89.3949 92.9159 88.3809 87.2859C88.3309 87.0089 88.2709 86.7139 88.0679 86.5179C87.6869 86.1489 87.0569 86.3359 86.5809 86.5679C85.1339 87.2739 83.801 88.2139 82.65 89.3409L83.6039 89.3729Z" fill="black"/>
<path d="M84.027 81.5679C82.405 82.7769 81.077 84.3779 80.191 86.1969C79.844 86.9089 79.56 87.6729 79.55 88.4639C79.54 89.2559 79.842 90.0839 80.48 90.5539C81.364 91.2049 82.5971 91.0169 83.6501 90.7059C87.4971 89.5719 90.9581 87.1659 93.3611 83.9549C93.6401 83.5829 93.918 83.1449 93.839 82.6869C93.768 82.2739 93.4251 81.9669 93.0801 81.7299C90.3961 79.8899 86.7451 80.4319 83.6981 81.5739L84.027 81.5679Z" fill="#9B8A64"/>
<path d="M68.9609 77.2669C72.6869 81.0419 74.9859 81.3879 79.9739 83.1899C81.4619 83.7279 85.8179 85.8329 87.3059 86.3699C87.6729 86.5019 88.0619 86.6339 88.4499 86.7039C89.0709 86.8149 89.4909 86.0779 89.0809 85.5979C88.1789 84.5439 87.0339 83.6979 85.7579 83.1529C88.5229 83.6589 90.1949 83.6439 92.0639 85.7479C92.3349 86.0529 92.7639 86.1699 93.1439 86.0219C93.9179 85.7209 94.4939 86.1529 94.0299 85.5619C93.0009 84.2519 91.6559 83.1909 90.1429 82.4939L94.4589 86.0779C94.7379 86.3099 95.1638 86.0759 95.1078 85.7169C94.8508 84.0649 93.7729 82.5409 92.2659 81.8009L94.8629 84.4569C95.1249 84.7249 95.5759 84.4989 95.5199 84.1289C95.2069 82.0379 93.3649 80.2589 91.3129 79.5159C88.9319 78.6539 86.3199 78.8409 83.7899 78.9289C83.1829 78.9499 82.5469 78.9589 82.0039 78.6859C81.5159 78.4409 81.1619 77.9989 80.8299 77.5669C76.6869 72.1839 72.5769 69.2169 67.2959 62.5189C67.4329 67.4759 67.5709 72.4319 67.7079 77.3889L68.9609 77.2669Z" fill="#FED5B7"/>
<path d="M20.3511 132.256C16.6091 141.046 9.82109 148.126 3.13709 154.952C2.50209 155.6 1.82003 156.53 2.25903 157.324C2.47103 157.707 2.89107 157.92 3.29407 158.089C7.64107 159.91 12.9931 159.031 16.5291 155.915C17.9831 154.634 19.16 153.005 20.845 152.048C22.807 150.932 25.5621 150.579 26.3821 148.476C27.0441 146.778 25.9911 144.939 25.7701 143.13C25.4001 140.113 27.355 137.359 28.194 134.437C28.267 134.183 28.327 133.89 28.183 133.668C28.081 133.51 27.8991 133.426 27.7261 133.35C25.7311 132.472 23.7351 131.595 21.7401 130.718L20.3511 132.256Z" fill="#FED5B7"/>
<path d="M47.3707 156.126C46.5847 158.489 48.4227 160.942 48.3687 163.432C48.3227 165.589 46.8837 167.433 45.5137 169.1C43.8257 171.153 42.1377 173.207 40.4507 175.26C43.0127 176.105 45.5757 176.95 48.1377 177.795C48.4207 177.888 48.7167 177.983 49.0097 177.936C49.3527 177.882 49.6357 177.646 49.8987 177.418C52.3527 175.302 54.8057 173.185 57.2597 171.069C57.9967 170.434 58.7717 169.738 59.0117 168.795C59.3247 167.564 58.6397 166.331 58.0767 165.192C56.3617 161.721 55.6197 157.863 54.8967 154.059C53.7927 154.432 52.6487 154.688 51.4907 154.821L47.3707 156.126Z" fill="#FED5B7"/>
<path d="M43.3557 170.032C45.7607 170.119 46.9387 172.193 48.8877 173.606C49.1407 173.79 49.3996 173.989 49.7066 174.049C50.0876 174.124 50.4747 173.972 50.8257 173.805C52.7277 172.898 54.3527 171.421 55.4387 169.615C56.4097 167.998 56.9856 166.093 58.3626 164.805C59.4076 166.659 60.0436 168.743 60.2116 170.865C60.2536 171.394 60.2597 171.958 59.9937 172.417C59.6937 172.936 59.1137 173.214 58.5647 173.453C56.6707 174.276 54.7137 174.998 52.9917 176.138C51.3747 177.209 50.0037 178.623 48.3697 179.667C45.3687 181.584 41.5227 182.117 38.1137 181.09C37.3407 180.857 36.4947 180.444 36.2957 179.662C36.1217 178.975 36.5217 178.284 36.9317 177.706C37.9817 176.229 39.2157 174.883 40.5967 173.709L43.3557 170.032Z" fill="black"/>
<path d="M78.0559 165.375C80.2247 165.375 81.9828 163.617 81.9828 161.448C81.9828 159.279 80.2247 157.521 78.0559 157.521C75.8871 157.521 74.1289 159.279 74.1289 161.448C74.1289 163.617 75.8871 165.375 78.0559 165.375Z" fill="black"/>
<path d="M63.6137 141.219C63.5207 142.383 63.4267 143.547 63.3337 144.711C63.3117 144.99 63.2917 145.283 63.4087 145.537C63.5777 145.901 63.9777 146.087 64.3417 146.256C66.8037 147.4 68.9677 149.086 71.1077 150.758C72.6907 151.995 74.3397 153.315 75.1047 155.172C75.5607 156.278 75.6758 157.522 76.2798 158.554C76.8838 159.587 78.2927 160.331 79.2777 159.652C79.9577 159.184 80.1327 158.255 80.1147 157.43C80.0367 153.748 77.3867 150.653 74.6227 148.22C71.4677 145.443 67.9637 143.063 64.2197 141.154L63.6137 141.219Z" fill="#9B8A64"/>
<path d="M65.109 138.57C72.231 138.122 79.4069 138.538 86.4299 139.804C88.1309 140.111 89.8579 140.48 91.3519 141.349C92.8459 142.218 94.0939 143.676 94.2939 145.393C94.3179 145.601 94.3259 145.817 94.2589 146.015C94.0239 146.706 93.0109 146.789 92.4019 146.388C91.7929 145.987 91.45 145.299 91.004 144.721C89.05 142.19 85.3789 141.971 82.1819 141.971C77.6109 141.971 73.0399 141.972 68.4689 141.972C67.4639 141.972 66.4109 141.961 65.5269 141.483C64.6429 141.005 64.013 139.896 64.416 138.975L65.109 138.57Z" fill="#9B8A64"/>
<path d="M59.7527 140.986C53.5997 143.082 47.7398 146.039 42.3978 149.742C39.9158 151.462 37.3217 153.769 37.2897 156.789C37.2827 157.431 37.4847 158.185 38.0867 158.408C38.9187 158.716 39.6498 157.81 40.1448 157.073C42.3268 153.821 45.8157 151.661 49.4297 150.155C53.0447 148.649 56.8688 147.701 60.5198 146.285C60.8498 146.157 61.2057 146 61.3627 145.683C61.5037 145.397 61.4437 145.056 61.3747 144.744C61.0707 143.36 60.6748 141.997 60.1888 140.666L59.7527 140.986Z" fill="#9B8A64"/>
<path d="M60.8021 138.669C54.3681 137.614 47.8631 136.985 41.3461 136.789C39.4711 136.732 37.5491 136.718 35.7781 137.337C34.0071 137.955 32.3891 139.333 31.9921 141.166C31.9351 141.429 31.9051 141.708 31.9891 141.963C32.2161 142.646 33.1581 142.819 33.8191 142.536C34.4801 142.253 34.9581 141.673 35.5111 141.213C37.7661 139.337 41.0391 139.553 43.9551 139.869C48.6901 140.383 53.4251 140.898 58.1601 141.412C59.3411 141.54 60.8211 141.518 61.3591 140.458L60.8021 138.669Z" fill="#9B8A64"/>
<path d="M96.8667 148.572C96.8667 150.741 95.1087 152.499 92.9397 152.499C90.7707 152.499 89.0127 150.741 89.0127 148.572C89.0127 146.403 90.7707 144.645 92.9397 144.645C95.1087 144.646 96.8667 146.404 96.8667 148.572Z" fill="black"/>
<path d="M41.0741 162.648C42.5556 161.064 42.4726 158.579 40.8887 157.097C39.3048 155.616 36.8198 155.699 35.3383 157.283C33.8568 158.867 33.9398 161.352 35.5237 162.833C37.1075 164.315 39.5926 164.232 41.0741 162.648Z" fill="black"/>
<path d="M37.1469 143.641C37.1469 145.81 35.3889 147.568 33.2199 147.568C31.0509 147.568 29.293 145.81 29.293 143.641C29.293 141.472 31.0509 139.715 33.2199 139.715C35.3889 139.715 37.1469 141.473 37.1469 143.641Z" fill="black"/>
<path d="M59.9888 117.297C59.7468 124.067 59.7378 130.846 59.9618 137.616C61.4548 137.992 63.0738 137.852 64.4798 137.223C64.5048 130.147 64.5308 123.07 64.5558 115.994C63.9418 116.111 63.3128 116.149 62.6888 116.109L59.9888 117.297Z" fill="black"/>
<path d="M48.721 119.154C49.713 120.14 51.263 120.221 52.661 120.234C58.295 120.288 63.971 120.22 69.498 119.125C75.025 118.03 80.444 115.844 84.653 112.098C86.132 110.781 87.487 109.217 88.051 107.319C88.615 105.421 88.221 103.136 86.687 101.884C85.915 101.254 84.941 100.937 83.989 100.642C75.775 98.1009 66.553 96.3729 58.833 100.158C51.949 103.533 47.488 111.311 48.053 118.957L48.721 119.154Z" fill="#C2B38C"/>
<path d="M36.939 78.6339C34.715 78.8799 32.517 79.3569 30.391 80.0519C28.984 80.5119 27.573 81.0899 26.489 82.0979C25.404 83.1059 24.695 84.6249 24.994 86.0749C25.399 88.0379 27.526 89.2569 29.53 89.3069C31.534 89.3559 33.44 88.5169 35.269 87.6949C36.439 87.1689 37.608 86.6429 38.778 86.1159C39.983 85.5739 41.311 84.8999 41.723 83.6449C42.017 82.7489 41.75 81.7459 41.246 80.9489C40.288 79.4349 38.216 78.5289 36.619 79.3409L36.939 78.6339Z" fill="#9B8A64"/>
<path d="M70.1607 83.3549C70.6847 83.1169 71.1307 82.9669 71.3897 83.0079C73.8047 86.4299 74.1026 89.4439 74.3966 93.6209C74.5266 95.4749 74.4297 97.3619 73.9137 99.1479C72.1797 105.159 65.7547 109.028 59.4997 109.086C53.2437 109.144 47.3116 106.007 42.6696 101.813C38.3536 112.886 35.4787 124.636 29.7207 135.033C28.7457 136.793 20.5617 132.029 20.6027 131.627C21.2247 125.476 22.8867 119.485 24.5427 113.529C26.2397 107.424 27.9357 101.319 29.6327 95.2139C30.6227 91.6499 31.7787 87.8319 34.7077 85.5739C37.5047 83.4169 41.2816 83.1779 44.8106 83.0259C49.8736 82.8069 57.4587 83.7839 62.1757 84.4999C64.8917 84.9099 67.6597 84.4919 70.1607 83.3549Z" fill="#8E571F"/>
<path d="M38.1139 101.88C36.3879 105.1 34.6219 108.462 34.4669 112.113C34.3839 114.069 34.7719 116.011 35.1409 117.934C37.5999 130.782 39.3359 144.091 45.6119 155.568C45.9299 156.149 46.2709 156.739 46.7869 157.155C47.1119 157.416 47.4939 157.598 47.8839 157.745C50.2979 158.657 53.1629 158.261 55.2389 156.728C55.5889 156.469 55.9279 156.169 56.1119 155.774C56.3419 155.282 56.3059 154.712 56.2639 154.171C55.8339 148.569 55.4039 142.967 54.9739 137.365C54.8129 135.261 54.6449 133.129 53.9489 131.137C53.0119 128.456 51.1639 126.168 50.2179 123.49C48.1759 117.708 50.6649 111.348 53.6669 106.001C53.8479 105.678 54.0369 105.339 54.0439 104.969C54.0519 104.517 53.7909 104.109 53.5389 103.734C52.0849 101.568 50.5409 99.3179 48.2419 98.0839C45.5919 96.6619 42.1349 96.9019 39.7069 98.6769L38.1139 101.88Z" fill="#8E571F"/>
<path d="M72.3248 59.252C72.6728 56.771 71.8368 54.287 70.9148 51.957C69.1008 47.368 66.9058 42.93 64.3598 38.703C63.1528 36.7 61.6398 34.58 59.3558 34.08C57.0368 33.572 54.7678 34.905 52.4838 35.551C50.2848 36.173 47.9618 36.16 45.7058 36.527C43.8568 36.827 41.9538 37.457 40.5958 38.697C37.0458 39.958 34.2438 43.138 33.4428 46.819C32.8068 49.746 33.3698 52.78 33.4678 55.774C33.5748 59.049 33.1188 62.316 33.0858 65.592C33.0518 68.868 33.4818 72.264 35.1888 75.061C35.4288 75.454 35.7138 75.851 36.1358 76.036C36.4768 76.186 36.8638 76.177 37.2358 76.161C38.9158 76.087 40.5918 75.915 42.2518 75.645C42.4118 77.538 42.6078 79.451 42.7768 81.401C42.8138 81.831 42.5698 82.298 42.8098 82.658C42.9728 82.903 43.2598 83.029 43.5328 83.137C51.7168 86.396 60.9138 85.303 69.6158 83.933C70.0628 83.863 70.5498 83.771 70.8458 83.428C71.0918 83.142 71.1498 82.744 71.1838 82.368C71.6998 76.621 68.9178 70.752 70.4168 65.18C70.9558 63.173 72.0368 61.313 72.3248 59.252Z" fill="#F59F18"/>
<mask id="mask0_127_1766" style="mask-type:luminance" maskUnits="userSpaceOnUse" x="33" y="33" width="40" height="53">
<path d="M72.3248 59.252C72.6728 56.771 71.8368 54.287 70.9148 51.957C69.1008 47.368 66.9058 42.93 64.3598 38.703C63.1528 36.7 61.6398 34.58 59.3558 34.08C57.0368 33.572 54.7678 34.905 52.4838 35.551C50.2848 36.173 47.9618 36.16 45.7058 36.527C43.8568 36.827 41.9538 37.457 40.5958 38.697C37.0458 39.958 34.2438 43.138 33.4428 46.819C32.8068 49.746 33.3698 52.78 33.4678 55.774C33.5748 59.049 33.1188 62.316 33.0858 65.592C33.0518 68.868 33.4818 72.264 35.1888 75.061C35.4288 75.454 35.7138 75.851 36.1358 76.036C36.4768 76.186 36.8638 76.177 37.2358 76.161C38.9158 76.087 40.5918 75.915 42.2518 75.645C42.4118 77.538 42.6078 79.451 42.7768 81.401C42.8138 81.831 42.5698 82.298 42.8098 82.658C42.9728 82.903 43.2598 83.029 43.5328 83.137C51.7168 86.396 60.9138 85.303 69.6158 83.933C70.0628 83.863 70.5498 83.771 70.8458 83.428C71.0918 83.142 71.1498 82.744 71.1838 82.368C71.6998 76.621 68.9178 70.752 70.4168 65.18C70.9558 63.173 72.0368 61.313 72.3248 59.252Z" fill="white"/>
</mask>
<g mask="url(#mask0_127_1766)">
<path d="M34.8887 60.3959C38.7784 60.3959 41.9317 57.2427 41.9317 53.3529C41.9317 49.4632 38.7784 46.3099 34.8887 46.3099C30.9989 46.3099 27.8457 49.4632 27.8457 53.3529C27.8457 57.2427 30.9989 60.3959 34.8887 60.3959Z" fill="#F4C990"/>
</g>
<mask id="mask1_127_1766" style="mask-type:luminance" maskUnits="userSpaceOnUse" x="33" y="33" width="40" height="53">
<path d="M72.3248 59.252C72.6728 56.771 71.8368 54.287 70.9148 51.957C69.1008 47.368 66.9058 42.93 64.3598 38.703C63.1528 36.7 61.6398 34.58 59.3558 34.08C57.0368 33.572 54.7678 34.905 52.4838 35.551C50.2848 36.173 47.9618 36.16 45.7058 36.527C43.8568 36.827 41.9538 37.457 40.5958 38.697C37.0458 39.958 34.2438 43.138 33.4428 46.819C32.8068 49.746 33.3698 52.78 33.4678 55.774C33.5748 59.049 33.1188 62.316 33.0858 65.592C33.0518 68.868 33.4818 72.264 35.1888 75.061C35.4288 75.454 35.7138 75.851 36.1358 76.036C36.4768 76.186 36.8638 76.177 37.2358 76.161C38.9158 76.087 40.5918 75.915 42.2518 75.645C42.4118 77.538 42.6078 79.451 42.7768 81.401C42.8138 81.831 42.5698 82.298 42.8098 82.658C42.9728 82.903 43.2598 83.029 43.5328 83.137C51.7168 86.396 60.9138 85.303 69.6158 83.933C70.0628 83.863 70.5498 83.771 70.8458 83.428C71.0918 83.142 71.1498 82.744 71.1838 82.368C71.6998 76.621 68.9178 70.752 70.4168 65.18C70.9558 63.173 72.0368 61.313 72.3248 59.252Z" fill="white"/>
</mask>
<g mask="url(#mask1_127_1766)">
<path d="M60.713 67.251C60.713 71.141 57.5599 74.294 53.6699 74.294C49.7799 74.294 46.627 71.141 46.627 67.251C46.627 63.361 49.7799 60.208 53.6699 60.208C57.5599 60.208 60.713 63.362 60.713 67.251Z" fill="#F4C990"/>
</g>
<mask id="mask2_127_1766" style="mask-type:luminance" maskUnits="userSpaceOnUse" x="33" y="33" width="40" height="53">
<path d="M72.3248 59.252C72.6728 56.771 71.8368 54.287 70.9148 51.957C69.1008 47.368 66.9058 42.93 64.3598 38.703C63.1528 36.7 61.6398 34.58 59.3558 34.08C57.0368 33.572 54.7678 34.905 52.4838 35.551C50.2848 36.173 47.9618 36.16 45.7058 36.527C43.8568 36.827 41.9538 37.457 40.5958 38.697C37.0458 39.958 34.2438 43.138 33.4428 46.819C32.8068 49.746 33.3698 52.78 33.4678 55.774C33.5748 59.049 33.1188 62.316 33.0858 65.592C33.0518 68.868 33.4818 72.264 35.1888 75.061C35.4288 75.454 35.7138 75.851 36.1358 76.036C36.4768 76.186 36.8638 76.177 37.2358 76.161C38.9158 76.087 40.5918 75.915 42.2518 75.645C42.4118 77.538 42.6078 79.451 42.7768 81.401C42.8138 81.831 42.5698 82.298 42.8098 82.658C42.9728 82.903 43.2598 83.029 43.5328 83.137C51.7168 86.396 60.9138 85.303 69.6158 83.933C70.0628 83.863 70.5498 83.771 70.8458 83.428C71.0918 83.142 71.1498 82.744 71.1838 82.368C71.6998 76.621 68.9178 70.752 70.4168 65.18C70.9558 63.173 72.0368 61.313 72.3248 59.252Z" fill="white"/>
</mask>
<g mask="url(#mask2_127_1766)">
<path d="M61.7456 53.071C65.6353 53.071 68.7886 49.9177 68.7886 46.028C68.7886 42.1382 65.6353 38.985 61.7456 38.985C57.8559 38.985 54.7026 42.1382 54.7026 46.028C54.7026 49.9177 57.8559 53.071 61.7456 53.071Z" fill="#F4C990"/>
</g>
<mask id="mask3_127_1766" style="mask-type:luminance" maskUnits="userSpaceOnUse" x="33" y="33" width="40" height="53">
<path d="M72.3248 59.252C72.6728 56.771 71.8368 54.287 70.9148 51.957C69.1008 47.368 66.9058 42.93 64.3598 38.703C63.1528 36.7 61.6398 34.58 59.3558 34.08C57.0368 33.572 54.7678 34.905 52.4838 35.551C50.2848 36.173 47.9618 36.16 45.7058 36.527C43.8568 36.827 41.9538 37.457 40.5958 38.697C37.0458 39.958 34.2438 43.138 33.4428 46.819C32.8068 49.746 33.3698 52.78 33.4678 55.774C33.5748 59.049 33.1188 62.316 33.0858 65.592C33.0518 68.868 33.4818 72.264 35.1888 75.061C35.4288 75.454 35.7138 75.851 36.1358 76.036C36.4768 76.186 36.8638 76.177 37.2358 76.161C38.9158 76.087 40.5918 75.915 42.2518 75.645C42.4118 77.538 42.6078 79.451 42.7768 81.401C42.8138 81.831 42.5698 82.298 42.8098 82.658C42.9728 82.903 43.2598 83.029 43.5328 83.137C51.7168 86.396 60.9138 85.303 69.6158 83.933C70.0628 83.863 70.5498 83.771 70.8458 83.428C71.0918 83.142 71.1498 82.744 71.1838 82.368C71.6998 76.621 68.9178 70.752 70.4168 65.18C70.9558 63.173 72.0368 61.313 72.3248 59.252Z" fill="white"/>
</mask>
<g mask="url(#mask3_127_1766)">
<path d="M53.2007 35.323C53.2007 39.213 50.0478 42.366 46.1578 42.366C42.2678 42.366 39.1147 39.213 39.1147 35.323C39.1147 31.433 42.2678 28.28 46.1578 28.28C50.0478 28.28 53.2007 31.433 53.2007 35.323Z" fill="#F4C990"/>
</g>
<mask id="mask4_127_1766" style="mask-type:luminance" maskUnits="userSpaceOnUse" x="33" y="33" width="40" height="53">
<path d="M72.3248 59.252C72.6728 56.771 71.8368 54.287 70.9148 51.957C69.1008 47.368 66.9058 42.93 64.3598 38.703C63.1528 36.7 61.6398 34.58 59.3558 34.08C57.0368 33.572 54.7678 34.905 52.4838 35.551C50.2848 36.173 47.9618 36.16 45.7058 36.527C43.8568 36.827 41.9538 37.457 40.5958 38.697C37.0458 39.958 34.2438 43.138 33.4428 46.819C32.8068 49.746 33.3698 52.78 33.4678 55.774C33.5748 59.049 33.1188 62.316 33.0858 65.592C33.0518 68.868 33.4818 72.264 35.1888 75.061C35.4288 75.454 35.7138 75.851 36.1358 76.036C36.4768 76.186 36.8638 76.177 37.2358 76.161C38.9158 76.087 40.5918 75.915 42.2518 75.645C42.4118 77.538 42.6078 79.451 42.7768 81.401C42.8138 81.831 42.5698 82.298 42.8098 82.658C42.9728 82.903 43.2598 83.029 43.5328 83.137C51.7168 86.396 60.9138 85.303 69.6158 83.933C70.0628 83.863 70.5498 83.771 70.8458 83.428C71.0918 83.142 71.1498 82.744 71.1838 82.368C71.6998 76.621 68.9178 70.752 70.4168 65.18C70.9558 63.173 72.0368 61.313 72.3248 59.252Z" fill="white"/>
</mask>
<g mask="url(#mask4_127_1766)">
<path d="M72.2637 71.665C76.1534 71.665 79.3067 68.5117 79.3067 64.622C79.3067 60.7322 76.1534 57.579 72.2637 57.579C68.3739 57.579 65.2207 60.7322 65.2207 64.622C65.2207 68.5117 68.3739 71.665 72.2637 71.665Z" fill="#F4C990"/>
</g>
<mask id="mask5_127_1766" style="mask-type:luminance" maskUnits="userSpaceOnUse" x="33" y="33" width="40" height="53">
<path d="M72.3248 59.252C72.6728 56.771 71.8368 54.287 70.9148 51.957C69.1008 47.368 66.9058 42.93 64.3598 38.703C63.1528 36.7 61.6398 34.58 59.3558 34.08C57.0368 33.572 54.7678 34.905 52.4838 35.551C50.2848 36.173 47.9618 36.16 45.7058 36.527C43.8568 36.827 41.9538 37.457 40.5958 38.697C37.0458 39.958 34.2438 43.138 33.4428 46.819C32.8068 49.746 33.3698 52.78 33.4678 55.774C33.5748 59.049 33.1188 62.316 33.0858 65.592C33.0518 68.868 33.4818 72.264 35.1888 75.061C35.4288 75.454 35.7138 75.851 36.1358 76.036C36.4768 76.186 36.8638 76.177 37.2358 76.161C38.9158 76.087 40.5918 75.915 42.2518 75.645C42.4118 77.538 42.6078 79.451 42.7768 81.401C42.8138 81.831 42.5698 82.298 42.8098 82.658C42.9728 82.903 43.2598 83.029 43.5328 83.137C51.7168 86.396 60.9138 85.303 69.6158 83.933C70.0628 83.863 70.5498 83.771 70.8458 83.428C71.0918 83.142 71.1498 82.744 71.1838 82.368C71.6998 76.621 68.9178 70.752 70.4168 65.18C70.9558 63.173 72.0368 61.313 72.3248 59.252Z" fill="white"/>
</mask>
<g mask="url(#mask5_127_1766)">
<path d="M65.8779 91.761C69.7677 91.761 72.921 88.6078 72.921 84.718C72.921 80.8283 69.7677 77.675 65.8779 77.675C61.9882 77.675 58.835 80.8283 58.835 84.718C58.835 88.6078 61.9882 91.761 65.8779 91.761Z" fill="#F4C990"/>
</g>
<mask id="mask6_127_1766" style="mask-type:luminance" maskUnits="userSpaceOnUse" x="33" y="33" width="40" height="53">
<path d="M72.3248 59.252C72.6728 56.771 71.8368 54.287 70.9148 51.957C69.1008 47.368 66.9058 42.93 64.3598 38.703C63.1528 36.7 61.6398 34.58 59.3558 34.08C57.0368 33.572 54.7678 34.905 52.4838 35.551C50.2848 36.173 47.9618 36.16 45.7058 36.527C43.8568 36.827 41.9538 37.457 40.5958 38.697C37.0458 39.958 34.2438 43.138 33.4428 46.819C32.8068 49.746 33.3698 52.78 33.4678 55.774C33.5748 59.049 33.1188 62.316 33.0858 65.592C33.0518 68.868 33.4818 72.264 35.1888 75.061C35.4288 75.454 35.7138 75.851 36.1358 76.036C36.4768 76.186 36.8638 76.177 37.2358 76.161C38.9158 76.087 40.5918 75.915 42.2518 75.645C42.4118 77.538 42.6078 79.451 42.7768 81.401C42.8138 81.831 42.5698 82.298 42.8098 82.658C42.9728 82.903 43.2598 83.029 43.5328 83.137C51.7168 86.396 60.9138 85.303 69.6158 83.933C70.0628 83.863 70.5498 83.771 70.8458 83.428C71.0918 83.142 71.1498 82.744 71.1838 82.368C71.6998 76.621 68.9178 70.752 70.4168 65.18C70.9558 63.173 72.0368 61.313 72.3248 59.252Z" fill="white"/>
</mask>
<g mask="url(#mask6_127_1766)">
<path d="M43.5288 90.634C47.4186 90.634 50.5718 87.4807 50.5718 83.591C50.5718 79.7012 47.4186 76.548 43.5288 76.548C39.6391 76.548 36.4858 79.7012 36.4858 83.591C36.4858 87.4807 39.6391 90.634 43.5288 90.634Z" fill="#F4C990"/>
</g>
<path d="M25.7229 142.416C23.6579 143.57 22.6438 145.921 21.5418 148.015C20.4398 150.109 18.8018 152.292 16.4458 152.517C13.8998 152.759 11.8039 150.617 10.2879 148.557C10.0829 148.279 9.86488 147.985 9.54588 147.854C8.88188 147.58 8.18083 148.118 7.67283 148.627C5.38983 150.917 3.33684 153.435 1.55284 156.131C1.13384 156.764 0.712846 157.523 0.950846 158.244C1.16885 158.902 1.85785 159.27 2.50285 159.522C7.20185 161.36 12.8818 160.393 16.7068 157.102C17.5018 156.419 18.2209 155.645 19.0699 155.031C21.7359 153.106 25.3198 152.105 27.4848 149.63C28.6968 148.245 28.4508 143.89 25.8598 142.423L25.7229 142.416Z" fill="black"/>
<path d="M58.9967 136.523C58.7177 136.913 58.6997 137.427 58.6997 137.906C58.7017 140.082 58.8747 142.259 59.2177 144.408C59.2767 144.78 59.3477 145.165 59.5697 145.469C59.8867 145.903 60.4417 146.081 60.9657 146.201C62.5807 146.571 64.5767 146.495 65.5107 145.126C66.0797 144.292 66.0827 143.21 66.0657 142.2C66.0447 140.988 66.0237 139.777 66.0027 138.565C65.9717 136.909 64.5467 135.665 62.9327 135.839C61.2567 136.022 59.1627 136.291 58.9967 136.523Z" fill="#C2B38C"/>
<path d="M61.997 11.546C62.313 13.99 63.313 18.817 63.313 18.817L67.19 19.121L64.092 21.674C64.092 21.674 65.098 26.635 64.807 28.41C64.725 28.91 64.565 29.416 64.223 29.79C63.863 30.184 63.343 30.388 62.832 30.538C61.306 30.986 59.673 31.061 58.112 30.758C57.66 32.236 57.207 33.715 56.755 35.193C56.644 35.555 56.534 35.948 56.664 36.304C56.776 36.611 57.045 36.828 57.294 37.039C58.5 38.063 59.524 39.378 59.89 40.917C60.256 42.456 59.859 44.232 58.647 45.249C57.127 46.524 54.782 46.288 53.057 45.307C51.332 44.327 50.044 42.752 48.652 41.337C47.261 39.922 46.498 37.254 44.531 36.991C47.313 32.885 47.931 30.254 48.014 25.295C47.471 26.322 45.758 26.089 44.909 25.295C44.061 24.501 44.262 22.472 45.061 21.628C45.86 20.785 47.255 20.641 48.272 21.203C47.789 18.069 47.582 14.893 47.656 11.723C52.404 11.158 57.201 11.004 61.976 11.263L61.997 11.546Z" fill="#FED5B7"/>
<path d="M34.9038 124.021C36.2098 120.943 37.5158 117.864 38.7138 114.742C39.9098 111.624 40.9998 108.461 41.8618 105.233C42.3468 103.415 42.7588 101.578 43.0788 99.7239C42.9218 99.7649 42.7648 99.8069 42.6078 99.8479C45.8538 103.217 49.3458 106.721 53.8488 108.326C55.1168 108.778 56.4418 109.049 57.7848 109.132C58.1468 109.154 58.1458 108.591 57.7848 108.568C53.0508 108.276 49.1118 105.403 45.7898 102.242C44.8378 101.336 43.9188 100.396 43.0068 99.4489C42.8698 99.3069 42.5728 99.3609 42.5358 99.5729C41.9698 102.847 41.1158 106.065 40.0858 109.222C39.0578 112.376 37.8578 115.471 36.5978 118.539C35.8848 120.277 35.1518 122.006 34.4178 123.735C34.3578 123.876 34.3768 124.035 34.5188 124.12C34.6358 124.193 34.8438 124.161 34.9038 124.021Z" fill="#49280A"/>
<path d="M41.9228 93.7939C42.1208 95.9419 42.3178 98.0909 42.5158 100.239C42.5488 100.597 43.1128 100.6 43.0788 100.239C42.8808 98.0909 42.6838 95.9429 42.4858 93.7939C42.4528 93.4359 41.8898 93.4329 41.9228 93.7939Z" fill="#49280A"/>
<path d="M43.5549 93.5189C43.6439 95.5999 43.5009 97.6849 43.1169 99.7329C43.0509 100.087 43.5938 100.239 43.6598 99.8829C44.0528 97.7859 44.2099 95.6509 44.1179 93.5199C44.1019 93.1579 43.5389 93.1559 43.5549 93.5189Z" fill="#49280A"/>
<path d="M45.203 153.424C48.369 154.912 52.03 155.219 55.396 154.257C55.744 154.158 55.596 153.614 55.246 153.714C52.032 154.632 48.515 154.36 45.487 152.937C45.162 152.785 44.875 153.27 45.203 153.424Z" fill="#49280A"/>
<path d="M50.305 106.37C49.04 109.16 48.04 112.066 47.335 115.047C46.979 116.553 46.698 118.076 46.492 119.61C46.277 121.209 46.178 122.811 46.425 124.412C46.667 125.978 47.165 127.493 47.596 129.014C48.033 130.557 48.451 132.105 48.851 133.658C49.651 136.764 50.377 139.888 51.029 143.028C51.684 146.183 52.264 149.354 52.768 152.536C52.83 152.928 52.891 153.321 52.951 153.713C53.006 154.07 53.549 153.918 53.494 153.563C53.015 150.423 52.463 147.294 51.838 144.18C51.213 141.066 50.514 137.966 49.744 134.884C49.359 133.343 48.955 131.807 48.534 130.276C48.116 128.756 47.637 127.25 47.264 125.718C46.883 124.152 46.764 122.596 46.901 120.991C47.032 119.447 47.296 117.91 47.613 116.394C48.236 113.417 49.145 110.497 50.335 107.697C50.484 107.348 50.637 107 50.794 106.654C50.94 106.327 50.455 106.04 50.305 106.37Z" fill="#49280A"/>
<path d="M63.8419 85.6479C66.9689 87.4029 70.016 89.2989 72.971 91.3309C73.27 91.5369 73.553 91.0489 73.255 90.8449C70.3 88.8129 67.2529 86.9169 64.1259 85.1619C63.8099 84.9839 63.5259 85.4709 63.8419 85.6479Z" fill="#49280A"/>
<path d="M65.1671 85.82C67.0821 86.558 68.9971 87.296 70.9121 88.034C71.2511 88.165 71.3971 87.62 71.0621 87.491C69.1471 86.753 67.2321 86.015 65.3171 85.277C64.9781 85.146 64.8311 85.691 65.1671 85.82Z" fill="#49280A"/>
<path d="M21.5968 126.812C23.6488 128.798 26.2908 130.156 29.0998 130.671C29.9018 130.818 30.7158 130.898 31.5318 130.909C31.8948 130.914 31.8948 130.35 31.5318 130.345C28.7818 130.309 26.0738 129.439 23.8028 127.89C23.1578 127.451 22.5558 126.955 21.9958 126.413C21.7338 126.161 21.3348 126.559 21.5968 126.812Z" fill="#49280A"/>
<path d="M35.7288 111.742C33.1508 116.27 30.5658 120.824 28.6938 125.7C28.1678 127.069 27.7028 128.461 27.3118 129.875C27.2148 130.225 27.7588 130.374 27.8548 130.025C29.2348 125.038 31.5518 120.386 34.0458 115.875C34.7588 114.586 35.4868 113.306 36.2148 112.027C36.3948 111.71 35.9078 111.426 35.7288 111.742Z" fill="#49280A"/>
<path d="M51.3499 113.716C55.5319 112.361 59.8639 114.298 63.9149 115.244C65.9749 115.725 68.1159 116.019 70.2169 115.629C72.5889 115.189 74.6499 113.846 76.5619 112.442C79.0269 110.632 81.4619 108.78 83.9109 106.948C84.1979 106.733 83.9169 106.244 83.6269 106.461C81.4179 108.114 79.2089 109.768 76.9989 111.42C75.0819 112.853 73.0779 114.331 70.7229 114.939C68.6609 115.472 66.5099 115.24 64.4559 114.788C62.3409 114.322 60.2829 113.631 58.1679 113.165C55.8739 112.659 53.4719 112.436 51.1999 113.172C50.8569 113.284 51.0039 113.828 51.3499 113.716Z" fill="#605133"/>
<path d="M74.1438 52.877C78.3608 54.377 83.2138 52.927 87.1738 55.322C87.9378 55.784 88.6328 56.383 89.1218 57.135C89.6878 58.005 89.9368 59.022 89.8878 60.056C89.7758 62.443 88.3488 64.576 87.2808 66.633C85.9828 69.132 84.8878 71.737 84.0028 74.41C83.8888 74.755 84.4329 74.903 84.5459 74.56C85.3609 72.098 86.3548 69.699 87.5268 67.386C88.6248 65.218 90.0808 63.07 90.4008 60.609C90.5438 59.51 90.4018 58.394 89.9148 57.393C89.5098 56.56 88.8769 55.862 88.1449 55.304C86.5909 54.118 84.6308 53.56 82.7118 53.348C79.9028 53.038 76.9969 53.297 74.2929 52.335C73.9519 52.212 73.8038 52.756 74.1438 52.877Z" fill="#605133"/>
<path d="M75.589 95.5709C77.272 95.6639 78.965 94.9419 80.059 93.6579C80.293 93.3839 79.896 92.9829 79.661 93.2599C78.654 94.4409 77.139 95.0929 75.589 95.0079C75.227 94.9879 75.228 95.5509 75.589 95.5709Z" fill="#605133"/>
<path d="M80.8138 88.55C81.0268 89.479 81.9198 90.18 82.8688 90.184C83.0158 90.185 83.1567 90.0539 83.1507 89.9019C83.1437 89.7489 83.0268 89.6209 82.8688 89.6199C82.8178 89.6199 82.7667 89.618 82.7167 89.613C82.7027 89.612 82.6287 89.6009 82.6907 89.6109C82.6697 89.6079 82.6488 89.604 82.6288 89.6C82.5338 89.582 82.4397 89.5559 82.3487 89.5229C82.3247 89.5139 82.3018 89.505 82.2778 89.496C82.3238 89.515 82.2667 89.49 82.2527 89.483C82.2107 89.463 82.1698 89.441 82.1288 89.418C82.0888 89.395 82.0487 89.371 82.0097 89.345C81.9887 89.331 81.9678 89.3159 81.9468 89.3009C81.8798 89.2529 81.9867 89.336 81.9227 89.283C81.8507 89.224 81.7827 89.1609 81.7187 89.0919C81.6847 89.0549 81.6507 89.016 81.6197 88.976C81.6547 89.022 81.6057 88.9549 81.6037 88.9519C81.5887 88.9309 81.5747 88.91 81.5617 88.889C81.5117 88.811 81.4677 88.729 81.4297 88.644C81.4537 88.699 81.4217 88.623 81.4197 88.618C81.4107 88.594 81.4028 88.57 81.3948 88.546C81.3788 88.498 81.3667 88.448 81.3547 88.399C81.3217 88.255 81.1487 88.1569 81.0087 88.2019C80.8597 88.2519 80.7788 88.396 80.8138 88.55Z" fill="#605133"/>
<path d="M82.7079 87.921C82.6659 88.43 83.2019 88.865 83.6889 88.82C83.7609 88.813 83.8339 88.8029 83.9019 88.7769C83.9969 88.7399 84.0669 88.697 84.1469 88.633C84.1999 88.591 84.2299 88.498 84.2299 88.434C84.2299 88.365 84.1989 88.282 84.1469 88.235C84.0929 88.186 84.0229 88.1489 83.9479 88.1519C83.8689 88.1559 83.8109 88.185 83.7489 88.235C83.8299 88.171 83.7669 88.2209 83.7429 88.2339C83.6729 88.2719 83.7759 88.226 83.7479 88.235C83.7089 88.248 83.6709 88.259 83.6309 88.265C83.6559 88.262 83.6809 88.258 83.7059 88.255C83.6559 88.261 83.6069 88.26 83.5569 88.254C83.5819 88.257 83.6069 88.261 83.6319 88.264C83.5999 88.259 83.5679 88.253 83.5369 88.244C83.4409 88.212 83.5339 88.251 83.5069 88.237C83.4779 88.222 83.4479 88.208 83.4199 88.19C83.3499 88.142 83.4099 88.187 83.4099 88.187C83.3659 88.149 83.3439 88.128 83.3239 88.105C83.3159 88.096 83.2929 88.0669 83.3259 88.1089C83.2589 87.9879 83.3069 88.1019 83.2909 88.0529C83.2799 88.0209 83.2719 87.9889 83.2669 87.9559C83.2699 87.9809 83.2739 88.006 83.2769 88.031C83.2719 87.995 83.2719 87.959 83.2739 87.922C83.2859 87.775 83.1359 87.634 82.9919 87.64C82.8269 87.647 82.7209 87.764 82.7079 87.921Z" fill="#605133"/>
<path d="M25.8587 84.4579C25.3577 85.7909 26.1797 87.3989 27.5227 87.8249C27.8687 87.9349 28.0177 87.3909 27.6727 87.2819C26.6007 86.9419 26.0117 85.6459 26.4017 84.6079C26.4557 84.4649 26.3417 84.2989 26.2047 84.2609C26.0467 84.2179 25.9117 84.3159 25.8587 84.4579Z" fill="#605133"/>
<path d="M27.1021 85.405C27.1101 86.266 27.7951 87.089 28.6581 87.205C28.8031 87.225 28.9681 87.17 29.0051 87.008C29.0351 86.876 28.9641 86.682 28.8081 86.661C28.7191 86.649 28.6321 86.63 28.5461 86.602C28.5261 86.595 28.5061 86.588 28.4851 86.581C28.4341 86.558 28.396 86.54 28.358 86.519C28.317 86.496 28.2781 86.472 28.2391 86.446C28.2211 86.434 28.204 86.421 28.186 86.409C28.138 86.376 28.2231 86.442 28.1751 86.4C28.1101 86.343 28.046 86.286 27.988 86.221C27.974 86.205 27.9591 86.189 27.9461 86.172C27.9381 86.163 27.8981 86.105 27.9371 86.161C27.9131 86.125 27.8871 86.091 27.8641 86.054C27.8411 86.018 27.8201 85.98 27.8001 85.942C27.7901 85.923 27.7801 85.904 27.7711 85.884C27.7581 85.857 27.7471 85.829 27.7651 85.873C27.7331 85.793 27.7071 85.712 27.6881 85.628C27.6831 85.604 27.6781 85.579 27.6741 85.554C27.6701 85.497 27.666 85.451 27.665 85.404C27.664 85.257 27.5361 85.115 27.3831 85.122C27.2331 85.13 27.1011 85.247 27.1021 85.405Z" fill="#605133"/>
<path d="M56.8047 70.0609C59.7797 68.8949 62.9037 68.1019 66.0787 67.7329C66.9807 67.6279 67.8858 67.5569 68.7928 67.5169C68.7118 67.4699 68.6307 67.4239 68.5497 67.3779C68.7257 67.6569 68.1348 67.9589 67.9518 68.0599C67.5458 68.2829 67.1367 68.4989 66.7237 68.7069C65.9237 69.1119 65.1108 69.4909 64.2858 69.8429C62.6058 70.5599 60.8747 71.1599 59.1147 71.6489C58.8137 71.7329 58.8657 72.2129 59.1897 72.2019C62.4997 72.0899 65.7137 71.2319 68.8927 70.3719C69.2427 70.2769 69.0937 69.7339 68.7427 69.8289C65.6127 70.6759 62.4487 71.5289 59.1897 71.6389C59.2147 71.8239 59.2398 72.0079 59.2648 72.1919C62.2988 71.3489 65.2377 70.1669 68.0077 68.6699C68.5307 68.3869 69.4987 67.8249 69.0367 67.0929C68.9847 67.0109 68.8938 66.9489 68.7938 66.9529C65.5648 67.0949 62.3548 67.6459 59.2668 68.6019C58.3858 68.8749 57.5148 69.1809 56.6558 69.5179C56.3208 69.6489 56.4657 70.1939 56.8047 70.0609Z" fill="#B56012"/>
<path d="M43.8079 39.547C45.5209 41.378 47.2339 43.209 48.9469 45.04C50.4029 46.597 51.8789 48.304 53.8809 49.163C55.5769 49.891 57.5399 49.868 59.2429 49.168C60.9899 48.45 62.3519 47.085 63.0109 45.309C63.7419 43.339 63.5619 41.038 62.4609 39.24C62.2719 38.931 61.7839 39.214 61.9739 39.524C62.9039 41.043 63.1169 42.926 62.6379 44.634C62.1559 46.35 60.9709 47.739 59.3639 48.503C57.8099 49.242 55.9559 49.359 54.3409 48.746C52.4509 48.028 51.0408 46.453 49.6938 45.014C47.8648 43.059 46.0359 41.103 44.2059 39.148C43.9579 38.883 43.5599 39.282 43.8079 39.547Z" fill="#B56012"/>
<path d="M34.563 62.1119C35.257 60.8099 37.06 60.6889 38.525 60.8659C39.714 61.0099 40.932 61.2529 41.918 61.9319C44.005 63.3699 44.428 66.2239 44.664 68.7479C44.789 70.0809 44.803 71.6729 43.718 72.4559C42.68 73.2049 41.216 72.7619 40.106 72.1249C36.922 70.2979 34.612 67.0169 33.966 63.4039C33.871 62.8729 33.97 62.1229 34.508 62.0849L34.563 62.1119Z" fill="#B56012"/>
<path d="M34.4988 62.0049C36.7128 69.9279 34.2358 78.4959 34.0048 86.7189C33.8908 90.7939 34.1548 94.8749 34.6598 98.9209C34.8448 100.403 35.0618 101.901 34.8888 103.384C34.7628 104.459 34.4338 105.513 34.4398 106.595C34.4528 109.009 37.2178 112.697 37.4678 115.028C37.5348 115.648 38.3528 115.844 38.6678 115.306C39.2798 114.263 38.2438 111.281 38.1608 109.995L39.7628 118.125C39.8568 118.601 40.3248 118.918 40.7878 118.775C41.1908 118.651 41.2428 118.256 41.2718 117.908C41.3338 117.17 41.3958 116.433 41.4578 115.695C41.1548 117.054 40.8528 118.413 40.5498 119.771C40.4578 120.184 40.3668 120.628 40.7438 120.994C41.1378 121.376 41.7628 121.365 42.1948 121.026C43.0148 120.381 42.9808 119.311 42.9148 118.353C42.7338 119.325 42.5528 120.296 42.3718 121.268C42.3248 121.521 42.4038 121.791 42.6058 121.95C43.0738 122.317 43.6248 121.704 43.8358 121.178C45.1038 118.016 45.0218 114.338 43.6148 111.235C42.9458 109.759 41.9938 108.413 41.4578 106.883C40.4118 103.9 41.0608 100.62 41.7248 97.5299C42.8308 92.3829 43.9618 87.1579 43.6218 81.9039C43.3688 77.9939 42.3068 74.0559 43.0538 70.2099C43.3228 68.8259 43.4778 68.5199 43.6268 67.1179C43.7748 65.7159 44.2938 64.4249 43.2618 63.4649C42.5578 62.8099 41.1548 61.2249 40.2228 60.9889C38.2138 60.4809 35.6718 60.3419 34.4968 62.0489L34.4988 62.0049Z" fill="#FED5B7"/>
<path d="M34.3499 62.708C35.4579 61.082 37.5779 60.223 39.4989 60.693C40.4099 60.916 41.2439 61.403 41.8979 62.073C42.6559 62.849 43.0469 63.807 43.2719 64.854C43.5739 66.256 43.8059 67.676 44.0689 69.086C44.1349 69.442 44.6789 69.291 44.6119 68.936C44.3569 67.568 44.1229 66.194 43.8409 64.831C43.6049 63.69 43.1909 62.638 42.3899 61.774C40.9449 60.216 38.6959 59.602 36.6759 60.293C35.5339 60.684 34.5419 61.425 33.8619 62.424C33.6589 62.724 34.1469 63.006 34.3499 62.708Z" fill="#B56012"/>
<path d="M42.8597 38.91C41.1837 40.418 39.7897 42.229 38.7617 44.236C38.5967 44.558 39.0827 44.843 39.2487 44.52C40.2567 42.552 41.6147 40.787 43.2587 39.308C43.5277 39.066 43.1287 38.668 42.8597 38.91Z" fill="#B56012"/>
<path d="M35.4999 44.4669C37.0359 44.1559 38.6049 44.6319 39.8829 45.4899C41.2519 46.4089 42.2289 47.7649 42.9209 49.2439C43.6549 50.8109 44.0749 52.5109 44.4319 54.1979C44.8359 56.1069 45.1279 58.0399 45.3029 59.9829C45.4999 62.1639 45.5529 64.3569 45.4639 66.5449C45.4489 66.9079 46.0129 66.9069 46.0269 66.5449C46.1899 62.4929 45.8639 58.4239 45.0569 54.4499C44.3719 51.0759 43.3709 47.3719 40.4669 45.2159C39.0069 44.1329 37.1559 43.5579 35.3479 43.9229C34.9949 43.9959 35.1459 44.5389 35.4999 44.4669Z" fill="#B56012"/>
<path d="M46.0968 81.36C49.1358 81.551 52.1678 81.85 55.1848 82.265C58.0598 82.661 60.9348 83.233 63.8468 83.255C65.4428 83.267 67.0458 83.098 68.5798 82.644C68.9268 82.541 68.7788 81.997 68.4298 82.101C65.6788 82.916 62.7818 82.755 59.9698 82.393C58.5138 82.206 57.0648 81.964 55.6108 81.761C54.1428 81.556 52.6708 81.375 51.1958 81.222C49.4998 81.045 47.7988 80.904 46.0968 80.797C45.7348 80.774 45.7358 81.337 46.0968 81.36Z" fill="#B56012"/>
<path d="M66.9608 46.534C67.8538 47.95 68.6128 49.447 69.2178 51.009C69.3478 51.344 69.8918 51.198 69.7608 50.859C69.1388 49.252 68.3669 47.707 67.4469 46.249C67.2539 45.944 66.7668 46.226 66.9608 46.534Z" fill="#B56012"/>
<path d="M66.7488 48.976C67.1158 49.601 67.4828 50.227 67.8498 50.852C67.9268 50.983 68.1038 51.03 68.2348 50.953C68.3668 50.876 68.4128 50.699 68.3358 50.568C67.9688 49.943 67.6018 49.317 67.2348 48.692C67.1578 48.561 66.9808 48.514 66.8498 48.591C66.7178 48.668 66.6718 48.844 66.7488 48.976Z" fill="#B56012"/>
<path d="M48.9847 72.7239C48.8947 73.6249 48.9317 74.5289 49.0787 75.4229C49.1037 75.5729 49.2897 75.6569 49.4247 75.6199C49.5847 75.5759 49.6467 75.4239 49.6217 75.2729C49.4837 74.4309 49.4636 73.5729 49.5476 72.7239C49.5626 72.5719 49.4077 72.4419 49.2657 72.4419C49.1017 72.4419 48.9997 72.5719 48.9847 72.7239Z" fill="#B56012"/>
<path d="M50.2729 72.9089C50.2729 73.5309 50.2729 74.1519 50.2729 74.7739C50.2729 74.9209 50.4029 75.0619 50.5549 75.0559C50.7079 75.0489 50.8369 74.9319 50.8369 74.7739C50.8369 74.1519 50.8369 73.5299 50.8369 72.9089C50.8369 72.7619 50.7069 72.6209 50.5549 72.6269C50.4019 72.6339 50.2729 72.7509 50.2729 72.9089Z" fill="#B56012"/>
<path d="M38.0029 109.905C38.5439 111.73 38.7809 113.625 38.7069 115.528C38.6929 115.891 39.2559 115.89 39.2699 115.528C39.3449 113.579 39.0999 111.625 38.5449 109.756C38.4429 109.408 37.8989 109.556 38.0029 109.905Z" fill="#8C4A29"/>
<path d="M40.316 110.377C41.093 113.212 41.184 116.212 40.571 119.087C40.496 119.441 41.039 119.592 41.114 119.237C41.748 116.262 41.663 113.161 40.859 110.227C40.764 109.878 40.22 110.026 40.316 110.377Z" fill="#8C4A29"/>
<path d="M42.5367 111.482C42.9097 113.138 42.9307 114.855 42.8347 116.543C42.7367 118.251 42.5037 119.947 42.2517 121.639C42.1987 121.994 42.7417 122.147 42.7947 121.789C43.1977 119.08 43.5877 116.323 43.3977 113.578C43.3457 112.823 43.2457 112.071 43.0797 111.333C42.9997 110.978 42.4567 111.128 42.5367 111.482Z" fill="#8C4A29"/>
<path d="M37.878 109.595C39.7 110.104 41.443 110.847 43.072 111.81C43.385 111.995 43.669 111.508 43.356 111.324C41.688 110.338 39.894 109.573 38.028 109.052C37.678 108.954 37.529 109.497 37.878 109.595Z" fill="#8C4A29"/>
<path d="M37.261 103.838C37.694 104.127 38.194 104.293 38.711 104.341C38.858 104.355 38.999 104.202 38.993 104.059C38.986 103.894 38.869 103.792 38.711 103.777C38.681 103.774 38.65 103.774 38.621 103.767C38.696 103.783 38.598 103.763 38.584 103.761C38.532 103.752 38.48 103.742 38.429 103.731C38.319 103.706 38.21 103.675 38.103 103.637C38.075 103.627 38.046 103.616 38.018 103.605C38.009 103.602 37.937 103.574 38.002 103.599C37.946 103.577 37.892 103.549 37.838 103.522C37.737 103.471 37.64 103.413 37.546 103.35C37.423 103.268 37.229 103.322 37.161 103.451C37.085 103.594 37.13 103.75 37.261 103.838Z" fill="#8C4A29"/>
<path d="M39.3828 76.022C38.9168 76.959 38.7828 78.021 39.0038 79.044C39.0808 79.398 39.6238 79.248 39.5468 78.894C39.3588 78.026 39.4728 77.102 39.8688 76.306C40.0308 75.983 39.5448 75.697 39.3828 76.022Z" fill="#8C4A29"/>
<path d="M88.9389 82.092C89.8689 82.467 90.6939 83.002 91.4759 83.624C92.3469 84.317 93.0079 85.193 93.6389 86.101C93.8449 86.397 94.3329 86.115 94.1249 85.817C93.4509 84.847 92.7439 83.914 91.8119 83.177C90.9669 82.509 90.0899 81.953 89.0889 81.55C88.7529 81.413 88.6069 81.958 88.9389 82.092Z" fill="#8C4A29"/>
<path d="M90.115 81.294C91.987 82.046 93.638 83.336 94.821 84.97C95.032 85.261 95.521 84.98 95.307 84.686C94.029 82.922 92.285 81.562 90.264 80.751C89.928 80.615 89.782 81.16 90.115 81.294Z" fill="#8C4A29"/>
<path d="M90.932 79.8079C90.008 80.6079 89.0269 81.3369 87.9959 81.9919C87.6909 82.1859 87.973 82.6739 88.28 82.4789C89.351 81.7979 90.37 81.0369 91.33 80.2059C91.605 79.9679 91.205 79.5709 90.932 79.8079Z" fill="#8C4A29"/>
<path d="M81.5761 79.2209C81.0471 79.9049 80.5191 80.5889 79.9901 81.2719C79.8971 81.3919 79.8731 81.5529 79.9901 81.6699C80.0871 81.7669 80.2951 81.7909 80.3881 81.6699C80.9171 80.9859 81.4451 80.3019 81.9741 79.6189C82.0671 79.4989 82.0911 79.3379 81.9741 79.2209C81.8771 79.1239 81.6691 79.0999 81.5761 79.2209Z" fill="#8C4A29"/>
<path opacity="0.48" d="M58.1119 30.758L51.6089 30.38L57.5749 32.801L58.1119 30.758Z" fill="#8C4A29"/>
<path d="M46.4169 22.303C46.8089 22.896 47.0919 23.53 47.2689 24.217C47.3069 24.364 47.4709 24.454 47.6159 24.414C47.7649 24.373 47.8509 24.215 47.8129 24.068C47.6259 23.342 47.3179 22.645 46.9039 22.02C46.8199 21.893 46.6549 21.839 46.5189 21.919C46.3929 21.991 46.3329 22.175 46.4169 22.303Z" fill="#8C4A29"/>
<path d="M45.6849 23.5579C46.0909 23.4759 46.4979 23.3939 46.9039 23.3119C47.0489 23.2829 47.1449 23.1029 47.1009 22.9649C47.0509 22.8109 46.9099 22.7369 46.7549 22.7679C46.3489 22.8499 45.9419 22.9319 45.5359 23.0139C45.3909 23.0429 45.2949 23.2229 45.3389 23.3599C45.3879 23.5149 45.5299 23.5889 45.6849 23.5579Z" fill="#8C4A29"/>
<path d="M59.5808 22.9509C60.1278 23.9479 61.2628 24.5799 62.3988 24.5109C62.5508 24.5019 62.6809 24.3879 62.6809 24.2289C62.6809 24.0839 62.5518 23.9379 62.3988 23.9469C61.4508 24.0049 60.5248 23.5009 60.0668 22.6659C59.8928 22.3489 59.4058 22.6329 59.5808 22.9509Z" fill="#8C4A29"/>
<path d="M60.6147 19.3609C60.6147 20.0169 60.2467 20.5479 59.7927 20.5479C59.3387 20.5479 58.9707 20.0159 58.9707 19.3609C58.9707 18.7049 59.3387 18.174 59.7927 18.174C60.2467 18.174 60.6147 18.7049 60.6147 19.3609Z" fill="black"/>
<path d="M60.4818 14.8589C60.7408 15.0349 60.7308 15.4459 60.5458 15.6979C60.3598 15.9499 60.0577 16.0829 59.7687 16.2059C58.7727 16.6269 57.7777 17.0489 56.7817 17.4709C57.4347 16.0629 58.8067 15.0119 60.3367 14.7489L60.4818 14.8589Z" fill="black"/>
<path d="M62.6467 9.95001C63.0137 11.188 61.9487 12.443 60.7507 12.924C59.5527 13.405 58.2147 13.389 56.9667 13.718C55.7187 14.047 54.4347 14.922 54.3247 16.209C54.2457 17.135 54.7977 18.087 54.4917 18.965C54.1657 19.899 53.0647 20.257 52.1157 20.533C51.3817 20.747 50.6377 20.995 50.0347 21.467C49.4327 21.939 48.9887 22.679 49.0637 23.44C49.1387 24.201 49.8577 24.899 50.6127 24.781C49.2837 24.617 48.1787 23.365 48.1817 22.026C48.1827 21.661 48.2287 21.23 47.9447 21C47.7597 20.85 47.4967 20.849 47.2597 20.88C46.4587 20.983 45.2907 21.066 44.7267 21.644C44.2557 20.721 45.1897 19.905 45.8147 19.079C46.1407 18.648 46.5137 18.189 46.5087 17.649C46.5057 17.325 46.3637 17.019 46.2157 16.731C45.7537 15.831 45.2047 14.968 44.8907 14.006C44.5767 13.045 44.5257 11.937 45.0417 11.068C45.9287 9.57401 47.9627 9.39601 49.6837 9.15501C51.6157 8.88401 53.5077 8.32201 55.2747 7.49501C56.0537 7.13001 56.9657 6.71101 57.7287 7.10701C58.3757 7.44301 58.6757 8.27201 59.3527 8.54101C59.9047 8.76001 60.5457 8.53901 61.1147 8.70701C61.8227 8.91501 62.2497 9.78701 61.9797 10.474L62.6467 9.95001Z" fill="black"/>
<path d="M43.4077 6.29596C44.0887 4.16396 43.0817 1.59896 41.0957 0.565959C39.1097 -0.467041 36.3777 0.224956 35.1847 2.11896C34.5077 3.19396 34.3287 4.54896 34.6037 5.78996C34.8787 7.03096 35.5827 8.15596 36.5097 9.02596C36.9467 9.43596 37.4427 9.79896 38.0107 9.98896C39.1777 10.378 40.4927 9.97096 41.4787 9.23596C42.4647 8.49996 43.1857 7.47296 43.8897 6.46396L43.4077 6.29596Z" fill="black"/>
<path d="M40.2699 6.66292C37.7109 7.49392 35.6919 9.80892 35.2689 12.4759C35.0149 14.0729 35.4139 15.7209 35.0529 17.3029C34.7489 18.6359 33.8189 19.5979 32.6759 20.2849C31.5449 20.9649 30.2918 21.4019 29.0738 21.8939C27.7308 22.4369 26.4289 23.0979 25.2809 23.9889C24.1759 24.8469 23.2249 25.9319 22.6799 27.2319C22.2219 28.3239 22.1019 29.5289 22.2599 30.6979C22.5759 33.0279 24.0099 35.2749 26.1509 36.3229C26.4229 36.4559 26.7049 36.5699 26.9929 36.6639C27.3379 36.7769 27.4859 36.2329 27.1429 36.1209C24.9519 35.4039 23.4019 33.3799 22.9139 31.1729C22.6719 30.0809 22.6979 28.9289 23.0439 27.8619C23.4529 26.6009 24.3139 25.5289 25.3149 24.6809C26.3819 23.7779 27.6399 23.1039 28.9219 22.5609C30.1069 22.0589 31.3319 21.6489 32.4719 21.0459C33.5519 20.4739 34.5809 19.7029 35.1669 18.6049C35.9199 17.1959 35.7429 15.5929 35.7309 14.0569C35.7209 12.6599 35.9989 11.3499 36.7359 10.1499C37.4129 9.04792 38.3919 8.13692 39.5499 7.55892C39.8309 7.41892 40.1209 7.30292 40.4199 7.20592C40.7629 7.09492 40.6159 6.54992 40.2699 6.66292Z" fill="black"/>
<path d="M60.627 7.92294C62.45 9.38394 64.59 10.3509 66.512 11.6629C67.45 12.3039 68.3339 13.0409 69.0399 13.9359C69.7379 14.8209 70.2579 15.8479 70.5819 16.9259C70.9069 18.0079 71.036 19.1409 70.953 20.2669C70.862 21.5089 70.351 22.6669 70.252 23.9039C70.162 25.0339 70.627 25.9789 71.445 26.7309C72.172 27.3989 73.048 27.9029 73.689 28.6629C74.533 29.6629 74.748 31.0539 74.619 32.3209C74.468 33.8119 73.8309 35.2129 73.2249 36.5649C73.0779 36.8929 73.5629 37.1799 73.7119 36.8489C74.7349 34.5639 75.839 31.9369 74.806 29.4509C74.378 28.4199 73.602 27.7309 72.739 27.0639C71.964 26.4639 71.095 25.8199 70.864 24.8109C70.718 24.1769 70.8449 23.5149 70.9959 22.8949C71.1499 22.2629 71.3379 21.6419 71.4329 20.9979C71.6019 19.8539 71.563 18.6909 71.325 17.5589C70.84 15.2589 69.5339 13.2749 67.6929 11.8309C65.6039 10.1919 63.098 9.18394 61.025 7.52194C60.745 7.29994 60.344 7.69594 60.627 7.92294Z" fill="black"/>
<path d="M84.6959 56.4289C82.4289 60.0809 80.5049 63.9419 78.9499 67.9499C78.5139 69.0729 78.1089 70.2079 77.7319 71.3519C77.6179 71.6969 78.1619 71.8449 78.2749 71.5019C79.6039 67.4649 81.3049 63.5539 83.3559 59.8309C83.9369 58.7759 84.5469 57.7369 85.1819 56.7129C85.3739 56.4039 84.8869 56.1209 84.6959 56.4289Z" fill="#605133"/>
<path d="M81.3901 57.0169C79.6451 60.4809 77.8991 63.9449 76.1541 67.4089C75.9911 67.7319 76.4771 68.018 76.6401 67.693C78.3851 64.229 80.131 60.765 81.876 57.301C82.039 56.979 81.5531 56.6929 81.3901 57.0169Z" fill="#605133"/>
<path d="M73.7121 64.3869C76.3191 65.4229 78.9261 66.4599 81.5331 67.4959C81.8701 67.6299 82.0161 67.0849 81.6831 66.9529C79.0761 65.9169 76.4691 64.8799 73.8621 63.8439C73.5251 63.7099 73.3791 64.2539 73.7121 64.3869Z" fill="#605133"/>
<path d="M76.4778 61.675C78.5358 62.404 80.5927 63.134 82.6507 63.863C82.9937 63.984 83.1408 63.44 82.8008 63.32C80.7428 62.591 78.6857 61.862 76.6277 61.132C76.2857 61.01 76.1378 61.554 76.4778 61.675Z" fill="#605133"/>
<path d="M75.4451 100.656C78.0671 100.839 80.6291 101.613 82.9171 102.906C83.2331 103.084 83.518 102.598 83.201 102.42C80.824 101.078 78.1681 100.284 75.4451 100.093C75.0831 100.067 75.0851 100.631 75.4451 100.656Z" fill="#605133"/>
<path d="M77.836 102.983C78.67 103.368 79.503 103.753 80.337 104.139C80.475 104.203 80.64 104.178 80.722 104.038C80.793 103.916 80.76 103.717 80.621 103.653C79.787 103.268 78.954 102.883 78.12 102.498C77.982 102.434 77.816 102.459 77.735 102.599C77.664 102.719 77.697 102.919 77.836 102.983Z" fill="#605133"/>
<path d="M62.1289 111.725C63.7089 112.664 65.4619 113.291 67.2809 113.558C67.6359 113.61 67.7889 113.067 67.4309 113.015C65.6569 112.755 63.9549 112.155 62.4139 111.239C62.1009 111.053 61.8169 111.54 62.1289 111.725Z" fill="#605133"/>
<path d="M65.5719 111.226C66.4169 111.38 67.2619 111.534 68.1079 111.688C68.2569 111.715 68.4119 111.647 68.4539 111.491C68.4919 111.354 68.4079 111.172 68.2569 111.145C67.4119 110.991 66.5669 110.837 65.7209 110.682C65.5709 110.655 65.4169 110.723 65.3739 110.879C65.3369 111.016 65.4209 111.198 65.5719 111.226Z" fill="#605133"/>
<path d="M59.5211 137.374C59.5371 138.232 59.5531 139.09 59.5701 139.949C59.5851 140.722 59.5731 141.501 59.6491 142.271C59.7781 143.583 60.2691 144.905 61.5721 145.442C62.1761 145.691 62.863 145.693 63.428 145.343C63.736 145.153 63.453 144.665 63.144 144.857C62.587 145.202 61.919 145.059 61.397 144.717C60.76 144.299 60.4491 143.593 60.3011 142.869C60.1281 142.022 60.1561 141.138 60.1401 140.277C60.1221 139.31 60.1031 138.342 60.0851 137.375C60.0781 137.012 59.5141 137.011 59.5211 137.374Z" fill="#605133"/>
<path d="M66.6249 146.431C68.7029 147.73 70.79 149.056 72.603 150.717C73.487 151.527 74.305 152.416 74.981 153.408C75.318 153.903 75.621 154.421 75.882 154.96C76.12 155.452 76.3139 155.963 76.5479 156.456C77.0229 157.456 77.7139 158.496 78.9229 158.576C79.2849 158.6 79.2829 158.036 78.9229 158.013C77.9119 157.946 77.37 156.895 76.994 156.085C76.767 155.597 76.5749 155.093 76.3369 154.61C76.0729 154.073 75.7669 153.557 75.4269 153.064C74.0719 151.101 72.2349 149.539 70.3029 148.168C69.1999 147.385 68.0559 146.661 66.9099 145.944C66.6009 145.752 66.3179 146.239 66.6249 146.431Z" fill="#605133"/>
<path d="M39.6136 155.216C39.7086 155.042 39.8156 154.875 39.9336 154.716C39.9376 154.711 39.9786 154.656 39.9606 154.68C39.9426 154.704 39.9846 154.65 39.9886 154.645C40.0196 154.607 40.0516 154.568 40.0836 154.531C40.1486 154.456 40.2156 154.383 40.2856 154.313C40.3526 154.246 40.4206 154.181 40.4916 154.119C40.5286 154.086 40.5666 154.054 40.6046 154.023C40.6216 154.009 40.6396 153.995 40.6566 153.981C40.7256 153.926 40.6146 154.012 40.6856 153.959C40.8446 153.84 41.0106 153.733 41.1836 153.637C41.3126 153.565 41.3656 153.378 41.2846 153.252C41.2006 153.121 41.0376 153.074 40.8996 153.151C40.1566 153.563 39.5346 154.188 39.1266 154.933C39.0556 155.062 39.0906 155.246 39.2276 155.318C39.3606 155.386 39.5386 155.354 39.6136 155.216Z" fill="#605133"/>
<path d="M35.799 139.096C36.45 138.994 37.102 138.892 37.753 138.789C37.903 138.765 37.987 138.577 37.95 138.442C37.906 138.282 37.7541 138.222 37.6031 138.245C36.9521 138.347 36.3 138.449 35.649 138.552C35.499 138.576 35.4151 138.764 35.4521 138.898C35.4961 139.06 35.648 139.12 35.799 139.096Z" fill="#605133"/>
<path d="M91.0249 142.867C89.1269 140.642 86.1099 139.888 83.2989 139.785C81.5659 139.722 79.8359 139.87 78.1049 139.935C76.3899 139.999 74.6729 139.972 72.9609 139.853C71.0299 139.718 69.1099 139.463 67.2099 139.095C66.8559 139.026 66.7039 139.569 67.0599 139.638C70.3769 140.282 73.7599 140.585 77.1389 140.526C80.3379 140.47 83.6489 139.941 86.7739 140.879C88.2469 141.321 89.6209 142.087 90.6269 143.266C90.8619 143.542 91.2589 143.142 91.0249 142.867Z" fill="#605133"/>
<path d="M41.7226 7.74594C42.0396 6.57494 42.6196 5.48194 43.4186 4.56894C43.8206 4.10894 44.2726 3.68894 44.7696 3.33294C45.1856 3.03494 45.6216 2.74294 46.1446 2.69494C46.4916 2.66294 47.0426 2.74594 46.8966 3.23094C46.8066 3.52794 46.5236 3.76694 46.3076 3.97494C46.0776 4.19694 45.8366 4.40594 45.5866 4.60494C44.5586 5.42194 43.3846 6.04094 42.2166 6.63094C40.0056 7.74694 37.6596 8.82894 36.0586 10.7929C35.6816 11.2549 35.3506 11.7539 35.1016 12.2959C34.8486 12.8479 34.6026 13.4889 34.6266 14.1059C34.6746 15.3419 36.0236 15.8549 37.0616 15.4129C37.6246 15.1729 38.0506 14.7239 38.4096 14.2409C38.8216 13.6859 39.1726 13.0779 39.5116 12.4759C40.2266 11.2079 40.8366 9.88094 41.3376 8.51494C41.4606 8.17894 41.5766 7.84094 41.6866 7.49994C41.5056 7.49994 41.3246 7.49994 41.1436 7.49994C41.6126 10.1479 43.2026 12.5369 45.4026 14.0679C46.0296 14.5039 46.7056 14.8579 47.4156 15.1379C47.7526 15.2709 47.8996 14.7269 47.5656 14.5949C45.2056 13.6619 43.2836 11.7239 42.2896 9.39694C42.0096 8.74094 41.8106 8.05094 41.6866 7.34894C41.6346 7.05694 41.2216 7.10594 41.1436 7.34894C40.6976 8.72994 40.1416 10.0709 39.4746 11.3599C39.1386 12.0079 38.7766 12.6419 38.3886 13.2609C38.0576 13.7879 37.7036 14.3519 37.1796 14.7079C36.7516 14.9979 36.2026 15.1199 35.7146 14.8969C35.0966 14.6139 35.1436 13.9349 35.3006 13.3729C35.6256 12.2099 36.3406 11.2099 37.2076 10.3859C39.0656 8.61794 41.4926 7.70294 43.7066 6.48794C44.8356 5.86894 45.9316 5.15594 46.8436 4.23794C47.2496 3.82894 47.6806 3.26494 47.3856 2.66794C47.1836 2.25994 46.7076 2.11894 46.2816 2.12494C45.7826 2.13194 45.3236 2.30594 44.9046 2.56694C44.3866 2.88994 43.9016 3.27294 43.4656 3.69994C42.5896 4.55794 41.9056 5.60094 41.4596 6.74194C41.3506 7.02094 41.2586 7.30694 41.1796 7.59594C41.0846 7.94594 41.6286 8.09594 41.7226 7.74594Z" fill="#F59F18"/>
<path d="M41.163 7.15098C42.786 9.42198 45.521 10.798 48.317 10.712C48.679 10.701 48.68 10.137 48.317 10.149C45.73 10.229 43.158 8.97798 41.65 6.86698C41.44 6.57398 40.951 6.85498 41.163 7.15098Z" fill="#F59F18"/>
<path d="M47.6619 25.7949C48.7179 27.1929 48.8178 29.1149 48.4438 30.8269C48.0698 32.5379 47.2789 34.1249 46.6829 35.7719C46.4979 36.2839 46.3289 36.8189 46.3609 37.3629C46.4499 38.8329 47.8839 39.7769 48.8879 40.8529C50.3109 42.3789 51.0019 44.5609 50.7159 46.6279C50.4299 48.6949 49.1739 50.6079 47.3899 51.6909C48.3109 49.5309 48.8209 46.7609 47.2139 45.0489C45.3419 43.0549 42.0749 43.8829 39.3879 43.3749C36.0939 42.7519 33.4429 39.6529 33.3379 36.3019L47.6619 25.7949Z" fill="black"/>
<path d="M47.1367 27.0909C48.1357 27.9119 48.2596 29.2559 48.1076 30.4619C47.9196 31.9459 47.2526 33.3169 47.0346 34.7959C46.9216 35.5599 46.9116 36.3509 47.1566 37.0919C47.3896 37.7969 47.8367 38.3799 48.3327 38.9219C48.8147 39.4489 49.3297 39.9469 49.7077 40.5589C50.0567 41.1259 50.2986 41.7489 50.4376 42.3999C50.7586 43.8949 50.5046 45.4989 49.6876 46.7959C49.4936 47.1039 49.9816 47.3869 50.1746 47.0799C50.9226 45.8899 51.2396 44.4479 51.1036 43.0509C50.9626 41.6079 50.3707 40.3139 49.3997 39.2409C48.8977 38.6859 48.3346 38.1709 47.9586 37.5159C47.5596 36.8199 47.4697 36.0239 47.5427 35.2359C47.6877 33.6769 48.4136 32.2469 48.6376 30.7029C48.8426 29.2879 48.7176 27.6639 47.5346 26.6909C47.2576 26.4639 46.8567 26.8599 47.1367 27.0909Z" fill="black"/>
</svg>
