<svg width="114" height="200" viewBox="0 0 114 200" fill="none" xmlns="http://www.w3.org/2000/svg">
<path d="M85.5172 35.9879C82.9432 37.3299 80.2812 38.5019 77.5542 39.4929C79.3952 37.6109 81.2372 35.7289 83.0782 33.8459L85.5172 35.9879Z" fill="black"/>
<path d="M69.6262 20.385C67.5702 20.12 65.4342 21.476 64.4452 23.675C63.9112 24.862 63.6812 26.266 62.9432 27.281C62.2962 28.171 61.3272 28.643 60.3562 28.796C59.3852 28.949 58.4002 28.813 57.4302 28.659C58.2252 30.679 59.5722 32.566 61.3822 33.017C62.6892 33.342 64.0322 32.877 65.3082 32.409C66.5262 31.962 67.8022 31.464 68.6682 30.334L69.6262 20.385Z" fill="black"/>
<path d="M8.12817 174.648C8.41217 177.329 8.69519 180.009 8.97919 182.69C9.00019 182.886 9.02519 183.094 9.14819 183.248C9.29819 183.437 9.5542 183.497 9.7912 183.546C11.5912 183.919 13.4612 184.291 15.2512 183.872C15.6082 183.788 15.9762 183.662 16.2172 183.386C16.5582 182.996 16.5562 182.422 16.5352 181.905C16.3992 178.472 16.2642 175.038 16.1282 171.605C14.5612 171.965 12.9372 172.07 11.3372 171.916L8.12817 174.648Z" fill="#FED5B7"/>
<path d="M40.9011 175.018C41.1471 178.313 41.7441 181.581 42.6771 184.75C44.9321 184.86 47.2061 184.561 49.3571 183.874C49.5781 183.803 49.8151 183.716 49.9411 183.521C50.0741 183.316 50.0481 183.051 50.0181 182.808C49.5891 179.39 49.1591 175.971 48.7301 172.553C46.8381 173.269 44.8191 173.648 42.7951 173.667L40.9011 175.018Z" fill="#FED5B7"/>
<path d="M7.85401 76.115C5.16901 87.903 4.45301 100.136 5.74201 112.156C6.36301 117.943 7.44303 133.706 6.36103 139.424C5.78203 142.484 4.59601 145.405 4.02601 148.467C3.52101 151.178 3.50598 153.958 3.63398 156.713C3.89998 162.456 4.78002 168.17 6.25202 173.727C6.41402 174.339 6.19 176.364 6.623 176.825C7.2 177.44 8.76101 177.866 9.59101 178.012C11.797 178.4 15.264 179.134 16.911 177.616C17.93 176.677 17.16 173.182 17.514 171.842C18.457 168.272 19.402 164.687 19.83 161.02C20.339 156.657 20.108 152.239 20.486 147.863C21.44 136.82 26.232 116.489 27.183 105.445C27.52 107.555 27.856 109.665 28.193 111.774C28.992 116.782 29.795 131.699 31.223 136.565C31.811 138.567 32.504 140.542 32.933 142.584C33.282 144.245 33.454 145.937 33.672 147.62C34.159 151.371 34.88 155.087 35.6 158.8C36.817 165.071 38.051 171.399 40.575 177.268C42.762 177.323 44.905 177.898 46.985 177.219C48.215 176.818 50.149 176.588 50.744 175.438C51.09 174.769 50.559 172.723 50.622 171.972C51.195 165.088 51.763 158.102 50.471 151.315C49.752 147.542 48.468 143.892 47.783 140.112C46.752 134.424 47.099 118.7 47.044 112.92C46.944 102.306 45.472 91.706 42.674 81.467C42.533 80.951 42.378 80.416 42.02 80.018C41.676 79.636 41.186 79.426 40.711 79.231C32.777 75.982 24.374 73.881 15.845 73.013C13.721 72.797 11.549 72.66 9.47602 73.172L7.85401 76.115Z" fill="#4B89B0"/>
<path d="M56.836 28.199C62.562 24.567 67.84 20.229 72.511 15.314C79.166 15.032 85.758 13.358 91.741 10.431C92.38 10.118 93.052 9.78299 93.762 9.82399C94.587 9.87299 95.284 10.414 96.015 10.799C98.477 12.094 101.454 11.636 104.192 11.145C104.733 11.048 105.32 10.918 105.78 10.642C106.125 10.435 106.02 9.90599 105.623 9.83899L101.086 9.07198C104.221 8.73998 110.086 8.56698 112.21 8.17598C112.563 8.11098 112.623 7.62298 112.293 7.47898C110.095 6.51698 107.241 5.95099 104.884 6.40699C107.495 5.88899 114.463 6.35498 113.582 5.27298C111.552 4.39398 104.694 4.89498 104.316 4.89498C105.627 4.66698 110.349 4.71498 111.911 4.58298C112.269 4.55298 112.434 4.11898 112.179 3.86498C110.991 2.67898 106.167 2.67998 103.734 3.35098C106.361 2.37998 110.118 1.32198 108.853 0.923984C105.134 0.584984 100.316 1.20798 96.847 2.59098C95.73 3.03598 94.641 3.56798 93.48 3.87998C91.668 4.36598 89.761 4.29798 87.886 4.27698C82.914 4.22098 77.946 4.52298 72.983 4.82598C71.959 4.88798 70.921 4.95298 69.944 5.26598C68.848 5.61698 67.874 6.26398 66.917 6.90298C60.056 11.482 53.195 16.061 46.334 20.64C47.72 24.352 50.762 27.411 54.466 28.819L56.836 28.199Z" fill="#FED5B7"/>
<path d="M57.4671 67.749C57.6021 71.78 57.7371 75.811 57.8731 79.841C57.8841 80.157 57.8901 80.491 57.7401 80.769C57.5831 81.059 57.2831 81.237 56.9971 81.401C53.8751 83.195 50.7521 84.989 47.6301 86.784C47.3391 86.951 47.0391 87.127 46.8491 87.403C46.6191 87.737 46.5861 88.166 46.5771 88.571C46.5441 89.995 46.7081 91.424 47.0621 92.804C52.0501 92.004 56.9871 90.886 61.8321 89.459C63.9011 88.85 66.1921 87.976 67.0311 85.989C67.3861 85.148 67.4251 84.212 67.4541 83.3C67.6211 78.107 67.6501 72.91 67.5421 67.716C64.1381 67.55 60.7281 67.504 57.3211 67.579L57.4671 67.749Z" fill="#FED5B7"/>
<path d="M64.7912 7.864C65.3852 6.677 67.5642 13.485 70.5052 15.516C70.9912 15.852 71.5552 16.273 71.5282 16.863C71.5132 17.198 71.3012 17.488 71.0972 17.754C67.6002 22.293 63.5472 26.403 59.0572 29.963C58.2812 30.578 57.4652 31.209 57.0322 32.1C56.5922 33.005 56.6072 34.057 56.6312 35.063C56.6642 36.431 56.6972 37.798 56.7292 39.166C56.7512 40.074 56.7842 41.026 57.2422 41.81C57.8622 42.873 59.0952 43.376 60.1412 44.024C63.4262 46.057 66.2132 49.032 67.1662 52.776C68.0172 56.12 69.2772 60.255 69.1462 63.703C69.0022 67.498 67.9522 70.646 69.5242 74.103C69.9282 74.991 68.8932 76.912 68.7622 77.878C68.6252 78.885 67.7352 79.657 66.7672 79.966C65.7992 80.274 64.7572 80.209 63.7442 80.14C61.0102 79.955 58.2762 79.771 55.5432 79.586C55.1602 79.56 54.7192 79.501 54.5172 79.174C54.3672 78.931 53.8692 77.59 53.9102 77.308C54.1422 75.722 54.6272 76.535 54.7012 74.934C54.8152 72.468 54.9482 68.614 54.6882 66.159C48.5362 69.99 44.4762 76.984 44.2032 84.226C44.1742 85 44.1262 85.898 43.4982 86.352C43.0482 86.678 42.4442 86.658 41.8892 86.624C38.2452 86.402 34.6012 86.181 30.9572 85.959C30.7362 84.275 30.2032 82.632 29.3932 81.139C29.0082 82.737 28.6232 84.335 28.2382 85.933C25.5012 85.38 22.6742 85.22 20.0172 84.362C15.3752 82.863 11.6792 79.391 8.15119 76.022C7.74919 75.638 7.32121 75.202 7.27821 74.648C7.25221 74.324 7.36419 74.007 7.48219 73.705C9.46619 68.602 13.4292 64.44 15.2842 59.289C16.2652 56.566 16.6282 53.637 17.7662 50.976C20.3082 45.034 26.2462 41.334 30.0792 36.132C31.9012 33.659 33.2332 30.862 34.9242 28.297C40.7492 19.459 50.4042 13.944 60.0822 9.657L61.8242 8.259L64.7912 7.864Z" fill="#C2B38C"/>
<path d="M6.0761 183.02C6.2791 181.592 7.32714 180.318 8.68914 179.843C10.0511 179.368 11.6641 179.715 12.7101 180.708C13.3551 181.319 13.9521 182.22 14.8381 182.154C15.2941 182.12 15.6891 181.82 16.1381 181.735C17.2291 181.53 18.1461 182.672 18.3161 183.769C18.4861 184.866 18.1981 185.989 18.3131 187.093C18.4901 188.792 19.5921 190.556 18.8251 192.083C17.9511 193.824 15.2551 193.896 14.2671 195.575C13.8351 196.309 13.8151 197.23 13.3801 197.961C12.6521 199.186 11.0421 199.499 9.6231 199.621C7.5671 199.796 5.49914 199.824 3.43914 199.703C2.83114 199.667 2.1991 199.611 1.6801 199.292C0.357102 198.479 0.481112 196.5 1.07811 195.067C2.58911 191.442 6.0471 188.557 6.3051 184.638L6.0761 183.02Z" fill="#51432A"/>
<path d="M40.5881 182.15C40.6551 181.187 41.995 180.897 42.902 181.225C43.809 181.554 44.635 182.224 45.6 182.199C47.5 182.149 48.5771 179.496 50.4781 179.524C51.8001 179.543 52.7171 180.906 52.9791 182.202C53.2411 183.498 53.1 184.867 53.509 186.125C53.966 187.532 55.0511 188.627 56.0021 189.76C56.8961 190.824 57.6981 191.964 58.3981 193.165C58.6621 193.618 58.9191 194.113 58.8831 194.636C58.8351 195.323 58.3001 195.868 57.7631 196.299C55.3281 198.252 52.1251 199.218 49.0161 198.937C46.5161 198.711 43.8101 197.376 43.2051 194.939C43.0561 194.34 43.0371 193.689 42.7081 193.167C42.2341 192.415 41.2731 192.156 40.5781 191.602C39.5701 190.799 39.1931 189.401 39.3021 188.118C39.4111 186.834 39.9351 185.627 40.4521 184.447L40.5881 182.15Z" fill="#51432A"/>
<path d="M47.7651 88.169C47.3031 86.335 46.6831 84.54 45.9131 82.813C45.7791 82.512 45.637 82.209 45.417 81.964C45.042 81.548 44.4841 81.352 43.9391 81.22C41.7771 80.696 39.4321 80.967 37.4451 81.969C37.2761 82.054 37.0921 82.168 37.0551 82.353C36.9851 82.702 37.453 82.887 37.808 82.914C38.846 82.994 39.8931 82.95 40.9211 82.782C39.7501 82.864 38.5791 82.946 37.4081 83.028C36.9971 83.057 36.568 83.091 36.22 83.312C35.872 83.532 35.6461 84.003 35.8361 84.368C35.9921 84.669 36.356 84.789 36.688 84.858C37.554 85.039 38.4521 85.06 39.3251 84.921C38.1681 84.733 36.9481 84.956 35.9321 85.541C35.8041 85.614 35.6721 85.702 35.6161 85.839C35.4821 86.167 35.8561 86.467 36.1811 86.607C37.4351 87.144 38.8381 87.33 40.1891 87.137C39.5501 87.104 38.9051 87.172 38.2861 87.337C38.0311 87.405 37.7521 87.514 37.6501 87.758C37.5121 88.086 37.7791 88.444 38.0721 88.646C39.2701 89.474 40.9641 89.096 42.2571 89.767C43.8761 90.607 44.6031 92.939 46.4141 93.157C47.3301 93.268 48.222 92.746 48.837 92.059C49.008 91.867 49.169 91.653 49.222 91.401C49.28 91.126 49.2021 90.842 49.1251 90.572C48.8021 89.439 48.48 88.306 48.157 87.172L47.7651 88.169Z" fill="#FED5B7"/>
<path d="M75.4691 23.296C73.8651 24.75 71.3231 25.508 69.7191 26.962C68.7081 25.846 67.0351 25.182 65.6591 25.792C64.2821 26.401 63.7581 28.57 64.9681 29.467C60.7371 31.758 52.313 36.453 52.313 36.453C50.24 40.583 48.5521 44.906 47.2781 49.348C49.9751 48.493 52.5961 47.396 55.0981 46.074C56.0381 45.578 57.5541 44.093 57.5541 44.093C57.5831 44.077 60.7151 42.259 62.2531 41.367C64.3151 43.383 65.809 46.067 68.597 45.326C69.627 45.052 71.7951 43.677 72.6671 43.063C76.1311 40.624 79.5061 38.058 82.7831 35.371L83.011 34.883C81.082 30.256 79.1111 26.738 75.4691 23.296Z" fill="#FED5B7"/>
<path d="M55.227 75.615C57.014 75.704 58.6081 74.643 60.3901 74.663C61.3401 74.674 62.282 74.845 63.23 74.701C64.103 74.569 64.9211 74.155 65.8071 74.096C66.8661 74.026 67.887 74.432 68.949 74.263C69.306 74.206 69.1551 73.663 68.7991 73.72C67.8711 73.868 66.95 73.52 66.022 73.525C65.142 73.53 64.3301 73.882 63.4861 74.079C62.5641 74.294 61.636 74.151 60.704 74.109C59.794 74.068 58.939 74.231 58.071 74.491C57.142 74.77 56.2121 75.101 55.2281 75.052C54.8651 75.033 54.866 75.596 55.227 75.615Z" fill="#4C3B22"/>
<path d="M59.2572 77.025C61.9132 76.759 64.5892 76.747 67.2472 76.99C67.6082 77.023 67.6062 76.459 67.2472 76.427C64.5892 76.184 61.9132 76.196 59.2572 76.462C58.8992 76.498 58.8962 77.062 59.2572 77.025Z" fill="#4C3B22"/>
<path d="M62.6671 78.252C63.5721 78.053 64.4981 77.998 65.4211 78.076C65.5731 78.089 65.7031 77.937 65.7031 77.794C65.7031 77.631 65.5741 77.525 65.4211 77.512C64.4491 77.429 63.4701 77.499 62.5171 77.708C62.1641 77.786 62.3131 78.329 62.6671 78.252Z" fill="#4C3B22"/>
<path d="M54.95 66.304C55.515 65.546 56.013 64.737 56.5 63.927C57.152 62.842 57.773 61.739 58.375 60.626C59.563 58.432 60.709 56.2 61.658 53.891C61.962 53.152 62.325 52.348 62.385 51.541C62.412 51.179 61.848 51.181 61.822 51.541C61.82 51.565 61.818 51.59 61.815 51.614C61.812 51.641 61.824 51.57 61.81 51.649C61.799 51.713 61.787 51.776 61.773 51.839C61.739 51.991 61.696 52.142 61.651 52.291C61.531 52.683 61.386 53.067 61.235 53.448C60.826 54.477 60.357 55.483 59.875 56.479C58.752 58.799 57.536 61.079 56.222 63.296C55.672 64.224 55.11 65.155 54.464 66.021C54.247 66.31 54.736 66.591 54.95 66.304Z" fill="#4C3B22"/>
<path d="M63.2452 51.98C63.2272 52.004 63.2282 52.003 63.2502 51.975C63.2062 52.029 63.1912 52.047 63.1762 52.065C63.1372 52.11 63.0972 52.155 63.0572 52.198C62.9652 52.296 62.8702 52.391 62.7732 52.484C62.5492 52.699 62.3172 52.906 62.0862 53.113C61.6672 53.489 61.2262 53.861 60.8882 54.315C60.7972 54.437 60.8682 54.63 60.9892 54.7C61.1332 54.784 61.2842 54.721 61.3752 54.599C61.3932 54.574 61.3922 54.576 61.3702 54.604C61.4132 54.55 61.4292 54.532 61.4442 54.514C61.4832 54.469 61.5232 54.424 61.5632 54.381C61.6552 54.283 61.7502 54.188 61.8472 54.095C62.0712 53.88 62.3032 53.673 62.5342 53.466C62.9532 53.09 63.3942 52.718 63.7322 52.264C63.8232 52.142 63.7522 51.95 63.6312 51.879C63.4872 51.795 63.3362 51.857 63.2452 51.98Z" fill="#4C3B22"/>
<path d="M67.6471 66.671C67.3841 66.333 66.9262 66.359 66.5462 66.417C66.0212 66.496 65.5002 66.614 64.9912 66.764C63.9882 67.058 63.0232 67.482 62.1242 68.015C61.9422 68.123 61.9412 68.394 62.1242 68.501C63.5462 69.338 65.2282 68.658 66.7312 69.139C66.6902 68.982 66.6482 68.825 66.6072 68.668C65.6842 69.386 64.7612 70.105 63.8382 70.823C63.5522 71.046 63.9542 71.442 64.2362 71.222C65.1592 70.504 66.0822 69.785 67.0052 69.067C67.1832 68.928 67.0611 68.654 66.8811 68.596C66.1421 68.359 65.3622 68.386 64.5962 68.398C63.8472 68.409 63.0742 68.407 62.4092 68.015C62.4092 68.177 62.4092 68.339 62.4092 68.501C63.1962 68.034 64.0282 67.656 64.9012 67.38C65.3282 67.245 65.7621 67.134 66.2011 67.047C66.4781 66.992 67.0382 66.798 67.2502 67.069C67.4722 67.355 67.8681 66.954 67.6471 66.671Z" fill="#4C3B22"/>
<path d="M44.6961 50.978C42.9661 54.89 39.9581 58.038 38.0121 61.827C37.5241 62.778 37.1141 63.764 36.7961 64.785C36.4481 65.903 36.1811 67.055 35.7021 68.128C35.2251 69.197 34.5411 70.151 33.8691 71.103C33.2211 72.022 32.6061 72.963 32.0331 73.931C30.7301 76.132 29.5601 78.534 29.2041 81.092C29.1551 81.447 29.6971 81.6 29.7471 81.242C30.0651 78.963 31.0381 76.822 32.1611 74.835C32.7221 73.843 33.3261 72.872 33.9731 71.935C34.6191 70.999 35.3131 70.09 35.8551 69.088C36.4101 68.064 36.7461 66.953 37.0701 65.839C37.3801 64.775 37.721 63.732 38.194 62.728C39.089 60.829 40.2871 59.094 41.4811 57.374C42.8391 55.417 44.2141 53.451 45.1821 51.264C45.3281 50.934 44.8431 50.647 44.6961 50.978Z" fill="#4C3B22"/>
<path d="M45.7091 52.23C48.0811 51.399 50.5111 50.744 52.9791 50.272C52.8601 50.182 52.7411 50.091 52.6221 50C52.4801 51.303 52.2102 52.588 51.8272 53.841C51.7272 54.169 52.1631 54.298 52.3421 54.058C53.2671 52.821 54.6141 52 55.7351 50.961C56.8611 49.917 57.7201 48.614 58.2521 47.175C58.5541 46.359 58.7361 45.506 58.8111 44.64C58.8421 44.279 58.2791 44.281 58.2481 44.64C58.1191 46.133 57.6111 47.581 56.7961 48.838C55.9631 50.123 54.7931 51.032 53.6261 51.994C52.9761 52.53 52.3631 53.098 51.8571 53.774C52.0291 53.846 52.2001 53.919 52.3721 53.991C52.7701 52.689 53.0401 51.354 53.1871 50C53.2081 49.803 52.9911 49.698 52.8301 49.728C50.3621 50.201 47.9321 50.855 45.5601 51.686C45.2191 51.806 45.3661 52.351 45.7091 52.23Z" fill="#4C3B22"/>
<path d="M44.8001 49.8579C45.2991 47.2499 45.7991 44.6409 46.2991 42.0329C46.3511 41.7589 46.0431 41.5609 45.8281 41.7589C44.9451 42.5709 43.8951 43.1739 42.7501 43.5299C42.8561 43.6679 42.9621 43.8059 43.0681 43.9439C44.0851 41.8619 45.0241 39.7069 46.2501 37.7369C47.3731 35.9319 48.8571 34.2849 50.8671 33.4729C51.9271 33.0449 53.0881 32.8689 54.2171 33.0929C54.5711 33.1629 54.7231 32.6199 54.3671 32.5499C52.2081 32.1219 50.0471 32.9609 48.3881 34.3239C46.6281 35.7699 45.4701 37.8109 44.4631 39.8169C43.8231 41.0909 43.2071 42.3779 42.5821 43.6589C42.4801 43.8669 42.6501 44.1509 42.9001 44.0729C44.1391 43.6879 45.2721 43.0349 46.2271 42.1569C46.0701 42.0659 45.9131 41.9739 45.7561 41.8829C45.2561 44.4909 44.7571 47.0999 44.2571 49.7079C44.1891 50.0629 44.7321 50.2149 44.8001 49.8579Z" fill="#4C3B22"/>
<path d="M46.0832 58.228C48.3362 59.853 50.7682 61.209 53.3282 62.287C53.4692 62.347 53.6362 62.223 53.6752 62.09C53.7222 61.928 53.6182 61.802 53.4782 61.743C50.9652 60.685 48.5782 59.335 46.3672 57.741C46.0732 57.529 45.7912 58.018 46.0832 58.228Z" fill="#4C3B22"/>
<path d="M55.6223 31.347C53.1233 29.714 50.0973 29.248 47.1973 28.849C45.5993 28.629 43.9753 28.456 42.3663 28.659C40.8983 28.844 39.5423 29.385 38.1923 29.962C36.7213 30.592 35.2183 31.26 33.5993 31.364C33.2393 31.387 33.2363 31.951 33.5993 31.927C36.4513 31.744 38.8262 29.967 41.5682 29.362C43.1562 29.012 44.8043 29.113 46.4063 29.308C47.8863 29.489 49.3743 29.705 50.8283 30.038C52.4173 30.4 53.9673 30.937 55.3383 31.833C55.6423 32.032 55.9253 31.545 55.6223 31.347Z" fill="#4C3B22"/>
<path d="M58.7661 11.181C59.0411 12.916 59.9742 14.5 60.8952 15.966C61.3562 16.7 61.8842 17.367 62.5432 17.933C63.2112 18.508 63.9172 19.048 64.6252 19.574C65.4232 20.167 66.2562 20.715 67.1582 21.137C67.4842 21.29 67.7712 20.804 67.4422 20.651C65.9012 19.929 64.5471 18.85 63.2351 17.78C62.5721 17.24 62.0092 16.642 61.5392 15.926C61.0732 15.216 60.6422 14.473 60.2522 13.719C59.8132 12.87 59.4602 11.98 59.3102 11.031C59.2522 10.674 58.7091 10.825 58.7661 11.181Z" fill="#4C3B22"/>
<path d="M62.287 12.6719C63.146 15.0979 64.957 17.1439 67.28 18.2619C67.605 18.4189 67.891 17.9329 67.564 17.7759C65.375 16.7219 63.642 14.8169 62.83 12.5229C62.71 12.1829 62.166 12.3289 62.287 12.6719Z" fill="#4C3B22"/>
<path d="M64.2421 12.794C64.8801 13.407 65.5191 14.019 66.1571 14.632C66.7571 15.208 67.3861 15.766 67.9031 16.419C67.9981 16.539 68.2021 16.517 68.3011 16.419C68.4201 16.302 68.3951 16.139 68.3011 16.021C67.7831 15.368 67.1541 14.809 66.5551 14.234C65.9171 13.621 65.2781 13.009 64.6401 12.396C64.3791 12.145 63.9801 12.542 64.2421 12.794Z" fill="#4C3B22"/>
<path d="M66.7982 13.772C67.0412 14.305 67.4242 14.757 67.8902 15.109C67.9442 15.15 68.0452 15.154 68.1072 15.137C68.1722 15.119 68.2432 15.068 68.2752 15.008C68.3532 14.86 68.3002 14.718 68.1742 14.623C68.1322 14.591 68.2022 14.646 68.1752 14.624C68.1622 14.613 68.1492 14.603 68.1352 14.592C68.1112 14.573 68.0882 14.553 68.0652 14.534C68.0162 14.492 67.9692 14.449 67.9232 14.404C67.8292 14.312 67.7402 14.214 67.6582 14.112C67.6742 14.135 67.6392 14.088 67.6342 14.081C67.6142 14.054 67.5942 14.026 67.5752 13.999C67.5382 13.946 67.5032 13.893 67.4702 13.838C67.4012 13.726 67.3402 13.609 67.2852 13.489C67.2242 13.354 67.0192 13.311 66.9002 13.388C66.7602 13.476 66.7322 13.628 66.7982 13.772Z" fill="#4C3B22"/>
<path d="M106.037 9.63897C105.046 9.41197 104.04 9.25397 103.027 9.16897C102.773 9.14797 102.518 9.13097 102.263 9.11997C102.143 9.11397 102.023 9.10997 101.903 9.10597C101.794 9.10297 101.619 9.13097 101.517 9.08797C101.358 9.02097 101.299 8.76197 101.228 8.61897C101.149 8.45797 101.059 8.30197 100.96 8.15197C100.159 6.93397 98.8232 6.08897 97.3902 5.83997C96.5782 5.69897 95.7442 5.73697 94.9592 5.99297C94.6162 6.10497 94.7632 6.64897 95.1092 6.53597C96.4642 6.09497 97.9552 6.35997 99.1412 7.12797C99.7202 7.50297 100.22 8.00497 100.574 8.59697C100.752 8.89497 100.85 9.30797 101.139 9.51997C101.312 9.64697 101.514 9.65997 101.722 9.66497C101.977 9.67097 102.232 9.67997 102.487 9.69397C103.633 9.75997 104.768 9.92497 105.886 10.181C106.24 10.263 106.391 9.71997 106.037 9.63897Z" fill="#8C4A29"/>
<path d="M104.118 5.06904C106.711 4.99204 109.304 4.91504 111.896 4.83904C112.258 4.82804 112.259 4.26504 111.896 4.27604C109.303 4.35304 106.71 4.43004 104.118 4.50604C103.756 4.51604 103.755 5.08004 104.118 5.06904Z" fill="#8C4A29"/>
<path d="M104.925 6.447C107.383 6.372 109.841 6.297 112.299 6.222C112.661 6.211 112.662 5.647 112.299 5.659C109.841 5.734 107.383 5.809 104.925 5.884C104.563 5.895 104.562 6.459 104.925 6.447Z" fill="#8C4A29"/>
<path d="M103.813 2.97097C106.12 2.89097 108.43 3.03697 110.707 3.41497C111.062 3.47397 111.214 2.93097 110.857 2.87197C108.53 2.48497 106.171 2.32697 103.813 2.40797C103.451 2.41997 103.449 2.98297 103.813 2.97097Z" fill="#8C4A29"/>
<path d="M103.167 1.90603C103.424 3.85103 104.081 5.71903 105.12 7.38603C105.312 7.69303 105.799 7.41103 105.607 7.10203C104.624 5.52603 103.974 3.75003 103.731 1.90603C103.711 1.75403 103.616 1.62603 103.449 1.62403C103.312 1.62303 103.147 1.75603 103.167 1.90603Z" fill="#8C4A29"/>
<path d="M102.318 2.93898C101.399 3.98098 100.047 4.56098 98.6591 4.50298C98.2961 4.48798 98.2971 5.05198 98.6591 5.06598C100.184 5.12898 101.707 4.48198 102.716 3.33698C102.955 3.06698 102.558 2.66698 102.318 2.93898Z" fill="#8C4A29"/>
<path d="M92.1432 5.652C92.1732 6.595 92.3062 7.53501 92.5422 8.44901C92.6322 8.80001 93.1762 8.651 93.0852 8.299C92.8622 7.432 92.7352 6.54701 92.7072 5.65101C92.6952 5.29001 92.1322 5.289 92.1432 5.652Z" fill="#8C4A29"/>
<path d="M69.0081 11.053C69.9981 12.412 71.0081 13.756 72.0371 15.087C72.1311 15.208 72.3361 15.184 72.4351 15.087C72.5551 14.969 72.5281 14.808 72.4351 14.689C71.4361 13.397 70.4561 12.09 69.4951 10.77C69.2831 10.479 68.7941 10.759 69.0081 11.053Z" fill="#8C4A29"/>
<path d="M57.777 80.959C59.661 81.406 61.544 81.852 63.428 82.299C63.78 82.383 63.9311 81.839 63.5781 81.756C61.6941 81.309 59.8101 80.863 57.9271 80.416C57.5741 80.332 57.424 80.875 57.777 80.959Z" fill="#8C4A29"/>
<path d="M38.1012 87.581C39.8032 87.163 41.5522 87.008 43.3012 87.112C43.6632 87.134 43.6622 86.57 43.3012 86.549C41.5042 86.442 39.6992 86.609 37.9522 87.038C37.5992 87.124 37.7482 87.668 38.1012 87.581Z" fill="#8C4A29"/>
<path d="M36.5242 85.3929C38.3402 85.2429 40.1621 85.1939 41.9831 85.2459C42.3461 85.2559 42.3451 84.6929 41.9831 84.6829C40.1621 84.6309 38.3392 84.6799 36.5242 84.8299C36.1662 84.8589 36.1622 85.4219 36.5242 85.3929Z" fill="#8C4A29"/>
<path d="M37.5392 83.027C39.1902 82.973 40.8422 82.992 42.4912 83.084C42.8532 83.104 42.8522 82.541 42.4912 82.521C40.8422 82.428 39.1902 82.409 37.5392 82.464C37.1772 82.476 37.1762 83.039 37.5392 83.027Z" fill="#8C4A29"/>
<path d="M42.7413 82.631C42.6703 84.471 42.9502 86.316 43.5652 88.052C43.6852 88.391 44.2302 88.245 44.1082 87.902C43.5082 86.209 43.2362 84.426 43.3042 82.631C43.3182 82.268 42.7553 82.269 42.7413 82.631Z" fill="#8C4A29"/>
<path d="M47.2832 87.3099C47.0372 88.5649 46.9252 89.8419 46.9542 91.1199C46.9622 91.4819 47.5262 91.4829 47.5172 91.1199C47.4892 89.8909 47.5902 88.6659 47.8262 87.4599C47.8962 87.1049 47.3532 86.9539 47.2832 87.3099Z" fill="#8C4A29"/>
<path d="M66.8762 26.995C66.7312 27.594 66.5863 28.193 66.4413 28.793C66.4063 28.936 66.4863 29.105 66.6383 29.14C66.7833 29.173 66.9483 29.096 66.9853 28.943C67.1303 28.344 67.2753 27.744 67.4193 27.145C67.4543 27.002 67.3743 26.833 67.2223 26.798C67.0783 26.766 66.9132 26.842 66.8762 26.995Z" fill="#8C4A29"/>
<path d="M65.654 27.7489C65.935 27.9709 66.216 28.1919 66.497 28.4139C66.558 28.4619 66.615 28.4969 66.696 28.4969C66.765 28.4969 66.848 28.4659 66.895 28.4139C66.944 28.3599 66.981 28.2899 66.978 28.2149C66.975 28.1459 66.953 28.0609 66.895 28.0159C66.614 27.7939 66.333 27.5729 66.052 27.3509C65.991 27.3029 65.934 27.2679 65.853 27.2679C65.784 27.2679 65.701 27.2989 65.654 27.3509C65.605 27.4049 65.568 27.4749 65.571 27.5499C65.575 27.6189 65.597 27.7039 65.654 27.7489Z" fill="#8C4A29"/>
<path opacity="0.36" d="M62.2531 41.366L58.5291 35.749L60.2061 42.518L62.2531 41.366Z" fill="#8C4A29"/>
<path d="M74.3562 34.519C73.2442 35.788 72.1322 37.057 71.0202 38.326C70.7522 38.632 70.4851 38.937 70.2171 39.243C70.1351 39.337 70.0521 39.431 69.9701 39.525C69.9491 39.549 69.9292 39.572 69.9082 39.596C69.8172 39.655 69.8252 39.689 69.9322 39.701C69.8052 39.611 69.7002 39.394 69.6222 39.265C69.2532 38.653 69.0702 37.955 69.0782 37.242C69.0822 36.879 68.5182 36.879 68.5152 37.242C68.5062 38.05 68.7181 38.856 69.1361 39.55C69.3041 39.829 69.5631 40.319 69.9561 40.247C70.1661 40.209 70.3001 40.003 70.4301 39.854C70.5851 39.678 70.7392 39.501 70.8932 39.325C72.1802 37.856 73.4672 36.387 74.7542 34.918C74.9922 34.646 74.5952 34.246 74.3562 34.519Z" fill="#8C4A29"/>
<path d="M66.1553 35.856C65.4163 36.682 65.4473 38.049 66.2543 38.821C66.5163 39.072 66.9152 38.674 66.6522 38.423C66.0702 37.866 66.0152 36.856 66.5532 36.255C66.7952 35.985 66.3983 35.585 66.1553 35.856Z" fill="#8C4A29"/>
<path d="M71.2642 33.5489C70.7922 33.8879 70.2253 33.9079 69.9993 33.5929C69.7733 33.2779 69.9733 32.7479 70.4453 32.4089C70.9173 32.0699 71.4843 32.05 71.7103 32.365C71.9363 32.68 71.7362 33.2099 71.2642 33.5489Z" fill="black"/>
<path d="M75.2601 38.787C74.7881 39.126 74.2211 39.146 73.9951 38.831C73.7691 38.516 73.9691 37.986 74.4411 37.647C74.9131 37.308 75.4801 37.288 75.7061 37.603C75.9321 37.918 75.7321 38.448 75.2601 38.787Z" fill="black"/>
<path d="M74.7861 31.92C74.4181 32.374 73.6721 32.301 73.1951 31.962C72.7181 31.623 72.4171 31.098 72.0391 30.652C71.6341 30.175 71.1321 29.781 70.5721 29.502C70.5121 29.289 70.8081 29.166 71.0301 29.15C72.1971 29.067 73.4591 29.187 74.3671 29.925C74.9751 30.419 75.354 31.37 74.863 31.981L74.7861 31.92Z" fill="black"/>
<path d="M76.612 33.993C76.055 34.172 75.853 34.893 75.995 35.46C76.138 36.027 76.5181 36.499 76.7961 37.013C77.0941 37.563 77.278 38.175 77.334 38.798C77.511 38.932 77.733 38.7 77.828 38.499C78.329 37.441 78.676 36.222 78.318 35.108C78.078 34.362 77.3301 33.664 76.5831 33.899L76.612 33.993Z" fill="black"/>
<path d="M69.7162 26.796C68.6082 27.546 67.5012 28.296 66.3932 29.045C66.2732 29.126 66.1442 29.221 66.1152 29.363C66.0872 29.5 66.1612 29.634 66.2332 29.754C66.4242 30.072 66.6152 30.389 66.8062 30.707C69.4272 28.9 72.2212 27.346 75.1392 26.073C75.3872 25.965 75.6542 25.856 75.9202 25.904C76.4532 26 76.6782 26.635 76.7472 27.173C76.8162 27.711 76.8752 28.335 77.3272 28.632C77.7982 28.941 78.4552 28.724 78.9672 28.96C79.4792 29.196 79.6942 29.814 79.7342 30.377C79.7732 30.94 79.6932 31.518 79.8472 32.061C80.0182 32.662 80.4862 33.17 81.0712 33.389C81.3792 33.504 81.7212 33.547 81.9892 33.738C82.4722 34.083 82.5332 34.76 82.7512 35.312C83.2232 36.512 84.6892 37.218 85.9222 36.839C87.1552 36.46 87.9712 35.052 87.6872 33.794C87.5672 33.261 87.2822 32.781 86.9862 32.321C85.3452 29.771 83.1612 27.35 82.8472 24.334C82.7712 23.606 82.8092 22.862 82.6202 22.155C82.2872 20.908 81.2522 19.915 80.0452 19.457C78.8382 18.999 77.4832 19.034 76.2362 19.366C75.8462 19.47 75.4592 19.603 75.0562 19.62C74.5772 19.64 74.1092 19.495 73.6352 19.423C72.0972 19.187 70.4582 19.766 69.4092 20.915C68.1082 22.34 67.6822 23.917 66.3672 25.33C67.3602 24.997 68.6192 25.858 69.2952 26.658L69.7162 26.796Z" fill="black"/>
<path d="M86.6302 32.821C87.0892 31.937 87.1632 30.87 86.7902 29.94C86.4372 29.06 85.7142 28.456 85.1052 27.76C84.8092 27.421 84.5492 27.049 84.4152 26.615C84.2552 26.097 84.2492 25.551 84.1962 25.015C84.1062 24.094 83.8162 23.243 83.2502 22.503C82.6382 21.704 81.7902 21.108 80.8212 20.83C80.4722 20.73 80.3232 21.273 80.6712 21.373C82.3042 21.842 83.4572 23.299 83.6282 24.973C83.7252 25.924 83.7462 26.855 84.3162 27.666C84.8012 28.356 85.4892 28.877 85.9612 29.575C86.5532 30.45 86.6312 31.594 86.1432 32.535C85.9772 32.858 86.4632 33.144 86.6302 32.821Z" fill="black"/>
<path d="M29.2511 86.271C29.2391 88.094 29.2271 89.917 29.2151 91.74C29.2091 92.644 29.2031 93.547 29.1971 94.451C29.1941 94.903 29.1911 95.355 29.1881 95.807C29.1871 96.019 29.1881 96.231 29.1831 96.443C29.1791 96.635 29.1691 96.836 29.0161 96.972C28.8771 97.096 28.6821 97.157 28.5111 97.222C28.2801 97.31 28.0491 97.398 27.8181 97.487C27.3271 97.675 26.8371 97.862 26.3461 98.05C26.4651 98.14 26.5841 98.231 26.7031 98.322C26.9511 94.526 26.7151 90.709 26.0131 86.971C25.9461 86.615 25.4031 86.766 25.4701 87.121C26.1631 90.809 26.3851 94.577 26.1401 98.322C26.1291 98.493 26.3311 98.657 26.4971 98.594C26.9451 98.423 27.3921 98.252 27.8391 98.081C28.2491 97.924 28.6761 97.789 29.0721 97.599C29.4301 97.427 29.6681 97.141 29.7251 96.744C29.7881 96.301 29.7521 95.834 29.7551 95.388C29.7681 93.456 29.7811 91.524 29.7931 89.592C29.8001 88.486 29.8081 87.379 29.8151 86.273C29.8171 85.908 29.2531 85.908 29.2511 86.271Z" fill="#386B84"/>
<path d="M26.915 98.092C26.688 100.661 26.6261 103.243 26.7271 105.82C26.7411 106.181 27.3051 106.183 27.2911 105.82C27.1891 103.243 27.2521 100.661 27.4791 98.092C27.5101 97.731 26.946 97.733 26.915 98.092Z" fill="#386B84"/>
<path d="M23.3172 98.9629C26.2902 98.3109 29.2982 97.8259 32.3262 97.5139C32.6832 97.4769 32.6872 96.9129 32.3262 96.9509C29.2482 97.2669 26.1902 97.7569 23.1672 98.4199C22.8132 98.4979 22.9632 99.0409 23.3172 98.9629Z" fill="#386B84"/>
<path d="M14.2162 83.1019C13.0392 84.7369 11.0032 85.6439 9.00315 85.4779C8.64215 85.4479 8.64415 86.0119 9.00315 86.0409C11.2102 86.2239 13.4132 85.176 14.7022 83.386C14.9152 83.091 14.4262 82.8099 14.2162 83.1019Z" fill="#386B84"/>
<path d="M9.5861 80.858C7.96411 86.502 8.31611 92.422 8.81511 98.201C9.07311 101.178 9.34611 104.152 9.47411 107.139C9.60711 110.228 9.63808 113.321 9.66008 116.412C9.70608 122.627 9.80911 128.814 10.4531 135.001C10.7701 138.041 11.0971 141.099 10.9401 144.16C10.7821 147.249 9.9681 150.229 9.3781 153.252C8.2201 159.191 7.7831 165.272 8.0891 171.316C8.1271 172.065 8.17711 172.812 8.23711 173.56C8.26611 173.919 8.82909 173.922 8.80009 173.56C8.31509 167.487 8.56308 161.359 9.56908 155.349C10.0681 152.37 10.8821 149.447 11.2891 146.453C11.7001 143.432 11.5421 140.385 11.2561 137.361C10.9681 134.326 10.6261 131.302 10.4701 128.255C10.3131 125.168 10.2691 122.076 10.2431 118.986C10.1921 112.858 10.1281 106.75 9.59312 100.64C9.08412 94.828 8.42511 88.877 9.61211 83.102C9.75711 82.398 9.93013 81.7 10.1291 81.009C10.2291 80.659 9.6861 80.51 9.5861 80.858Z" fill="#386B84"/>
<path d="M6.88818 173.042C9.41218 174.446 12.3402 175.073 15.2172 174.81C15.5752 174.777 15.5792 174.214 15.2172 174.247C12.4352 174.502 9.61517 173.915 7.17217 172.556C6.85517 172.379 6.57018 172.865 6.88818 173.042Z" fill="#386B84"/>
<path d="M28.7531 98.485C29.7311 103.25 30.7601 108.005 31.8411 112.748C32.9221 117.491 34.054 122.223 35.238 126.941C35.823 129.272 36.4231 131.6 36.8931 133.957C37.3661 136.328 37.6811 138.726 38.0251 141.118C38.7251 145.982 39.4241 150.846 40.1241 155.71C40.8241 160.574 41.5231 165.438 42.2231 170.302C42.3101 170.907 42.3971 171.512 42.4841 172.117C42.5351 172.474 43.078 172.322 43.027 171.967C42.327 167.103 41.628 162.239 40.928 157.375C40.228 152.511 39.5291 147.647 38.8291 142.783C38.4861 140.4 38.173 138.011 37.772 135.637C37.369 133.247 36.808 130.89 36.22 128.54C35.04 123.824 33.8821 119.104 32.7891 114.367C31.6951 109.627 30.6531 104.875 29.6621 100.112C29.5391 99.52 29.4171 98.927 29.2951 98.334C29.2241 97.981 28.6801 98.131 28.7531 98.485Z" fill="#386B84"/>
<path d="M40.3681 172.77C43.5501 172.907 46.6411 171.857 49.7311 171.261C50.0871 171.192 49.9361 170.649 49.5811 170.718C46.5401 171.304 43.5011 172.341 40.3681 172.206C40.0051 172.191 40.0061 172.754 40.3681 172.77Z" fill="#386B84"/>
<path d="M39.8421 61.437C39.6611 61.824 39.7542 62.26 40.0392 62.571C40.3242 62.883 40.7732 62.972 41.1502 62.78C41.4902 62.607 41.7191 62.211 41.7121 61.832C41.7051 61.421 41.4242 61.089 41.0382 60.97C40.8472 60.911 40.6322 60.909 40.4392 60.96C40.2172 61.019 40.0381 61.15 39.9041 61.334C39.8171 61.453 39.8802 61.653 40.0052 61.719C40.1522 61.796 40.2972 61.745 40.3902 61.618C40.4182 61.579 40.3492 61.663 40.3822 61.629C40.4752 61.539 40.3902 61.604 40.4392 61.573C40.4632 61.557 40.4872 61.542 40.5132 61.529C40.5232 61.524 40.5712 61.502 40.5252 61.522C40.4782 61.542 40.5342 61.52 40.5462 61.516C40.5742 61.507 40.6022 61.499 40.6302 61.494C40.6772 61.486 40.6052 61.492 40.6352 61.492C40.6942 61.488 40.7232 61.487 40.7522 61.489C40.8572 61.496 40.7431 61.481 40.7871 61.491C40.8161 61.497 40.8441 61.503 40.8731 61.511C40.9671 61.541 40.8802 61.505 40.9082 61.52C40.9342 61.533 40.9601 61.545 40.9851 61.56C41.0701 61.615 40.9841 61.55 41.0161 61.579C41.0371 61.599 41.0592 61.617 41.0782 61.639C41.1122 61.674 41.0702 61.625 41.0702 61.627C41.0772 61.642 41.0902 61.656 41.0992 61.67C41.1272 61.731 41.1392 61.762 41.1462 61.795C41.1572 61.846 41.1452 61.779 41.1452 61.781C41.1472 61.886 41.1402 61.948 41.1482 61.897C41.1562 61.846 41.1471 61.901 41.1441 61.913C41.1251 61.99 41.1081 62.022 41.1021 62.055C41.0621 62.122 41.0381 62.149 41.0221 62.178C40.9201 62.275 40.9911 62.218 40.9641 62.236C40.9381 62.253 40.9141 62.271 40.8861 62.286C40.8191 62.314 40.7891 62.321 40.7591 62.327C40.7111 62.338 40.8221 62.324 40.7721 62.325C40.7541 62.325 40.7351 62.327 40.7171 62.326C40.6411 62.322 40.7061 62.328 40.7061 62.328C40.6531 62.316 40.6161 62.297 40.5871 62.295C40.4701 62.22 40.5412 62.276 40.5182 62.253C40.4922 62.227 40.4631 62.204 40.4381 62.177C40.4261 62.164 40.4151 62.146 40.4021 62.135C40.3831 62.103 40.3662 62.071 40.3492 62.038C40.3212 61.984 40.3642 62.082 40.3492 62.04C40.3432 62.023 40.3361 62.006 40.3311 61.988C40.3261 61.97 40.3212 61.953 40.3172 61.935C40.3142 61.922 40.3051 61.86 40.3111 61.911C40.3171 61.962 40.3102 61.899 40.3102 61.887C40.3092 61.869 40.3092 61.851 40.3092 61.833C40.3092 61.816 40.3141 61.796 40.3131 61.779C40.3131 61.779 40.3001 61.843 40.3081 61.816C40.3181 61.768 40.3231 61.75 40.3291 61.733C40.3441 61.68 40.3072 61.777 40.3302 61.727C40.3922 61.594 40.3722 61.417 40.2292 61.342C40.1022 61.27 39.9081 61.294 39.8421 61.437Z" fill="#4C3B22"/>
<path d="M36.0831 71.132C35.9021 71.518 35.9951 71.955 36.2801 72.266C36.5651 72.578 37.0141 72.667 37.3911 72.475C37.7311 72.302 37.9591 71.906 37.9531 71.527C37.9461 71.116 37.6651 70.784 37.2791 70.665C37.0881 70.606 36.8731 70.604 36.6801 70.655C36.4581 70.713 36.2791 70.845 36.1451 71.029C36.0581 71.148 36.1211 71.348 36.2461 71.414C36.3931 71.491 36.5381 71.44 36.6311 71.313C36.6591 71.274 36.5901 71.358 36.6231 71.324C36.7161 71.234 36.6311 71.299 36.6801 71.268C36.7041 71.252 36.7281 71.237 36.7541 71.224C36.7641 71.219 36.8121 71.197 36.7661 71.217C36.7191 71.237 36.7751 71.215 36.7871 71.211C36.8151 71.202 36.8431 71.195 36.8711 71.189C36.9181 71.18 36.8461 71.187 36.8761 71.187C36.9351 71.183 36.9641 71.182 36.9941 71.184C37.0991 71.191 36.9851 71.176 37.0291 71.186C37.0581 71.192 37.0861 71.198 37.1151 71.206C37.2091 71.235 37.1221 71.2 37.1501 71.215C37.1761 71.229 37.2021 71.24 37.2271 71.255C37.3121 71.31 37.2261 71.245 37.2581 71.274C37.2791 71.294 37.3011 71.313 37.3201 71.334C37.3541 71.37 37.3121 71.32 37.3131 71.322C37.3201 71.337 37.3331 71.351 37.3421 71.365C37.3701 71.426 37.3821 71.457 37.3881 71.49C37.3991 71.541 37.3871 71.474 37.3871 71.476C37.3891 71.581 37.3821 71.643 37.3901 71.592C37.3981 71.541 37.3891 71.596 37.3861 71.608C37.3671 71.685 37.3501 71.717 37.3431 71.75C37.3031 71.817 37.2791 71.844 37.2631 71.873C37.1611 71.97 37.2321 71.913 37.2051 71.931C37.1791 71.948 37.1541 71.966 37.1271 71.981C37.0601 72.009 37.0301 72.016 37.0001 72.022C36.9521 72.033 37.0631 72.019 37.0131 72.02C36.9951 72.02 36.9761 72.022 36.9581 72.021C36.8821 72.017 36.9471 72.023 36.9471 72.023C36.8941 72.011 36.8571 71.992 36.8281 71.99C36.7111 71.915 36.7821 71.971 36.7591 71.947C36.7331 71.921 36.7041 71.898 36.6791 71.871C36.6671 71.858 36.6561 71.84 36.6431 71.829C36.6251 71.797 36.6071 71.765 36.5901 71.732C36.5621 71.678 36.6051 71.776 36.5901 71.734C36.5841 71.717 36.5771 71.699 36.5721 71.682C36.5671 71.664 36.5621 71.647 36.5581 71.629C36.5551 71.616 36.5461 71.554 36.5521 71.605C36.5581 71.656 36.5511 71.593 36.5511 71.581C36.5501 71.563 36.5501 71.545 36.5501 71.527C36.5501 71.51 36.5551 71.49 36.5541 71.473C36.5541 71.473 36.5411 71.537 36.5491 71.509C36.5591 71.461 36.5641 71.443 36.5701 71.426C36.5851 71.373 36.5481 71.47 36.5711 71.42C36.6331 71.287 36.6131 71.11 36.4701 71.035C36.3431 70.965 36.1491 70.989 36.0831 71.132Z" fill="#4C3B22"/>
<path d="M31.9281 78.452C31.7471 78.839 31.8401 79.275 32.1251 79.586C32.4101 79.898 32.8591 79.987 33.2361 79.795C33.5751 79.622 33.8041 79.226 33.7981 78.847C33.7911 78.436 33.5101 78.104 33.1241 77.985C32.9331 77.926 32.7181 77.924 32.5251 77.975C32.3031 78.033 32.1241 78.165 31.9901 78.349C31.9031 78.468 31.9661 78.668 32.0911 78.734C32.2381 78.811 32.3831 78.76 32.4761 78.633C32.5041 78.594 32.4351 78.678 32.4681 78.644C32.5611 78.554 32.4761 78.619 32.5241 78.588C32.5481 78.572 32.5721 78.557 32.5981 78.544C32.6081 78.539 32.6571 78.517 32.6101 78.537C32.5631 78.557 32.6181 78.535 32.6311 78.531C32.6591 78.522 32.6871 78.515 32.7151 78.509C32.7621 78.501 32.6901 78.507 32.7201 78.507C32.7791 78.503 32.8081 78.502 32.8381 78.503C32.9431 78.51 32.8291 78.495 32.8731 78.505C32.9021 78.511 32.9301 78.517 32.9591 78.525C33.0531 78.554 32.9661 78.519 32.9941 78.534C33.0201 78.548 33.0461 78.559 33.0711 78.574C33.1561 78.629 33.0711 78.564 33.1021 78.593C33.1231 78.613 33.1451 78.631 33.1641 78.653C33.1981 78.689 33.1561 78.639 33.1561 78.641C33.1631 78.656 33.1761 78.67 33.1851 78.684C33.2131 78.746 33.2251 78.776 33.2321 78.809C33.2431 78.86 33.2311 78.793 33.2311 78.795C33.2331 78.9 33.2261 78.962 33.2341 78.911C33.2421 78.86 33.2331 78.915 33.2311 78.927C33.2121 79.004 33.1951 79.036 33.1881 79.069C33.1481 79.136 33.1241 79.163 33.1081 79.192C33.0061 79.289 33.0771 79.232 33.0491 79.25C33.0231 79.267 32.9991 79.285 32.9711 79.3C32.9041 79.328 32.8741 79.335 32.8441 79.341C32.7961 79.352 32.9071 79.338 32.8571 79.339C32.8381 79.339 32.8201 79.341 32.8021 79.34C32.7261 79.336 32.7911 79.342 32.7911 79.342C32.7381 79.33 32.7021 79.311 32.6721 79.309C32.5551 79.234 32.6261 79.29 32.6031 79.267C32.5771 79.241 32.5481 79.218 32.5231 79.191C32.5111 79.178 32.5011 79.16 32.4871 79.149C32.4691 79.117 32.4511 79.085 32.4341 79.052C32.4061 78.998 32.4491 79.096 32.4341 79.054C32.4281 79.037 32.4211 79.019 32.4161 79.002C32.4111 78.984 32.4061 78.967 32.4021 78.949C32.3991 78.936 32.3901 78.874 32.3961 78.925C32.4021 78.976 32.3951 78.913 32.3951 78.901C32.3941 78.883 32.3941 78.865 32.3941 78.847C32.3941 78.83 32.3991 78.81 32.3981 78.793C32.3981 78.793 32.3851 78.857 32.3941 78.829C32.4041 78.781 32.4091 78.763 32.4151 78.746C32.4301 78.693 32.3931 78.79 32.4161 78.74C32.4781 78.607 32.4581 78.43 32.3151 78.355C32.1881 78.285 31.9941 78.309 31.9281 78.452Z" fill="#4C3B22"/>
<path d="M29.8961 57.186C30.7321 58.003 31.3581 58.988 31.9511 59.988C32.5491 60.996 33.1471 62.001 33.7871 62.983C35.0951 64.989 36.5231 66.917 38.0591 68.755C38.9281 69.795 39.832 70.804 40.769 71.783C41.02 72.045 41.4181 71.647 41.1671 71.385C37.8431 67.91 35.001 64.053 32.561 59.914C31.907 58.803 31.2221 57.695 30.2941 56.788C30.0351 56.534 29.6361 56.932 29.8961 57.186Z" fill="#4C3B22"/>
<path d="M35.0251 58.584C36.9241 61.96 38.9501 65.264 41.0981 68.488C41.2981 68.788 41.7861 68.507 41.5851 68.204C39.4371 64.98 37.4111 61.676 35.5121 58.3C35.3341 57.983 34.8471 58.267 35.0251 58.584Z" fill="#4C3B22"/>
<path d="M15.259 60.96C15.821 62.037 16.6661 62.941 17.6961 63.582C17.9191 63.721 18.1541 63.492 18.1101 63.264C18.0211 62.809 17.9331 62.353 17.8441 61.898C17.7971 61.655 17.7501 61.412 17.7021 61.169C17.6821 61.064 17.6491 60.955 17.6411 60.848C17.6371 60.813 17.6371 60.777 17.6411 60.742C17.6211 60.774 17.6291 60.791 17.6631 60.794C18.4771 61.198 19.253 61.708 20.04 62.163C20.354 62.345 20.639 61.858 20.324 61.676C19.798 61.372 19.272 61.067 18.746 60.763C18.5 60.621 18.257 60.469 18.006 60.336C17.803 60.229 17.5631 60.152 17.3471 60.272C16.8831 60.529 17.1331 61.194 17.2101 61.592C17.3281 62.199 17.4461 62.806 17.5641 63.414C17.7021 63.308 17.8401 63.202 17.9781 63.096C17.0261 62.503 16.261 61.67 15.743 60.676C15.578 60.354 15.092 60.639 15.259 60.96Z" fill="#4C3B22"/>
<path d="M48.6423 19.257C49.1793 19.984 49.8552 20.584 50.6522 21.014C50.8352 21.113 51.0802 20.991 51.0762 20.771C51.0582 19.875 51.0402 18.98 51.0222 18.084C50.8472 18.131 50.6723 18.179 50.4973 18.226C50.9793 19.013 52.0263 19.329 52.8873 19.029C53.3633 18.863 53.6822 18.548 53.9442 18.127C54.0662 17.931 54.2072 17.624 54.4462 17.553C54.5472 17.523 54.8062 17.575 54.7872 17.666C54.7132 18.02 55.2563 18.171 55.3303 17.816C55.4393 17.299 54.9572 16.951 54.4742 16.982C53.8342 17.023 53.6253 17.674 53.2833 18.102C52.7163 18.81 51.4502 18.708 50.9822 17.943C50.8402 17.71 50.4512 17.799 50.4572 18.085C50.4752 18.981 50.4932 19.876 50.5112 20.772C50.6522 20.691 50.7942 20.61 50.9352 20.529C50.2262 20.147 49.6073 19.623 49.1273 18.974C48.9153 18.684 48.4263 18.965 48.6423 19.257Z" fill="#4C3B22"/>
<path d="M59.1 25.138C58.645 25.542 58.19 25.946 57.735 26.349C57.624 26.447 57.627 26.649 57.735 26.747C57.853 26.855 58.015 26.852 58.133 26.747C58.588 26.343 59.043 25.939 59.498 25.536C59.609 25.438 59.606 25.236 59.498 25.138C59.38 25.03 59.218 25.033 59.1 25.138Z" fill="#4C3B22"/>
<path d="M62.3572 23.45C61.8192 23.775 61.3611 24.214 61.0091 24.734C60.9261 24.856 60.9822 25.052 61.1102 25.119C61.2522 25.194 61.4072 25.149 61.4952 25.018C61.5342 24.96 61.5752 24.904 61.6162 24.848C61.6582 24.791 61.5792 24.895 61.6232 24.839C61.6712 24.779 61.6932 24.752 61.7152 24.726C61.8072 24.617 61.9051 24.514 62.0091 24.415C62.0591 24.367 62.1112 24.321 62.1642 24.275C62.1902 24.252 62.2172 24.23 62.2442 24.208C62.2572 24.197 62.2711 24.186 62.2851 24.175C62.3271 24.142 62.2582 24.195 62.2862 24.174C62.4012 24.089 62.5182 24.008 62.6402 23.934C62.7662 23.858 62.8242 23.678 62.7412 23.548C62.6612 23.425 62.4922 23.369 62.3572 23.45Z" fill="#4C3B22"/>
<path d="M62.5142 61.721C62.5142 62.125 62.5142 62.529 62.5142 62.933C62.5142 63.08 62.6432 63.221 62.7962 63.215C62.9492 63.208 63.0782 63.091 63.0782 62.933C63.0782 62.529 63.0782 62.125 63.0782 61.721C63.0782 61.574 62.9482 61.432 62.7962 61.439C62.6432 61.446 62.5142 61.563 62.5142 61.721Z" fill="#4C3B22"/>
<path d="M64.0303 61.418C64.0303 61.67 64.0303 61.923 64.0303 62.176C64.0303 62.323 64.1603 62.464 64.3123 62.458C64.4653 62.451 64.5942 62.334 64.5942 62.176C64.5942 61.923 64.5942 61.671 64.5942 61.418C64.5942 61.271 64.4643 61.129 64.3123 61.136C64.1593 61.143 64.0303 61.26 64.0303 61.418Z" fill="#4C3B22"/>
<path d="M65.0901 58.387C65.0901 58.741 65.0901 59.094 65.0901 59.448C65.0901 59.595 65.2201 59.736 65.3721 59.73C65.5251 59.723 65.6541 59.606 65.6541 59.448C65.6541 59.094 65.6541 58.741 65.6541 58.387C65.6541 58.24 65.5241 58.098 65.3721 58.105C65.2191 58.112 65.0901 58.229 65.0901 58.387Z" fill="#4C3B22"/>
<path d="M39.9181 188.494C41.2661 189.131 42.4611 190.046 43.4271 191.182C43.9041 191.743 44.317 192.358 44.662 193.009C45.023 193.691 45.2941 194.419 45.6901 195.084C46.0721 195.725 46.5771 196.272 47.2291 196.643C47.8711 197.008 48.593 197.199 49.321 197.295C50.798 197.49 52.353 197.35 53.795 196.997C55.452 196.591 57.0211 195.821 58.2671 194.644C58.5311 194.395 58.1321 193.997 57.8691 194.246C55.7491 196.249 52.5811 197.022 49.7231 196.776C49.0201 196.715 48.3011 196.565 47.6691 196.241C47.0151 195.906 46.5261 195.397 46.1561 194.767C45.7771 194.122 45.512 193.419 45.165 192.758C44.835 192.128 44.437 191.536 43.99 190.983C42.972 189.725 41.6661 188.7 40.2021 188.009C39.8761 187.854 39.5901 188.339 39.9181 188.494Z" fill="#C2B38C"/>
<path d="M50.7652 196.893C50.9392 195.559 51.9332 194.348 53.2112 193.926C54.5522 193.483 56.0842 193.9 57.0412 194.929C57.2892 195.195 57.6862 194.796 57.4392 194.531C56.5832 193.611 55.3052 193.112 54.0512 193.196C52.8002 193.279 51.6831 193.947 50.9541 194.958C50.5401 195.532 50.2932 196.196 50.2012 196.894C50.1552 197.251 50.7192 197.248 50.7652 196.893Z" fill="#C2B38C"/>
<path d="M50.5551 184.086C49.1281 184.666 47.6421 185.617 47.4531 187.29C47.2871 188.757 48.5351 189.947 49.9651 189.964C50.6631 189.972 51.3301 189.677 51.8491 189.222C52.1101 188.993 52.3361 188.717 52.5131 188.418C52.6791 188.139 52.8681 187.779 52.8861 187.449C52.9071 187.072 52.5901 186.812 52.2251 186.931C51.8891 187.04 51.5821 187.363 51.3211 187.591C50.7671 188.077 50.2351 188.68 50.0501 189.412C49.8771 190.096 50.0171 190.894 50.5041 191.421C51.1661 192.138 52.1501 191.923 52.9621 191.633C53.3011 191.512 53.1551 190.968 52.8121 191.09C52.2521 191.29 51.5221 191.559 51.0041 191.122C50.6491 190.823 50.5221 190.322 50.5461 189.875C50.5761 189.309 50.9091 188.806 51.2861 188.404C51.4751 188.203 51.6801 188.018 51.8921 187.842C52.0071 187.746 52.1221 187.648 52.2441 187.56C52.2551 187.552 52.4051 187.464 52.4051 187.462C52.3441 187.365 52.3171 187.355 52.3231 187.434C52.3131 187.476 52.3021 187.517 52.2881 187.557C51.9781 188.547 51.0411 189.413 49.9651 189.398C48.8921 189.384 47.9391 188.54 48.0031 187.434C48.0871 185.973 49.4931 185.119 50.7041 184.626C51.0371 184.494 50.8921 183.949 50.5551 184.086Z" fill="#C2B38C"/>
<path d="M40.0921 185.738C41.3981 186.408 42.1981 187.847 42.0841 189.31C42.0561 189.672 42.6191 189.67 42.6471 189.31C42.7751 187.664 41.8441 186.005 40.3761 185.252C40.0551 185.086 39.7691 185.572 40.0921 185.738Z" fill="#C2B38C"/>
<path d="M1.74504 197.395C3.34004 197.394 4.93605 197.392 6.53105 197.391C7.91005 197.39 9.44801 197.536 10.72 196.894C11.783 196.358 12.397 195.307 13.121 194.412C13.475 193.974 13.865 193.583 14.337 193.274C14.783 192.982 15.2641 192.747 15.7391 192.507C16.7741 191.983 17.8121 191.396 18.2751 190.272C18.4131 189.937 17.868 189.791 17.732 190.122C17.357 191.033 16.426 191.524 15.595 191.949C14.661 192.426 13.729 192.882 13.014 193.672C12.273 194.49 11.7371 195.551 10.8091 196.187C9.68306 196.958 8.20402 196.826 6.90702 196.827C5.18702 196.828 3.46601 196.83 1.74601 196.831C1.38201 196.831 1.38204 197.395 1.74504 197.395Z" fill="#C2B38C"/>
<path d="M17.2932 187.31C16.2222 188.432 15.7352 189.992 15.9442 191.525C15.9652 191.677 16.1582 191.757 16.2902 191.722C16.4532 191.679 16.5072 191.525 16.4872 191.375C16.3062 190.052 16.7732 188.671 17.6912 187.709C17.9422 187.446 17.5442 187.047 17.2932 187.31Z" fill="#C2B38C"/>
<path d="M1.13215 195.86C2.09515 195.052 3.4671 194.879 4.6601 195.182C5.9741 195.516 7.0851 196.356 8.0091 197.32C8.2601 197.582 8.65811 197.183 8.40711 196.922C7.38811 195.859 6.13014 194.93 4.66914 194.605C3.30214 194.302 1.8211 194.548 0.733101 195.461C0.455101 195.695 0.856148 196.092 1.13215 195.86Z" fill="#C2B38C"/>
<path d="M5.37505 191.703C6.14305 191.805 6.85703 192.142 7.63103 192.216C8.29603 192.28 9.02003 192.134 9.48803 191.624C10.306 190.734 10.5341 188.824 9.53106 187.979C9.09906 187.615 8.45907 187.456 7.92107 187.668C7.65007 187.775 7.40404 187.974 7.28704 188.246C7.13904 188.587 7.29205 188.894 7.56505 189.112C8.48405 189.846 9.91403 189.69 10.735 188.878C11.755 187.868 11.589 186.111 10.613 185.137C10.356 184.88 9.95708 185.279 10.2151 185.535C10.8641 186.183 11.082 187.266 10.631 188.086C10.213 188.846 9.24302 189.193 8.42302 188.941C8.23002 188.882 8.00105 188.778 7.86205 188.627C7.69405 188.445 7.95405 188.258 8.12505 188.191C8.49205 188.048 8.95203 188.186 9.22203 188.459C9.58803 188.829 9.65408 189.406 9.60308 189.899C9.55308 190.381 9.39407 190.928 9.04107 191.278C8.62207 191.694 7.96604 191.72 7.41704 191.623C6.72604 191.501 6.07403 191.233 5.37603 191.14C5.22403 191.12 5.09604 191.284 5.09404 191.422C5.09104 191.59 5.22405 191.683 5.37505 191.703Z" fill="#C2B38C"/>
</svg>
