<svg width="202" height="182" viewBox="0 0 202 182" fill="none" xmlns="http://www.w3.org/2000/svg">
<path d="M33.5248 85.9719C33.9518 86.9459 32.6028 151.674 32.3948 160.777C32.3798 161.42 31.8548 161.934 31.2108 161.934H30.8717C30.2257 161.934 29.6987 161.416 29.6877 160.769L28.5498 85.9719H33.5248Z" fill="#49280A"/>
<path d="M9.81384 102.342C10.2408 103.316 8.89184 168.044 8.68384 177.147C8.66884 177.79 8.14388 178.304 7.49988 178.304H7.16089C6.51489 178.304 5.98793 177.786 5.97693 177.139L4.83887 102.342H9.81384Z" fill="#49280A"/>
<path d="M200.329 82.3579C200.703 83.3319 199.523 148.046 199.34 157.16C199.327 157.805 198.801 158.32 198.156 158.32C197.509 158.32 196.981 157.8 196.972 157.153L195.977 82.3579H200.329Z" fill="#49280A"/>
<path d="M182.946 101.317C183.32 102.291 182.14 167.005 181.957 176.119C181.944 176.764 181.418 177.279 180.773 177.279C180.126 177.279 179.598 176.759 179.589 176.112L178.594 101.317H182.946Z" fill="#49280A"/>
<path d="M153.652 32.7229C154.097 32.9169 154.444 33.2799 154.767 33.6419C156.78 35.8949 158.395 38.5029 159.514 41.3089C160.107 42.7959 160.548 44.5329 159.801 45.9489C158.956 45.8919 158.364 45.1209 157.888 44.4209C156.984 43.0899 156.076 41.7489 155.422 40.2789C155.038 39.4159 154.745 38.5149 154.453 37.6159C154.139 36.6509 153.825 35.6849 153.511 34.7199L153.652 32.7229Z" fill="#2D210D"/>
<path d="M133.838 25.819C132.956 29.317 131.253 32.605 128.905 35.344C132.215 35.127 135.444 33.806 137.957 31.641C137.661 33.284 136.658 34.788 135.254 35.691C139.159 34.386 143.195 32.467 145.211 28.876C146.155 27.195 146.575 25.276 146.909 23.377C147.451 20.289 147.789 17.068 146.931 14.052C145.639 9.51398 141.639 6.00398 137.093 4.74398C135.985 4.43698 134.832 4.24897 133.685 4.32697C132.302 4.42197 130.977 4.89898 129.694 5.42198C126.072 6.89998 122.567 8.82498 119.804 11.595C117.041 14.365 115.067 18.058 114.92 21.968C115.525 20.638 116.561 19.507 117.834 18.788C116.757 19.513 116.463 20.952 116.35 22.245C116.151 24.515 116.226 26.808 116.573 29.06C117.402 27.329 118.786 25.87 120.471 24.952C120.564 25.78 120.3 26.602 120.187 27.428C120.073 28.254 120.155 29.198 120.775 29.756C121.059 30.011 121.425 30.154 121.781 30.291C123.709 31.034 125.637 31.778 127.565 32.521L133.838 25.819Z" fill="black"/>
<path d="M147.06 122.521C146.857 123.382 160.282 169.441 162.328 176.454C162.473 176.949 163.07 177.219 163.674 177.061L163.992 176.978C164.598 176.819 164.987 176.287 164.866 175.783L151.728 121.298L147.06 122.521Z" fill="#B56E10"/>
<path d="M129.208 115.002C128.986 115.858 141.391 162.203 143.283 169.259C143.417 169.758 144.008 170.04 144.615 169.895L144.935 169.819C145.545 169.673 145.945 169.15 145.835 168.644L133.902 113.883L129.208 115.002Z" fill="#B56E10"/>
<path d="M98.14 110.056C97.489 110.655 82.755 156.312 80.514 163.265C80.356 163.756 80.699 164.314 81.288 164.522L81.598 164.631C82.189 164.84 82.8099 164.618 82.9919 164.132L102.69 111.662L98.14 110.056Z" fill="#B56E10"/>
<path d="M124.813 120.994C124.273 121.695 117.534 169.195 116.511 176.428C116.439 176.939 116.872 177.431 117.487 177.535L117.811 177.59C118.429 177.695 119.003 177.371 119.1 176.861L129.57 121.801L124.813 120.994Z" fill="#B56E10"/>
<path d="M96.8728 158.06C97.1928 162.442 97.5127 166.825 97.8337 171.207C97.9087 172.234 97.9798 173.292 97.6588 174.27C97.3948 175.071 96.8838 175.766 96.3368 176.407C94.4378 178.634 92.0048 180.403 89.3008 181.523C95.0908 181.42 110.146 180.866 110.559 180.562C111.112 180.155 111.193 162.102 111.281 153.805L96.8728 158.06Z" fill="#F59F18"/>
<mask id="mask0_127_1943" style="mask-type:luminance" maskUnits="userSpaceOnUse" x="89" y="153" width="23" height="29">
<path d="M96.8728 158.06C97.1928 162.442 97.5127 166.825 97.8337 171.207C97.9087 172.234 97.9798 173.292 97.6588 174.27C97.3948 175.071 96.8838 175.766 96.3368 176.407C94.4378 178.634 92.0048 180.403 89.3008 181.523C95.0908 181.42 110.146 180.866 110.559 180.562C111.112 180.155 111.193 162.102 111.281 153.805L96.8728 158.06Z" fill="white"/>
</mask>
<g mask="url(#mask0_127_1943)">
<path d="M107.786 163.421C108.361 164.304 108.112 165.487 107.229 166.062C106.346 166.637 105.163 166.387 104.588 165.503C104.013 164.62 104.262 163.437 105.146 162.862C106.029 162.288 107.211 162.538 107.786 163.421Z" fill="white"/>
</g>
<mask id="mask1_127_1943" style="mask-type:luminance" maskUnits="userSpaceOnUse" x="89" y="153" width="23" height="29">
<path d="M96.8728 158.06C97.1928 162.442 97.5127 166.825 97.8337 171.207C97.9087 172.234 97.9798 173.292 97.6588 174.27C97.3948 175.071 96.8838 175.766 96.3368 176.407C94.4378 178.634 92.0048 180.403 89.3008 181.523C95.0908 181.42 110.146 180.866 110.559 180.562C111.112 180.155 111.193 162.102 111.281 153.805L96.8728 158.06Z" fill="white"/>
</mask>
<g mask="url(#mask1_127_1943)">
<path d="M89.735 180.024C93.117 179.823 96.501 179.67 99.887 179.566C103.273 179.461 106.66 179.405 110.048 179.397C111.952 179.393 113.857 179.404 115.761 179.429C116.124 179.434 116.124 178.87 115.761 178.866C112.374 178.82 108.986 178.822 105.599 178.872C102.212 178.922 98.825 179.021 95.441 179.168C93.538 179.251 91.636 179.349 89.735 179.461C89.375 179.482 89.372 180.046 89.735 180.024Z" fill="white"/>
</g>
<mask id="mask2_127_1943" style="mask-type:luminance" maskUnits="userSpaceOnUse" x="89" y="153" width="23" height="29">
<path d="M96.8728 158.06C97.1928 162.442 97.5127 166.825 97.8337 171.207C97.9087 172.234 97.9798 173.292 97.6588 174.27C97.3948 175.071 96.8838 175.766 96.3368 176.407C94.4378 178.634 92.0048 180.403 89.3008 181.523C95.0908 181.42 110.146 180.866 110.559 180.562C111.112 180.155 111.193 162.102 111.281 153.805L96.8728 158.06Z" fill="white"/>
</mask>
<g mask="url(#mask2_127_1943)">
<path d="M93.6708 177.452C95.2398 177.015 97.0599 177.938 97.6069 179.481C97.7269 179.82 98.2718 179.674 98.1498 179.331C97.5008 177.5 95.3998 176.385 93.5198 176.908C93.1728 177.005 93.3208 177.549 93.6708 177.452Z" fill="white"/>
</g>
<mask id="mask3_127_1943" style="mask-type:luminance" maskUnits="userSpaceOnUse" x="89" y="153" width="23" height="29">
<path d="M96.8728 158.06C97.1928 162.442 97.5127 166.825 97.8337 171.207C97.9087 172.234 97.9798 173.292 97.6588 174.27C97.3948 175.071 96.8838 175.766 96.3368 176.407C94.4378 178.634 92.0048 180.403 89.3008 181.523C95.0908 181.42 110.146 180.866 110.559 180.562C111.112 180.155 111.193 162.102 111.281 153.805L96.8728 158.06Z" fill="white"/>
</mask>
<g mask="url(#mask3_127_1943)">
<path d="M108.455 179.031C110.161 177.256 112.463 176.078 114.909 175.766C115.264 175.721 115.268 175.157 114.909 175.203C112.311 175.535 109.874 176.742 108.057 178.633C107.805 178.895 108.203 179.293 108.455 179.031Z" fill="white"/>
</g>
<mask id="mask4_127_1943" style="mask-type:luminance" maskUnits="userSpaceOnUse" x="89" y="153" width="23" height="29">
<path d="M96.8728 158.06C97.1928 162.442 97.5127 166.825 97.8337 171.207C97.9087 172.234 97.9798 173.292 97.6588 174.27C97.3948 175.071 96.8838 175.766 96.3368 176.407C94.4378 178.634 92.0048 180.403 89.3008 181.523C95.0908 181.42 110.146 180.866 110.559 180.562C111.112 180.155 111.193 162.102 111.281 153.805L96.8728 158.06Z" fill="white"/>
</mask>
<g mask="url(#mask4_127_1943)">
<path d="M98.9937 175.905C99.7877 176.342 100.752 176.168 101.45 175.626C102.197 175.045 102.528 174.09 102.233 173.178C101.935 172.256 101.105 171.491 100.144 171.316C99.6998 171.235 99.1598 171.247 98.8258 171.597C98.4488 171.992 98.6197 172.561 98.9957 172.883C99.7747 173.55 101.031 173.292 101.74 172.653C102.503 171.965 102.65 170.783 102.179 169.889C101.937 169.431 101.518 169.083 101.064 168.847C100.599 168.605 100.014 168.367 99.4887 168.321C99.0067 168.279 98.6317 168.62 98.5517 169.085C98.4667 169.574 98.7258 170.023 99.1588 170.251C100.087 170.738 101.209 170.291 101.823 169.521C102.44 168.746 102.648 167.668 102.18 166.768C102.013 166.446 101.526 166.731 101.694 167.052C102.261 168.143 101.443 169.694 100.23 169.873C99.9167 169.919 99.5367 169.876 99.2877 169.663C99.0907 169.495 98.9957 169.116 99.2357 168.931C99.3757 168.823 99.5807 168.904 99.7297 168.946C99.9277 169.002 100.124 169.062 100.317 169.133C100.682 169.267 101.047 169.444 101.334 169.712C101.883 170.224 102.056 171.076 101.72 171.757C101.402 172.401 100.661 172.78 99.9508 172.695C99.6868 172.663 99.1128 172.466 99.1758 172.103C99.2318 171.783 99.7667 171.819 99.9937 171.859C100.705 171.985 101.333 172.494 101.624 173.152C101.938 173.862 101.752 174.63 101.17 175.131C100.658 175.572 99.8898 175.754 99.2788 175.417C98.9598 175.244 98.6757 175.73 98.9937 175.905Z" fill="white"/>
</g>
<path d="M62.002 140.336C59.88 144.184 57.758 148.031 55.635 151.879C55.138 152.781 54.62 153.706 53.817 154.351C53.159 154.878 52.352 155.181 51.543 155.421C48.737 156.252 45.733 156.407 42.855 155.87C47.764 158.943 60.6829 166.69 61.1949 166.661C61.8809 166.622 71.796 151.535 76.395 144.63L62.002 140.336Z" fill="#F59F18"/>
<path d="M125.709 43.5809C131.386 36.6339 143.699 37.8589 150.539 43.8089C157.379 49.7589 160.095 58.7019 162.311 67.2109C165.308 78.7199 167.951 90.5569 166.622 102.339C165.294 114.122 159.385 126.006 148.633 132.193C141.654 136.209 133.245 137.524 125.062 137.476C109.294 137.383 92.733 131.785 83.675 119.655C77.992 112.044 75.7199 102.257 77.5129 93.1129C78.4419 88.3739 80.621 83.5789 84.813 80.8039C87.902 78.7599 91.884 77.9369 94.512 75.3859C98.68 71.3419 97.811 64.8709 99.001 59.3529C101.139 49.4369 111.617 41.7339 122.373 42.1699L125.043 45.0769L125.709 43.5809Z" fill="#6DA8C6"/>
<path d="M140.339 82.8138C142.668 91.1078 144.473 100.002 145.228 108.583C145.44 110.999 145.585 113.469 144.974 115.816C144.363 118.163 142.872 120.4 140.632 121.329C138.78 122.097 136.688 121.894 134.695 121.678C127.2 120.865 121.649 120.644 114.154 119.831C113.889 133.207 114.412 159.568 114.412 159.568H93.3158C93.3158 159.568 92.5947 137.971 91.9017 127.19C86.3467 136.123 76.1398 154.523 76.1398 154.523C76.1398 154.523 62.3857 144.971 57.5117 142.157C66.3987 123.842 76.2098 105.975 86.8938 88.6479C87.6438 87.4319 88.4328 86.1818 89.6198 85.3878C91.1598 84.3588 93.1247 84.2558 94.9757 84.2998C99.6217 84.4098 109.002 86.8688 113.398 88.3778C112.845 86.0498 112.14 81.2618 112.237 78.8708C122.98 79.3608 129.674 81.4358 140.339 82.8138Z" fill="#8E571F"/>
<path d="M92.2227 133.027C92.2237 129.816 92.3226 126.605 92.3706 123.395C92.3966 121.641 92.4187 119.886 92.4147 118.131C92.4107 116.524 92.2976 114.915 92.3226 113.309C92.3606 110.865 92.7356 108.352 93.9596 106.199C95.0736 104.24 96.8897 102.703 98.9937 101.899C101.298 101.018 103.789 101.11 106.114 101.867C108.625 102.684 110.827 104.21 112.8 105.933C114.847 107.721 116.74 109.695 118.627 111.649C120.584 113.676 122.5 115.743 124.373 117.848C124.834 118.366 125.292 118.886 125.747 119.408C125.986 119.682 126.383 119.282 126.145 119.01C124.243 116.83 122.297 114.689 120.306 112.59C118.378 110.557 116.427 108.532 114.385 106.613C112.459 104.802 110.369 103.1 107.952 101.989C105.61 100.911 102.975 100.378 100.419 100.897C98.2056 101.347 96.1397 102.557 94.6537 104.257C93.0257 106.12 92.2237 108.491 91.9197 110.916C91.6707 112.897 91.8127 114.87 91.8417 116.856C91.8657 118.512 91.8486 120.169 91.8286 121.824C91.7866 125.306 91.6946 128.788 91.6636 132.271C91.6616 132.523 91.6597 132.775 91.6597 133.028C91.6597 133.39 92.2227 133.39 92.2227 133.027Z" fill="#49280A"/>
<path d="M114.046 113.197C113.889 115.293 113.845 117.396 113.912 119.496C113.924 119.858 114.487 119.859 114.475 119.496C114.407 117.395 114.452 115.293 114.609 113.197C114.636 112.835 114.073 112.837 114.046 113.197Z" fill="#49280A"/>
<path d="M114.533 88.8128C120.236 90.3578 125.877 92.1288 131.439 94.1228C133.008 94.6858 134.57 95.2658 136.125 95.8628C136.464 95.9928 136.61 95.4488 136.275 95.3198C130.759 93.2018 125.16 91.3018 119.493 89.6298C117.895 89.1578 116.291 88.7048 114.683 88.2688C114.333 88.1748 114.183 88.7178 114.533 88.8128Z" fill="#49280A"/>
<path d="M134.267 92.6358C132.771 92.7018 131.275 92.7688 129.778 92.8348C129.417 92.8508 129.415 93.4148 129.778 93.3988C131.274 93.3328 132.77 93.2659 134.267 93.1999C134.628 93.1829 134.63 92.6198 134.267 92.6358Z" fill="#49280A"/>
<path d="M115.724 114.877C115.066 115.682 114.408 116.487 113.749 117.292C113.653 117.41 113.634 117.575 113.749 117.69C113.848 117.789 114.051 117.808 114.147 117.69C114.805 116.885 115.463 116.08 116.122 115.275C116.218 115.157 116.237 114.992 116.122 114.877C116.024 114.778 115.821 114.759 115.724 114.877Z" fill="#49280A"/>
<path d="M122.721 120.003C122.286 119.369 121.79 118.775 121.294 118.188C120.54 117.296 119.756 116.429 118.954 115.581C117.027 113.544 114.987 111.591 112.761 109.88C111.77 109.119 110.735 108.399 109.621 107.828C108.752 107.382 107.802 106.993 106.815 106.944C106.203 106.913 105.517 107.028 105.066 107.474C104.694 107.842 104.461 108.337 104.266 108.814C103.633 110.36 103.357 112.064 103.112 113.707C102.748 116.141 102.533 118.597 102.371 121.052C102.177 123.981 102.067 126.915 102.005 129.85C101.939 132.959 101.928 136.07 101.962 139.18C101.995 142.15 102.069 145.121 102.194 148.089C102.3 150.61 102.44 153.131 102.654 155.645C102.697 156.151 102.744 156.656 102.795 157.161C102.831 157.518 103.395 157.522 103.358 157.161C103.125 154.843 102.974 152.518 102.855 150.192C102.71 147.352 102.617 144.51 102.563 141.667C102.504 138.595 102.49 135.522 102.526 132.45C102.56 129.473 102.64 126.496 102.791 123.522C102.922 120.933 103.103 118.343 103.404 115.768C103.624 113.883 103.888 111.978 104.409 110.149C104.587 109.522 104.766 108.978 105.057 108.446C105.116 108.339 105.178 108.235 105.247 108.135C105.261 108.115 105.274 108.096 105.288 108.077C105.335 108.01 105.293 108.068 105.306 108.052C105.338 108.012 105.371 107.972 105.406 107.934C105.435 107.902 105.465 107.871 105.497 107.842C105.515 107.825 105.533 107.81 105.551 107.794C105.604 107.745 105.546 107.795 105.56 107.785C105.619 107.743 105.712 107.688 105.756 107.668C106.074 107.526 106.417 107.492 106.783 107.507C107.198 107.524 107.612 107.621 108.023 107.755C109.065 108.095 110.031 108.662 110.941 109.264C113.223 110.775 115.267 112.652 117.198 114.582C118.788 116.171 120.335 117.828 121.724 119.597C121.881 119.797 122.07 120.045 122.236 120.287C122.438 120.584 122.927 120.302 122.721 120.003Z" fill="#49280A"/>
<path d="M65.9669 142.379C69.8749 137.582 73.2319 132.376 76.4879 127.124C79.7309 121.892 82.8889 116.599 86.4529 111.575C88.2329 109.066 90.1159 106.628 92.1509 104.319C94.1469 102.055 96.2709 99.6959 98.8889 98.1399C100.195 97.3639 101.643 96.8229 103.168 96.7189C104.804 96.6079 106.421 96.9659 107.948 97.5349C109.506 98.1159 110.975 98.9149 112.417 99.7359C113.905 100.583 115.386 101.44 116.886 102.267C122.97 105.624 129.223 108.677 135.612 111.41C136.391 111.743 137.172 112.072 137.955 112.396C138.29 112.535 138.436 111.99 138.105 111.853C131.58 109.151 125.194 106.116 118.977 102.766C117.407 101.92 115.849 101.054 114.301 100.168C112.864 99.3449 111.438 98.4979 109.943 97.7829C107.094 96.4199 103.917 95.5789 100.821 96.6229C97.9599 97.5879 95.6819 99.7319 93.6349 101.871C91.5009 104.1 89.5309 106.482 87.6759 108.948C83.9299 113.931 80.6749 119.257 77.4089 124.56C74.1369 129.872 70.8429 135.189 67.0309 140.136C66.5519 140.758 66.0639 141.372 65.5679 141.981C65.3419 142.26 65.7379 142.661 65.9669 142.379Z" fill="#49280A"/>
<path d="M144.668 106.059C143.702 105.806 142.736 105.553 141.77 105.299C141.575 105.248 141.436 105.391 141.413 105.571C141.09 108.115 140.766 110.659 140.443 113.203C140.362 113.839 140.281 114.475 140.2 115.111C140.122 115.722 140.021 116.335 139.978 116.95C139.945 117.421 139.96 117.97 140.203 118.392C140.363 118.671 140.622 118.902 140.869 119.102C141.198 119.368 141.553 119.61 141.94 119.783C142.23 119.913 142.592 120.051 142.91 119.94C143.25 119.821 143.104 119.277 142.76 119.397C142.594 119.455 142.321 119.345 142.132 119.254C141.817 119.102 141.517 118.908 141.246 118.687C141.043 118.522 140.805 118.331 140.681 118.095C140.459 117.673 140.518 117.115 140.568 116.659C140.829 114.294 141.167 111.935 141.467 109.575C141.637 108.241 141.806 106.907 141.976 105.573C141.857 105.664 141.738 105.754 141.619 105.845C142.585 106.098 143.551 106.351 144.517 106.604C144.869 106.694 145.019 106.151 144.668 106.059Z" fill="#49280A"/>
<path d="M141.142 108.659C142.273 108.857 143.403 109.056 144.534 109.254C144.684 109.28 144.838 109.214 144.881 109.057C144.918 108.921 144.835 108.737 144.684 108.711C143.553 108.512 142.423 108.314 141.292 108.116C141.142 108.09 140.989 108.156 140.945 108.313C140.908 108.448 140.991 108.632 141.142 108.659Z" fill="#49280A"/>
<path d="M95.1928 97.9418C95.9278 98.5568 96.5918 99.2569 97.1558 100.032C97.2448 100.155 97.4009 100.215 97.5409 100.133C97.6619 100.062 97.7318 99.8708 97.6418 99.7478C97.0488 98.9328 96.3638 98.1909 95.5908 97.5439C95.4738 97.4469 95.3068 97.4299 95.1928 97.5439C95.0928 97.6439 95.0758 97.8438 95.1928 97.9418Z" fill="#49280A"/>
<path d="M97.3876 96.1448C97.8626 96.8838 98.3367 97.6228 98.8117 98.3618C98.8937 98.4898 99.0617 98.5418 99.1967 98.4628C99.3237 98.3888 99.3807 98.2058 99.2977 98.0778C98.8227 97.3388 98.3487 96.5998 97.8737 95.8608C97.7917 95.7328 97.6237 95.6808 97.4887 95.7598C97.3617 95.8338 97.3056 96.0158 97.3876 96.1448Z" fill="#49280A"/>
<mask id="mask5_127_1943" style="mask-type:luminance" maskUnits="userSpaceOnUse" x="42" y="140" width="35" height="27">
<path d="M62.002 140.336C59.88 144.184 57.758 148.031 55.635 151.879C55.138 152.781 54.62 153.706 53.817 154.351C53.159 154.878 52.352 155.181 51.543 155.421C48.737 156.252 45.733 156.407 42.855 155.87C47.764 158.943 60.6829 166.69 61.1949 166.661C61.8809 166.622 71.796 151.535 76.395 144.63L62.002 140.336Z" fill="white"/>
</mask>
<g mask="url(#mask5_127_1943)">
<path d="M66.3163 152.691C67.37 152.691 68.2242 151.837 68.2242 150.783C68.2242 149.729 67.37 148.875 66.3163 148.875C65.2625 148.875 64.4082 149.729 64.4082 150.783C64.4082 151.837 65.2625 152.691 66.3163 152.691Z" fill="white"/>
</g>
<mask id="mask6_127_1943" style="mask-type:luminance" maskUnits="userSpaceOnUse" x="42" y="140" width="35" height="27">
<path d="M62.002 140.336C59.88 144.184 57.758 148.031 55.635 151.879C55.138 152.781 54.62 153.706 53.817 154.351C53.159 154.878 52.352 155.181 51.543 155.421C48.737 156.252 45.733 156.407 42.855 155.87C47.764 158.943 60.6829 166.69 61.1949 166.661C61.8809 166.622 71.796 151.535 76.395 144.63L62.002 140.336Z" fill="white"/>
</mask>
<g mask="url(#mask6_127_1943)">
<path d="M44.0503 154.858C46.9933 156.534 49.9133 158.252 52.8073 160.011C55.7023 161.77 58.5712 163.571 61.4142 165.412C63.0132 166.447 64.6043 167.496 66.1873 168.557C66.4893 168.759 66.7712 168.272 66.4712 168.07C63.6572 166.184 60.8183 164.338 57.9513 162.532C55.0853 160.727 52.1942 158.962 49.2772 157.239C47.6372 156.27 45.9883 155.314 44.3333 154.371C44.0193 154.192 43.7353 154.679 44.0503 154.858Z" fill="white"/>
</g>
<mask id="mask7_127_1943" style="mask-type:luminance" maskUnits="userSpaceOnUse" x="42" y="140" width="35" height="27">
<path d="M62.002 140.336C59.88 144.184 57.758 148.031 55.635 151.879C55.138 152.781 54.62 153.706 53.817 154.351C53.159 154.878 52.352 155.181 51.543 155.421C48.737 156.252 45.733 156.407 42.855 155.87C47.764 158.943 60.6829 166.69 61.1949 166.661C61.8809 166.622 71.796 151.535 76.395 144.63L62.002 140.336Z" fill="white"/>
</mask>
<g mask="url(#mask7_127_1943)">
<path d="M48.7511 154.845C50.3091 155.336 51.3121 157.113 50.9291 158.7C50.8441 159.052 51.3872 159.203 51.4722 158.85C51.9282 156.958 50.7562 154.887 48.9002 154.301C48.5552 154.193 48.4061 154.737 48.7511 154.845Z" fill="white"/>
</g>
<mask id="mask8_127_1943" style="mask-type:luminance" maskUnits="userSpaceOnUse" x="42" y="140" width="35" height="27">
<path d="M62.002 140.336C59.88 144.184 57.758 148.031 55.635 151.879C55.138 152.781 54.62 153.706 53.817 154.351C53.159 154.878 52.352 155.181 51.543 155.421C48.737 156.252 45.733 156.407 42.855 155.87C47.764 158.943 60.6829 166.69 61.1949 166.661C61.8809 166.622 71.796 151.535 76.395 144.63L62.002 140.336Z" fill="white"/>
</mask>
<g mask="url(#mask8_127_1943)">
<path d="M60.2862 164.227C62.6862 163.67 65.2522 163.951 67.4712 165.022C67.7962 165.179 68.0822 164.693 67.7552 164.535C65.3942 163.396 62.6902 163.091 60.1362 163.683C59.7832 163.765 59.9322 164.309 60.2862 164.227Z" fill="white"/>
</g>
<mask id="mask9_127_1943" style="mask-type:luminance" maskUnits="userSpaceOnUse" x="42" y="140" width="35" height="27">
<path d="M62.002 140.336C59.88 144.184 57.758 148.031 55.635 151.879C55.138 152.781 54.62 153.706 53.817 154.351C53.159 154.878 52.352 155.181 51.543 155.421C48.737 156.252 45.733 156.407 42.855 155.87C47.764 158.943 60.6829 166.69 61.1949 166.661C61.8809 166.622 71.796 151.535 76.395 144.63L62.002 140.336Z" fill="white"/>
</mask>
<g mask="url(#mask9_127_1943)">
<path d="M54.0531 156.466C54.4601 157.23 55.3421 157.618 56.1871 157.563C57.0861 157.504 57.8571 156.984 58.1811 156.132C58.5051 155.277 58.3231 154.253 57.7751 153.531C57.4821 153.145 57.0581 152.781 56.5581 152.73C56.0211 152.676 55.6141 153.099 55.6441 153.627C55.7011 154.637 56.8201 155.246 57.7321 155.252C58.7841 155.26 59.7061 154.492 59.9421 153.474C60.2021 152.353 59.5211 151.34 58.7961 150.552C58.4291 150.154 57.9171 150.039 57.4791 150.409C57.0691 150.756 57.0131 151.319 57.2551 151.78C57.7521 152.731 59.006 152.961 59.945 152.626C60.873 152.295 61.6011 151.515 61.6981 150.515C61.7331 150.154 61.1701 150.157 61.1351 150.515C61.0171 151.725 59.4891 152.567 58.3911 152.076C58.0791 151.937 57.7411 151.663 57.6781 151.308C57.6241 151.006 57.9291 150.574 58.2501 150.803C58.4031 150.912 58.5261 151.094 58.6451 151.237C58.7861 151.407 58.9191 151.584 59.0371 151.771C59.2561 152.118 59.432 152.51 59.439 152.927C59.452 153.677 58.9411 154.417 58.2121 154.624C57.5631 154.809 56.6861 154.584 56.3271 153.973C56.2011 153.758 56.0871 153.268 56.4871 153.286C56.8391 153.302 57.17 153.641 57.361 153.912C57.736 154.445 57.8801 155.15 57.7041 155.782C57.5141 156.465 56.9451 156.925 56.2431 156.993C55.5721 157.059 54.8681 156.794 54.5401 156.18C54.3701 155.861 53.8831 156.145 54.0531 156.466Z" fill="white"/>
</g>
<path d="M59.338 136.526C66.881 141.332 73.025 144.817 80.568 149.623L76.673 155.452L55.998 142.093L59.338 136.526Z" fill="#49280A"/>
<path d="M91.2627 155.868C100.189 155.301 107.206 154.492 116.133 153.925L116.425 160.929L91.8488 162.333L91.2627 155.868Z" fill="#49280A"/>
<path d="M164.166 91.3689C158.814 87.9639 152.128 86.7229 145.91 87.9789C139.692 89.2349 134.013 92.9749 130.402 98.1899C128.89 100.374 127.736 102.791 126.818 105.284C125.004 110.208 124.105 115.66 125.517 120.714C126.929 125.768 131.029 130.282 136.218 131.067C140.707 131.747 145.146 129.659 148.951 127.182C151.693 125.396 154.527 122.929 154.627 119.659L164.166 91.3689Z" fill="#6DA8C6"/>
<path d="M124.906 119.722C125.491 122.201 126.649 124.516 128.218 126.517C129.784 128.513 131.772 130.191 134.013 131.381C135.275 132.051 136.618 132.568 138.006 132.905C138.358 132.991 138.509 132.447 138.156 132.362C135.758 131.78 133.503 130.652 131.577 129.11C129.656 127.572 128.052 125.649 126.906 123.471C126.258 122.238 125.768 120.929 125.448 119.573C125.367 119.219 124.823 119.368 124.906 119.722Z" fill="#44788C"/>
<path d="M148.201 46.2329C149.611 46.5159 150.647 47.5449 151.414 48.7089C152.3 50.0529 152.91 51.5739 153.535 53.0509C155.004 56.5229 156.269 60.0809 157.326 63.6989C157.923 65.7399 158.452 67.7989 158.915 69.8739C158.994 70.2279 159.537 70.0779 159.458 69.7239C158.615 65.9489 157.551 62.2239 156.269 58.5739C155.633 56.7629 154.944 54.9709 154.203 53.1999C153.555 51.6509 152.926 50.0519 152.029 48.6249C151.174 47.2639 149.984 46.0169 148.349 45.6889C147.997 45.6179 147.845 46.1609 148.201 46.2329Z" fill="#44788C"/>
<path d="M160.476 76.1049C160.97 77.2209 161.255 78.4259 161.321 79.6429C161.341 80.0039 161.904 80.0059 161.884 79.6429C161.812 78.3189 161.499 77.032 160.962 75.821C160.9 75.681 160.698 75.6509 160.577 75.7199C160.433 75.8019 160.415 75.9669 160.476 76.1049Z" fill="#44788C"/>
<path d="M115.79 134.07C118.897 134.943 122.166 135.197 125.369 134.803C125.724 134.759 125.729 134.195 125.369 134.24C122.212 134.627 119.002 134.388 115.94 133.527C115.59 133.428 115.441 133.971 115.79 134.07Z" fill="#44788C"/>
<path d="M128.292 134.803C128.373 134.803 128.454 134.803 128.536 134.803C128.575 134.804 128.611 134.796 128.645 134.779C128.68 134.768 128.71 134.748 128.736 134.721C128.763 134.695 128.783 134.665 128.794 134.63C128.812 134.596 128.82 134.56 128.818 134.521C128.815 134.496 128.811 134.471 128.808 134.446C128.795 134.398 128.771 134.357 128.736 134.322C128.717 134.307 128.698 134.293 128.679 134.278C128.635 134.252 128.588 134.24 128.537 134.24C128.456 134.24 128.375 134.24 128.293 134.24C128.254 134.239 128.218 134.247 128.184 134.264C128.149 134.275 128.119 134.295 128.093 134.322C128.066 134.348 128.046 134.378 128.035 134.413C128.017 134.447 128.009 134.483 128.011 134.522C128.014 134.547 128.018 134.572 128.021 134.597C128.034 134.645 128.059 134.686 128.094 134.721C128.113 134.736 128.132 134.75 128.151 134.765C128.194 134.79 128.242 134.803 128.292 134.803Z" fill="#44788C"/>
<path d="M129.954 120.877C129.981 122.059 130.567 123.162 131.514 123.865C131.636 123.956 131.829 123.885 131.899 123.764C131.983 123.62 131.92 123.47 131.798 123.379C131.018 122.799 130.54 121.845 130.517 120.877C130.509 120.516 129.946 120.514 129.954 120.877Z" fill="#44788C"/>
<path d="M134.163 123.53C134.488 123.936 134.813 124.342 135.138 124.747C135.231 124.863 135.441 124.851 135.536 124.747C135.649 124.624 135.635 124.472 135.536 124.349C135.211 123.943 134.886 123.537 134.56 123.132C134.468 123.016 134.257 123.028 134.162 123.132C134.051 123.254 134.065 123.406 134.163 123.53Z" fill="#44788C"/>
<path d="M132.183 114.611C132.343 115.099 132.503 115.587 132.664 116.075C132.71 116.215 132.861 116.32 133.01 116.272C133.15 116.227 133.256 116.075 133.207 115.925C133.047 115.437 132.886 114.949 132.726 114.461C132.68 114.321 132.529 114.216 132.379 114.264C132.24 114.31 132.133 114.461 132.183 114.611Z" fill="#44788C"/>
<path d="M139.255 122.726C139.754 123.839 140.683 124.759 141.803 125.243C141.943 125.303 142.105 125.284 142.188 125.142C142.258 125.023 142.227 124.817 142.087 124.757C141.042 124.305 140.207 123.481 139.741 122.442C139.679 122.303 139.477 122.27 139.356 122.341C139.213 122.424 139.192 122.586 139.255 122.726Z" fill="#44788C"/>
<path d="M138.741 119.003C138.822 119.247 138.903 119.49 138.985 119.734C139.008 119.803 139.05 119.865 139.114 119.902C139.174 119.937 139.263 119.952 139.331 119.93C139.47 119.885 139.578 119.733 139.528 119.584C139.447 119.34 139.365 119.097 139.284 118.853C139.261 118.783 139.219 118.722 139.155 118.685C139.095 118.65 139.006 118.635 138.938 118.657C138.799 118.702 138.691 118.853 138.741 119.003Z" fill="#44788C"/>
<path d="M139.758 129.049C140.333 129.854 141.114 130.502 142.028 130.889C142.168 130.948 142.33 130.931 142.413 130.788C142.482 130.67 142.453 130.462 142.312 130.403C141.488 130.054 140.763 129.491 140.244 128.765C140.156 128.641 139.998 128.582 139.859 128.664C139.737 128.735 139.669 128.925 139.758 129.049Z" fill="#44788C"/>
<path d="M92.2539 75.665C92.4749 77.96 92.6959 80.255 92.9159 82.55C93.0709 84.155 93.2319 85.79 93.8579 87.276C94.5549 88.931 95.7809 90.297 96.9849 91.629C100.939 96.003 104.893 100.377 108.847 104.751C109.101 105.032 109.369 105.323 109.723 105.458C110.166 105.627 110.661 105.524 111.119 105.403C112.829 104.95 114.479 104.269 116.011 103.384C112.618 95.646 105.915 89.626 103.066 81.672C102.122 79.035 101.632 76.262 101.097 73.512C101.045 73.245 100.981 72.956 100.773 72.781C100.52 72.567 100.148 72.595 99.8188 72.635C97.9538 72.86 96.0899 73.086 94.2249 73.311L92.2539 75.665Z" fill="#FED5B7"/>
<path d="M119.616 35.2969C116.795 35.9529 110.684 37.2099 107.863 37.8659C104.945 38.5439 101.911 39.2789 99.6099 41.1959C96.6229 43.6849 95.4319 47.6689 94.3909 51.4139C93.6099 54.2219 92.8298 57.0299 92.0488 59.8369C91.5938 61.4729 91.1378 63.1179 90.9658 64.8069C90.6278 68.1309 90.2038 72.1429 90.9758 75.3939C91.0838 75.8479 91.2049 76.3269 91.5379 76.6529C91.8679 76.9769 92.3448 77.0909 92.7988 77.1739C95.1418 77.6019 99.5229 76.9499 101.844 76.4179C102.226 74.1289 102.019 71.7779 102.715 69.5629C102.861 73.3049 103.297 77.0359 104.017 80.7109C109.925 80.8329 115.758 82.0589 121.658 82.3809C127.558 82.7029 132.743 90.1039 137.645 86.8059C136.021 80.6339 141.259 66.3619 141.505 59.9839C141.547 58.9019 141.476 57.7939 141.797 56.7599C142.547 54.3399 145.113 53.0699 147.368 51.9169C151.293 49.9099 160.023 46.4369 159.795 45.9449C158.6 43.3609 154.948 35.3319 153.752 32.7489C148.127 34.8819 142.101 35.6879 136.137 36.4789C134.918 36.6409 133.688 36.8029 132.462 36.7039C131.225 36.6049 130.022 36.2429 128.785 36.1379C126.016 35.9039 123.199 36.9689 120.483 36.3769L119.616 35.2969Z" fill="#51432A"/>
<path d="M28.848 81.978C27.533 81.954 26.2399 82.347 25.1319 83.107L2.796 98.428C1.701 99.179 0.511935 100.055 0.579935 101.663C0.616935 102.548 1.04895 103.355 1.69395 103.911C3.15195 105.167 5.01604 105.137 6.78404 105.09C35.306 104.333 179.356 106.378 183.214 105.778C186.495 105.268 200.959 84.538 200.959 84.538C202.313 82.848 201.216 80.236 199.137 80.199L28.848 81.978Z" fill="#C2B38C"/>
<path d="M65.571 89.193C70.206 89.562 74.832 90.031 79.447 90.602C79.827 90.649 80.262 90.732 80.448 91.066C79.946 91.496 72.876 92.505 70.022 92.765C69.092 92.85 68.371 92.909 67.235 92.779C65.481 92.578 64.239 90.546 62.689 89.701C63.348 89.055 64.294 88.714 65.213 88.791L65.571 89.193Z" fill="#665230"/>
<path d="M97.134 77.47L93.3609 40.281C93.1119 37.79 90.924 35.952 88.428 36.137L41.8299 38.351C39.1889 38.547 37.254 40.92 37.594 43.546L41.925 77.004C42.215 79.247 44.0889 80.95 46.3499 81.024L92.389 82.541C95.179 82.633 97.411 80.247 97.134 77.47Z" fill="#F59F18"/>
<path d="M69.2027 74.2559C69.3047 74.0579 69.6067 74.1569 69.7877 74.2859C70.4107 74.7299 71.0108 75.2779 71.2488 76.0049C71.4868 76.7319 71.2337 77.6649 70.5317 77.9699C70.0617 78.1739 69.4938 78.0539 69.0768 77.7549C68.6598 77.4559 68.3778 77.0029 68.1808 76.5299C67.9298 75.9259 67.8108 75.2069 68.1278 74.6349C68.4448 74.0629 69.3318 73.8089 69.7738 74.2919L69.2027 74.2559Z" fill="#8E794C"/>
<path d="M70.4363 75.944C69.6043 76.919 68.4783 77.641 67.2443 77.99C66.8873 78.091 66.5002 78.161 66.1482 78.042C65.7962 77.924 65.5023 77.56 65.5813 77.197C66.8143 76.939 67.9783 76.357 68.9253 75.525C69.0253 75.437 69.1333 75.342 69.2653 75.325C69.3443 75.315 69.4243 75.335 69.5003 75.36C69.8193 75.466 70.1052 75.666 70.3132 75.929L70.4363 75.944Z" fill="black"/>
<path d="M65.7928 88.157C65.6968 86.373 66.1289 84.61 66.4719 82.857C67.9899 75.11 67.8599 66.943 70.9149 59.664C70.9149 59.664 61.8209 59.65 61.7389 59.872C59.7779 65.16 58.2059 70.582 56.6359 75.998C55.9139 78.488 55.1918 80.978 54.4698 83.469C54.1418 84.601 53.8139 85.733 53.4849 86.866C53.1749 87.934 52.8778 89.134 53.4078 90.112C54.0438 91.284 55.5549 91.595 56.8779 91.763C60.6059 92.237 64.3509 92.575 68.1039 92.775C66.6089 91.796 65.8888 89.941 65.7928 88.157ZM64.7759 75.865C64.7339 76.987 64.0719 78.023 63.1919 78.72C62.3569 79.382 61.1328 79.767 60.2358 79.191C59.6488 78.814 59.3438 78.1 59.3088 77.404C59.2738 76.708 59.4739 76.021 59.7129 75.366C59.8319 75.04 60.0938 74.637 60.3758 74.26C60.9708 73.464 61.9579 73.057 62.9379 73.215C62.9929 73.224 63.0359 73.233 63.0629 73.241C64.1349 73.573 64.8179 74.743 64.7759 75.865Z" fill="#8E794C"/>
<path d="M63.5069 78.4739C62.4499 78.8499 61.1089 78.1529 59.9339 82.6849C59.6519 83.7709 59.5309 89.9559 57.2979 92.8199C56.9169 93.3089 56.4919 93.796 55.9239 94.045C55.3909 94.272 54.9759 93.5629 55.4219 93.2229C56.4689 92.4239 57.067 92.3139 57.431 90.9709C58.069 88.6149 58.5219 86.2079 58.7829 83.7799C58.9369 82.3449 59.0459 80.8349 59.8279 79.6219C60.6099 78.4079 62.898 76.7459 64.103 77.5409L63.5069 78.4739Z" fill="black"/>
<path d="M41.979 40.082C41.099 40.138 40.294 40.59 39.726 41.255C39.158 41.92 38.802 42.777 38.788 43.656C38.78 44.153 38.891 44.643 39.115 45.087C39.166 45.188 39.31 45.216 39.403 45.161C39.506 45.1 39.5281 44.9749 39.4771 44.8729C39.4251 44.7699 39.4071 44.729 39.3681 44.625C39.3341 44.531 39.305 44.435 39.281 44.338C39.27 44.293 39.26 44.248 39.251 44.203C39.247 44.182 39.243 44.161 39.24 44.14C39.219 43.992 39.211 43.893 39.208 43.794C39.205 43.698 39.207 43.602 39.213 43.506C39.216 43.456 39.22 43.407 39.226 43.357C39.233 43.3 39.237 43.271 39.242 43.243C39.274 43.044 39.3241 42.848 39.3901 42.658C39.4531 42.476 39.5191 42.327 39.6191 42.143C39.6681 42.054 39.7201 41.9669 39.7751 41.8819C39.8011 41.8429 39.827 41.804 39.855 41.765C39.868 41.747 39.88 41.73 39.893 41.712C40.051 41.51 40.1881 41.361 40.3381 41.225C40.3731 41.194 40.408 41.163 40.443 41.133C40.462 41.117 40.482 41.101 40.501 41.086C40.615 41 40.697 40.944 40.782 40.892C40.876 40.835 40.9731 40.7819 41.0721 40.7349C41.1371 40.7039 41.138 40.704 41.198 40.68C41.247 40.66 41.2981 40.642 41.3481 40.626C41.4531 40.591 41.56 40.5629 41.669 40.5409C41.697 40.5349 41.7251 40.53 41.7541 40.526C41.8251 40.515 41.7371 40.527 41.8051 40.518C41.8631 40.511 41.921 40.506 41.979 40.502C42.092 40.495 42.188 40.4089 42.188 40.2909C42.189 40.1819 42.093 40.074 41.979 40.082Z" fill="#996F1A"/>
<path d="M88.9931 37.652C89.7351 37.987 90.3161 38.5479 90.7181 39.2449C91.1201 39.9419 91.3231 40.7399 91.2851 41.5479C91.2741 41.7839 91.2501 41.9579 91.1961 42.1919C91.1701 42.3029 91.1391 42.4139 91.1031 42.5219C91.0651 42.6379 91.0291 42.73 90.9861 42.825C90.9391 42.928 90.9581 43.0509 91.0631 43.1119C91.1531 43.1639 91.3031 43.1389 91.3501 43.0349C91.7181 42.2169 91.7921 41.3069 91.6131 40.4309C91.4371 39.5729 91.0131 38.7579 90.4001 38.1319C90.0571 37.7819 89.6511 37.4899 89.2041 37.2879C89.1011 37.2409 88.9781 37.2599 88.9171 37.3649C88.8641 37.4549 88.8891 37.605 88.9931 37.652Z" fill="#996F1A"/>
<path d="M92.5001 56.137C92.6371 57.691 92.7751 59.244 92.9121 60.798C93.0501 62.357 93.1881 63.917 93.3251 65.476C93.4021 66.351 93.4801 67.227 93.5571 68.102C93.5671 68.215 93.6481 68.312 93.7681 68.311C93.8741 68.311 93.9872 68.214 93.9772 68.1C93.8402 66.546 93.7021 64.993 93.5651 63.439C93.4271 61.88 93.2891 60.32 93.1521 58.761C93.0751 57.886 92.9972 57.01 92.9202 56.135C92.9102 56.022 92.8291 55.926 92.7091 55.926C92.6031 55.927 92.4901 56.023 92.5001 56.137Z" fill="#996F1A"/>
<path d="M78.1022 80.1639C79.3522 80.2109 80.6022 80.2589 81.8522 80.3059C83.1022 80.3529 84.3522 80.4009 85.6032 80.4479C86.8542 80.4949 88.1032 80.5429 89.3532 80.5899C90.4932 80.6329 91.7141 80.754 92.8031 80.334C93.7011 79.988 94.4981 79.197 94.5801 78.199C94.5891 78.085 94.5861 77.9709 94.5731 77.8569C94.5601 77.7439 94.4852 77.647 94.3622 77.648C94.2582 77.648 94.1401 77.746 94.1531 77.859C94.2041 78.294 94.0791 78.6899 93.8281 79.0509C93.5811 79.4059 93.2182 79.6889 92.8222 79.8739C92.3492 80.0939 91.7931 80.1769 91.2671 80.2029C90.6991 80.2309 90.1292 80.199 89.5602 80.178C88.3392 80.132 87.1181 80.0859 85.8971 80.0389C84.6761 79.9929 83.4551 79.9469 82.2341 79.8999C81.0071 79.8539 79.7801 79.8069 78.5531 79.7609C78.4021 79.7549 78.2511 79.7499 78.0991 79.7439C77.9861 79.7399 77.8891 79.8449 77.8901 79.9549C77.8921 80.0729 77.9892 80.1599 78.1022 80.1639Z" fill="#996F1A"/>
<path d="M43.3652 75.692C43.3152 76.744 43.9242 77.773 44.8232 78.302C45.0772 78.451 45.3572 78.561 45.6452 78.619C45.7562 78.641 45.8721 78.586 45.9031 78.471C45.9311 78.367 45.8672 78.236 45.7552 78.213C44.8622 78.033 44.1302 77.32 43.8762 76.454C43.8002 76.194 43.7722 75.962 43.7852 75.689C43.7902 75.576 43.6832 75.479 43.5742 75.48C43.4552 75.481 43.3702 75.578 43.3652 75.692Z" fill="#996F1A"/>
<path d="M129.018 9.41089C126.668 11.8329 124.318 14.2539 121.969 16.6759C120.109 18.5929 117.073 21.4549 116.439 24.0499C115.806 26.6449 120.732 29.5449 120.762 29.6609C119.74 31.2889 116.353 36.4989 116.353 36.4989C116.353 36.4989 111.735 36.6749 111.202 39.0749C110.859 40.6199 114.597 42.0749 114.918 42.5539C115.223 43.0099 115.298 43.5779 115.364 44.1229C115.763 47.3989 116.162 50.6739 116.561 53.9499C119.161 50.7519 121.095 47.0149 122.204 43.0459C125.553 43.3419 129.008 41.7959 131.019 39.1019C130.381 35.5129 131.438 31.6599 133.819 28.8989C133.846 29.6909 134.634 30.3069 135.424 30.3509C136.215 30.3949 136.97 29.9899 137.566 29.4689C138.389 28.7509 139.022 27.6499 138.747 26.5929C138.471 25.5359 136.937 24.9129 136.22 25.7359C138.018 23.2049 139.816 20.6749 141.615 18.1439C141.854 17.8079 142.104 17.4339 142.074 17.0229C142.043 16.5979 141.722 16.2589 141.413 15.9669C138.042 12.7849 133.697 10.6489 129.118 9.9229L129.018 9.41089Z" fill="#FED5B7"/>
<path d="M129.211 8.06597C127.493 9.39297 126.049 11.032 124.981 12.866C125.753 13.341 126.524 13.817 127.296 14.292C128.198 13.355 129.365 12.646 130.644 12.258C130.198 13.166 129.752 14.075 129.306 14.983C130.184 15.637 131.063 16.29 131.941 16.944C132.559 15.87 133.6 15.017 134.816 14.59C134.364 15.672 133.912 16.755 133.46 17.837C134.102 18.333 134.88 18.73 135.711 18.733C136.542 18.737 137.412 18.254 137.613 17.495C137.371 18.801 136.929 20.074 136.304 21.262C136.558 21.483 136.877 21.638 137.216 21.704C136.1 22.987 135.357 24.556 135.09 26.195C135.586 25.67 135.93 25.618 136.614 25.336C137.297 25.054 138.879 26.002 139.361 26.538C141.041 24.612 142.211 21.3 143.891 19.375C144.405 18.786 144.942 18.142 144.992 17.382C145.038 16.668 144.643 16.002 144.26 15.383C142.878 13.151 141.278 10.746 138.671 9.93697C137.673 9.62697 136.594 9.58097 135.617 9.21897C134.569 8.83097 133.697 8.10297 132.659 7.69097C131.621 7.27897 130.226 7.29498 129.579 8.16198L129.211 8.06597Z" fill="black"/>
<path d="M154.129 33.2369C157.117 32.0569 159.282 31.1019 162.27 29.9219C158.707 24.5379 154.961 19.2749 151.04 14.1459C150.622 13.5999 150.176 13.0339 149.548 12.7529C148.543 12.3029 147.381 12.7 146.28 12.682C143.011 12.626 140.864 9.03594 137.696 8.22794C136.034 7.80394 134.135 8.15294 132.484 7.89994C131.641 7.77094 131.63 6.54994 132.469 6.39594C133.483 6.20994 134.529 6.20194 135.544 6.38094C134.36 6.66494 132.175 6.33296 130.325 5.79196C129.491 5.54796 129.653 4.32095 130.523 4.30995C131.916 4.29195 133.408 4.39795 134.207 4.38795C132.781 5.01595 131.15 4.94095 129.65 4.53195C128.013 4.08595 129.003 3.26395 129.723 3.09095C131.245 2.72395 132.845 2.67495 134.385 2.95895C133.541 2.88895 125.931 2.61195 128.889 1.64495C137.818 -1.27405 139.379 2.89795 142.237 3.80695C144.342 4.47595 146.442 5.21195 148.352 6.32095C149.909 7.22495 151.315 8.36294 152.715 9.49494C154.277 10.7599 155.84 12.0239 157.402 13.2889C162.491 17.4079 167.6 21.5469 172.028 26.3699C172.733 27.1379 173.443 27.9659 173.683 28.9809C174.176 31.0699 172.54 33.0329 170.883 34.3969C165.679 38.6799 164.602 40.2539 158.252 42.5119C157.724 39.6539 154.129 33.2369 154.129 33.2369Z" fill="#FED5B7"/>
<path opacity="0.43" d="M120.818 29.802L127.944 32.292L119.302 32.016L120.818 29.802Z" fill="#8C4A29"/>
<path d="M135.198 28.9259C135.846 28.5179 136.538 28.192 137.267 27.958C137.412 27.911 137.505 27.7629 137.464 27.6109C137.425 27.4689 137.263 27.368 137.117 27.414C136.343 27.662 135.601 28.0059 134.913 28.4389C134.784 28.5199 134.733 28.69 134.812 28.824C134.887 28.953 135.068 29.0069 135.198 28.9259Z" fill="#8C4A29"/>
<path d="M136.065 28.7989C136.056 28.7869 136.041 28.7679 136.026 28.7489C136.061 28.7949 136.089 28.8439 136.112 28.8969C136.102 28.8749 136.093 28.8519 136.084 28.8299C136.107 28.8859 136.123 28.9429 136.131 29.0029C136.128 28.9779 136.124 28.9529 136.121 28.9279C136.129 28.9879 136.129 29.0469 136.121 29.1069C136.124 29.0819 136.128 29.0569 136.131 29.0319C136.117 29.0859 136.115 29.1239 136.123 29.1609C136.125 29.1989 136.136 29.2329 136.156 29.2659C136.19 29.3249 136.257 29.3799 136.324 29.3949C136.396 29.4109 136.477 29.4079 136.541 29.3669C136.599 29.3299 136.659 29.2689 136.67 29.1989C136.681 29.1289 136.691 29.0589 136.688 28.9879C136.685 28.9159 136.675 28.8429 136.657 28.7739C136.64 28.7069 136.612 28.6409 136.581 28.5789C136.55 28.5139 136.506 28.4589 136.462 28.4029C136.42 28.3499 136.326 28.3209 136.263 28.3209C136.194 28.3209 136.111 28.3519 136.064 28.4029C136.015 28.4569 135.978 28.5269 135.981 28.6019C135.984 28.6269 135.988 28.6519 135.991 28.6769C136.006 28.7219 136.03 28.7639 136.065 28.7989Z" fill="#8C4A29"/>
<path d="M128.565 18.6049C128.017 19.5099 126.575 19.5669 125.92 18.7609C125.804 18.6179 125.561 18.6739 125.477 18.8179C124.824 19.9479 124.876 21.4299 125.631 22.4989C125.839 22.7929 126.327 22.5119 126.117 22.2149C125.475 21.3049 125.403 20.0709 125.963 19.1029C125.816 19.1219 125.668 19.1409 125.52 19.1599C126.41 20.2549 128.329 20.0809 129.05 18.8899C129.24 18.5789 128.753 18.2949 128.565 18.6049Z" fill="#8C4A29"/>
<path d="M130.383 22.099C131.293 22.558 132.285 22.817 133.303 22.858C133.666 22.873 133.665 22.309 133.303 22.295C132.387 22.257 131.486 22.025 130.667 21.613C130.531 21.545 130.362 21.577 130.282 21.714C130.208 21.839 130.246 22.03 130.383 22.099Z" fill="black"/>
<path d="M123.802 15.8409C123.817 16.2989 124.004 16.7439 124.215 17.1439C124.423 17.5379 124.68 17.9249 124.997 18.2399C125.255 18.4949 125.653 18.0969 125.395 17.8419C125.264 17.7119 125.155 17.5769 125.065 17.4519C124.937 17.2719 124.82 17.0839 124.716 16.8899C124.612 16.6959 124.54 16.5409 124.472 16.3429C124.441 16.2509 124.413 16.1579 124.393 16.0629C124.388 16.0409 124.384 16.0179 124.379 15.9959C124.378 15.9889 124.367 15.9189 124.372 15.9549C124.377 15.9909 124.369 15.9229 124.369 15.9159C124.367 15.8919 124.366 15.8669 124.365 15.8429C124.36 15.6909 124.239 15.5609 124.083 15.5609C123.935 15.5589 123.797 15.6879 123.802 15.8409Z" fill="black"/>
<path d="M125.03 24.3129C125.815 24.9629 126.993 25.056 127.849 24.482C127.975 24.397 128.03 24.2339 127.95 24.0969C127.877 23.9719 127.691 23.911 127.565 23.996C126.93 24.422 126.029 24.412 125.429 23.915C125.312 23.818 125.145 23.8 125.031 23.915C124.93 24.015 124.912 24.2159 125.03 24.3129Z" fill="#8C4A29"/>
<path d="M146.34 14.57C147.376 17.129 147.942 19.979 147.397 22.724C146.955 24.951 145.749 27.106 143.874 28.432C142.631 29.311 141.169 29.692 139.711 30.049C139.359 30.135 139.508 30.679 139.861 30.592C141.237 30.255 142.632 29.898 143.841 29.131C144.846 28.493 145.694 27.635 146.365 26.654C147.853 24.477 148.361 21.793 148.103 19.194C147.94 17.55 147.504 15.949 146.885 14.42C146.749 14.088 146.203 14.233 146.34 14.57Z" fill="black"/>
<path d="M129.503 5.76993C128.218 5.20893 126.727 5.63693 125.47 6.08693C124.231 6.52993 123.058 7.15292 122.002 7.93892C119.83 9.55392 118.204 11.7949 117.346 14.3639C116.849 15.8509 116.619 17.4279 116.669 18.9939C116.681 19.3559 117.244 19.3569 117.232 18.9939C117.147 16.3729 117.881 13.7559 119.322 11.5629C120.682 9.49191 122.681 7.85592 124.959 6.88792C125.599 6.61592 126.263 6.39893 126.939 6.23793C127.676 6.06293 128.499 5.94393 129.218 6.25693C129.547 6.39993 129.834 5.91493 129.503 5.76993Z" fill="black"/>
<path d="M129.559 2.94894C132.133 2.77694 134.721 2.94793 137.249 3.46793C137.603 3.54093 137.754 2.99793 137.399 2.92493C134.823 2.39593 132.184 2.21093 129.56 2.38593C129.199 2.40993 129.197 2.97294 129.559 2.94894Z" fill="#8C4A29"/>
<path d="M129.691 4.585C132.261 4.546 134.834 4.692 137.381 5.035C137.533 5.055 137.682 4.998 137.728 4.838C137.766 4.707 137.682 4.512 137.531 4.492C134.932 4.142 132.313 3.982 129.691 4.022C129.328 4.027 129.327 4.591 129.691 4.585Z" fill="#8C4A29"/>
<path d="M131.931 6.60794C133.773 6.73194 135.615 6.85494 137.457 6.97894C137.819 7.00294 137.817 6.43993 137.457 6.41493C135.615 6.29193 133.773 6.16794 131.931 6.04494C131.569 6.02094 131.57 6.58394 131.931 6.60794Z" fill="#8C4A29"/>
<path d="M136.97 3.04502C137.366 4.65202 137.578 6.29302 137.605 7.94802C137.611 8.31002 138.174 8.31102 138.168 7.94802C138.14 6.24502 137.92 4.54903 137.513 2.89503C137.427 2.54303 136.883 2.69202 136.97 3.04502Z" fill="#8C4A29"/>
<path d="M150.628 10.4389C150.255 11.0789 150.055 11.8109 150.05 12.5509C150.049 12.7029 150.18 12.8329 150.332 12.8329C150.486 12.8329 150.613 12.7039 150.614 12.5509C150.619 11.9109 150.79 11.2819 151.115 10.7229C151.297 10.4089 150.811 10.1249 150.628 10.4389Z" fill="#8C4A29"/>
<path d="M161.698 30.4789C163.327 31.0299 164.955 31.5809 166.584 32.1309C166.928 32.2469 167.076 31.7039 166.734 31.5879C165.105 31.0369 163.477 30.4859 161.848 29.9359C161.503 29.8189 161.355 30.3629 161.698 30.4789Z" fill="#8C4A29"/>
<path d="M131.806 18.338C131.577 18.549 131.611 18.94 131.796 19.192C131.981 19.443 132.273 19.588 132.553 19.724C133.385 20.126 134.218 20.529 135.05 20.931C134.651 19.59 133.447 18.523 132.068 18.288L131.806 18.338Z" fill="black"/>
<path d="M128.346 15.5159C128.275 15.8199 127.918 15.9829 127.609 15.9459C127.299 15.9089 127.029 15.7269 126.773 15.5499C126.012 15.0239 125.252 14.4989 124.491 13.9729C125.855 13.6589 127.376 14.1799 128.261 15.2639L128.346 15.5159Z" fill="black"/>
<path d="M109.638 40.365C110.675 41.686 111.927 42.822 113.336 43.736C113.289 43.655 113.243 43.574 113.196 43.493C113.411 47.011 113.947 50.509 114.805 53.928C115.05 54.904 115.321 55.873 115.617 56.835C115.695 57.087 115.988 57.089 116.132 56.902C117.412 55.241 118.692 53.58 119.973 51.92C121.108 50.447 122.337 49.001 123.25 47.373C123.743 46.495 124.131 45.554 124.314 44.56C124.224 44.629 124.133 44.698 124.042 44.767C127.174 44.823 130.277 43.597 132.572 41.473C133.224 40.869 133.804 40.191 134.306 39.458C134.511 39.158 134.023 38.876 133.819 39.174C132.131 41.639 129.458 43.361 126.542 43.971C125.719 44.143 124.882 44.218 124.042 44.203C123.927 44.201 123.792 44.291 123.77 44.41C123.445 46.17 122.473 47.693 121.423 49.108C120.232 50.714 118.987 52.282 117.766 53.865C117.059 54.782 116.352 55.699 115.645 56.616C115.817 56.638 115.988 56.661 116.16 56.683C115.427 54.3 114.849 51.87 114.435 49.411C114.224 48.162 114.057 46.907 113.932 45.646C113.873 45.048 113.823 44.449 113.783 43.85C113.774 43.716 113.793 43.544 113.75 43.415C113.706 43.284 113.593 43.229 113.484 43.158C113.235 42.994 112.992 42.822 112.754 42.643C111.734 41.877 110.824 40.966 110.036 39.963C109.813 39.681 109.417 40.083 109.638 40.365Z" fill="#2D210D"/>
<path d="M135.517 37.6709C135.574 42.6179 136.923 47.5329 139.381 51.8249C140.068 53.0239 140.843 54.1669 141.693 55.2559C141.916 55.5409 142.312 55.1399 142.091 54.8579C139.123 51.0569 137.17 46.4869 136.417 41.7269C136.205 40.3859 136.095 39.0289 136.08 37.6709C136.076 37.3089 135.513 37.3079 135.517 37.6709Z" fill="#2D210D"/>
<path d="M156.979 47.026C155.24 43.797 153.778 40.422 152.621 36.942C152.291 35.949 151.986 34.948 151.704 33.941C151.606 33.592 151.063 33.74 151.161 34.091C152.161 37.669 153.471 41.16 155.072 44.513C155.523 45.457 155.997 46.39 156.494 47.311C156.665 47.629 157.151 47.345 156.979 47.026Z" fill="#2D210D"/>
<path d="M115.507 57.007C115.271 62.647 115.233 68.296 115.397 73.939C115.443 75.529 115.506 77.118 115.583 78.707C115.601 79.068 116.164 79.07 116.146 78.707C115.87 73.068 115.793 67.42 115.917 61.776C115.952 60.186 116.003 58.596 116.069 57.007C116.085 56.644 115.522 56.645 115.507 57.007Z" fill="#2D210D"/>
<path d="M122.504 58.375C124.28 58.703 126.069 58.148 127.831 57.959C129.63 57.766 131.445 57.756 133.246 57.919C133.607 57.952 133.605 57.388 133.246 57.356C131.475 57.195 129.691 57.203 127.922 57.386C127.051 57.476 126.191 57.626 125.326 57.761C124.444 57.899 123.539 57.995 122.654 57.831C122.299 57.767 122.147 58.31 122.504 58.375Z" fill="#2D210D"/>
<path d="M110.701 60.729C114.579 62.459 118.467 64.194 122.153 66.313C123.186 66.907 124.201 67.531 125.194 68.19C125.497 68.391 125.779 67.903 125.478 67.703C121.936 65.351 118.113 63.471 114.252 61.71C113.166 61.215 112.076 60.728 110.986 60.242C110.657 60.096 110.37 60.582 110.701 60.729Z" fill="#2D210D"/>
<path d="M112.789 63.2559C115.085 65.0879 117.696 66.4989 120.492 67.4019C121.287 67.6589 122.096 67.8719 122.913 68.0449C123.267 68.1199 123.418 67.5769 123.063 67.5019C120.261 66.9109 117.579 65.8169 115.166 64.2739C114.482 63.8369 113.821 63.3649 113.187 62.8589C112.906 62.6339 112.505 63.0299 112.789 63.2559Z" fill="#2D210D"/>
<path d="M103.028 70.0479C103.054 68.2919 102.448 66.6299 102.056 64.9409C101.851 64.0559 101.731 63.1679 101.747 62.2589C101.763 61.3109 101.893 60.3699 102.046 59.4359C102.351 57.5619 102.645 55.6899 102.849 53.8009C103.053 51.9049 103.189 50.0019 103.255 48.0959C103.33 45.9439 103.316 43.7899 103.217 41.6389C103.2 41.2779 102.637 41.2759 102.653 41.6389C102.83 45.4489 102.734 49.2709 102.361 53.0669C102.174 54.9689 101.909 56.8599 101.593 58.7449C101.286 60.5779 101.021 62.4139 101.343 64.2649C101.68 66.1999 102.494 68.0579 102.465 70.0489C102.46 70.4109 103.023 70.4109 103.028 70.0479Z" fill="#2D210D"/>
<path d="M97.8582 73.5389C98.8662 73.6199 99.8782 73.6349 100.889 73.5839C101.25 73.5659 101.252 73.0019 100.889 73.0209C99.8792 73.0719 98.8672 73.0569 97.8582 72.9749C97.7062 72.9629 97.5762 73.1129 97.5762 73.2569C97.5762 73.4199 97.7062 73.5269 97.8582 73.5389Z" fill="#2D210D"/>
<path d="M21.6791 102.468C26.9891 102.468 32.2992 102.468 37.6092 102.468C42.9192 102.468 48.2291 102.468 53.5391 102.468C56.5381 102.468 59.5362 102.468 62.5352 102.468C62.8982 102.468 62.8982 101.904 62.5352 101.904C57.2252 101.904 51.9151 101.904 46.6051 101.904C41.2951 101.904 35.9852 101.904 30.6752 101.904C27.6762 101.904 24.6781 101.904 21.6791 101.904C21.3171 101.905 21.3161 102.468 21.6791 102.468Z" fill="#605133"/>
<path d="M20.5277 100.166C25.7737 100.166 31.0188 100.166 36.2648 100.166C37.7328 100.166 39.1997 100.166 40.6677 100.166C41.0307 100.166 41.0307 99.6019 40.6677 99.6019C35.4217 99.6019 30.1768 99.6019 24.9308 99.6019C23.4628 99.6019 21.9957 99.6019 20.5277 99.6019C20.1657 99.6029 20.1647 100.166 20.5277 100.166Z" fill="#605133"/>
<path d="M86.7021 99.5909C95.8571 99.5909 105.011 99.5909 114.166 99.5909C123.274 99.5909 132.382 99.5909 141.49 99.5909C146.628 99.5909 151.766 99.5909 156.904 99.5909C157.266 99.5909 157.267 99.028 156.904 99.028C147.749 99.028 138.594 99.028 129.44 99.028C120.332 99.028 111.224 99.028 102.116 99.028C96.978 99.028 91.8401 99.028 86.7021 99.028C86.3401 99.027 86.3391 99.5909 86.7021 99.5909Z" fill="#605133"/>
<path d="M110.87 94.412C114.312 94.412 117.753 94.412 121.195 94.412C124.637 94.412 128.078 94.412 131.52 94.412C133.46 94.412 135.4 94.412 137.34 94.412C137.703 94.412 137.703 93.849 137.34 93.849C133.898 93.849 130.457 93.849 127.015 93.849C123.573 93.849 120.132 93.849 116.69 93.849C114.75 93.849 112.81 93.849 110.87 93.849C110.508 93.849 110.507 94.412 110.87 94.412Z" fill="#605133"/>
<path d="M149.999 94.9869C153.297 94.9869 156.594 94.9869 159.892 94.9869C163.174 94.9869 166.456 94.9869 169.738 94.9869C171.598 94.9869 173.458 94.9869 175.318 94.9869C175.68 94.9869 175.681 94.424 175.318 94.424C172.02 94.424 168.723 94.424 165.425 94.424C162.143 94.424 158.861 94.424 155.579 94.424C153.719 94.424 151.859 94.424 150 94.424C149.637 94.424 149.636 94.9869 149.999 94.9869Z" fill="#605133"/>
<path d="M155.754 91.5349C159.036 91.5349 162.318 91.5349 165.6 91.5349C166.538 91.5349 167.475 91.5349 168.413 91.5349C168.776 91.5349 168.776 90.9709 168.413 90.9709C165.131 90.9709 161.849 90.9709 158.567 90.9709C157.629 90.9709 156.692 90.9709 155.754 90.9709C155.391 90.9709 155.391 91.5349 155.754 91.5349Z" fill="#605133"/>
<path d="M177.824 103.923C180.254 104.693 183.118 103.492 184.266 101.214C184.429 100.891 183.943 100.605 183.78 100.93C182.741 102.993 180.179 104.079 177.975 103.38C177.627 103.27 177.479 103.814 177.824 103.923Z" fill="#605133"/>
<path d="M195.342 82.4639C196.306 82.0129 197.235 83.224 197.254 84.088C197.282 85.331 196.268 86.365 195.47 87.196C193.358 89.395 191.242 91.5899 189.128 93.7869C187.942 95.0199 186.755 96.253 185.569 97.486C185.318 97.747 185.715 98.146 185.967 97.884C188.275 95.485 190.583 93.0859 192.891 90.6879C194.013 89.5209 195.161 88.373 196.257 87.182C197.094 86.273 197.998 85.08 197.783 83.764C197.585 82.547 196.3 81.396 195.056 81.977C194.73 82.13 195.016 82.6159 195.342 82.4639Z" fill="#605133"/>
<path d="M26.0513 83.828C23.1733 87.074 19.3543 89.222 15.6823 91.435C13.8433 92.543 12.0173 93.682 10.3173 94.998C9.47331 95.652 8.66034 96.348 7.90434 97.102C7.12334 97.88 6.37531 98.773 6.04131 99.842C5.71231 100.896 5.89931 102.003 6.72331 102.772C7.41831 103.42 8.5103 103.749 9.3333 103.133C9.6203 102.918 9.33924 102.429 9.04924 102.646C8.39124 103.139 7.56525 102.829 7.03825 102.291C6.35825 101.596 6.32625 100.658 6.65825 99.782C7.03525 98.784 7.80925 97.973 8.56425 97.245C9.29825 96.538 10.0793 95.879 10.8913 95.264C14.1693 92.779 17.8703 90.939 21.2673 88.634C23.1483 87.358 24.9393 85.932 26.4513 84.228C26.6893 83.956 26.2923 83.556 26.0513 83.828Z" fill="#605133"/>
<path d="M94.1829 90.672C96.6769 90.672 99.1699 90.672 101.664 90.672C102.027 90.672 102.027 90.109 101.664 90.109C99.1709 90.109 96.6769 90.109 94.1829 90.109C93.8199 90.108 93.8199 90.672 94.1829 90.672Z" fill="#605133"/>
<path d="M97.3479 88.37C99.7459 88.37 102.143 88.37 104.541 88.37C104.904 88.37 104.904 87.807 104.541 87.807C102.143 87.807 99.7459 87.807 97.3479 87.807C96.9849 87.807 96.9849 88.37 97.3479 88.37Z" fill="#605133"/>
<path d="M187.666 74.9C187.146 73.708 186.061 72.713 184.775 72.424C184.126 72.278 183.409 72.306 182.762 72.513L182.741 70.746L169.887 70.899L170 80.386C170.042 83.935 172.954 86.778 176.503 86.736C180.052 86.694 182.895 83.782 182.853 80.233C183.18 80.327 183.52 80.397 183.864 80.424C185.249 80.534 186.548 79.783 187.335 78.678C188.127 77.569 188.202 76.129 187.666 74.9ZM186.638 76.74C186.637 76.754 186.637 76.773 186.636 76.792C186.617 76.894 186.605 76.965 186.588 77.036C186.561 77.15 186.527 77.263 186.487 77.374C186.484 77.383 186.473 77.409 186.466 77.428C186.432 77.5 186.401 77.566 186.367 77.629C186.307 77.741 186.241 77.849 186.169 77.953C186.157 77.971 186.144 77.988 186.131 78.006C186.081 78.062 186.037 78.12 185.988 78.174C185.903 78.268 185.812 78.357 185.717 78.441C185.693 78.462 185.638 78.506 185.624 78.517C185.58 78.55 185.535 78.583 185.489 78.614C185.384 78.684 185.275 78.749 185.162 78.807C185.144 78.816 185.057 78.857 185.033 78.869C184.987 78.886 184.945 78.902 184.902 78.917C184.782 78.959 184.66 78.993 184.537 79.019C184.5 79.027 184.353 79.044 184.43 79.038C184.373 79.044 184.316 79.05 184.259 79.054C184.112 79.062 183.967 79.056 183.82 79.046C183.79 79.042 183.742 79.035 183.731 79.033C183.659 79.02 183.587 79.005 183.516 78.988C183.39 78.958 183.269 78.917 183.147 78.874C183.15 78.874 183.042 78.831 183.008 78.815C182.949 78.787 182.891 78.756 182.834 78.725L182.778 74.004C182.817 73.98 182.856 73.956 182.897 73.935C182.918 73.923 182.941 73.913 182.962 73.901C182.996 73.883 183.01 73.873 183.013 73.869C183.096 73.83 183.205 73.809 183.284 73.787C183.341 73.771 183.398 73.758 183.455 73.745C183.48 73.74 183.505 73.736 183.529 73.73C183.642 73.719 183.745 73.707 183.85 73.705C183.966 73.702 184.146 73.679 184.256 73.722C184.256 73.722 184.12 73.696 184.199 73.716C184.223 73.722 184.25 73.724 184.274 73.728C184.332 73.738 184.39 73.75 184.447 73.763C184.573 73.792 184.696 73.832 184.818 73.875C184.841 73.885 184.859 73.892 184.876 73.901C184.933 73.927 184.99 73.955 185.045 73.984C185.164 74.047 185.279 74.117 185.39 74.193C185.398 74.198 185.419 74.213 185.435 74.224C185.493 74.271 185.542 74.31 185.59 74.352C185.692 74.441 185.788 74.535 185.88 74.635C185.922 74.681 185.962 74.73 186.004 74.777C186.018 74.795 186.031 74.813 186.045 74.831C186.124 74.94 186.198 75.053 186.265 75.17C186.296 75.224 186.327 75.279 186.355 75.335C186.361 75.348 186.386 75.399 186.404 75.434C186.413 75.459 186.452 75.549 186.457 75.564C186.482 75.631 186.505 75.698 186.525 75.767C186.561 75.887 186.588 76.007 186.614 76.129C186.628 76.236 186.636 76.315 186.64 76.395C186.647 76.509 186.646 76.625 186.638 76.74Z" fill="#C23F37"/>
<path d="M169.817 70.9C169.957 72.004 172.827 72.854 176.338 72.812C179.849 72.77 182.698 71.852 182.812 70.745L169.817 70.9Z" fill="#8E2624"/>
<path d="M175.052 69.46C175.687 68.435 175.198 66.758 174.28 65.976C173.622 65.415 172.723 65.221 172.025 64.712C171.327 64.203 170.913 63.068 171.573 62.51C172.185 61.992 173.093 62.415 173.873 62.6C174.011 62.633 174.158 62.657 174.294 62.614C174.728 62.476 174.694 61.861 174.607 61.414C174.477 60.752 174.429 60.074 174.462 59.401C174.491 58.819 174.594 58.208 174.967 57.761C175.34 57.314 176.056 57.111 176.521 57.461C176.762 57.642 176.894 57.931 177.004 58.211C177.387 59.183 177.628 60.211 177.715 61.253C178.126 60.843 178.555 60.422 179.098 60.217C179.641 60.011 180.334 60.081 180.694 60.537C181.066 61.008 180.953 61.725 180.601 62.211C180.249 62.697 179.712 63.009 179.198 63.319C178.716 63.609 178.171 64.056 178.289 64.607C178.409 65.168 179.178 65.474 179.154 66.047C179.136 66.461 178.71 66.716 178.345 66.912C177.11 67.575 175.978 68.429 175.001 69.433L175.052 69.46Z" fill="#E3D5B8"/>
<path d="M176.299 77.613C176.316 79.044 176.333 80.4761 176.35 81.9071C176.354 82.2281 176.853 82.223 176.85 81.901C176.833 80.47 176.816 79.038 176.799 77.607C176.795 77.286 176.295 77.291 176.299 77.613Z" fill="white"/>
<path d="M174.022 80.0379C175.726 80.0179 177.43 79.9969 179.133 79.9769C179.454 79.9729 179.449 79.4739 179.127 79.4779C177.423 79.4979 175.719 79.5189 174.015 79.5389C173.694 79.5419 173.7 80.0409 174.022 80.0379Z" fill="white"/>
<path d="M177.762 78.183C176.851 79.116 175.94 80.049 175.029 80.982C174.804 81.212 175.161 81.561 175.386 81.331C176.297 80.398 177.208 79.465 178.119 78.532C178.345 78.302 177.987 77.953 177.762 78.183Z" fill="white"/>
<path d="M174.734 78.309C175.845 79.393 176.955 80.478 178.066 81.562C178.296 81.787 178.645 81.43 178.415 81.205C177.304 80.12 176.194 79.036 175.083 77.952C174.853 77.727 174.504 78.084 174.734 78.309Z" fill="white"/>
<path d="M171.956 73.645C174.324 74.41 176.898 74.487 179.312 73.884C179.999 73.713 180.67 73.483 181.32 73.202C181.445 73.148 181.53 73.035 181.491 72.893C181.459 72.776 181.305 72.6689 181.182 72.7219C178.317 73.9609 175.054 74.121 172.084 73.161C171.776 73.063 171.651 73.547 171.956 73.645Z" fill="#8E2624"/>
<path d="M179.342 68.8849C179.817 68.2979 180.292 67.7119 180.767 67.1249C181.107 66.7049 181.495 66.0979 180.989 65.6369C180.834 65.4949 180.616 65.4269 180.469 65.2779C180.269 65.0749 180.642 64.7779 180.786 64.6499C181.24 64.2449 181.799 63.9769 182.268 63.5899C182.773 63.1719 183.182 62.5969 183.177 61.9189C183.175 61.5979 182.676 61.6029 182.678 61.9249C182.685 63.1289 181.18 63.6309 180.429 64.3009C180.053 64.6359 179.663 65.1929 180.12 65.6349C180.273 65.7829 180.483 65.8519 180.64 65.9939C180.856 66.1889 180.646 66.4739 180.507 66.6539C180.014 67.2919 179.491 67.9089 178.984 68.5359C178.784 68.7839 179.139 69.1349 179.342 68.8849Z" fill="#E3D5B8"/>
<path d="M173.396 69.1239C173.468 68.5969 173.353 68.0629 173.043 67.6249C172.685 67.1189 172.198 66.896 171.616 66.739C170.609 66.467 169.904 65.7059 169.556 64.7369C169.358 64.1859 169.276 63.6069 169.305 63.0219C169.321 62.7009 168.821 62.708 168.806 63.028C168.757 64.025 169.016 65.0699 169.595 65.8919C169.88 66.2959 170.239 66.6489 170.669 66.8969C170.892 67.0259 171.134 67.1219 171.382 67.1929C171.673 67.2759 171.971 67.3339 172.227 67.5039C172.703 67.8179 172.993 68.4299 172.915 68.9979C172.87 69.3119 173.352 69.4419 173.396 69.1239Z" fill="#E3D5B8"/>
<path d="M151.793 86.6659C149.455 89.8849 146.291 92.4979 142.688 94.1869C141.811 94.5979 140.897 94.9579 139.938 95.0969C138.834 95.2559 137.71 95.1159 136.605 94.9679C123.009 93.1509 109.536 90.2079 95.8369 89.5049C95.0979 89.4669 94.3058 89.4169 93.7258 88.9579C93.1458 88.4989 92.9768 87.4679 93.5948 87.0619C108.284 84.8879 123.24 82.7129 137.914 84.9859L151.793 86.6659Z" fill="#F2E8D1"/>
<path d="M93.8599 86.7129C100.195 87.2889 108.499 89.6189 114.834 90.1949C115.373 90.2439 115.919 90.2929 116.452 90.2049C117.106 90.0969 117.708 89.7889 118.297 89.4849C124.162 86.4619 130.028 83.4379 135.893 80.4149C129.936 80.6069 118.852 78.8949 118.093 79.1199C117.694 79.2399 93.8599 86.7129 93.8599 86.7129Z" fill="#F2E8D1"/>
<path d="M116.538 90.3579C124.804 91.5089 133.233 91.5009 141.394 93.2489C146.808 89.5949 153.903 87.9979 156.244 82.2469C150.739 81.6109 145.235 80.9749 139.73 80.3389C138.447 80.1909 137.137 80.0439 135.875 80.3169C134.454 80.6249 133.206 81.4409 131.976 82.2149C127.211 85.2129 122.19 87.8049 116.986 89.9519L116.538 90.3579Z" fill="#F2E8D1"/>
<path d="M130.889 81.1239C130.863 81.1109 131.04 81.1609 131.003 81.1459C131.023 81.1309 130.909 81.1889 130.887 81.1999C130.775 81.2589 130.666 81.3219 130.557 81.3869C130.224 81.5829 129.897 81.7879 129.571 81.9939C128.858 82.4439 128.15 82.9039 127.445 83.3669C125.208 84.8359 122.971 86.3059 120.799 87.8699C119.576 88.7499 118.376 89.6599 117.21 90.6139C117.023 90.7669 116.753 90.5009 116.942 90.3459C119.072 88.6029 121.315 87.0059 123.595 85.4659C125.479 84.1939 127.375 82.9359 129.297 81.7199C129.67 81.4839 130.044 81.2479 130.426 81.0259C130.589 80.9309 130.882 80.6969 131.081 80.7979C131.298 80.9069 131.106 81.2339 130.889 81.1239Z" fill="#C2B38C"/>
<path d="M115.012 90.2659C112.406 89.7639 109.79 89.3069 107.168 88.8959C104.542 88.4849 101.909 88.1189 99.2699 87.8009C97.7879 87.6219 96.3038 87.4579 94.8178 87.3079C94.5778 87.2839 94.5748 86.9039 94.8178 86.9289C97.4758 87.1969 100.129 87.5119 102.775 87.8729C105.415 88.2329 108.049 88.6389 110.675 89.0909C112.157 89.3459 113.636 89.6159 115.112 89.8999C115.352 89.9469 115.251 90.3119 115.012 90.2659Z" fill="#C2B38C"/>
<path d="M112.508 90.3639C110.261 90.0509 108.008 89.7749 105.752 89.5379C103.5 89.3009 101.243 89.1019 98.9839 88.9409C97.7139 88.8499 96.4429 88.7719 95.1709 88.7049C94.9279 88.6919 94.9269 88.3129 95.1709 88.3259C97.4429 88.4459 99.7129 88.6029 101.98 88.7979C104.257 88.9949 106.532 89.2299 108.801 89.5029C110.072 89.6559 111.341 89.8219 112.608 89.9979C112.849 90.0319 112.747 90.3969 112.508 90.3639Z" fill="#C2B38C"/>
<path d="M140.956 93.154C138.118 92.8 135.28 92.446 132.443 92.092C131.024 91.915 129.605 91.738 128.186 91.561C126.798 91.388 125.411 91.194 124.018 91.062C122.469 90.916 120.894 90.87 119.36 91.169C119.122 91.215 119.02 90.85 119.259 90.804C122.015 90.267 124.843 90.765 127.592 91.108C130.44 91.463 133.288 91.818 136.137 92.173C137.744 92.373 139.35 92.574 140.957 92.774C141.195 92.805 141.198 93.184 140.956 93.154Z" fill="#C2B38C"/>
<path d="M136.114 93.1629C132.28 92.6079 128.422 92.2179 124.554 91.9949C123.453 91.9319 122.351 91.8819 121.249 91.8449C121.006 91.8369 121.005 91.4579 121.249 91.4659C125.159 91.5959 129.063 91.8949 132.947 92.3629C134.038 92.4949 135.127 92.6389 136.215 92.7969C136.455 92.8319 136.353 93.1969 136.114 93.1629Z" fill="#C2B38C"/>
<path d="M148.634 88.8959C146.879 90.1759 145.063 91.3739 143.193 92.4819C142.661 92.7969 142.125 93.1039 141.585 93.4049C141.372 93.5239 141.18 93.1969 141.394 93.0779C143.292 92.0209 145.141 90.8749 146.93 89.6419C147.439 89.2909 147.943 88.9339 148.442 88.5699C148.64 88.4249 148.829 88.7529 148.634 88.8959Z" fill="#C2B38C"/>
<path d="M140.903 91.3969C138.359 91.0489 135.815 90.7009 133.271 90.3529C130.737 90.0059 128.204 89.6599 125.67 89.3129C124.242 89.1179 122.813 88.9219 121.385 88.7269C121.283 88.7129 121.229 88.5829 121.253 88.4939C121.282 88.3839 121.385 88.3479 121.486 88.3619C124.03 88.7099 126.574 89.0579 129.118 89.4059C131.652 89.7529 134.185 90.0989 136.718 90.4459C138.146 90.6409 139.575 90.8369 141.003 91.0319C141.105 91.0459 141.159 91.1759 141.135 91.2649C141.107 91.3739 141.004 91.4109 140.903 91.3969Z" fill="#C2B38C"/>
<path d="M147.205 86.7029C144.661 86.3549 142.117 86.0069 139.573 85.6589C137.04 85.3119 134.506 84.9659 131.973 84.6189C130.545 84.4239 129.116 84.2279 127.688 84.0329C127.586 84.0189 127.532 83.8889 127.556 83.7999C127.585 83.6899 127.688 83.6539 127.789 83.6679C130.333 84.0159 132.877 84.3639 135.421 84.7119C137.954 85.0589 140.488 85.4049 143.021 85.7519C144.449 85.9469 145.878 86.1429 147.306 86.3379C147.408 86.3519 147.462 86.4819 147.438 86.5709C147.409 86.6809 147.306 86.7169 147.205 86.7029Z" fill="#C2B38C"/>
<path d="M140.198 89.995C139.715 89.829 139.196 89.779 138.691 89.867C138.59 89.884 138.487 89.84 138.458 89.735C138.433 89.644 138.489 89.519 138.59 89.502C139.161 89.403 139.748 89.441 140.298 89.63C140.395 89.663 140.459 89.76 140.43 89.863C140.406 89.956 140.296 90.028 140.198 89.995Z" fill="#C2B38C"/>
<path d="M116.264 88.3059C113.18 87.5139 110.053 86.8889 106.901 86.4389C106.003 86.3099 105.102 86.1969 104.2 86.0969C103.96 86.0709 103.957 85.6909 104.2 85.7179C107.402 86.0729 110.585 86.6009 113.728 87.3059C114.61 87.5039 115.489 87.7159 116.364 87.9399C116.601 88.0009 116.501 88.3659 116.264 88.3059Z" fill="#C2B38C"/>
<path d="M92.814 87.0969C92.833 86.7349 93.12 86.3849 93.509 86.4019C93.869 86.4179 94.225 86.7079 94.204 87.0969C94.174 87.6569 94.145 88.2169 94.115 88.7769C97.226 89.1099 100.337 89.4429 103.448 89.7759C106.802 90.1349 110.155 90.4939 113.508 90.8519C113.968 90.9009 114.428 90.9499 114.888 90.9999C115.045 91.0169 115.203 91.0359 115.36 91.0509C115.349 90.8769 115.345 90.7029 115.351 90.5299C115.36 90.2759 115.509 90.0289 115.729 89.9089C115.815 89.7789 115.929 89.6659 116.078 89.5779C116.271 89.4629 116.522 89.4599 116.726 89.5509C116.799 89.5549 116.872 89.5699 116.945 89.5969C116.969 89.5949 116.994 89.5939 117.018 89.5949C117.394 89.6119 117.713 89.8999 117.713 90.2899C117.713 90.3359 117.713 90.3819 117.713 90.4279C117.739 90.5009 117.762 90.5749 117.777 90.6499C117.841 90.9799 117.836 91.2999 117.794 91.6259C120.543 92.1169 123.3 92.5629 126.065 92.9599C127.576 93.1769 128.905 93.3549 130.426 93.5449C131.905 93.7289 133.385 93.8999 134.867 94.0579C136.358 94.2159 137.85 94.3669 139.344 94.4919C139.701 94.5219 140.059 94.5459 140.417 94.5359C140.566 94.5319 140.716 94.5239 140.864 94.5049C140.882 94.5019 140.921 94.4949 140.928 94.4939C140.964 94.4859 141.001 94.4799 141.037 94.4719C141.14 94.4499 141.241 94.4239 141.341 94.3939C141.407 94.3739 141.473 94.3519 141.538 94.3289C141.581 94.3129 141.625 94.2969 141.668 94.2799C141.734 94.2519 141.78 94.2309 141.788 94.2269C141.819 94.2119 141.851 94.1969 141.882 94.1819C141.965 94.1409 142.048 94.0989 142.129 94.0539C142.426 93.8929 142.711 93.7129 142.994 93.5279C145.461 91.9139 147.631 90.1489 149.931 88.3429C151.124 87.4059 152.318 86.4689 153.511 85.5319C154.076 85.0879 154.661 84.6599 155.206 84.1909C155.311 84.1009 155.413 84.0069 155.509 83.9069C155.557 83.8569 155.602 83.8039 155.648 83.7519C155.687 83.6969 155.711 83.6629 155.733 83.6269C155.768 83.5709 155.796 83.5129 155.827 83.4559C155.833 83.4279 155.845 83.4019 155.852 83.3759C155.862 83.3409 155.869 83.3059 155.878 83.2709C155.881 83.2469 155.884 83.2239 155.884 83.2139C155.886 83.1779 155.886 83.1419 155.885 83.1059C155.878 83.0369 155.864 82.9879 155.855 82.9519C155.843 82.9319 155.82 82.8849 155.804 82.8559C155.778 82.8329 155.754 82.8079 155.727 82.7849C155.452 82.5449 155.463 82.0439 155.727 81.8019C156.02 81.5329 156.417 81.5459 156.71 81.8019C157.25 82.2739 157.382 83.0789 157.192 83.7459C156.997 84.4299 156.481 84.9469 155.941 85.3779C154.736 86.3399 153.516 87.2829 152.303 88.2359C149.882 90.1369 147.491 92.0919 144.971 93.8619C143.791 94.6909 142.529 95.6719 141.059 95.8689C140.294 95.9719 139.538 95.8989 138.774 95.8299C138 95.7599 137.226 95.6869 136.452 95.6099C133.334 95.2989 130.223 94.9269 127.119 94.4999C124.064 94.0789 121.017 93.6019 117.98 93.0669C117.713 93.0199 117.447 92.9719 117.18 92.9239C117.144 92.9499 117.107 92.9759 117.066 92.9979C116.693 93.1989 116.265 93.1319 115.947 92.8619C115.819 92.7529 115.729 92.6109 115.661 92.4579C115.61 92.4589 115.56 92.4589 115.51 92.4549C115.1 92.4249 114.691 92.3689 114.283 92.3249C112.587 92.1439 110.891 91.9619 109.195 91.7809C105.822 91.4199 102.45 91.0589 99.077 90.6979C97.18 90.4949 95.283 90.2919 93.386 90.0889C93.205 90.0699 93.024 90.0269 92.895 89.8849C92.774 89.7529 92.682 89.5779 92.691 89.3939C92.734 88.6279 92.774 87.8629 92.814 87.0969ZM155.648 83.7519C155.627 83.7769 155.605 83.8009 155.648 83.7519Z" fill="#DC4345"/>
<path d="M116.191 86.986C115.222 86.527 114.16 86.296 113.088 86.303C112.844 86.304 112.844 85.925 113.088 85.924C114.229 85.917 115.352 86.171 116.382 86.659C116.602 86.763 116.41 87.09 116.191 86.986Z" fill="#C2B38C"/>
<path d="M121.542 84.2449C118.921 83.7539 116.3 83.2629 113.678 82.7719C112.935 82.6329 112.192 82.4939 111.449 82.3549C111.21 82.3099 111.311 81.9449 111.55 81.9889C114.171 82.4799 116.792 82.9709 119.414 83.4619C120.157 83.6009 120.9 83.7399 121.643 83.8789C121.882 83.9249 121.78 84.2899 121.542 84.2449Z" fill="#C2B38C"/>
<path d="M141.764 84.2449C139.143 83.7539 136.522 83.2629 133.9 82.7719C133.157 82.6329 132.414 82.4939 131.671 82.3549C131.432 82.3099 131.533 81.9449 131.772 81.9889C134.393 82.4799 137.014 82.9709 139.636 83.4619C140.379 83.6009 141.122 83.7399 141.865 83.8789C142.104 83.9249 142.002 84.2899 141.764 84.2449Z" fill="#C2B38C"/>
<path d="M118.18 85.4269C117.649 85.2459 117.118 85.0659 116.586 84.8849C116.489 84.8519 116.425 84.7549 116.454 84.6519C116.48 84.5579 116.59 84.4869 116.687 84.5199C117.218 84.7009 117.749 84.881 118.281 85.062C118.378 85.095 118.442 85.192 118.413 85.295C118.387 85.389 118.277 85.4599 118.18 85.4269Z" fill="#C2B38C"/>
<path d="M122.446 82.2079C120.954 81.7759 119.426 81.4769 117.88 81.3199C117.64 81.2959 117.637 80.9169 117.88 80.9409C119.459 81.0999 121.021 81.3999 122.546 81.8419C122.781 81.9099 122.681 82.2759 122.446 82.2079Z" fill="#C2B38C"/>
<path d="M149.054 84.3359C147.562 83.9039 146.034 83.6049 144.489 83.4489C144.249 83.4249 144.246 83.0449 144.489 83.0699C146.068 83.2299 147.63 83.5289 149.155 83.9709C149.389 84.0389 149.289 84.4039 149.054 84.3359Z" fill="#C2B38C"/>
<path d="M130.13 87.6558C129.357 87.5788 128.584 87.5018 127.811 87.4248C127.709 87.4148 127.621 87.3448 127.621 87.2358C127.621 87.1408 127.708 87.0358 127.811 87.0458C128.584 87.1228 129.357 87.1998 130.13 87.2768C130.232 87.2868 130.319 87.3568 130.319 87.4658C130.319 87.5608 130.232 87.6658 130.13 87.6558Z" fill="#C2B38C"/>
<path d="M130.255 86.1099C129.9 85.9929 129.545 85.8759 129.189 85.7589C129.095 85.7279 129.024 85.6269 129.057 85.5259C129.087 85.4319 129.189 85.3599 129.29 85.3939C129.645 85.5109 130.001 85.6279 130.356 85.7449C130.45 85.7759 130.521 85.8769 130.488 85.9779C130.458 86.0709 130.356 86.1429 130.255 86.1099Z" fill="#C2B38C"/>
<path d="M21.196 84.1089C31.429 84.1889 41.621 85.6009 51.851 85.3579C51.8 86.5779 51.907 87.8029 52.17 89.0029C47.777 91.4939 41.39 96.0139 36.998 98.5049C36.845 98.5919 7.11098 92.2169 3.34998 91.8179C2.73398 90.5249 2.84098 88.6219 2.50098 87.2539L21.196 84.1089Z" fill="#8E794C"/>
<path d="M10.6862 83.2279C7.98416 84.8169 5.24407 86.4229 2.22607 87.2709C13.5511 89.4429 24.8201 91.911 36.0151 94.674C36.5071 94.795 37.0241 94.9179 37.5151 94.7919C37.9251 94.6869 38.2722 94.4199 38.6072 94.1609C42.7842 90.9369 47.1931 88.014 51.7881 85.42C43.8401 82.663 32.7141 81.7029 24.9711 78.4139L10.6862 83.2279Z" fill="#F2E8D1"/>
<path d="M36.7974 93.0929C37.3344 92.5269 37.8744 91.953 38.4994 91.482C39.1414 90.998 39.8744 90.6949 40.5884 90.3389C41.2954 89.9869 41.9104 89.523 42.4844 88.984C43.0414 88.461 43.5604 87.8959 44.1514 87.4079C44.7904 86.8809 45.5214 86.45 46.3524 86.331C46.5834 86.298 46.4854 85.947 46.2554 85.98C44.7104 86.201 43.5924 87.397 42.5324 88.432C41.9574 88.993 41.3603 89.5189 40.6473 89.8989C39.9423 90.2749 39.1894 90.554 38.5294 91.012C37.7864 91.527 37.1593 92.1819 36.5393 92.8349C36.3783 93.0059 36.6354 93.2639 36.7974 93.0929Z" fill="#C2B38C"/>
<path d="M43.7642 86.027C42.6812 86.996 41.2921 87.533 40.1271 88.39C38.9891 89.228 37.9921 90.234 36.9031 91.132C36.2941 91.634 35.6511 92.097 34.9501 92.466C34.7431 92.575 34.9272 92.89 35.1342 92.78C36.3902 92.118 37.4501 91.16 38.5021 90.22C39.0391 89.741 39.5772 89.26 40.1512 88.825C40.7242 88.39 41.3372 88.023 41.9622 87.667C42.6822 87.257 43.4011 86.84 44.0211 86.285C44.1971 86.128 43.9382 85.871 43.7642 86.027Z" fill="#C2B38C"/>
<path d="M40.8769 84.8039C39.9909 85.3299 39.1499 85.9259 38.3579 86.5839C38.1779 86.7339 38.4359 86.9899 38.6149 86.8409C39.3829 86.2019 40.2019 85.6269 41.0609 85.1169C41.2619 84.9989 41.0789 84.6839 40.8769 84.8039Z" fill="#C2B38C"/>
<path d="M37.218 87.8299C36.641 88.2829 36.0641 88.737 35.4871 89.19C35.4101 89.251 35.4231 89.384 35.4871 89.448C35.5631 89.524 35.667 89.509 35.745 89.448C36.322 88.995 36.899 88.541 37.475 88.088C37.552 88.027 37.539 87.894 37.475 87.831C37.399 87.754 37.296 87.7689 37.218 87.8299Z" fill="#C2B38C"/>
<path d="M32.4314 91.4869C32.2324 91.6319 32.0343 91.7759 31.8353 91.9209C31.7963 91.9499 31.7653 91.9809 31.7513 92.0299C31.7393 92.0739 31.7444 92.1319 31.7694 92.1699C31.8184 92.2459 31.9363 92.2949 32.0183 92.2349C32.2173 92.0899 32.4164 91.9459 32.6144 91.8009C32.6534 91.7719 32.6843 91.7409 32.6983 91.6919C32.7103 91.6479 32.7054 91.5899 32.6804 91.5519C32.6314 91.4759 32.5134 91.4269 32.4314 91.4869Z" fill="#C2B38C"/>
<path d="M37.5032 83.6189C36.5702 84.3819 35.6381 85.1449 34.7051 85.9079C34.5231 86.0559 34.7822 86.3129 34.9622 86.1649C35.8952 85.4019 36.8271 84.6389 37.7601 83.8759C37.9421 83.7279 37.6832 83.4709 37.5032 83.6189Z" fill="#C2B38C"/>
<path d="M31.4542 88.775C31.0482 89.009 30.6713 89.292 30.3323 89.615C30.2633 89.681 30.2613 89.807 30.3323 89.873C30.4063 89.941 30.5162 89.943 30.5892 89.873C30.6692 89.797 30.7502 89.723 30.8342 89.652C30.8762 89.616 30.9183 89.581 30.9613 89.547C31.0313 89.492 31.0553 89.474 31.0783 89.457C31.2573 89.324 31.4442 89.201 31.6382 89.09C31.7212 89.042 31.7563 88.923 31.7033 88.841C31.6503 88.757 31.5422 88.724 31.4542 88.775Z" fill="#C2B38C"/>
<path d="M27.7581 88.8869C29.1111 87.7859 30.612 86.8859 32.105 85.9899C32.306 85.8699 32.123 85.5549 31.921 85.6759C30.4 86.5879 28.879 87.5079 27.501 88.6299C27.319 88.7769 27.5781 89.0339 27.7581 88.8869Z" fill="#C2B38C"/>
<path d="M20.6579 83.898C22.0109 82.797 23.5119 81.897 25.0049 81.001C25.2059 80.881 25.0229 80.566 24.8209 80.687C23.2999 81.599 21.7789 82.519 20.4009 83.641C20.2189 83.788 20.4779 84.044 20.6579 83.898Z" fill="#C2B38C"/>
<path d="M32.178 85.8869C33.03 85.0859 33.6 83.9619 34.642 83.3739C34.846 83.2589 34.663 82.9439 34.458 83.0599C33.382 83.6669 32.798 84.8039 31.92 85.6299C31.75 85.7899 32.007 86.0479 32.178 85.8869Z" fill="#C2B38C"/>
<path d="M23.5329 89.5239C23.5839 89.4589 23.6009 89.4369 23.6189 89.4159C23.6529 89.3749 23.6869 89.334 23.7229 89.294C23.7959 89.212 23.8709 89.133 23.9489 89.057C24.0249 88.983 24.104 88.911 24.185 88.842C24.228 88.806 24.2709 88.7699 24.3149 88.7349C24.3759 88.6879 24.4009 88.67 24.4259 88.652C24.5029 88.596 24.5479 88.491 24.4909 88.403C24.4419 88.327 24.3239 88.278 24.2419 88.338C23.8519 88.622 23.5109 88.957 23.2189 89.341C23.1609 89.417 23.205 89.548 23.284 89.59C23.38 89.64 23.4709 89.6049 23.5329 89.5239Z" fill="#C2B38C"/>
<path d="M26.3441 87.403C26.3731 87.346 26.404 87.2909 26.439 87.2369C26.456 87.2099 26.4741 87.1839 26.4931 87.1579C26.6091 87.0109 26.6991 86.9209 26.7971 86.8399C26.8311 86.8119 26.85 86.7529 26.85 86.7109C26.85 86.6659 26.8301 86.6129 26.7971 86.5819C26.7621 86.5499 26.717 86.5259 26.668 86.5289C26.617 86.5309 26.579 86.5499 26.539 86.5819C26.328 86.7549 26.1531 86.9749 26.0291 87.2189C25.9861 87.3039 26.0041 87.4199 26.0941 87.4679C26.1781 87.5119 26.2991 87.493 26.3441 87.403Z" fill="#C2B38C"/>
<path d="M30.0503 84.402C30.1583 84.312 30.2672 84.221 30.3752 84.131C30.4092 84.103 30.4282 84.045 30.4282 84.002C30.4282 83.957 30.4082 83.9039 30.3752 83.8729C30.3402 83.8409 30.2952 83.817 30.2462 83.82C30.1672 83.835 30.1402 83.8509 30.1172 83.8729C30.0092 83.9629 29.9002 84.054 29.7922 84.144C29.7582 84.172 29.7393 84.23 29.7393 84.273C29.7393 84.318 29.7592 84.371 29.7922 84.402C29.8272 84.434 29.8723 84.4579 29.9213 84.4549C30.0013 84.4399 30.0283 84.425 30.0503 84.402Z" fill="#C2B38C"/>
<path d="M31.1634 83.4979C31.4884 83.0069 31.8804 82.564 32.3254 82.178C32.3994 82.113 32.3914 81.987 32.3254 81.921C32.2514 81.847 32.1424 81.856 32.0674 81.921C31.6004 82.328 31.1914 82.799 30.8484 83.315C30.7944 83.397 30.8324 83.517 30.9134 83.564C31.0034 83.615 31.1094 83.5799 31.1634 83.4979Z" fill="#C2B38C"/>
<path d="M12.4534 85.7049C12.7784 85.2139 13.1704 84.7709 13.6154 84.3849C13.6894 84.3199 13.6814 84.1939 13.6154 84.1269C13.5414 84.0529 13.4324 84.0619 13.3584 84.1269C12.8904 84.5339 12.4815 85.0049 12.1395 85.5209C12.0855 85.6029 12.1234 85.7219 12.2044 85.7699C12.2934 85.8219 12.3984 85.7869 12.4534 85.7049Z" fill="#C2B38C"/>
<path d="M15.6194 86.7599C15.9444 86.2689 16.3364 85.8259 16.7814 85.4399C16.8554 85.3749 16.8474 85.2489 16.7814 85.1829C16.7074 85.1089 16.5985 85.1179 16.5245 85.1829C16.0575 85.5899 15.6485 86.0609 15.3055 86.5769C15.2515 86.6589 15.2894 86.7789 15.3704 86.8259C15.4594 86.8779 15.5654 86.8419 15.6194 86.7599Z" fill="#C2B38C"/>
<path d="M25.832 84.2479C25.115 84.8509 24.397 85.4529 23.68 86.0559C23.605 86.1189 23.615 86.2479 23.68 86.3129C23.755 86.3879 23.862 86.3759 23.937 86.3129C24.654 85.7099 25.3719 85.1079 26.0889 84.5049C26.1639 84.4419 26.1539 84.3129 26.0889 84.2479C26.0149 84.1729 25.907 84.1849 25.832 84.2479Z" fill="#C2B38C"/>
<path d="M21.0514 88.131C21.0154 88.149 20.9794 88.1669 20.9434 88.1849C20.9224 88.1969 20.9054 88.2119 20.8924 88.2319C20.8764 88.2499 20.8654 88.27 20.8594 88.294C20.8514 88.318 20.8504 88.342 20.8564 88.367C20.8574 88.391 20.8645 88.4139 20.8785 88.4349C20.9295 88.4939 20.9565 88.51 20.9875 88.519C21.0685 88.525 21.0994 88.517 21.1274 88.501C21.1634 88.483 21.1994 88.4649 21.2354 88.4469C21.2564 88.4359 21.2734 88.4199 21.2864 88.3999C21.3024 88.3819 21.3134 88.362 21.3194 88.338C21.3274 88.314 21.3284 88.29 21.3224 88.265C21.3214 88.241 21.3145 88.2179 21.3005 88.1969C21.2495 88.1379 21.2225 88.122 21.1915 88.113C21.1105 88.107 21.0794 88.115 21.0514 88.131Z" fill="#C2B38C"/>
<path d="M28.6972 82.1819C28.9522 81.9669 29.2062 81.7519 29.4612 81.5369C29.5342 81.4749 29.5292 81.3419 29.4612 81.2799C29.3832 81.2089 29.2811 81.2139 29.2041 81.2799C28.9491 81.4949 28.6951 81.7099 28.4401 81.9249C28.3671 81.9869 28.3721 82.1199 28.4401 82.1829C28.5171 82.2529 28.6192 82.2469 28.6972 82.1819Z" fill="#C2B38C"/>
<path d="M19.4892 86.8989C18.4392 87.5999 17.3882 88.3009 16.3382 89.0019C16.1442 89.1309 16.3262 89.4469 16.5222 89.3159C17.5722 88.6149 18.6232 87.9139 19.6732 87.2129C19.8672 87.0839 19.6852 86.7679 19.4892 86.8989Z" fill="#C2B38C"/>
<path d="M36.813 95.2739C36.872 96.2129 36.9 97.1539 36.896 98.0939C36.895 98.3279 37.259 98.3289 37.26 98.0939C37.264 97.1529 37.236 96.2129 37.177 95.2739C37.162 95.0409 36.798 95.0389 36.813 95.2739Z" fill="#F2E8D1"/>
<path d="M38.213 95.4869C39.817 94.1819 41.467 92.9359 43.161 91.7509C44.844 90.5729 46.57 89.4549 48.334 88.4009C49.336 87.8019 50.35 87.2239 51.376 86.6659C51.582 86.5539 51.398 86.2399 51.192 86.3519C49.371 87.3429 47.585 88.3989 45.84 89.5189C44.087 90.6439 42.375 91.8319 40.708 93.0809C39.776 93.7789 38.8591 94.4959 37.9561 95.2309C37.7741 95.3769 38.033 95.6339 38.213 95.4869Z" fill="#F2E8D1"/>
<path d="M38.4633 96.493C40.0573 95.269 41.6913 94.099 43.3633 92.985C45.0433 91.866 46.7612 90.804 48.5132 89.801C49.4992 89.237 50.4963 88.691 51.5033 88.165C51.7113 88.056 51.5273 87.742 51.3193 87.851C49.5393 88.782 47.7892 89.773 46.0752 90.822C44.3532 91.876 42.6673 92.988 41.0203 94.155C40.0933 94.812 39.1792 95.487 38.2782 96.179C38.1992 96.239 38.1603 96.335 38.2133 96.428C38.2573 96.505 38.3853 96.553 38.4633 96.493Z" fill="#F2E8D1"/>
<path d="M42.6368 94.3389C43.4828 93.9589 44.2719 93.4729 44.9979 92.8969C45.0749 92.8359 45.0619 92.7029 44.9979 92.6389C44.9219 92.5629 44.8178 92.5779 44.7408 92.6389C44.0408 93.1949 43.2688 93.6589 42.4538 94.0239C42.3638 94.0639 42.3429 94.1949 42.3889 94.2729C42.4429 94.3659 42.5468 94.3799 42.6368 94.3389Z" fill="#F2E8D1"/>
<path d="M35.6742 95.3359C33.6322 95.2529 31.6313 94.8159 29.6403 94.3849C27.6573 93.9559 25.6652 93.5989 23.6622 93.2769C21.6532 92.9539 19.6412 92.6429 17.6472 92.2299C15.6902 91.8239 13.7753 91.2749 11.8633 90.6979C9.96328 90.1249 8.05729 89.5519 6.10229 89.1989C5.85829 89.1549 5.61328 89.1139 5.36828 89.0769C5.13928 89.0419 5.04024 89.3929 5.27124 89.4279C7.23624 89.7249 9.15124 90.2659 11.0522 90.8339C12.9782 91.4099 14.8983 91.9999 16.8623 92.4329C18.8503 92.8709 20.8603 93.1939 22.8693 93.5159C24.8903 93.8399 26.9083 94.1719 28.9103 94.5999C30.8963 95.0239 32.8832 95.4919 34.9122 95.6549C35.1652 95.6749 35.4192 95.6899 35.6732 95.7009C35.9082 95.7099 35.9082 95.3459 35.6742 95.3359Z" fill="#F2E8D1"/>
<path d="M3.97233 90.988C6.45033 91.958 9.02631 92.676 11.6503 93.123C12.3903 93.249 13.1343 93.353 13.8803 93.438C14.1123 93.464 14.1113 93.1 13.8803 93.074C11.2613 92.778 8.67423 92.212 6.16923 91.393C5.46223 91.162 4.76225 90.909 4.06925 90.638C3.85025 90.551 3.75533 90.903 3.97233 90.988Z" fill="#F2E8D1"/>
<path d="M8.20296 91.3969C11.329 92.1629 14.456 92.9279 17.607 93.5859C20.739 94.2409 23.896 94.7899 27.078 95.1259C27.934 95.2169 28.793 95.2729 29.649 95.3589C30.44 95.4379 31.241 95.5799 31.942 95.9739C32.147 96.0889 32.3299 95.7739 32.1259 95.6599C30.8459 94.9409 29.294 94.9759 27.873 94.8419C26.261 94.6899 24.654 94.4799 23.055 94.2269C19.878 93.7239 16.73 93.0529 13.598 92.3219C11.829 91.9089 10.064 91.4769 8.30001 91.0449C8.07301 90.9899 7.97496 91.3409 8.20296 91.3969Z" fill="#F2E8D1"/>
<path d="M34.0991 96.6469C34.4501 96.7469 34.8141 96.8009 35.1781 96.8099C35.2731 96.8119 35.3641 96.7239 35.3601 96.6279C35.3561 96.5269 35.2801 96.4479 35.1781 96.4459C35.0931 96.4439 35.0071 96.4389 34.9221 96.4319C34.8801 96.4279 34.8371 96.4239 34.7941 96.4189C34.7871 96.4179 34.7282 96.4109 34.7542 96.4139C34.7342 96.4109 34.7151 96.4079 34.6951 96.4049C34.5261 96.3789 34.3591 96.3419 34.1941 96.2949C34.1021 96.2689 33.9921 96.3269 33.9701 96.4219C33.9501 96.5199 34.0011 96.6189 34.0991 96.6469Z" fill="#F2E8D1"/>
</svg>
