<svg width="196" height="180" viewBox="0 0 196 180" fill="none" xmlns="http://www.w3.org/2000/svg">
<path d="M42.2135 15.7727C41.6605 16.6177 41.0825 17.5927 41.3215 18.5737C41.5905 19.6767 42.7805 20.3037 43.2745 21.3257C43.5425 21.8787 43.5855 22.5367 43.3935 23.1207C43.1815 23.7637 42.5935 24.3437 41.9185 24.2907C42.5445 25.2297 43.6925 25.7687 44.8215 25.7407C45.9495 25.7127 47.0355 25.1507 47.7835 24.3047C48.2195 23.8107 48.5495 23.2237 48.7425 22.5937C48.9745 21.8377 49.0115 21.0287 49.2745 20.2827C49.5365 19.5367 50.1205 18.8147 50.9085 18.7437L42.2135 15.7727Z" fill="#8C4A29"/>
<path d="M62.7136 142.046C61.9696 146.678 60.9836 152.593 60.1696 157.366C57.4346 156.886 54.7006 156.406 51.9656 155.926C51.6576 155.872 51.3226 155.803 51.1216 155.563C50.8676 155.259 50.9286 154.811 51.0036 154.422C51.9696 149.413 52.9346 144.404 53.9006 139.395C56.7336 139.241 59.5846 139.431 62.3726 139.958L62.7136 142.046Z" fill="#FED5B7"/>
<path d="M42.2585 154.121C41.5145 158.753 40.5285 164.668 39.7145 169.441C36.9795 168.961 34.2455 168.481 31.5105 168.001C31.2025 167.947 30.8675 167.878 30.6665 167.638C30.4125 167.334 30.4735 166.886 30.5485 166.497C31.5145 161.488 32.4805 156.479 33.4455 151.47C36.2785 151.316 39.1295 151.507 41.9175 152.034L42.2585 154.121Z" fill="#FED5B7"/>
<path d="M49.1545 153.579C47.4845 157.06 44.8355 161.161 46.0815 164.816C46.1695 165.074 46.2735 165.343 46.4845 165.515C46.7435 165.727 47.1055 165.747 47.4395 165.757C49.5055 165.822 51.5715 165.887 53.6385 165.952C53.4885 165.237 53.8055 164.445 54.4085 164.032C54.8115 163.884 55.1995 164.318 55.3045 164.735C55.4095 165.151 55.3845 165.618 55.6305 165.969C55.9035 166.358 56.4175 166.478 56.8855 166.564C63.1725 167.715 69.6155 168.012 75.9815 167.445C76.8425 167.368 77.7435 167.261 78.4535 166.768C79.1635 166.274 79.5925 165.266 79.1625 164.516C78.8325 163.94 78.1385 163.701 77.5045 163.508C74.1195 162.475 70.7345 161.443 67.3485 160.41C66.0185 160.004 64.6585 159.584 63.5455 158.75C62.4325 157.916 61.5985 156.571 61.7565 155.19L49.1545 153.579Z" fill="black"/>
<path d="M28.9465 165.408C27.2765 168.889 24.6275 172.99 25.8735 176.645C25.9615 176.903 26.0655 177.171 26.2765 177.344C26.5365 177.555 26.8975 177.576 27.2315 177.586C29.2975 177.651 31.3645 177.716 33.4305 177.781C33.2805 177.066 33.5975 176.274 34.2005 175.861C34.6035 175.713 34.9925 176.147 35.0965 176.564C35.2015 176.98 35.1765 177.447 35.4225 177.798C35.6955 178.187 36.2095 178.307 36.6775 178.393C42.9645 179.543 49.4075 179.841 55.7735 179.274C56.6345 179.197 57.5355 179.09 58.2455 178.597C58.9555 178.103 59.3845 177.095 58.9545 176.345C58.6245 175.769 57.9304 175.53 57.2964 175.337C53.9114 174.304 50.5265 173.272 47.1415 172.239C45.8115 171.833 44.4514 171.413 43.3384 170.578C42.2254 169.744 41.3915 168.399 41.5495 167.018L28.9465 165.408Z" fill="black"/>
<path d="M84.6824 41.7235C90.1104 41.5095 95.5395 41.2955 100.967 41.0825C101.366 38.7895 104.112 37.8055 106.432 37.6225C107.906 37.5065 109.501 37.4875 110.889 37.0675C112.131 36.6905 112.87 38.4425 111.712 39.0285C110.465 39.6365 108.964 39.8965 108.223 41.0215L122.049 39.4105C122.243 39.3875 122.446 39.4275 122.597 39.5515C123.136 39.9905 122.465 40.7165 121.876 40.9865C119.569 42.0445 117.091 42.7285 114.568 43.0035C117.47 41.9715 120.631 41.6805 123.675 42.1505C124.317 42.2495 124.507 43.0935 123.973 43.4645C121.999 44.8335 119.632 45.6365 117.231 45.7275C119.058 44.8295 121.083 44.3405 123.118 44.2945C123.763 44.2795 124.123 45.0485 123.678 45.5155C121.872 47.4105 119.229 48.5085 116.608 48.3755L120.456 48.6935C121.637 48.7915 121.741 50.4735 120.583 50.7245C120.54 50.7335 120.498 50.7425 120.455 50.7505C116.238 51.5505 111.974 52.3535 107.686 52.1575C105.564 52.0605 103.447 51.7195 101.326 51.8265C99.3445 51.9265 97.4064 52.4155 95.4564 52.7845C91.7264 53.4915 87.9145 53.7655 84.1225 53.5995C83.7725 49.5635 83.8004 45.4955 84.2064 41.4645L84.6824 41.7235Z" fill="#C49A7E"/>
<path d="M53.7235 34.9246C63.8475 39.0536 75.0735 39.2896 86.0055 39.4676C87.2025 44.1256 87.3335 49.0536 86.3855 53.7676C78.7685 53.3576 71.1505 52.9466 63.5335 52.5356C58.2725 52.2516 52.7865 51.9046 48.2295 49.2576C48.0895 49.1766 48.0235 48.9566 48.1455 48.8506C48.2675 48.7446 48.4985 48.9496 48.3775 49.0576L53.7235 34.9246Z" fill="#538EA5"/>
<path d="M117.171 88.8435C117.825 90.6525 118.556 92.4345 119.354 94.1845C120.017 95.6395 120.702 97.1095 121.608 98.4325C122.632 99.9295 123.888 101.216 125.472 102.122C126.826 102.896 128.34 103.405 129.865 103.713C131.643 104.073 133.461 104.225 135.269 104.347C135.77 104.381 136.366 104.095 136.712 103.749C137.066 103.395 137.333 102.814 137.31 102.306C137.258 101.139 136.412 100.342 135.269 100.265C134.153 100.19 133.037 100.104 131.928 99.9565C132.109 99.9805 132.29 100.006 132.471 100.03C130.992 99.8285 129.524 99.5145 128.144 98.9345C128.307 99.0035 128.469 99.0715 128.632 99.1405C127.878 98.8165 127.164 98.4155 126.509 97.9195C126.647 98.0255 126.784 98.1325 126.922 98.2385C126.274 97.7375 125.71 97.1525 125.209 96.5055C125.315 96.6435 125.422 96.7805 125.528 96.9185C124.825 95.9945 124.26 94.9795 123.743 93.9425C123.169 92.7885 122.636 91.6135 122.134 90.4255C122.203 90.5885 122.271 90.7505 122.34 90.9135C121.903 89.8735 121.492 88.8225 121.108 87.7605C120.924 87.2525 120.648 86.8205 120.17 86.5405C119.732 86.2845 119.088 86.1755 118.597 86.3345C117.612 86.6515 116.782 87.7685 117.171 88.8435Z" fill="#6DA8C6"/>
<path d="M125.924 81.4715C125.939 82.7905 126.163 83.9955 126.611 85.2365C126.998 86.3095 127.592 87.3105 128.262 88.2295C129.669 90.1585 131.634 91.6545 133.725 92.7745C135.083 93.5015 136.479 94.1275 137.916 94.6815C138.913 95.0655 140.206 94.5025 140.533 93.4635C140.87 92.3915 140.383 91.2585 139.315 90.8465C138.084 90.3715 136.87 89.8555 135.701 89.2425C135.863 89.3275 136.024 89.4125 136.186 89.4965C134.884 88.8055 133.648 87.9935 132.561 86.9935C132.69 87.1135 132.819 87.2335 132.948 87.3535C132.192 86.6485 131.525 85.8565 130.972 84.9825C131.065 85.1295 131.158 85.2765 131.251 85.4235C130.815 84.7215 130.458 83.9775 130.203 83.1905C130.256 83.3565 130.308 83.5225 130.361 83.6875C130.149 83.0115 130.017 82.3185 129.977 81.6105C129.986 81.7865 129.995 81.9625 130.003 82.1395C129.998 82.0255 129.995 81.9125 129.993 81.7985C129.987 81.2535 129.888 80.7635 129.53 80.3315C129.207 79.9415 128.638 79.6185 128.123 79.5995C127.604 79.5805 127.052 79.7045 126.656 80.0625C126.27 80.4135 125.918 80.9295 125.924 81.4715Z" fill="#538EA5"/>
<path d="M195.016 141.919C193.997 136.047 192.614 130.241 191.124 124.472C189.564 118.433 187.867 112.431 186.167 106.43C185.372 103.622 184.576 100.814 183.798 98.0024C183.058 95.3284 182.297 92.6714 181.142 90.1394C179.973 87.5774 178.319 85.2734 176.037 83.5954C173.485 81.7184 170.298 81.1474 167.243 80.6504C164.403 80.1884 161.517 79.7794 158.632 79.8754C155.776 79.9704 152.838 80.5584 150.404 82.1244C147.786 83.8084 146.058 86.3894 144.835 89.2014C143.847 91.4744 143.023 93.8194 142.189 96.1524C140.626 100.526 139.138 104.926 137.678 109.336C136.163 113.914 134.682 118.503 133.223 123.099C131.995 126.967 130.783 130.839 129.588 134.717C128.906 136.931 128.221 139.145 127.567 141.368C127.513 141.551 127.459 141.734 127.408 141.918C127.173 142.775 127.7 143.806 128.596 144.01C129.494 144.215 130.436 143.74 130.688 142.822C131.143 141.165 131.67 139.525 132.173 137.883C133.243 134.387 134.329 130.897 135.426 127.41C136.827 122.96 138.247 118.517 139.695 114.083C141.164 109.583 142.66 105.091 144.214 100.62C144.905 98.6314 145.608 96.6474 146.332 94.6704C146.759 93.5054 147.184 92.3384 147.656 91.1894C147.697 91.0894 147.864 90.7634 147.647 91.2074C147.677 91.1454 147.702 91.0774 147.73 91.0144C147.799 90.8534 147.87 90.6934 147.942 90.5344C148.1 90.1844 148.265 89.8384 148.439 89.4964C148.753 88.8804 149.097 88.2794 149.482 87.7054C149.578 87.5634 149.676 87.4224 149.777 87.2834C149.834 87.2054 149.918 87.1214 149.961 87.0364C149.947 87.0644 149.704 87.3554 149.885 87.1374C150.126 86.8464 150.37 86.5604 150.634 86.2904C150.861 86.0584 151.099 85.8364 151.347 85.6264C151.409 85.5744 151.472 85.5234 151.534 85.4714C151.795 85.2504 151.27 85.6664 151.456 85.5294C151.597 85.4244 151.738 85.3214 151.883 85.2224C152.431 84.8484 153.012 84.5404 153.613 84.2614C153.714 84.2144 153.903 84.1634 153.466 84.3214C153.539 84.2944 153.611 84.2614 153.684 84.2334C153.83 84.1764 153.977 84.1214 154.125 84.0694C154.437 83.9604 154.753 83.8634 155.072 83.7774C155.378 83.6954 155.687 83.6234 155.998 83.5604C156.155 83.5294 156.312 83.5004 156.469 83.4734C156.626 83.4464 157.275 83.3824 156.684 83.4344C157.335 83.3774 157.979 83.3014 158.633 83.2804C160.001 83.2344 161.371 83.3074 162.732 83.4424C163.066 83.4754 163.401 83.5124 163.734 83.5524C163.901 83.5724 164.067 83.5934 164.233 83.6154C164.299 83.6244 164.366 83.6334 164.432 83.6414C163.886 83.5764 164.305 83.6244 164.427 83.6414C165.098 83.7354 165.767 83.8404 166.436 83.9494C167.953 84.1974 169.477 84.4464 170.952 84.8894C171.31 84.9964 171.664 85.1154 172.013 85.2484C172.083 85.2754 172.152 85.3024 172.221 85.3294C172.589 85.4724 171.868 85.1664 172.227 85.3304C172.396 85.4084 172.566 85.4844 172.733 85.5674C173.052 85.7264 173.363 85.8994 173.664 86.0894C173.796 86.1724 173.926 86.2584 174.054 86.3464C174.165 86.4234 174.672 86.8264 174.232 86.4644C174.707 86.8544 175.163 87.2564 175.582 87.7074C175.79 87.9314 175.991 88.1634 176.183 88.4014C176.258 88.4934 176.436 88.7684 176.145 88.3464C176.18 88.3964 176.22 88.4444 176.256 88.4934C176.367 88.6414 176.474 88.7924 176.579 88.9444C177.311 90.0094 177.897 91.1574 178.416 92.3374C178.528 92.5924 178.365 92.2154 178.357 92.1954C178.391 92.2854 178.431 92.3724 178.467 92.4614C178.528 92.6094 178.587 92.7584 178.645 92.9084C178.761 93.2084 178.873 93.5094 178.981 93.8124C179.208 94.4494 179.417 95.0924 179.615 95.7384C180.422 98.3734 181.109 101.048 181.857 103.7C183.502 109.53 185.172 115.354 186.742 121.205C188.307 127.036 189.788 132.895 190.98 138.814C191.249 140.147 191.501 141.484 191.733 142.823C191.886 143.702 193.01 144.275 193.825 144.011C194.775 143.705 195.18 142.861 195.016 141.919Z" fill="#538EA5"/>
<path d="M106.827 47.2855C109.819 44.2345 114.187 42.5865 118.449 42.9015C119.351 42.9685 120.285 43.1335 121.015 43.6655C122.037 44.4105 122.46 45.7085 122.823 46.9195C125.092 54.4805 127.361 62.0415 129.63 69.6025C130.725 73.2505 131.81 77.2375 130.399 80.7755C129.643 82.6705 128.239 84.2235 126.847 85.7155C125.578 87.0755 124.295 88.4225 122.997 89.7555C122.21 90.5645 121.324 91.4155 120.202 91.5355C118.876 91.6785 117.67 90.7425 116.838 89.7005C114.853 87.2165 114.125 83.9855 113.47 80.8745C111.139 69.8045 109.02 58.6895 107.114 47.5375L106.827 47.2855Z" fill="#C23F37"/>
<path d="M136.24 103.025C135.496 102.399 135.147 101.419 135.337 100.465C135.851 97.8826 136.464 95.3105 137.627 92.9575C139.022 90.1335 141.33 87.6125 144.338 86.6775C145.909 86.1895 147.58 86.1535 149.225 86.1225C159.653 85.9235 170.326 85.7615 180.208 89.0965C182.429 89.8465 184.679 90.8306 186.188 92.6246C188.713 95.6276 188.514 99.9966 188.122 103.9C187.884 106.268 187.045 109.292 184.196 108.861C183.769 108.796 183.359 108.647 182.972 108.455C180.018 106.985 176.875 105.897 173.645 105.227C168.989 104.26 164.203 104.164 159.449 104.072C152.269 103.932 145.089 103.792 137.909 103.652C137.297 103.64 136.708 103.419 136.24 103.025Z" fill="#C23F37"/>
<path d="M109.273 47.9964C111.482 49.9054 113.449 52.0874 115.128 54.4754C116.8 56.8524 118.199 59.4254 119.292 62.1184C120.392 64.8294 121.193 67.6604 121.677 70.5454C122.158 73.4124 122.318 76.3344 122.145 79.2364C121.972 82.1364 121.458 85.0144 120.593 87.7884C120.484 88.1394 120.368 88.4874 120.248 88.8354C120.129 89.1784 120.673 89.3264 120.791 88.9854C121.758 86.1894 122.364 83.2774 122.627 80.3314C122.889 77.3844 122.796 74.4134 122.387 71.4834C121.979 68.5634 121.247 65.6894 120.21 62.9294C119.174 60.1724 117.839 57.5264 116.213 55.0694C114.584 52.6064 112.667 50.3294 110.493 48.3304C110.223 48.0814 109.948 47.8374 109.67 47.5974C109.398 47.3624 108.998 47.7594 109.273 47.9964Z" fill="#8E2624"/>
<path d="M184.13 157.569C183.111 151.697 181.728 145.891 180.238 140.122C178.678 134.083 176.981 128.081 175.281 122.08C174.486 119.272 173.69 116.464 172.912 113.652C172.172 110.978 171.411 108.321 170.256 105.789C169.087 103.227 167.433 100.923 165.151 99.2446C162.599 97.3676 159.412 96.7966 156.357 96.2996C153.516 95.8376 150.631 95.4286 147.745 95.5246C144.889 95.6196 141.951 96.2076 139.517 97.7736C136.9 99.4576 135.171 102.039 133.948 104.851C132.96 107.124 132.137 109.469 131.303 111.802C129.739 116.176 128.252 120.577 126.792 124.986C125.277 129.564 123.796 134.153 122.337 138.749C121.109 142.617 119.897 146.489 118.702 150.367C118.02 152.581 117.335 154.795 116.681 157.018C116.627 157.201 116.573 157.384 116.522 157.568C116.287 158.425 116.814 159.456 117.71 159.66C118.608 159.865 119.55 159.39 119.802 158.472C120.257 156.815 120.784 155.175 121.287 153.533C122.357 150.037 123.443 146.547 124.54 143.06C125.941 138.61 127.361 134.167 128.809 129.733C130.278 125.233 131.774 120.741 133.328 116.27C134.019 114.281 134.722 112.297 135.447 110.32C135.874 109.155 136.299 107.988 136.771 106.839C136.812 106.739 136.979 106.413 136.762 106.857C136.792 106.795 136.817 106.727 136.845 106.664C136.914 106.503 136.985 106.343 137.057 106.184C137.215 105.834 137.38 105.488 137.554 105.146C137.868 104.53 138.212 103.929 138.597 103.355C138.693 103.213 138.791 103.072 138.891 102.933C138.948 102.855 139.032 102.771 139.075 102.685C139.061 102.713 138.818 103.005 138.999 102.786C139.24 102.495 139.484 102.209 139.748 101.939C139.975 101.707 140.213 101.485 140.461 101.274C140.523 101.222 140.586 101.171 140.648 101.119C140.909 100.899 140.384 101.314 140.57 101.177C140.711 101.073 140.852 100.969 140.997 100.87C141.545 100.496 142.126 100.188 142.727 99.9086C142.828 99.8616 143.016 99.8096 142.579 99.9686C142.652 99.9416 142.724 99.9096 142.797 99.8806C142.943 99.8236 143.09 99.7686 143.238 99.7166C143.55 99.6076 143.866 99.5106 144.185 99.4246C144.491 99.3426 144.8 99.2706 145.111 99.2076C145.268 99.1766 145.425 99.1466 145.582 99.1206C145.739 99.0936 146.388 99.0296 145.797 99.0816C146.448 99.0236 147.092 98.9486 147.746 98.9266C149.114 98.8806 150.484 98.9536 151.845 99.0886C152.179 99.1216 152.514 99.1586 152.847 99.1986C153.014 99.2186 153.18 99.2396 153.346 99.2616C153.412 99.2706 153.479 99.2796 153.545 99.2876C152.999 99.2226 153.418 99.2706 153.54 99.2886C154.211 99.3826 154.88 99.4866 155.549 99.5966C157.066 99.8446 158.59 100.094 160.065 100.537C160.423 100.644 160.777 100.763 161.126 100.896C161.196 100.922 161.265 100.95 161.334 100.977C161.702 101.119 160.981 100.814 161.34 100.978C161.509 101.056 161.679 101.132 161.846 101.215C162.165 101.374 162.476 101.547 162.777 101.736C162.909 101.819 163.039 101.905 163.167 101.993C163.278 102.07 163.785 102.473 163.345 102.111C163.82 102.501 164.276 102.903 164.695 103.354C164.903 103.578 165.104 103.81 165.296 104.048C165.371 104.14 165.549 104.415 165.258 103.993C165.293 104.043 165.333 104.092 165.369 104.14C165.479 104.288 165.587 104.439 165.692 104.591C166.424 105.656 167.01 106.804 167.53 107.984C167.642 108.239 167.479 107.862 167.471 107.842C167.505 107.932 167.545 108.019 167.581 108.108C167.641 108.256 167.701 108.405 167.759 108.555C167.875 108.855 167.987 109.156 168.095 109.459C168.322 110.096 168.531 110.738 168.729 111.385C169.536 114.02 170.223 116.695 170.971 119.347C172.616 125.177 174.286 131.001 175.856 136.852C177.421 142.683 178.902 148.542 180.094 154.461C180.363 155.794 180.615 157.131 180.847 158.471C180.999 159.35 182.124 159.923 182.939 159.659C183.889 159.355 184.293 158.511 184.13 157.569Z" fill="#6DA8C6"/>
<path d="M182.62 92.3144C184.422 95.3884 184.227 99.4074 182.381 102.417C181.857 103.271 181.199 104.03 180.428 104.67C180.149 104.902 180.549 105.298 180.826 105.068C183.715 102.673 184.96 98.6224 184.228 94.9814C184.02 93.9444 183.64 92.9424 183.105 92.0304C182.923 91.7174 182.436 92.0014 182.62 92.3144Z" fill="#8E2624"/>
<path d="M181.091 95.0696C181.489 97.0276 181.188 99.0966 180.252 100.862C180.082 101.182 180.568 101.467 180.739 101.146C181.748 99.2406 182.064 97.0306 181.634 94.9196C181.562 94.5646 181.019 94.7146 181.091 95.0696Z" fill="#8E2624"/>
<path d="M61.3746 6.99072C61.9046 10.1617 62.4356 13.3327 62.9666 16.5027C65.0206 16.6097 69.1286 16.8227 69.1286 16.8227C69.1286 16.8227 65.5386 19.3087 63.8516 19.8647C63.4626 19.9927 63.7906 25.2157 63.9406 26.9607C63.9906 27.5447 64.0376 28.1537 63.8006 28.6967C63.2666 29.9197 61.5696 30.2617 60.1696 30.1057C58.7696 29.9497 55.9846 29.7497 55.9846 29.7497C55.9846 29.7497 53.9896 35.0347 52.9916 37.6777C50.6136 35.8047 47.7426 34.4867 44.7076 33.8737C44.1516 33.7617 43.4996 33.6057 43.2926 33.1097C43.1676 32.8097 43.2496 32.4727 43.3336 32.1607C44.2776 28.6577 45.2206 25.1537 46.1646 21.6507C45.5126 22.9117 41.2186 21.4967 42.6906 18.0887C43.2516 16.7897 45.3166 16.6927 46.8036 16.8267C46.2716 14.1727 45.9846 11.4757 45.9496 8.77672C50.4706 7.97472 55.0476 7.44872 59.6426 7.20372L61.3746 6.99072Z" fill="#FED5B7"/>
<path d="M86.5546 46.9946C91.9826 46.7806 97.4116 46.5676 102.84 46.3536C103.239 44.0606 105.985 43.0765 108.305 42.8935C109.779 42.7775 111.374 42.7585 112.762 42.3375C114.004 41.9605 114.743 43.7125 113.585 44.2985C112.338 44.9065 110.837 45.1666 110.096 46.2916L123.922 44.6806C124.116 44.6576 124.319 44.6976 124.47 44.8216C125.008 45.2606 124.338 45.9866 123.749 46.2576C121.442 47.3146 118.964 47.9986 116.441 48.2746C119.343 47.2426 122.504 46.9516 125.548 47.4216C126.191 47.5206 126.38 48.3646 125.846 48.7356C123.872 50.1046 121.505 50.9076 119.103 50.9986C120.93 50.1006 122.955 49.6115 124.99 49.5655C125.635 49.5505 125.995 50.3195 125.55 50.7865C123.744 52.6815 121.101 53.7796 118.48 53.6466L122.327 53.9646C123.508 54.0626 123.612 55.7445 122.454 55.9965C122.411 56.0055 122.369 56.0145 122.326 56.0225C118.109 56.8225 113.845 57.6256 109.557 57.4296C107.435 57.3326 105.318 56.9916 103.197 57.0986C101.215 57.1986 99.2766 57.6866 97.3266 58.0566C93.5966 58.7636 89.7846 59.0375 85.9926 58.8715C85.6426 54.8355 85.6706 50.7676 86.0766 46.7366L86.5546 46.9946Z" fill="#FED5B7"/>
<path d="M33.4185 88.5857C39.2985 91.3757 45.3395 93.8267 51.5005 95.9237C57.5535 97.9837 64.1975 100.038 67.8285 105.301C71.2105 110.203 71.0795 116.629 70.8195 122.578C70.5235 129.352 68.0415 144.354 67.7455 151.128C62.5905 151.981 55.7075 150.251 50.5595 149.35C50.2095 149.289 52.8815 127.101 51.7575 120.14C50.6335 113.18 47.8375 106.161 42.3675 101.713C39.0085 98.9827 34.6855 97.2277 32.3645 93.5737C31.6385 92.4307 31.1475 91.1527 30.4265 90.0067L33.4185 88.5857Z" fill="#8C7754"/>
<path d="M6.50955 79.0286C4.37455 82.4346 1.23255 86.2256 0.426546 90.1646C-0.379454 94.1026 -0.103454 98.3556 1.77355 101.911C4.46955 107.017 9.93455 109.953 15.1855 112.355C23.3975 116.112 32.0495 119.348 41.0705 119.746C37.9765 130.153 34.8825 140.561 31.7895 150.968C30.7265 154.542 29.1925 160.726 28.9465 161.958C34.0715 162.766 48.2375 166.012 48.4155 165.408C51.6505 154.45 56.1455 140.344 59.0295 129.288C60.5465 123.472 62.0175 117.338 60.4875 111.525C59.2995 107.01 56.3565 103.093 52.7685 100.105C49.1805 97.1166 44.9625 94.9826 40.6695 93.1466C37.7665 91.9046 34.4555 90.4146 33.5665 87.3846C33.3125 86.5196 33.1935 85.4556 32.3905 85.0456C32.0115 84.8526 31.5645 84.8636 31.1395 84.8726C23.4015 85.0506 15.6265 83.2896 8.72055 79.7936L6.50955 79.0286Z" fill="#C2B38C"/>
<path d="M41.1665 29.8296C39.3025 29.3656 37.3025 30.0866 35.7955 31.2776C34.2885 32.4686 33.1845 34.0836 32.1125 35.6776C22.8345 49.4656 14.0785 63.6056 5.86947 78.0556C5.61647 78.5016 5.35447 78.9976 5.45047 79.5026C5.55447 80.0426 6.03447 80.4166 6.48547 80.7306C14.3715 86.2206 23.9785 89.2006 33.5865 89.1356C34.4345 89.1296 35.3225 89.0896 36.0535 88.6606C37.0305 88.0866 37.5045 86.9616 38.1065 86.0026C40.0175 82.9586 43.4935 81.3316 46.1685 78.9306C48.1085 77.1896 49.6265 75.0356 51.0645 72.8616C54.1545 68.1886 56.9905 63.2356 58.3055 57.7896C62.3805 60.0626 67.4605 58.2786 72.0975 58.8026C74.3445 59.0566 76.4975 59.8646 78.7375 60.1766C82.4295 60.6916 86.1605 59.8456 89.7915 59.0046C89.4695 54.8536 89.1475 50.7036 88.8255 46.5526C88.7905 46.1006 88.7375 45.6066 88.4155 45.2876C88.0295 44.9036 87.4135 44.9166 86.8705 44.9476C77.8855 45.4686 68.7965 44.0996 60.3635 40.9556C59.2185 40.5286 58.0705 40.0616 57.0855 39.3386C56.0355 38.5666 55.2105 37.5356 54.3485 36.5576C51.1175 32.8926 47.1905 29.8426 42.8395 27.6206L41.1665 29.8296Z" fill="#6DA8C6"/>
<path d="M115.761 48.5947C118.662 48.1967 121.491 47.4057 124.184 46.2577C124.517 46.1157 124.23 45.6307 123.9 45.7707C121.255 46.8977 118.459 47.6597 115.612 48.0507C115.46 48.0717 115.38 48.2647 115.415 48.3977C115.457 48.5617 115.61 48.6157 115.761 48.5947Z" fill="#8C4A29"/>
<path d="M116.813 51.6107C119.913 50.9827 122.956 50.0957 125.907 48.9567C126.242 48.8277 126.096 48.2827 125.757 48.4137C122.806 49.5517 119.763 50.4397 116.663 51.0677C116.308 51.1387 116.459 51.6817 116.813 51.6107Z" fill="#8C4A29"/>
<path d="M117.665 54.4665C119.69 54.2865 121.658 53.7545 123.497 52.8885C123.825 52.7345 123.539 52.2485 123.213 52.4015C121.47 53.2225 119.585 53.7325 117.665 53.9025C117.306 53.9355 117.303 54.4985 117.665 54.4665Z" fill="#8C4A29"/>
<path d="M114.779 47.4007C115.611 49.8637 116.444 52.3257 117.276 54.7887C117.392 55.1307 117.936 54.9837 117.819 54.6387C116.987 52.1757 116.154 49.7137 115.322 47.2507C115.207 46.9087 114.662 47.0557 114.779 47.4007Z" fill="#8C4A29"/>
<path d="M102.54 49.5827C102.541 51.0827 102.705 52.5777 103.026 54.0427C103.103 54.3967 103.647 54.2467 103.569 53.8927C103.258 52.4757 103.104 51.0337 103.104 49.5827C103.104 49.2207 102.54 49.2197 102.54 49.5827Z" fill="#8C4A29"/>
<path d="M108.101 41.4896C109.152 40.8886 110.224 40.3137 111.257 39.6807C111.672 39.4267 112.073 39.1086 112.265 38.6486C112.455 38.1946 112.417 37.6937 112.1 37.3097C111.869 37.0297 111.472 37.4306 111.702 37.7076C111.931 37.9846 111.807 38.4167 111.608 38.6727C111.345 39.0127 110.939 39.2177 110.575 39.4257C109.656 39.9517 108.737 40.4766 107.817 41.0026C107.501 41.1836 107.785 41.6706 108.101 41.4896Z" fill="#8C4A29"/>
<path d="M44.1566 18.2236C44.8536 18.7226 45.5066 19.3676 46.0126 20.0596C46.1026 20.1826 46.2576 20.2436 46.3986 20.1606C46.5196 20.0896 46.5896 19.8986 46.4996 19.7756C45.9236 18.9886 45.2346 18.3056 44.4416 17.7376C44.3176 17.6486 44.1276 17.7156 44.0556 17.8386C43.9726 17.9796 44.0316 18.1346 44.1566 18.2236Z" fill="#8C4A29"/>
<path d="M43.9605 19.7936C44.4705 19.7016 44.9795 19.6096 45.4895 19.5166C45.6345 19.4906 45.7305 19.3056 45.6865 19.1706C45.6365 19.0146 45.4955 18.9456 45.3395 18.9736C44.8295 19.0656 44.3205 19.1586 43.8105 19.2506C43.6655 19.2766 43.5695 19.4616 43.6135 19.5976C43.6645 19.7526 43.8045 19.8216 43.9605 19.7936Z" fill="#8C4A29"/>
<path opacity="0.56" d="M55.9844 29.7507L48.7524 27.2227L55.1404 32.1547L55.9844 29.7507Z" fill="#8C4A29"/>
<path d="M60.1415 17.0617C60.1415 17.8137 59.7245 18.4227 59.2105 18.4227C58.6965 18.4227 58.2795 17.8137 58.2795 17.0617C58.2795 16.3107 58.6965 15.7007 59.2105 15.7007C59.7245 15.7007 60.1415 16.3097 60.1415 17.0617Z" fill="black"/>
<path d="M59.1705 21.4655C59.8905 22.3735 61.2175 22.6415 62.2545 22.1625C62.3925 22.0985 62.4275 21.8995 62.3555 21.7775C62.2725 21.6355 62.1085 21.6125 61.9705 21.6765C61.1475 22.0565 60.1225 21.7655 59.5695 21.0675C59.4745 20.9485 59.2705 20.9685 59.1715 21.0675C59.0525 21.1855 59.0755 21.3465 59.1705 21.4655Z" fill="#8C4A29"/>
<path d="M46.8636 17.8256C47.2516 18.4996 47.4816 19.2646 47.5156 20.0426L49.6776 20.0066L48.0806 10.1276C48.5156 9.8686 49.0806 10.1656 49.4126 10.5476C49.7446 10.9296 49.9856 11.4126 50.4196 11.6736C51.3286 12.2216 52.7566 11.2176 52.3136 10.1236C52.2086 9.86361 52.2406 9.55961 52.4206 9.34561C52.8856 8.79261 53.5386 9.61261 53.9996 10.1086C54.9116 11.0896 56.8576 10.5976 57.1946 9.30061C57.2776 8.98161 57.3216 8.5806 57.6276 8.4586C57.7946 8.3916 57.9856 8.4406 58.1526 8.5086C58.6596 8.7146 59.0896 9.08461 59.6036 9.27461C60.1176 9.46461 60.8036 9.4026 61.0686 8.9226C61.2296 8.6316 61.2366 8.20361 61.6366 8.15661C61.7676 8.14161 61.8986 8.18061 62.0186 8.23661C63.4996 8.92661 65.3976 7.88161 65.8256 6.32461C66.2406 4.81561 65.3676 3.1156 63.9756 2.4006C62.5836 1.6856 60.8176 1.8996 59.5116 2.7606C58.0496 1.3046 56.1726 0.149607 54.1146 0.0116068C52.0556 -0.125393 49.8436 0.957611 49.0906 2.87861C48.9996 3.11261 48.9136 3.3746 48.6976 3.5026C48.4556 3.6466 48.1486 3.5626 47.8766 3.4876C46.0976 2.9916 43.7466 3.26461 43.0456 4.97261C42.9346 5.24261 42.8686 5.5426 42.6716 5.7566C42.3026 6.1586 41.6456 6.0986 41.1846 6.3906C40.4456 6.8576 40.5246 7.9756 40.8946 8.7676C41.2646 9.5596 41.8446 10.3116 41.8326 11.1856C41.8236 11.8196 41.5006 12.4006 41.3296 13.0106C40.8416 14.7506 41.0366 16.1986 42.6726 16.9676C42.8026 16.7126 43.7516 17.1036 44.0036 16.9646C45.0166 16.4106 46.2886 16.8256 46.8636 17.8256Z" fill="#8C4A29"/>
<path d="M59.2987 11.1745C60.1167 11.1845 60.5847 12.1595 60.0397 12.7705C59.6207 13.2255 59.0107 13.4055 58.4327 13.5675C57.2617 13.8945 56.0917 14.2215 54.9207 14.5485C55.3307 12.8665 56.7837 11.4875 58.4837 11.1655L59.2987 11.1745Z" fill="#8C4A29"/>
<path d="M41.7096 30.6617C45.1616 33.0527 48.6206 35.4757 52.5276 37.0757C53.5656 37.5007 54.6186 37.9107 55.5186 38.5957C55.8066 38.8147 56.0886 38.3257 55.8026 38.1087C55.0056 37.5027 54.0866 37.1077 53.1656 36.7317C52.2056 36.3387 51.2576 35.9267 50.3336 35.4537C48.4596 34.4957 46.6776 33.3687 44.9326 32.1947C43.9466 31.5307 42.9706 30.8517 41.9936 30.1747C41.6946 29.9687 41.4126 30.4567 41.7096 30.6617Z" fill="#285968"/>
<path d="M56.1816 39.4207C54.4396 38.9807 52.6636 38.6777 50.8736 38.5157C49.9766 38.4347 49.0766 38.3897 48.1756 38.3817C47.3016 38.3737 46.4176 38.3777 45.5496 38.4957C44.0686 38.6967 42.7966 39.3957 41.8806 40.5817C41.0096 41.7097 40.5406 43.1027 40.4666 44.5197C40.3766 46.2317 40.8246 47.9297 41.4826 49.4967C42.0836 50.9267 42.8306 52.4017 44.0246 53.4307C45.2726 54.5067 46.9376 55.0157 48.4626 55.5627C49.2806 55.8557 50.1086 56.1257 50.9566 56.3157C51.5426 56.4467 52.1286 56.5567 52.7096 56.7107C53.9866 57.0497 55.2446 57.4567 56.5086 57.8407C57.6666 58.1917 58.8336 58.5547 60.0266 58.7667C60.2606 58.8087 60.4966 58.8427 60.7336 58.8647C61.0946 58.8987 61.0926 58.3357 60.7336 58.3007C59.6806 58.2007 58.6386 57.8797 57.6276 57.5857C56.3936 57.2257 55.1696 56.8317 53.9366 56.4697C53.3876 56.3087 52.8366 56.1537 52.2806 56.0207C51.6196 55.8627 50.9496 55.7507 50.2936 55.5667C49.4846 55.3387 48.6936 55.0547 47.9056 54.7607C47.1656 54.4857 46.4166 54.2207 45.7106 53.8657C45.0166 53.5167 44.3946 53.0737 43.8736 52.4937C43.3806 51.9447 42.9886 51.3117 42.6466 50.6597C41.8966 49.2307 41.2916 47.6687 41.0886 46.0597C40.9066 44.6127 41.0726 43.1247 41.7536 41.8207C42.3606 40.6597 43.3406 39.6797 44.6076 39.2747C45.4106 39.0177 46.2576 38.9717 47.0946 38.9527C47.9496 38.9327 48.8066 38.9457 49.6606 38.9917C51.3896 39.0847 53.1106 39.3137 54.8036 39.6757C55.2146 39.7637 55.6236 39.8597 56.0316 39.9627C56.3836 40.0527 56.5336 39.5097 56.1816 39.4207Z" fill="#285968"/>
<path d="M83.3635 45.4547C83.8235 47.2377 83.9875 49.0717 84.0595 50.9067C84.1325 52.7677 84.1465 54.6327 84.1825 56.4947C84.2035 57.5737 84.2245 58.6537 84.2445 59.7327C84.2515 60.0947 84.8145 60.0957 84.8075 59.7327C84.7705 57.8087 84.7335 55.8847 84.6965 53.9607C84.6605 52.1017 84.6475 50.2377 84.4485 48.3877C84.3375 47.3487 84.1675 46.3167 83.9065 45.3047C83.8155 44.9537 83.2725 45.1027 83.3635 45.4547Z" fill="#285968"/>
<path d="M86.0475 56.4546C85.6475 56.6556 85.6095 57.1576 85.7755 57.5246C85.9795 57.9736 86.4975 58.1116 86.9475 57.9936C87.4355 57.8656 87.8945 57.4846 88.0885 57.0186C88.1905 56.7726 88.1875 56.4916 88.0595 56.2556C87.9475 56.0486 87.7445 55.9096 87.5265 55.8326C86.9505 55.6286 86.4045 55.9786 85.9755 56.3296C85.8605 56.4236 85.8705 56.6316 85.9755 56.7276C86.0975 56.8396 86.2515 56.8276 86.3735 56.7276C86.4105 56.6976 86.4475 56.6666 86.4855 56.6376C86.4465 56.6676 86.5205 56.6126 86.5205 56.6126C86.5365 56.6016 86.5515 56.5906 86.5675 56.5796C86.6535 56.5196 86.7425 56.4646 86.8365 56.4186C86.8535 56.4106 86.8705 56.4026 86.8875 56.3946C86.8385 56.4156 86.9255 56.3826 86.9255 56.3826C86.9655 56.3686 87.0065 56.3576 87.0475 56.3486C87.0705 56.3436 87.0935 56.3386 87.1175 56.3356C87.0505 56.3456 87.1035 56.3376 87.1205 56.3376C87.1615 56.3376 87.2025 56.3376 87.2445 56.3406C87.3175 56.3456 87.1875 56.3246 87.2585 56.3436C87.3385 56.3626 87.3745 56.3746 87.4085 56.3876C87.3445 56.3616 87.4455 56.4096 87.4595 56.4186C87.4375 56.4046 87.5095 56.4566 87.5215 56.4686C87.5095 56.4576 87.5415 56.4856 87.5515 56.5026C87.5605 56.5176 87.5695 56.5336 87.5785 56.5486C87.6035 56.5916 87.5795 56.5516 87.5765 56.5406C87.5845 56.5646 87.5915 56.5886 87.5975 56.6126C87.6115 56.6666 87.5995 56.6276 87.5985 56.6146C87.5995 56.6406 87.5985 56.6656 87.5995 56.6916C87.5995 56.7496 87.6135 56.6586 87.5955 56.7186C87.5825 56.7606 87.5735 56.8026 87.5565 56.8436C87.5375 56.8726 87.5265 56.8966 87.5115 56.9206C87.5025 56.9366 87.4925 56.9516 87.4815 56.9666C87.4815 56.9666 87.4265 57.0396 87.4595 56.9986C87.4285 57.0376 87.3945 57.0756 87.3585 57.1116C87.3295 57.1406 87.3005 57.1676 87.2695 57.1946C87.2495 57.2116 87.2285 57.2296 87.2075 57.2456C87.1165 57.3066 87.0335 57.3586 86.9425 57.4016C86.8925 57.4256 86.9245 57.4096 86.9355 57.4056C86.9105 57.4156 86.8855 57.4246 86.8605 57.4326C86.8185 57.4466 86.7755 57.4546 86.7335 57.4656C86.7235 57.4686 86.6775 57.4756 86.7315 57.4676C86.7065 57.4716 86.6805 57.4726 86.6545 57.4736C86.6375 57.4746 86.6205 57.4746 86.6035 57.4736C86.5855 57.4736 86.5255 57.4676 86.5765 57.4746C86.5335 57.4686 86.4925 57.4566 86.4505 57.4446C86.3735 57.4236 86.4875 57.4696 86.4345 57.4396C86.3015 57.3246 86.3045 57.3286 86.3305 57.3606C86.3205 57.3626 86.2835 57.2826 86.2775 57.2736C86.2485 57.2246 86.2765 57.2816 86.2795 57.2816C86.2755 57.2816 86.2615 57.2326 86.2605 57.2296C86.2545 57.2116 86.2505 57.1946 86.2465 57.1766C86.2375 57.1276 86.2375 57.1346 86.2445 57.1796C86.2545 57.1566 86.2395 57.0986 86.2405 57.0726C86.2365 57.0836 86.2365 57.0916 86.2415 57.0616C86.2475 57.0356 86.2625 57.0046 86.2605 56.9966C86.2685 57.0236 86.2315 57.0476 86.2595 57.0036C86.2935 56.9516 86.2875 56.9596 86.2635 56.9926C86.3185 56.9316 86.2765 56.9826 86.2695 56.9796C86.2725 56.9816 86.3245 56.9466 86.3315 56.9436C86.4635 56.8776 86.5115 56.6806 86.4325 56.5586C86.3455 56.4206 86.1885 56.3836 86.0475 56.4546Z" fill="#285968"/>
<path d="M79.8815 40.1197C80.3555 41.6727 80.6485 43.2717 80.7485 44.8927C80.7705 45.2527 81.3345 45.2557 81.3115 44.8927C81.2075 43.2227 80.9125 41.5697 80.4245 39.9697C80.3195 39.6247 79.7755 39.7717 79.8815 40.1197Z" fill="#285968"/>
<path d="M70.7736 52.0777C70.6046 52.8317 70.4816 53.5956 70.4066 54.3646C70.3696 54.7446 70.3446 55.1246 70.3316 55.5066C70.3206 55.8256 70.2816 56.1816 70.3676 56.4936C70.5436 57.1296 71.3106 57.1976 71.7336 56.7566C71.9426 56.5386 72.0476 56.2496 72.1506 55.9716C72.2846 55.6106 72.4186 55.2506 72.5526 54.8896C72.8636 54.0526 73.1736 53.2157 73.4846 52.3787C73.2996 52.3537 73.1156 52.3286 72.9316 52.3036C73.0226 53.3266 73.1146 54.3507 73.2056 55.3737C73.2756 56.1547 73.2576 57.0907 73.8716 57.6717C74.1346 57.9207 74.5336 57.5236 74.2696 57.2736C74.0176 57.0346 73.9236 56.7116 73.8686 56.3766C73.8006 55.9556 73.7826 55.5237 73.7446 55.0997C73.6616 54.1677 73.5786 53.2367 73.4946 52.3047C73.4656 51.9847 73.0536 51.9256 72.9416 52.2296C72.6526 53.0086 72.3636 53.7876 72.0746 54.5666C71.9356 54.9416 71.7966 55.3166 71.6566 55.6916C71.5646 55.9406 71.4676 56.3596 71.1846 56.4636C70.8286 56.5956 70.8846 56.0806 70.8866 55.8716C70.8916 55.4746 70.9096 55.0786 70.9416 54.6826C71.0076 53.8556 71.1356 53.0356 71.3176 52.2256C71.3956 51.8746 70.8526 51.7237 70.7736 52.0777Z" fill="#285968"/>
<path d="M30.1304 45.4477C28.5224 48.3847 26.9154 51.3217 25.3074 54.2577C23.7074 57.1807 22.1074 60.1037 20.5074 63.0267C19.5984 64.6877 18.6894 66.3477 17.7804 68.0087C17.6064 68.3267 18.0924 68.6117 18.2664 68.2927C19.8744 65.3557 21.4814 62.4187 23.0894 59.4827C24.6894 56.5597 26.2894 53.6367 27.8894 50.7137C28.7984 49.0537 29.7074 47.3927 30.6164 45.7317C30.7914 45.4137 30.3054 45.1297 30.1304 45.4477Z" fill="#285968"/>
<path d="M23.6515 51.7305C22.2195 54.8235 20.6295 57.8415 18.8885 60.7715C18.7025 61.0845 19.1895 61.3675 19.3745 61.0555C21.1155 58.1255 22.7055 55.1075 24.1375 52.0145C24.2885 51.6875 23.8035 51.4015 23.6515 51.7305Z" fill="#285968"/>
<path d="M55.4676 58.3306C53.8026 63.0856 51.8696 67.8176 48.9286 71.9426C46.2246 75.7356 42.5766 78.6466 39.3656 81.9776C37.6076 83.8016 35.9826 85.7796 34.8066 88.0336C34.6396 88.3546 35.1256 88.6396 35.2926 88.3176C37.4206 84.2366 40.9556 81.1926 44.2206 78.0476C45.9006 76.4296 47.5256 74.7556 48.9306 72.8886C50.4446 70.8766 51.7086 68.6876 52.8016 66.4216C54.0426 63.8476 55.0666 61.1756 56.0106 58.4806C56.1306 58.1376 55.5866 57.9906 55.4676 58.3306Z" fill="#285968"/>
<path d="M8.23258 79.6595C9.04758 81.0595 10.4666 81.9205 11.8646 82.6525C13.4386 83.4765 15.0676 84.1955 16.7346 84.8095C20.0606 86.0345 23.5436 86.8255 27.0716 87.1725C29.0676 87.3685 31.0756 87.4175 33.0786 87.3195C33.4396 87.3025 33.4416 86.7385 33.0786 86.7565C29.6016 86.9255 26.1076 86.6505 22.7006 85.9365C19.3216 85.2285 16.0296 84.1005 12.9356 82.5665C11.3726 81.7915 9.63058 80.9395 8.71858 79.3755C8.53658 79.0615 8.04958 79.3445 8.23258 79.6595Z" fill="#285968"/>
<path d="M22.1027 88.6476C21.5347 89.8446 20.9077 91.1816 19.7297 91.8926C19.0637 92.2946 18.2817 92.4256 17.5197 92.5136C16.6567 92.6136 15.7927 92.7006 14.9297 92.7936C14.5727 92.8316 14.5687 93.3956 14.9297 93.3566C15.8487 93.2576 16.7697 93.1706 17.6867 93.0576C18.4937 92.9576 19.3087 92.8056 20.0147 92.3796C21.2837 91.6136 21.9777 90.2246 22.5907 88.9326C22.7437 88.6066 22.2587 88.3196 22.1027 88.6476Z" fill="#4C3B22"/>
<path d="M14.1484 86.4917C13.9974 88.1307 13.9224 89.7767 13.9334 91.4227C13.9424 92.7617 14.0744 94.0827 15.0684 95.0757C15.9474 95.9537 17.1434 96.4107 18.2644 96.8897C19.6884 97.4977 21.1014 98.1297 22.5044 98.7857C28.0534 101.379 33.4304 104.34 38.5884 107.643C41.0414 109.214 43.7074 110.781 45.5304 113.105C47.2844 115.342 48.1434 118.179 48.0024 121.01C47.9224 122.623 47.5744 124.205 47.2404 125.78C46.9154 127.313 46.6254 128.853 46.3704 130.4C45.8694 133.439 45.4874 136.496 45.1004 139.551C44.3284 145.648 43.5054 151.771 41.6484 157.65C41.4154 158.387 41.1674 159.118 40.9034 159.844C40.7794 160.185 41.3234 160.333 41.4464 159.994C43.5504 154.187 44.5524 148.089 45.3504 141.986C45.7564 138.882 46.1194 135.773 46.5794 132.677C46.8084 131.137 47.0604 129.599 47.3504 128.069C47.6434 126.525 48.0124 124.995 48.2774 123.446C48.5334 121.951 48.6784 120.43 48.4984 118.917C48.3384 117.572 47.9594 116.265 47.3804 115.041C46.1594 112.46 44.0544 110.629 41.7384 109.044C36.6834 105.585 31.3464 102.511 25.8644 99.7827C23.1364 98.4247 20.3484 97.2237 17.5674 95.9817C16.4454 95.4807 15.2174 94.8277 14.7634 93.6067C14.4964 92.8887 14.4984 92.1057 14.4944 91.3507C14.4904 90.5517 14.5054 89.7527 14.5404 88.9557C14.5764 88.1337 14.6334 87.3127 14.7094 86.4927C14.7454 86.1307 14.1814 86.1337 14.1484 86.4917Z" fill="#4C3B22"/>
<path d="M41.4666 120.006C44.0166 117.713 46.8306 115.727 49.8426 114.089C50.1616 113.916 49.8776 113.429 49.5586 113.602C46.5046 115.263 43.6526 117.283 41.0686 119.608C40.7976 119.85 41.1976 120.248 41.4666 120.006Z" fill="#4C3B22"/>
<path d="M42.6276 120.074C45.2716 118.582 48.0926 117.426 51.0236 116.633C51.3736 116.538 51.2246 115.995 50.8736 116.09C47.8976 116.895 45.0276 118.072 42.3436 119.588C42.0276 119.766 42.3116 120.253 42.6276 120.074Z" fill="#4C3B22"/>
<path d="M32.7155 157.547C36.8255 159.25 41.1945 160.244 45.4895 161.357C46.7465 161.683 48.0045 162.008 49.2615 162.334C49.6125 162.425 49.7625 161.882 49.4115 161.791C47.1965 161.217 44.9805 160.644 42.7655 160.07C40.6295 159.517 38.4925 158.963 36.3905 158.289C35.1995 157.907 34.0215 157.484 32.8655 157.005C32.5315 156.865 32.3855 157.41 32.7155 157.547Z" fill="#4C3B22"/>
<path d="M55.6286 144.803C59.2086 144.962 62.7896 145.12 66.3706 145.279C66.7336 145.295 66.7326 144.732 66.3706 144.716C62.7896 144.557 59.2096 144.399 55.6286 144.24C55.2656 144.223 55.2666 144.787 55.6286 144.803Z" fill="#4C3B22"/>
<path d="M59.6675 132.051C60.0645 135.339 60.1185 138.666 59.8205 141.965C59.7345 142.917 59.6185 143.866 59.4745 144.811C59.4205 145.166 59.9635 145.319 60.0175 144.961C60.5275 141.631 60.6925 138.253 60.4885 134.89C60.4315 133.941 60.3445 132.994 60.2305 132.051C60.1875 131.696 59.6235 131.691 59.6675 132.051Z" fill="#4C3B22"/>
<path d="M1.60364 88.6517C3.13664 88.5737 4.66964 88.4957 6.20264 88.4187C6.11164 88.2997 6.02164 88.1807 5.93064 88.0617C5.76564 89.2007 5.92064 90.3317 6.16564 91.4487C6.41264 92.5777 6.70264 93.6977 7.00464 94.8127C7.30164 95.9087 7.63464 96.9937 7.95264 98.0837C8.10464 98.6037 8.23864 99.1377 8.23464 99.6827C8.23064 100.224 8.06064 100.731 7.81664 101.209C7.54264 101.747 7.21064 102.255 6.89764 102.77C6.55064 103.34 6.20464 103.91 5.85764 104.48C5.66864 104.791 6.15564 105.074 6.34364 104.764C6.93864 103.785 7.56064 102.817 8.12564 101.82C8.37964 101.373 8.60964 100.897 8.71864 100.391C8.83364 99.8587 8.80664 99.3187 8.70664 98.7857C8.60364 98.2337 8.42464 97.6997 8.26264 97.1627C8.09164 96.5947 7.92564 96.0247 7.76564 95.4527C7.45364 94.3387 7.16264 93.2197 6.89364 92.0947C6.59064 90.8297 6.28464 89.5157 6.47364 88.2087C6.49764 88.0397 6.40364 87.8417 6.20164 87.8517C4.66864 87.9297 3.13564 88.0077 1.60264 88.0847C1.24364 88.1067 1.24164 88.6707 1.60364 88.6517Z" fill="#4C3B22"/>
<path d="M0.550457 91.7875C2.09446 91.7945 3.63446 91.6705 5.15846 91.4245C5.51546 91.3675 5.36346 90.8235 5.00846 90.8815C3.53446 91.1195 2.04346 91.2305 0.550457 91.2235C0.187457 91.2225 0.186457 91.7855 0.550457 91.7875Z" fill="#4C3B22"/>
<path d="M26.1206 176.344C27.3576 176.352 28.5956 176.36 29.8326 176.368C30.3676 176.372 30.9296 176.422 31.4586 176.322C31.9656 176.227 32.3146 175.914 32.6216 175.519C32.8806 175.185 33.1286 174.869 33.5096 174.668C33.8226 174.502 34.1776 174.432 34.5296 174.43C35.3136 174.426 36.0896 174.744 36.7096 175.212C37.0196 175.446 37.3006 175.731 37.5186 176.052C37.7866 176.445 38.0056 176.886 38.3696 177.204C38.7646 177.549 39.2646 177.684 39.7726 177.757C40.3486 177.839 40.9276 177.9 41.5056 177.962C43.9146 178.222 46.3336 178.39 48.7546 178.465C51.5006 178.55 54.2486 178.515 56.9916 178.363C57.3526 178.343 57.3546 177.78 56.9916 177.8C52.1226 178.069 47.2336 177.968 42.3806 177.489C41.7816 177.43 41.1836 177.365 40.5856 177.295C40.0706 177.234 39.4926 177.216 39.0236 176.974C38.5666 176.739 38.3326 176.267 38.0636 175.855C37.8416 175.516 37.5776 175.207 37.2686 174.944C36.1286 173.971 34.2596 173.391 32.9396 174.363C32.5346 174.661 32.3006 175.09 31.9536 175.443C31.5046 175.9 30.8396 175.812 30.2516 175.808C28.8746 175.799 27.4986 175.79 26.1216 175.781C25.7586 175.778 25.7576 176.342 26.1206 176.344Z" fill="white"/>
<path d="M50.2085 164.622C51.6485 165.257 52.8055 163.837 53.9145 163.152C54.5095 162.785 55.1795 162.579 55.8495 162.879C56.5545 163.194 57.0725 163.844 57.5935 164.389C58.2025 165.027 58.8445 165.577 59.6935 165.863C60.1875 166.029 60.7045 166.114 61.2175 166.199C61.8135 166.298 62.4105 166.386 63.0095 166.465C65.3645 166.778 67.7395 166.94 70.1145 166.949C72.7905 166.959 75.4635 166.771 78.1135 166.401C78.4715 166.351 78.3185 165.808 77.9635 165.858C73.3135 166.508 68.5785 166.557 63.9155 166.015C62.7655 165.881 61.5995 165.742 60.4675 165.49C59.9785 165.381 59.5005 165.229 59.0765 164.955C58.7555 164.748 58.4755 164.485 58.2075 164.214C57.1935 163.192 56.0915 161.758 54.4555 162.274C53.6765 162.52 53.0515 163.075 52.4055 163.55C51.8725 163.942 51.1785 164.438 50.4905 164.135C50.1645 163.99 49.8775 164.476 50.2085 164.622Z" fill="white"/>
<path d="M61.4666 159.075C60.5956 159.837 59.9926 161.217 60.4696 162.349C60.7086 162.917 61.2406 163.265 61.8586 163.262C62.5356 163.258 63.1636 162.915 63.7256 162.57C64.0326 162.381 64.3316 162.179 64.6206 161.964C64.8636 161.784 65.1876 161.589 65.2766 161.279C65.4606 160.637 64.5586 160.293 64.0756 160.251C63.7796 160.225 63.4616 160.278 63.1946 160.412C62.9496 160.535 62.8606 160.902 62.8156 161.154C62.7186 161.703 62.8176 162.284 63.1076 162.762C63.8186 163.934 65.4966 164.086 66.4806 163.172C66.7466 162.925 66.3476 162.527 66.0826 162.774C65.4836 163.33 64.4526 163.372 63.8496 162.795C63.5626 162.521 63.3846 162.135 63.3486 161.74C63.3316 161.552 63.3406 161.361 63.3866 161.178C63.4056 161.1 63.4256 160.976 63.4756 160.914C63.5056 160.877 63.6426 160.839 63.7396 160.823C63.9386 160.79 64.1476 160.809 64.3376 160.875C64.4226 160.905 64.5046 160.944 64.5806 160.993C64.6846 161.061 64.7646 161.092 64.6816 161.197C64.5296 161.39 64.2556 161.539 64.0556 161.679C63.8306 161.836 63.6016 161.985 63.3666 162.127C62.7096 162.524 61.4496 163.162 60.9956 162.155C60.5786 161.229 61.1676 160.082 61.8646 159.472C62.1386 159.234 61.7386 158.837 61.4666 159.075Z" fill="white"/>
<path d="M40.5706 170.192C39.5576 170.798 39.3596 172.29 40.1576 173.152C40.9966 174.058 42.5196 174.012 43.3326 173.104C43.7986 172.584 44.0376 171.874 43.9626 171.178C43.9486 171.047 43.8836 170.949 43.7556 170.906C43.1316 170.697 42.5306 171.082 42.1956 171.596C41.8646 172.103 41.8196 172.755 41.9846 173.328C42.3056 174.444 43.3926 175.343 44.5796 175.271C44.9396 175.249 44.9426 174.685 44.5796 174.708C43.7036 174.761 42.8966 174.158 42.5856 173.352C42.4356 172.964 42.3936 172.505 42.5566 172.114C42.7256 171.709 43.1376 171.293 43.6066 171.45C43.5376 171.36 43.4686 171.269 43.3996 171.178C43.5306 172.39 42.5136 173.551 41.2536 173.18C40.7246 173.024 40.3036 172.604 40.2336 172.045C40.1676 171.517 40.3916 170.956 40.8556 170.679C41.1656 170.492 40.8826 170.005 40.5706 170.192Z" fill="white"/>
<path d="M48.3956 5.59656C47.8376 6.95656 49.2456 8.40757 50.5986 8.30057C51.3476 8.24057 52.0276 7.84156 52.5146 7.27756C53.0156 6.69656 53.4216 5.87257 53.3486 5.08757C53.2796 4.34257 52.6346 3.61757 51.8296 3.84357C51.1836 4.02457 50.7816 4.64556 50.7086 5.28456C50.6416 5.86856 50.8336 6.49256 51.2416 6.92056C51.7416 7.44556 52.5246 7.54556 53.1946 7.33156C53.9586 7.08756 54.5866 6.52657 55.0606 5.89557C55.3146 5.55757 55.5286 5.17656 55.6376 4.76556C55.7256 4.43356 55.8266 3.89256 55.4876 3.66556C55.1836 3.46256 54.7926 3.68556 54.6196 3.95656C54.4276 4.25756 54.4056 4.65156 54.4686 4.99356C54.6056 5.73756 55.2196 6.30456 55.9376 6.48556C57.4126 6.85756 59.5386 5.87957 59.4696 4.15457C59.4416 3.44757 58.8076 2.46956 58.0246 3.03856C57.4166 3.48056 56.9966 4.32657 57.3136 5.05957C57.6396 5.81257 58.5076 6.08356 59.2686 6.05256C59.6986 6.03556 60.1466 5.97157 60.5636 5.86557C60.9266 5.77357 61.2916 5.60957 61.5306 5.31157C61.8906 4.86157 61.8616 4.03356 61.2816 3.77156C60.9176 3.60756 60.6346 3.96156 60.6906 4.31056C60.7516 4.68956 61.0496 4.92656 61.3416 5.13656C61.7106 5.40356 62.0986 5.64256 62.5006 5.85756C62.8206 6.02856 63.1046 5.54256 62.7846 5.37056C62.4336 5.18256 62.0926 4.97656 61.7646 4.74856C61.6256 4.65156 61.4606 4.55557 61.3516 4.42357C61.3166 4.38057 61.2926 4.33156 61.2636 4.28456C61.2196 4.21556 61.2736 4.21756 61.2326 4.24156C61.1606 4.25156 61.0876 4.26056 61.0156 4.26956C61.3876 4.39156 61.1606 4.93556 60.9526 5.09256C60.5556 5.39056 59.9166 5.43957 59.4396 5.47757C58.9156 5.52057 58.2986 5.46856 57.9436 5.02456C57.6186 4.61756 57.7956 4.08457 58.1066 3.72757C58.2656 3.54457 58.4666 3.31356 58.6846 3.54356C58.8596 3.72856 58.9166 4.01456 58.9086 4.26156C58.8916 4.78256 58.5756 5.23056 58.1556 5.51756C57.3596 6.06056 55.9526 6.30456 55.2786 5.43956C55.0586 5.15656 54.8136 4.50157 55.1436 4.20157C55.1686 4.17857 55.1946 4.16256 55.2256 4.15056C55.2016 4.15356 55.1776 4.15657 55.1546 4.16057C55.1556 4.21157 55.1536 4.26356 55.1496 4.31456C55.1396 4.44156 55.1126 4.56656 55.0756 4.68956C54.9926 4.96456 54.8526 5.21656 54.6906 5.45256C54.1556 6.23456 53.1276 7.13256 52.1036 6.81456C51.3946 6.59456 51.1046 5.68557 51.3406 5.02957C51.4696 4.67057 51.8756 4.24556 52.2936 4.39456C52.8266 4.58356 52.8496 5.24956 52.7316 5.70656C52.4716 6.71956 51.5756 7.72856 50.4686 7.74356C49.4916 7.75756 48.5456 6.71256 48.9426 5.74656C49.0766 5.41156 48.5326 5.26556 48.3956 5.59656Z" fill="#632E16"/>
<path d="M45.8325 6.53472C44.7115 6.58072 43.8025 7.49971 43.5695 8.56871C43.3295 9.67571 43.8375 11.0477 45.0925 11.1967C45.6325 11.2607 46.1555 11.0147 46.4275 10.5387C46.6835 10.0917 46.6795 9.44773 46.2345 9.11773C45.6335 8.67273 45.1815 9.37972 44.9395 9.85672C44.6665 10.3967 44.5055 11.0127 44.5545 11.6197C44.6545 12.8717 45.7375 14.0657 47.0695 13.8947C47.4245 13.8487 47.4285 13.2857 47.0695 13.3317C46.2915 13.4317 45.5605 12.9327 45.2615 12.2217C44.9185 11.4037 45.1815 10.4487 45.6605 9.74472C45.6955 9.69272 45.7695 9.54272 45.8425 9.53872C45.9145 9.53472 45.9845 9.66072 46.0065 9.71572C46.0705 9.86972 46.0385 10.0547 45.9695 10.2007C45.8115 10.5377 45.4585 10.6947 45.0985 10.6317C44.2365 10.4807 43.9475 9.47072 44.1115 8.71872C44.2895 7.90272 44.9545 7.13473 45.8305 7.09873C46.1935 7.08373 46.1955 6.51972 45.8325 6.53472Z" fill="#632E16"/>
<path d="M45.6084 4.8285C45.6844 4.8135 45.5574 4.8305 45.6074 4.8265C45.6244 4.8255 45.6414 4.8235 45.6584 4.8235C45.6754 4.8235 45.6924 4.8235 45.7094 4.8245C45.7204 4.8255 45.7854 4.8325 45.7294 4.8245C45.6734 4.8165 45.7384 4.82649 45.7494 4.82949C45.7684 4.83349 45.7864 4.8385 45.8054 4.8435C45.9164 4.8825 45.8024 4.8345 45.8464 4.8565C45.8774 4.8715 45.9074 4.88651 45.9364 4.90451C45.9954 4.94351 46.0344 4.98849 45.9754 4.92849C46.0244 4.97849 46.0774 5.0215 46.1234 5.0745C46.1574 5.1145 46.0834 5.01651 46.1204 5.07051C46.1304 5.08451 46.1404 5.09951 46.1494 5.11351C46.1684 5.14251 46.1854 5.1725 46.2004 5.2035C46.2114 5.2265 46.2264 5.2875 46.2024 5.2035C46.2294 5.2775 46.2384 5.3095 46.2464 5.3435C46.2504 5.3625 46.2524 5.38149 46.2574 5.40049C46.2384 5.31849 46.2514 5.35749 46.2534 5.38349C46.2564 5.41749 46.2564 5.45049 46.2544 5.48449C46.2484 5.54349 46.2504 5.5325 46.2564 5.4815C46.2434 5.5435 46.2384 5.56249 46.2324 5.58149C46.2254 5.60149 46.1964 5.66849 46.2344 5.58349C46.2024 5.65549 46.1844 5.7215 46.2064 5.8005C46.2244 5.8655 46.2754 5.9365 46.3364 5.9685C46.4584 6.0325 46.6584 6.0115 46.7214 5.8675C46.7874 5.7165 46.8294 5.5575 46.8194 5.3905C46.8084 5.2205 46.7624 5.0645 46.6864 4.9125C46.5454 4.6355 46.2954 4.42149 46.0054 4.31449C45.8314 4.25049 45.6414 4.2465 45.4604 4.2825C45.3154 4.3115 45.2194 4.4915 45.2634 4.6295C45.3114 4.7845 45.4534 4.8595 45.6084 4.8285Z" fill="#632E16"/>
<path d="M52.5566 1.79468C52.6486 1.36768 53.1396 1.15968 53.4776 1.47468C53.6306 1.61768 53.6436 1.83169 53.7546 2.00169C53.8916 2.21269 54.1306 2.29067 54.3666 2.20667C54.5516 2.14067 54.7086 2.06168 54.9096 2.05468C55.0976 2.04868 55.2826 2.08067 55.4576 2.14867C55.8046 2.28367 56.0966 2.55767 56.2136 2.91567C56.3256 3.25867 56.8696 3.11168 56.7566 2.76568C56.4396 1.79268 55.2716 1.21768 54.3136 1.61968C54.2566 1.64368 54.1626 1.64768 54.2266 1.69768C54.2076 1.68368 54.1866 1.60867 54.1816 1.59467C54.1296 1.46167 54.0856 1.33767 54.0006 1.22167C53.8346 0.995672 53.5826 0.82968 53.3056 0.77668C52.7176 0.66468 52.1396 1.06368 52.0136 1.64568C51.9366 1.99868 52.4796 2.14968 52.5566 1.79468Z" fill="#632E16"/>
<path d="M43.2705 13.1977C42.8455 13.5407 42.6595 14.1847 42.8515 14.6997C43.0525 15.2387 43.5805 15.6147 44.1595 15.6107C44.3115 15.6097 44.4415 15.4817 44.4415 15.3287C44.4415 15.1767 44.3125 15.0457 44.1595 15.0467C44.1315 15.0467 44.1045 15.0467 44.0765 15.0447C44.0645 15.0437 43.9875 15.0327 44.0425 15.0417C43.9975 15.0337 43.9525 15.0237 43.9095 15.0097C43.8835 15.0017 43.8575 14.9927 43.8315 14.9827C43.8785 15.0017 43.8005 14.9667 43.7985 14.9657C43.7575 14.9447 43.7175 14.9217 43.6795 14.8957C43.6775 14.8947 43.6105 14.8437 43.6485 14.8737C43.6275 14.8567 43.6065 14.8377 43.5865 14.8187C43.5535 14.7877 43.5215 14.7537 43.4925 14.7187C43.5235 14.7567 43.4765 14.6957 43.4715 14.6877C43.4565 14.6647 43.4425 14.6417 43.4285 14.6177C43.4175 14.5977 43.4075 14.5777 43.3975 14.5567C43.3685 14.4747 43.3565 14.4257 43.3465 14.3757C43.3425 14.3277 43.3405 14.3007 43.3395 14.2737C43.3395 14.2507 43.3395 14.2277 43.3405 14.2047C43.3405 14.2017 43.3495 14.1137 43.3415 14.1707C43.3485 14.1207 43.3605 14.0717 43.3735 14.0227C43.3795 14.0007 43.3875 13.9787 43.3945 13.9567C43.4175 13.8797 43.3725 13.9947 43.4075 13.9227C43.4295 13.8777 43.4535 13.8327 43.4805 13.7907C43.4925 13.7717 43.5055 13.7527 43.5195 13.7337C43.4895 13.7727 43.5455 13.7057 43.5455 13.7057C43.5825 13.6647 43.6235 13.6287 43.6665 13.5937C43.7845 13.4977 43.7665 13.2947 43.6665 13.1957C43.5525 13.0807 43.3895 13.1027 43.2705 13.1977Z" fill="#632E16"/>
<path d="M46.1147 15.5977C46.0897 15.6427 46.0677 15.6917 46.0557 15.7417C46.0437 15.7917 46.0357 15.8447 46.0377 15.8967C46.0407 16.0037 46.0697 16.0977 46.1157 16.1927C46.1337 16.2297 46.1587 16.2617 46.1837 16.2947C46.2087 16.3277 46.2337 16.3597 46.2647 16.3867C46.3437 16.4567 46.4287 16.5087 46.5307 16.5407C46.5827 16.5567 46.6397 16.5647 46.6937 16.5657C46.7207 16.5657 46.7477 16.5617 46.7747 16.5577C46.8047 16.5537 46.8337 16.5507 46.8627 16.5417C46.9317 16.5197 46.9937 16.4757 47.0307 16.4127C47.0657 16.3527 47.0807 16.2637 47.0587 16.1957C47.0367 16.1277 46.9947 16.0617 46.9297 16.0277C46.8637 15.9927 46.7857 15.9767 46.7127 15.9997C46.6967 16.0047 46.6797 16.0087 46.6627 16.0117C46.6877 16.0087 46.7127 16.0047 46.7377 16.0017C46.7107 16.0047 46.6837 16.0047 46.6567 16.0017C46.6817 16.0047 46.7067 16.0087 46.7317 16.0117C46.7027 16.0077 46.6747 15.9997 46.6477 15.9877C46.6697 15.9967 46.6927 16.0067 46.7147 16.0157C46.6837 16.0017 46.6547 15.9847 46.6277 15.9647C46.6467 15.9797 46.6657 15.9937 46.6847 16.0087C46.6537 15.9847 46.6267 15.9577 46.6037 15.9267C46.6187 15.9457 46.6327 15.9647 46.6477 15.9837C46.6257 15.9547 46.6077 15.9227 46.5927 15.8897C46.6017 15.9117 46.6117 15.9347 46.6207 15.9567C46.6077 15.9257 46.5987 15.8937 46.5937 15.8597C46.5967 15.8847 46.6007 15.9097 46.6037 15.9347C46.5997 15.9057 46.5997 15.8767 46.6027 15.8487C46.5997 15.8737 46.5957 15.8987 46.5927 15.9237C46.5967 15.8987 46.6027 15.8747 46.6117 15.8507C46.6027 15.8727 46.5927 15.8957 46.5837 15.9177C46.6367 15.8187 46.6487 15.7377 46.6287 15.6657C46.6107 15.6007 46.5597 15.5297 46.4997 15.4977C46.4347 15.4637 46.3547 15.4457 46.2827 15.4697C46.2147 15.4897 46.1517 15.5327 46.1147 15.5977Z" fill="#632E16"/>
</svg>
