<?xml version="1.0" encoding="utf-8"?>
<!-- Generator: Adobe Illustrator 27.5.0, SVG Export Plug-In . SVG Version: 6.00 Build 0)  -->
<svg version="1.1" xmlns="http://www.w3.org/2000/svg" xmlns:xlink="http://www.w3.org/1999/xlink" x="0px" y="0px"
	 viewBox="0 0 500 500" style="enable-background:new 0 0 500 500;" xml:space="preserve">
<g id="Background_Complete">
	<g>
		<g>
			<g>
				<path style="fill:#FFFFFF;" d="M158.853,90.076H88.468c-3.478,0-6.297,2.82-6.297,6.297v25.204c0,3.478,2.82,6.297,6.297,6.297
					h50.497l7.361,9.038l6.377-9.038h6.15c3.478,0,6.297-2.819,6.297-6.297V96.373C165.151,92.895,162.331,90.076,158.853,90.076z"
					/>
			</g>
			<g>
				<g>
					<path style="fill:#E0E0E0;" d="M158.853,90.076c0,0,0.317-0.034,0.926,0.043c0.604,0.074,1.52,0.286,2.54,0.925
						c0.993,0.641,2.114,1.756,2.642,3.445c0.282,0.833,0.311,1.799,0.298,2.78c0.004,0.991,0.009,2.044,0.014,3.157
						c0.014,4.46,0.031,9.882,0.05,16.124c0.004,1.562,0.007,3.175,0.011,4.837c0.046,1.697-0.6,3.493-1.889,4.779
						c-1.268,1.3-3.178,2.011-5.059,1.913c-1.851,0.003-3.746,0.006-5.683,0.009l0.174-0.09c-2.008,2.854-4.149,5.898-6.365,9.047
						l-0.173,0.246l-0.19-0.233c-2.327-2.851-4.813-5.897-7.37-9.03l0.186,0.089c-14.147,0.006-29.694,0.013-46.002,0.02
						c-1.035,0-2.066,0-3.094,0c-1.009-0.01-2.083,0.065-3.122-0.236c-2.064-0.542-3.78-2.162-4.459-4.149
						c-0.182-0.493-0.28-1.01-0.343-1.528c-0.037-0.529-0.035-1.029-0.032-1.527c0-1,0.001-1.996,0.001-2.988
						c0.001-1.984,0.002-3.952,0.002-5.903c0.002-3.902,0.004-7.734,0.006-11.488c0.001-0.938,0.001-1.872,0.002-2.8
						c0.002-0.911-0.037-1.885,0.226-2.813c0.474-1.855,1.808-3.423,3.492-4.216c0.838-0.403,1.758-0.62,2.676-0.639
						c0.887-0.002,1.768-0.003,2.643-0.005c1.747,0.002,3.47,0.004,5.168,0.006c3.397,0.004,6.694,0.009,9.883,0.013
						c6.375,0.011,12.315,0.022,17.739,0.032c10.831,0.035,19.602,0.063,25.685,0.083c3.018,0.021,5.368,0.038,6.983,0.049
						c0.785,0.011,1.388,0.02,1.816,0.026C158.644,90.058,158.853,90.076,158.853,90.076s-0.21,0.018-0.619,0.027
						c-0.428,0.006-1.031,0.015-1.816,0.026c-1.616,0.011-3.966,0.028-6.983,0.049c-6.083,0.02-14.854,0.048-25.685,0.083
						c-5.424,0.01-11.364,0.02-17.739,0.032c-3.189,0.004-6.486,0.009-9.883,0.013c-1.698,0.002-3.422,0.004-5.168,0.006
						c-1.748,0.046-3.558-0.213-5.111,0.607c-1.559,0.737-2.793,2.193-3.227,3.909c-0.241,0.851-0.204,1.749-0.205,2.688
						c0.001,0.928,0.001,1.862,0.002,2.8c0.002,3.754,0.004,7.586,0.006,11.488c0.001,1.951,0.002,3.919,0.002,5.903
						c0,0.992,0.001,1.988,0.001,2.988c-0.02,1.015-0.002,1.965,0.348,2.884c0.626,1.829,2.208,3.322,4.107,3.819
						c0.939,0.276,1.947,0.209,2.986,0.217c1.028,0,2.06,0,3.094,0c16.308,0.007,31.855,0.014,46.002,0.02h0.115l0.072,0.089
						c2.551,3.138,5.03,6.19,7.351,9.046l-0.363,0.012c2.224-3.143,4.373-6.18,6.389-9.029l0.064-0.09l0.11,0
						c1.938,0.003,3.833,0.006,5.683,0.009c1.823,0.096,3.573-0.562,4.785-1.78c1.217-1.21,1.832-2.881,1.796-4.505
						c0.004-1.662,0.008-3.275,0.011-4.837c0.02-6.242,0.036-11.663,0.05-16.124c0.005-1.113,0.009-2.166,0.014-3.157
						c0.022-0.994,0.003-1.908-0.261-2.725c-0.494-1.644-1.57-2.748-2.532-3.393c-0.988-0.643-1.884-0.874-2.479-0.967
						C159.17,90.085,158.852,90.099,158.853,90.076z"/>
				</g>
			</g>
		</g>
		<g>
			<path style="fill:#E0E0E0;" d="M148.799,106.348c-1.566-2.875-3.484-5.463-5.568-7.764c-2.244,2.619-4.437,5.93-5.899,8.964
				c-1.375,2.855-1.136,6.193,0.649,8.811c1.785,2.618,5.59,3.722,8.454,2.366c2.207-1.044,3.624-2.868,3.866-5.298
				C150.543,110.997,149.967,108.492,148.799,106.348z"/>
		</g>
		<g>
			<path style="fill:#E0E0E0;" d="M128.016,106.348c-1.566-2.875-3.484-5.463-5.567-7.764c-2.244,2.619-4.437,5.93-5.899,8.964
				c-1.375,2.855-1.136,6.193,0.649,8.811c1.785,2.618,5.59,3.722,8.454,2.366c2.207-1.044,3.624-2.868,3.866-5.298
				C129.761,110.997,129.184,108.492,128.016,106.348z"/>
		</g>
		<g>
			<path style="fill:#E0E0E0;" d="M107.34,106.348c-1.566-2.875-3.484-5.463-5.567-7.764c-2.244,2.619-4.437,5.93-5.899,8.964
				c-1.375,2.855-1.136,6.193,0.649,8.811c1.785,2.618,5.59,3.722,8.454,2.366c2.207-1.044,3.624-2.868,3.866-5.298
				C109.085,110.997,108.508,108.492,107.34,106.348z"/>
		</g>
	</g>
	<g>
		<g>
			<g>
				<g>
					<rect x="260.965" y="29.405" style="fill:#EBEBEB;" width="209.973" height="377.201"/>
				</g>
			</g>
		</g>
		<g>
			<g>
				<g>
					<rect x="269.355" y="40.343" style="fill:#FAFAFA;" width="191.029" height="355.026"/>
				</g>
			</g>
		</g>
		<g>
			<g>
				<g>
					<polygon style="fill:#E0E0E0;" points="479.819,410.006 470.938,406.606 470.938,23.007 479.819,23.007 					"/>
				</g>
			</g>
		</g>
		<g>
			<g>
				<g>
					<rect x="269.355" y="142.474" style="fill:#E0E0E0;" width="195.178" height="3.78"/>
				</g>
			</g>
		</g>
		<g>
			<g>
				<g>
					<rect x="269.355" y="227.019" style="fill:#E0E0E0;" width="195.178" height="3.78"/>
				</g>
			</g>
		</g>
		<g>
			<g>
				<g>
					<rect x="269.355" y="311.565" style="fill:#E0E0E0;" width="195.178" height="3.78"/>
				</g>
			</g>
		</g>
		<g>
			<g>
				<g>
					
						<rect x="234.334" y="270.074" transform="matrix(6.123234e-17 -1 1 6.123234e-17 89.9701 639.77)" style="fill:#E0E0E0;" width="261.072" height="9.652"/>
				</g>
			</g>
		</g>
		<g>
			<g>
				<g>
					<rect x="306.139" y="40.343" style="fill:#E0E0E0;" width="4.372" height="104.021"/>
				</g>
			</g>
		</g>
		<g>
			<g>
				<g>
					<rect x="343.85" y="40.343" style="fill:#E0E0E0;" width="4.372" height="104.021"/>
				</g>
			</g>
		</g>
		<g>
			<g>
				<g>
					<rect x="381.561" y="40.343" style="fill:#E0E0E0;" width="4.372" height="104.021"/>
				</g>
			</g>
		</g>
		<g>
			<g>
				<g>
					<rect x="419.272" y="40.343" style="fill:#E0E0E0;" width="4.372" height="104.021"/>
				</g>
			</g>
		</g>
		<g>
			<g>
				<g>
					<rect x="252.084" y="23.007" style="fill:#E0E0E0;" width="8.881" height="385.933"/>
				</g>
			</g>
		</g>
		<g>
			<g>
				<g>
					<rect x="252.084" y="19.113" style="fill:#E0E0E0;" width="227.734" height="10.292"/>
				</g>
			</g>
		</g>
		<g>
			<g>
				<g>
					<rect x="245.784" y="411.275" style="fill:#E0E0E0;" width="240.047" height="9.589"/>
				</g>
			</g>
		</g>
		<g>
			<g>
				<g>
					<polygon style="fill:#E0E0E0;" points="470.938,406.606 485.831,411.275 245.784,411.275 260.965,406.606 					"/>
				</g>
			</g>
		</g>
	</g>
	<g>
		<g>
			<g>
				<g>
					<g>
						<path style="fill:#EBEBEB;" d="M97.764,382.747c5.149-2.657,11.213-3.002,16.93-2.057c3.071,0.508,6.273,1.427,8.364,3.734
							c2.09,2.307,2.486,6.367,0.086,8.35c-1.429,1.18-3.421,1.359-5.274,1.338c-4.475-0.052-9.441-0.84-13.017,1.853
							c-2.04,1.536-3.398,4.09-5.837,4.846c-2.386,0.739-5.079-0.669-6.344-2.822c-1.265-2.154-1.308-4.846-0.718-7.273
							C91.956,390.714,92.577,385.423,97.764,382.747z"/>
					</g>
				</g>
			</g>
			<g>
				<g>
					<g>
						<path style="fill:#EBEBEB;" d="M85.966,373.611c3.149,4.497,9.269,3.008,12.107,0.263c2.838-2.745,4.037-6.724,5.129-10.518
							c2.494-8.669,5.009-17.763,3.155-26.591c-0.555-2.639-1.541-5.271-3.396-7.229c-1.854-1.958-4.706-3.123-7.314-2.434
							c-3.086,0.815-5.004,3.837-6.39,6.713c-4.075,8.451-6.232,17.82-6.264,27.202C82.978,365.398,83.495,369.993,85.966,373.611"
							/>
					</g>
				</g>
			</g>
			<g>
				<g>
					<g>
						<path style="fill:#EBEBEB;" d="M77.319,380.064c3.419-4.058,4.068-9.976,2.547-15.059c-1.521-5.083-4.959-9.408-8.919-12.938
							c-4.644-4.139-10.103-7.36-15.972-9.424c-2.31-0.812-4.746-1.453-7.183-1.22c-2.437,0.232-4.891,1.479-6.028,3.647
							c-1.681,3.206-0.069,7.094,1.674,10.267c3.071,5.589,6.582,10.936,10.49,15.975c3.144,4.054,6.746,8.053,11.538,9.885
							c4.792,1.832,9.77,1.616,12.31-1.707"/>
					</g>
				</g>
			</g>
			<g>
				<g>
					<g>
						<g>
							<path style="fill:#E0E0E0;" d="M85.753,427.814c0.059,0.003,0.155-0.725,0.285-2.044c0.145-1.487,0.326-3.355,0.543-5.577
								c0.26-2.347,0.603-5.139,1.255-8.181c0.65-3.034,1.667-6.321,2.973-9.655c1.353-3.315,3.002-6.327,4.93-8.736
								c1.914-2.42,4.14-4.172,6.233-5.182c2.086-1.03,3.956-1.449,5.249-1.635c1.304-0.134,2.034-0.237,2.035-0.294
								c0.001-0.058-0.731-0.068-2.071-0.032c-1.327,0.089-3.275,0.425-5.473,1.424c-2.205,0.978-4.567,2.757-6.575,5.227
								c-2.024,2.46-3.734,5.539-5.11,8.912c-1.329,3.393-2.331,6.714-2.952,9.813c-0.619,3.094-0.902,5.918-1.088,8.284
								c-0.177,2.368-0.244,4.286-0.276,5.612C85.681,427.076,85.696,427.81,85.753,427.814z"/>
						</g>
					</g>
				</g>
			</g>
			<g>
				<g>
					<g>
						<g>
							<path style="fill:#E0E0E0;" d="M86.137,437.161c0.029-0.002,0.047-0.328,0.055-0.949c-0.002-0.712-0.004-1.61-0.007-2.712
								c-0.007-2.353-0.005-5.759,0.121-9.964c0.208-8.41,0.932-17.462,2.331-30.223c1.325-12,3.102-25.965,4.978-35.044
								c0.402-2.065,0.808-3.923,1.189-5.55c0.364-1.631,0.674-3.037,0.974-4.174c0.257-1.071,0.467-1.943,0.634-2.636
								c0.136-0.605,0.194-0.928,0.166-0.936c-0.028-0.008-0.141,0.298-0.329,0.889c-0.207,0.682-0.467,1.542-0.787,2.598
								c-0.349,1.127-0.707,2.524-1.116,4.148c-0.426,1.62-0.873,3.474-1.313,5.536c-1.856,8.227-3.822,19.725-5.234,32.517
								c-1.402,12.788-2.033,24.431-2.089,32.863c-0.05,4.216,0.04,7.629,0.147,9.983c0.067,1.101,0.122,1.998,0.166,2.71
								C86.07,436.839,86.108,437.163,86.137,437.161z"/>
						</g>
					</g>
				</g>
			</g>
			<g>
				<g>
					<g>
						<g>
							<path style="fill:#E0E0E0;" d="M86.194,414.704c0.059-0.002,0.048-1.008-0.02-2.833c-0.104-1.82-0.354-4.451-0.867-7.674
								c-0.544-3.215-1.303-7.033-2.496-11.181c-0.517-1.896-1.732-6.44-4.676-13.23c-3.878-9.2-9.147-16.722-13.731-21.381
								c-1.075-1.236-2.273-2.129-3.23-3.003c-0.496-0.419-0.934-0.837-1.38-1.168c-0.449-0.309-0.866-0.597-1.253-0.864
								c-1.509-1.032-2.354-1.576-2.385-1.527c-0.136,0.184,3.379,2.252,7.817,6.973c4.42,4.711,9.542,12.181,13.388,21.304
								c2.145,4.948,3.641,9.362,4.702,13.109c1.226,4.108,2.04,7.887,2.656,11.07c0.585,3.19,0.924,5.795,1.128,7.599
								C86.015,413.704,86.136,414.706,86.194,414.704z"/>
						</g>
					</g>
				</g>
			</g>
		</g>
		<g>
			<g>
				<g>
					<polygon style="fill:#E0E0E0;" points="62.905,433.667 65.156,464.496 104.761,464.496 107.012,433.667 					"/>
				</g>
			</g>
		</g>
		<g>
			<g>
				<g>
					<rect x="59.08" y="421.515" style="fill:#E0E0E0;" width="52.658" height="12.152"/>
				</g>
			</g>
		</g>
		<g>
			<g>
				<g>
					<polygon style="fill:#EBEBEB;" points="59.08,463.317 59.08,466.685 61.554,466.685 110.867,466.685 110.867,463.317 					"/>
				</g>
			</g>
		</g>
		<g>
			<g>
				<g>
					<polygon style="fill:#E0E0E0;" points="63.979,472.613 61.554,466.685 108.981,466.685 106.151,472.613 					"/>
				</g>
			</g>
		</g>
		<g>
			<g>
				<g>
					<g>
						<path style="fill:#F5F5F5;" d="M106.276,443.743c0.009,0.007-0.054,0.103-0.185,0.283c-0.157,0.209-0.352,0.467-0.592,0.785
							c-0.563,0.72-1.335,1.709-2.307,2.953l-0.103,0.131l-0.099-0.137c-1.45-2.006-3.388-4.685-5.668-7.84h0.326
							c-1.686,2.387-3.564,5.047-5.581,7.902l-0.175,0.248l-0.196-0.233c-2.06-2.45-4.296-5.112-6.618-7.875l0.382-0.005
							c-0.115,0.144-0.239,0.301-0.364,0.458c-2.053,2.573-4.039,5.064-5.918,7.419l-0.197,0.247l-0.182-0.258
							c-2.009-2.843-3.886-5.499-5.583-7.9l0.325,0.015c-2.752,3.135-5.085,5.794-6.876,7.835l-0.122,0.139l-0.093-0.157
							c-0.907-1.523-1.629-2.737-2.153-3.617c-0.225-0.393-0.407-0.71-0.552-0.963c-0.122-0.22-0.179-0.337-0.169-0.344
							c0.011-0.006,0.089,0.098,0.231,0.305c0.161,0.244,0.362,0.549,0.611,0.927c0.55,0.864,1.309,2.056,2.26,3.551l-0.215-0.017
							c1.762-2.065,4.059-4.757,6.766-7.93l0.171-0.2l0.154,0.216c1.713,2.391,3.606,5.035,5.634,7.864l-0.379-0.01
							c1.874-2.359,3.856-4.853,5.904-7.43c0.125-0.157,0.249-0.313,0.364-0.458l0.188-0.236l0.194,0.232
							c2.316,2.768,4.546,5.435,6.6,7.89l-0.37,0.015c2.037-2.841,3.933-5.487,5.636-7.862l0.165-0.23l0.161,0.23
							c2.232,3.189,4.129,5.897,5.549,7.925l-0.201-0.006c1.011-1.212,1.815-2.176,2.4-2.878c0.261-0.302,0.472-0.546,0.643-0.744
							C106.187,443.817,106.267,443.735,106.276,443.743z"/>
					</g>
				</g>
			</g>
		</g>
		<g>
			<g>
				<g>
					<g>
						<path style="fill:#F5F5F5;" d="M107.563,433.463c0,0.136-9.924,0.247-22.163,0.247c-12.243,0-22.165-0.11-22.165-0.247
							c0-0.136,9.922-0.247,22.165-0.247C97.639,433.217,107.563,433.327,107.563,433.463z"/>
					</g>
				</g>
			</g>
		</g>
		<g>
			<g>
				<g>
					<g>
						<path style="fill:#F5F5F5;" d="M109.564,467.017c0,0.136-10.785,0.247-24.087,0.247c-13.306,0-24.089-0.11-24.089-0.247
							c0-0.136,10.783-0.246,24.089-0.246C98.778,466.771,109.564,466.881,109.564,467.017z"/>
					</g>
				</g>
			</g>
		</g>
	</g>
	<g>
		<g>
			<g>
				<rect x="32.454" y="146.004" style="fill:#F5F5F5;" width="48.653" height="12.871"/>
			</g>
		</g>
		<g>
			<g>
				<g>
					<path style="fill:#E0E0E0;" d="M60.534,172.432c-0.005-0.005-0.01-0.084-0.015-0.234c-0.004-0.172-0.009-0.389-0.016-0.66
						c-0.009-0.606-0.021-1.45-0.037-2.533c-0.02-2.222-0.048-5.416-0.083-9.444l0.151,0.151
						c-11.109,0.022-28.776,0.057-48.65,0.097c0.11-0.11-0.25,0.247,0.245-0.247v0.003v0.007v0.013v0.026v0.052v0.104v0.207l0,0.414
						v0.825c0,0.549,0,1.097,0,1.642c0,1.091-0.001,2.174-0.001,3.248c-0.001,2.148-0.003,4.261-0.004,6.331l-0.242-0.242
						c13.854,0.044,25.977,0.082,34.671,0.11c4.331,0.029,7.806,0.053,10.234,0.069c1.181,0.014,2.105,0.024,2.767,0.032
						c0.298,0.007,0.536,0.012,0.724,0.016C60.442,172.422,60.529,172.427,60.534,172.432c0.005,0.005-0.071,0.01-0.225,0.016
						c-0.18,0.004-0.408,0.009-0.694,0.016c-0.649,0.008-1.556,0.018-2.715,0.032c-2.414,0.016-5.871,0.04-10.178,0.069
						c-8.737,0.028-20.919,0.066-34.84,0.11l-0.242,0.001l0-0.243c-0.001-2.07-0.003-4.183-0.004-6.331
						c0-1.074-0.001-2.157-0.001-3.248c0-0.545,0-1.093,0-1.642l0-0.825v-0.414v-0.207v-0.104v-0.052v-0.026v-0.013v-0.007v-0.003
						c0.496-0.496,0.139-0.137,0.251-0.248c19.874,0.04,37.541,0.075,48.65,0.097l0.152,0l-0.001,0.151
						c-0.036,4.066-0.064,7.29-0.083,9.533c-0.016,1.068-0.028,1.902-0.037,2.499c-0.006,0.26-0.012,0.468-0.016,0.634
						C60.544,172.368,60.539,172.437,60.534,172.432z"/>
				</g>
			</g>
		</g>
	</g>
	<g>
		<g>
			<g>
				<rect x="386.913" y="433.659" style="fill:#F5F5F5;" width="48.653" height="12.871"/>
			</g>
		</g>
		<g>
			<g>
				<g>
					<path style="fill:#E0E0E0;" d="M414.993,460.087c-0.005-0.005-0.01-0.084-0.015-0.234c-0.004-0.172-0.009-0.389-0.016-0.66
						c-0.009-0.606-0.021-1.45-0.036-2.533c-0.02-2.222-0.048-5.416-0.083-9.444l0.151,0.151
						c-11.109,0.022-28.776,0.057-48.65,0.097c0.11-0.11-0.25,0.247,0.245-0.247v0.003v0.007v0.013v0.026v0.052v0.104v0.207l0,0.414
						v0.825c0,0.549,0,1.096,0,1.642c0,1.091-0.001,2.174-0.001,3.248c-0.001,2.148-0.003,4.261-0.004,6.331l-0.242-0.242
						c13.854,0.044,25.977,0.083,34.671,0.11c4.331,0.029,7.806,0.053,10.234,0.069c1.181,0.014,2.105,0.024,2.767,0.032
						c0.298,0.007,0.536,0.012,0.724,0.016C414.901,460.077,414.987,460.082,414.993,460.087c0.005,0.005-0.071,0.01-0.225,0.016
						c-0.18,0.004-0.408,0.009-0.694,0.016c-0.649,0.008-1.556,0.018-2.715,0.032c-2.414,0.016-5.871,0.04-10.178,0.069
						c-8.737,0.028-20.919,0.066-34.84,0.11l-0.242,0.001l0-0.243c-0.001-2.07-0.003-4.183-0.004-6.331
						c0-1.074-0.001-2.157-0.001-3.248c0-0.545,0-1.093,0-1.642l0-0.825v-0.414v-0.207v-0.104v-0.052v-0.026v-0.013v-0.007v-0.003
						c0.496-0.496,0.139-0.138,0.251-0.248c19.874,0.04,37.541,0.075,48.65,0.097l0.152,0l-0.001,0.151
						c-0.036,4.066-0.064,7.29-0.083,9.534c-0.016,1.068-0.028,1.902-0.037,2.499c-0.006,0.26-0.012,0.468-0.016,0.634
						C415.003,460.023,414.998,460.092,414.993,460.087z"/>
				</g>
			</g>
		</g>
	</g>
	<g>
		<g>
			<g>
				<g>
					<path style="fill:#E0E0E0;" d="M95.271,63.921c-0.005-0.005-0.01-0.084-0.015-0.234c-0.004-0.172-0.009-0.389-0.016-0.66
						c-0.009-0.606-0.021-1.45-0.036-2.533c-0.02-2.222-0.048-5.416-0.083-9.444l0.151,0.151
						c-11.109,0.022-28.776,0.058-48.65,0.097c0.11-0.11-0.25,0.247,0.245-0.247v0.003v0.007v0.013v0.026v0.052v0.104v0.207l0,0.414
						V52.7c0,0.549,0,1.097,0,1.642c0,1.091-0.001,2.174-0.001,3.248c-0.001,2.148-0.003,4.261-0.004,6.331l-0.242-0.242
						c13.854,0.044,25.976,0.083,34.671,0.11c4.331,0.029,7.806,0.053,10.234,0.069c1.181,0.014,2.105,0.024,2.767,0.032
						c0.298,0.007,0.536,0.012,0.724,0.016C95.179,63.91,95.266,63.915,95.271,63.921c0.005,0.005-0.071,0.01-0.225,0.016
						c-0.18,0.004-0.408,0.009-0.694,0.015c-0.649,0.008-1.556,0.018-2.715,0.032c-2.414,0.016-5.871,0.04-10.178,0.069
						c-8.737,0.028-20.919,0.066-34.84,0.11l-0.242,0.001l0-0.243c-0.001-2.07-0.003-4.183-0.004-6.331
						c0-1.074-0.001-2.157-0.001-3.248c0-0.545,0-1.093,0-1.642l0-0.825v-0.414v-0.207V51.15v-0.052v-0.026V51.06v-0.007V51.05
						c0.496-0.496,0.139-0.138,0.251-0.248c19.874,0.04,37.541,0.075,48.65,0.097l0.152,0l-0.001,0.151
						c-0.036,4.066-0.064,7.29-0.083,9.534c-0.016,1.068-0.028,1.902-0.037,2.499c-0.006,0.26-0.012,0.468-0.016,0.634
						C95.281,63.857,95.276,63.925,95.271,63.921z"/>
				</g>
			</g>
		</g>
	</g>
	<g>
		<g>
			<g>
				<g>
					<path style="fill:#E0E0E0;" d="M213.651,66.388c-0.005-0.005-0.01-0.084-0.015-0.234c-0.004-0.172-0.009-0.389-0.016-0.66
						c-0.009-0.606-0.021-1.45-0.037-2.533c-0.02-2.222-0.048-5.416-0.083-9.444l0.151,0.151
						c-11.109,0.022-28.776,0.057-48.65,0.097c0.11-0.11-0.25,0.247,0.245-0.248v0.003v0.007v0.013v0.026v0.052v0.104l0,0.207v0.414
						v0.825c0,0.549,0,1.097,0,1.642c0,1.091-0.001,2.174-0.001,3.248c-0.001,2.148-0.003,4.261-0.004,6.331l-0.242-0.242
						c13.854,0.044,25.977,0.083,34.671,0.11c4.331,0.029,7.806,0.053,10.234,0.069c1.181,0.014,2.105,0.024,2.767,0.032
						c0.298,0.006,0.536,0.012,0.724,0.016C213.559,66.377,213.646,66.383,213.651,66.388c0.005,0.005-0.071,0.01-0.225,0.016
						c-0.18,0.004-0.408,0.009-0.694,0.016c-0.649,0.008-1.556,0.018-2.715,0.032c-2.414,0.016-5.871,0.04-10.178,0.069
						c-8.737,0.028-20.919,0.066-34.84,0.11l-0.242,0.001l0-0.243c-0.001-2.07-0.003-4.183-0.004-6.331
						c0-1.074-0.001-2.157-0.001-3.248c0-0.545,0-1.093,0-1.642l0-0.825v-0.414v-0.207v-0.104v-0.052V53.54v-0.013V53.52v-0.003
						c0.496-0.496,0.139-0.138,0.251-0.248c19.874,0.04,37.541,0.075,48.65,0.097l0.152,0l-0.001,0.151
						c-0.036,4.066-0.064,7.291-0.083,9.534c-0.016,1.068-0.028,1.902-0.037,2.499c-0.007,0.26-0.012,0.468-0.016,0.634
						C213.661,66.324,213.656,66.393,213.651,66.388z"/>
				</g>
			</g>
		</g>
		<g>
			<g>
				<g>
					<path style="fill:#E0E0E0;" d="M220.247,53.517c-0.006-0.006-0.012-0.089-0.019-0.245c-0.005-0.185-0.012-0.409-0.019-0.682
						c-0.011-0.633-0.026-1.494-0.044-2.581c-0.023-2.257-0.056-5.444-0.096-9.363l0.178,0.178
						c-7.573,0.018-17.875,0.043-29.23,0.07c-0.223,0.221,0.299-0.302,0.246-0.247v0.003v0.007v0.013v0.027v0.053v0.106l0,0.211
						v0.422l0,0.841c0,0.56,0,1.116-0.001,1.669c-0.001,1.106-0.001,2.199-0.002,3.276c-0.003,2.153-0.006,4.241-0.009,6.241
						l-0.236-0.236c8.439,0.045,15.704,0.084,20.911,0.112c2.568,0.028,4.626,0.049,6.091,0.065c0.684,0.012,1.229,0.022,1.643,0.03
						C220.037,53.498,220.238,53.507,220.247,53.517c0.01,0.01-0.172,0.019-0.531,0.029c-0.401,0.007-0.93,0.017-1.594,0.03
						c-1.452,0.016-3.492,0.038-6.038,0.065c-5.247,0.028-12.567,0.067-21.07,0.112l-0.236,0.001l0-0.237
						c-0.003-2-0.006-4.088-0.009-6.241c-0.001-1.077-0.001-2.17-0.002-3.276c0-0.553,0-1.11-0.001-1.669l0-0.841v-0.422v-0.211
						V40.75v-0.053V40.67v-0.013v-0.007v-0.003c-0.054,0.052,0.47-0.471,0.25-0.249c11.355,0.027,21.657,0.052,29.23,0.07l0.18,0
						l-0.002,0.178c-0.04,3.965-0.073,7.189-0.096,9.472c-0.019,1.07-0.034,1.917-0.044,2.541
						C220.272,53.234,220.26,53.529,220.247,53.517z"/>
				</g>
			</g>
		</g>
	</g>
	<g>
		<g>
			<g>
				<g>
					<path style="fill:#E0E0E0;" d="M167.785,365.949c-0.005-0.005-0.01-0.084-0.015-0.234c-0.004-0.172-0.009-0.389-0.016-0.66
						c-0.009-0.606-0.021-1.45-0.037-2.533c-0.02-2.222-0.048-5.416-0.083-9.444l0.151,0.151
						c-11.109,0.022-28.776,0.057-48.65,0.097c0.11-0.11-0.25,0.247,0.245-0.248v0.003v0.007v0.013v0.026v0.052v0.104l0,0.207v0.414
						v0.825c0,0.549,0,1.097,0,1.642c0,1.091-0.001,2.174-0.001,3.248c-0.001,2.148-0.003,4.261-0.004,6.331l-0.242-0.242
						c13.854,0.044,25.977,0.083,34.671,0.11c4.331,0.029,7.806,0.053,10.234,0.069c1.181,0.014,2.105,0.024,2.767,0.032
						c0.298,0.006,0.536,0.012,0.724,0.016C167.693,365.938,167.78,365.944,167.785,365.949c0.005,0.005-0.071,0.01-0.225,0.016
						c-0.18,0.004-0.408,0.009-0.694,0.016c-0.649,0.008-1.556,0.018-2.715,0.032c-2.414,0.016-5.871,0.04-10.178,0.069
						c-8.737,0.028-20.919,0.066-34.84,0.11l-0.242,0.001l0-0.243c-0.001-2.07-0.003-4.183-0.004-6.331
						c0-1.074-0.001-2.157-0.001-3.248c0-0.545,0-1.093,0-1.642l0-0.825v-0.414v-0.207v-0.104v-0.052v-0.026v-0.013v-0.007v-0.003
						c0.496-0.496,0.139-0.137,0.251-0.248c19.874,0.04,37.541,0.075,48.65,0.097l0.152,0l-0.001,0.151
						c-0.036,4.066-0.064,7.29-0.083,9.534c-0.016,1.068-0.028,1.901-0.037,2.499c-0.007,0.26-0.012,0.468-0.016,0.634
						C167.795,365.885,167.79,365.954,167.785,365.949z"/>
				</g>
			</g>
		</g>
		<g>
			<g>
				<g>
					<path style="fill:#E0E0E0;" d="M174.382,353.078c-0.006-0.006-0.012-0.089-0.019-0.245c-0.005-0.185-0.012-0.409-0.019-0.682
						c-0.011-0.633-0.026-1.494-0.044-2.581c-0.023-2.257-0.056-5.444-0.096-9.363l0.178,0.178
						c-7.573,0.018-17.875,0.043-29.23,0.07c-0.223,0.221,0.299-0.302,0.246-0.247v0.003v0.007v0.013v0.026v0.053v0.106l0,0.212
						v0.422l0,0.841c0,0.559,0,1.116-0.001,1.669c-0.001,1.106-0.001,2.199-0.002,3.276c-0.003,2.153-0.006,4.241-0.009,6.241
						l-0.236-0.236c8.439,0.045,15.704,0.084,20.911,0.112c2.568,0.027,4.626,0.049,6.091,0.065c0.684,0.012,1.229,0.022,1.643,0.03
						C174.171,353.059,174.372,353.068,174.382,353.078c0.01,0.01-0.172,0.019-0.531,0.029c-0.401,0.007-0.93,0.017-1.594,0.03
						c-1.452,0.016-3.492,0.038-6.037,0.065c-5.247,0.028-12.567,0.067-21.07,0.112l-0.236,0.001l0-0.237
						c-0.003-2-0.006-4.088-0.009-6.241c-0.001-1.077-0.001-2.17-0.002-3.276c0-0.553,0-1.11-0.001-1.669l0-0.841v-0.422v-0.212
						v-0.106v-0.053v-0.026v-0.013v-0.007v-0.003c-0.054,0.052,0.47-0.471,0.25-0.249c11.355,0.027,21.657,0.052,29.23,0.07
						l0.18,0.001l-0.002,0.178c-0.04,3.965-0.073,7.189-0.096,9.472c-0.019,1.07-0.034,1.917-0.044,2.541
						C174.406,352.795,174.394,353.09,174.382,353.078z"/>
				</g>
			</g>
		</g>
	</g>
</g>
<g id="Background_Simple" style="display:none;">
	<g style="display:inline;">
		<path style="fill:#F5F5F5;" d="M424.698,207.717l-2.288-3.55c-19.288-29.926-53.169-47.364-88.306-44.185
			c-4.517,0.409-9.005,1.143-13.424,2.215c-31.816,7.717-59.005,32.671-69.707,63.977c-6.294,18.411-7.622,39.449-20.111,54.266
			c-16.254,19.284-44.699,20.646-69.744,20.544s-53.507,1.335-69.677,20.691c-10.127,12.122-12.992,29.048-11.719,44.88
			c3.368,41.916,33.635,78.657,71.339,96.305c37.704,17.648,81.546,18.132,122.036,8.822
			c56.72-13.042,110.102-46.084,141.381-95.732S452.208,259.643,424.698,207.717z"/>
	</g>
	<g style="display:inline;">
		
			<ellipse transform="matrix(0.9276 -0.3735 0.3735 0.9276 -30.1313 54.8445)" style="fill:#F5F5F5;" cx="126.449" cy="105.17" rx="39.942" ry="39.942"/>
	</g>
</g>
<g id="Desk">
	<g>
		<g>
			<path style="fill:#263238;" d="M458.228,472.442c0,0.144-93.234,0.26-208.218,0.26c-115.024,0-208.238-0.117-208.238-0.26
				s93.214-0.26,208.238-0.26C364.994,472.181,458.228,472.298,458.228,472.442z"/>
		</g>
	</g>
</g>
<g id="Speech_Bubble">
	<g>
		<g>
			<g>
				<g>
					
						<ellipse transform="matrix(0.7071 -0.7071 0.7071 0.7071 26.0377 309.4446)" style="fill:#FFFFFF;" cx="386.552" cy="123.292" rx="52.23" ry="52.23"/>
				</g>
				<g>
					<g>
						<path style="fill:#263238;" d="M438.782,123.292c0,0-0.032-0.287-0.069-0.845c-0.035-0.573-0.085-1.4-0.151-2.48
							c-0.031-0.546-0.066-1.155-0.105-1.826c-0.069-0.669-0.211-1.394-0.327-2.183c-0.124-0.788-0.258-1.637-0.4-2.544
							c-0.054-0.457-0.164-0.918-0.297-1.389c-0.124-0.473-0.251-0.96-0.382-1.461c-0.915-4.038-2.8-8.81-5.776-13.87
							c-3-5.038-7.331-10.303-13.233-14.772c-0.741-0.552-1.491-1.112-2.25-1.677c-0.79-0.518-1.623-0.993-2.446-1.501
							c-0.84-0.478-1.636-1.059-2.537-1.468c-0.891-0.428-1.791-0.86-2.701-1.297c-0.456-0.215-0.909-0.445-1.374-0.652
							c-0.479-0.174-0.96-0.35-1.443-0.526c-0.966-0.353-1.942-0.708-2.927-1.068c-0.994-0.329-2.035-0.541-3.064-0.821
							c-1.04-0.236-2.063-0.602-3.148-0.714c-2.15-0.306-4.323-0.749-6.576-0.762c-1.121-0.039-2.251-0.149-3.39-0.131
							c-1.139,0.059-2.286,0.118-3.441,0.177c-0.577,0.04-1.16,0.036-1.737,0.112c-0.576,0.088-1.154,0.177-1.734,0.266
							c-1.157,0.192-2.334,0.327-3.498,0.568c-2.295,0.624-4.672,1.089-6.933,2.033c-0.573,0.21-1.148,0.421-1.725,0.632
							c-0.287,0.108-0.58,0.205-0.864,0.324l-0.833,0.402c-1.113,0.537-2.233,1.077-3.359,1.62c-1.098,0.595-2.15,1.288-3.237,1.933
							c-0.532,0.34-1.1,0.631-1.607,1.015l-1.53,1.146c-2.113,1.45-3.962,3.264-5.897,5.011c-0.877,0.965-1.757,1.935-2.642,2.91
							l-0.665,0.731l-0.597,0.79l-1.19,1.592l-1.196,1.599l-1.047,1.71l-1.045,1.721l-0.524,0.863
							c-0.157,0.298-0.295,0.606-0.444,0.909c-0.586,1.217-1.174,2.439-1.765,3.665c-0.468,1.278-0.939,2.561-1.41,3.849
							c-1.695,5.217-2.608,10.758-2.683,16.397c0.074,5.64,0.984,11.184,2.679,16.403c0.472,1.288,0.942,2.572,1.41,3.851
							c0.591,1.227,1.179,2.449,1.766,3.666l0.444,0.91l0.525,0.863l1.045,1.722l1.046,1.711l1.196,1.6l1.19,1.593l0.597,0.791
							l0.665,0.732c0.885,0.975,1.766,1.945,2.643,2.91c1.935,1.748,3.784,3.562,5.898,5.012l1.531,1.146
							c0.507,0.385,1.075,0.675,1.607,1.015c1.087,0.645,2.14,1.338,3.238,1.934c1.126,0.543,2.246,1.084,3.359,1.621l0.834,0.402
							c0.284,0.118,0.577,0.215,0.864,0.324c0.577,0.212,1.152,0.422,1.725,0.632c2.261,0.944,4.638,1.409,6.934,2.033
							c1.164,0.24,2.341,0.376,3.499,0.568c0.58,0.089,1.158,0.178,1.734,0.266c0.577,0.076,1.161,0.072,1.737,0.112
							c1.156,0.059,2.303,0.118,3.442,0.177c1.139,0.017,2.269-0.092,3.39-0.132c2.253-0.013,4.426-0.457,6.576-0.763
							c1.085-0.111,2.108-0.478,3.148-0.714c1.029-0.28,2.07-0.492,3.065-0.822c0.985-0.359,1.961-0.715,2.927-1.067
							c0.483-0.176,0.964-0.352,1.443-0.526c0.46-0.218,0.918-0.436,1.374-0.652c0.91-0.437,1.81-0.869,2.701-1.296
							c0.901-0.409,1.697-0.99,2.537-1.469c0.823-0.508,1.656-0.982,2.446-1.501c0.759-0.566,1.509-1.124,2.25-1.677
							c5.901-4.47,10.232-9.735,13.232-14.773c2.975-5.06,4.86-9.831,5.775-13.868c0.131-0.501,0.258-0.988,0.382-1.461
							c0.134-0.471,0.243-0.932,0.297-1.389c0.143-0.907,0.276-1.755,0.4-2.543c0.116-0.789,0.258-1.513,0.327-2.182
							c0.039-0.671,0.073-1.28,0.105-1.826c0.066-1.08,0.116-1.907,0.151-2.479C438.75,123.578,438.782,123.292,438.782,123.292
							s0.003,0.286-0.016,0.846c-0.023,0.574-0.056,1.403-0.1,2.485c-0.024,0.548-0.051,1.159-0.08,1.832
							c-0.061,0.671-0.195,1.399-0.303,2.191c-0.117,0.792-0.243,1.644-0.378,2.555c-0.051,0.459-0.156,0.923-0.287,1.396
							c-0.12,0.476-0.244,0.965-0.372,1.469c-0.889,4.06-2.753,8.866-5.721,13.968c-2.993,5.08-7.33,10.396-13.258,14.917
							c-0.745,0.559-1.498,1.124-2.261,1.696c-0.794,0.525-1.631,1.006-2.459,1.52c-0.845,0.484-1.646,1.071-2.552,1.487
							c-0.897,0.433-1.803,0.871-2.718,1.314c-0.459,0.219-0.92,0.439-1.383,0.66c-0.482,0.177-0.966,0.355-1.453,0.534
							c-0.974,0.357-1.956,0.719-2.949,1.083c-1.001,0.335-2.05,0.551-3.087,0.836c-1.048,0.24-2.079,0.611-3.173,0.727
							c-2.167,0.313-4.359,0.765-6.63,0.783c-1.131,0.042-2.271,0.154-3.419,0.139c-1.148-0.057-2.306-0.114-3.472-0.172
							c-0.582-0.039-1.17-0.035-1.753-0.111c-0.581-0.088-1.165-0.177-1.75-0.265c-1.168-0.191-2.356-0.327-3.531-0.568
							c-2.317-0.625-4.717-1.093-7.001-2.042c-0.579-0.211-1.159-0.424-1.742-0.636c-0.29-0.109-0.585-0.207-0.872-0.326
							l-0.842-0.405c-1.124-0.541-2.255-1.085-3.393-1.632c-1.109-0.6-2.173-1.298-3.271-1.948
							c-0.537-0.343-1.111-0.636-1.623-1.023l-1.547-1.155c-2.135-1.463-4.004-3.292-5.959-5.056
							c-0.886-0.974-1.777-1.953-2.671-2.936l-0.671-0.738l-0.604-0.798l-1.203-1.607l-1.208-1.615l-1.058-1.727l-1.057-1.738
							l-0.53-0.872l-0.449-0.918c-0.592-1.229-1.187-2.464-1.784-3.702c-0.473-1.291-0.949-2.588-1.426-3.889
							c-1.714-5.271-2.634-10.87-2.708-16.566c0.075-5.694,0.998-11.292,2.712-16.56c0.477-1.3,0.953-2.596,1.426-3.887
							c0.597-1.239,1.192-2.473,1.784-3.701c0.151-0.306,0.291-0.617,0.449-0.918l0.53-0.872l1.056-1.738l1.059-1.726l1.208-1.615
							l1.203-1.607l0.604-0.797l0.671-0.738c0.894-0.983,1.785-1.962,2.67-2.936c1.955-1.763,3.823-3.591,5.958-5.054l1.546-1.155
							c0.512-0.387,1.085-0.68,1.623-1.023c1.098-0.65,2.161-1.348,3.27-1.947c1.137-0.547,2.268-1.091,3.392-1.632l0.842-0.405
							c0.287-0.119,0.582-0.217,0.872-0.326c0.582-0.213,1.163-0.425,1.742-0.636c2.283-0.949,4.683-1.417,7-2.041
							c1.175-0.241,2.362-0.377,3.53-0.568c0.585-0.089,1.169-0.177,1.75-0.265c0.582-0.076,1.171-0.071,1.753-0.111
							c1.166-0.058,2.323-0.115,3.471-0.172c1.148-0.016,2.288,0.097,3.419,0.138c2.271,0.018,4.462,0.469,6.63,0.783
							c1.093,0.115,2.125,0.486,3.173,0.726c1.037,0.285,2.086,0.502,3.087,0.835c0.992,0.364,1.975,0.726,2.948,1.083
							c0.487,0.179,0.971,0.357,1.453,0.534c0.468,0.21,0.924,0.442,1.383,0.66c0.915,0.442,1.821,0.88,2.718,1.314
							c0.907,0.415,1.708,1.002,2.552,1.486c0.828,0.514,1.665,0.995,2.459,1.519c0.762,0.572,1.516,1.137,2.261,1.696
							c5.929,4.52,10.267,9.836,13.26,14.916c2.969,5.102,4.833,9.908,5.722,13.969c0.128,0.504,0.251,0.994,0.372,1.469
							c0.13,0.473,0.236,0.937,0.287,1.396c0.135,0.911,0.261,1.764,0.378,2.556c0.108,0.792,0.242,1.52,0.303,2.192
							c0.029,0.673,0.056,1.285,0.08,1.833c0.043,1.082,0.077,1.911,0.1,2.486C438.785,123.005,438.782,123.292,438.782,123.292z"/>
					</g>
				</g>
			</g>
			<g>
				<path style="fill:#E0E0E0;" d="M399.794,117.159c-3.698-6.789-8.227-12.9-13.147-18.335
					c-5.298,6.184-10.478,14.003-13.929,21.168c-3.248,6.741-2.683,14.623,1.532,20.806c4.215,6.183,13.2,8.789,19.964,5.588
					c5.211-2.466,8.558-6.774,9.129-12.511C403.913,128.138,402.552,122.222,399.794,117.159z"/>
			</g>
			<g>
				<g>
					<g>
						<g>
							<rect x="362.646" y="104.066" style="fill:#FF725E;" width="4.912" height="13.948"/>
						</g>
					</g>
				</g>
				<g>
					<g>
						<g>
							
								<rect x="362.577" y="104.066" transform="matrix(6.123234e-17 -1 1 6.123234e-17 254.0622 476.1423)" style="fill:#FF725E;" width="5.05" height="13.948"/>
						</g>
					</g>
				</g>
			</g>
			<g>
				<g>
					<path style="fill:#FFFFFF;" d="M381.466,141.572c-0.23,0.247-1.216-0.177-2.395-1.385c-1.175-1.194-2.449-3.235-3.08-5.75
						c-0.624-2.517-0.457-4.918,0.019-6.524c0.473-1.62,1.144-2.458,1.463-2.347c0.709,0.245-0.085,3.945,1.044,8.241
						C379.539,138.129,381.977,141.023,381.466,141.572z"/>
				</g>
			</g>
		</g>
		<g>
			<g>
				<circle style="fill:#FFFFFF;" cx="337.187" cy="172.139" r="8.43"/>
			</g>
			<g>
				<g>
					<path style="fill:#263238;" d="M345.618,172.139c-0.062,0.004-0.023-0.752-0.362-2.034c-0.335-1.258-1.185-3.101-3.079-4.521
						c-0.938-0.694-2.117-1.281-3.473-1.514c-1.347-0.224-2.865-0.177-4.306,0.376c-0.726,0.254-1.425,0.637-2.068,1.12
						c-0.65,0.473-1.24,1.06-1.726,1.74c-1.005,1.339-1.57,3.059-1.586,4.831c0.016,1.773,0.581,3.493,1.586,4.833
						c0.486,0.68,1.076,1.267,1.726,1.741c0.643,0.483,1.342,0.866,2.068,1.12c1.442,0.553,2.96,0.601,4.306,0.376
						c1.356-0.233,2.535-0.821,3.473-1.514c1.894-1.42,2.744-3.263,3.079-4.521C345.594,172.891,345.555,172.135,345.618,172.139
						c0.018,0,0.026,0.185,0.025,0.54c0.006,0.354-0.04,0.882-0.191,1.542c-0.282,1.302-1.104,3.241-3.052,4.764
						c-0.965,0.744-2.193,1.381-3.617,1.646c-1.414,0.256-3.017,0.222-4.549-0.35c-0.771-0.264-1.516-0.664-2.2-1.172
						c-0.692-0.498-1.322-1.118-1.841-1.838c-1.072-1.419-1.68-3.25-1.696-5.135c0.016-1.884,0.624-3.715,1.696-5.133
						c0.52-0.72,1.148-1.34,1.841-1.838c0.685-0.508,1.429-0.908,2.2-1.171c1.533-0.572,3.135-0.606,4.549-0.35
						c1.424,0.265,2.652,0.902,3.617,1.646c1.948,1.523,2.77,3.462,3.053,4.764c0.15,0.66,0.197,1.188,0.191,1.542
						C345.644,171.954,345.636,172.139,345.618,172.139z"/>
				</g>
			</g>
		</g>
	</g>
</g>
<g id="Character">
	<g>
		<g>
			<g>
				<path style="fill:#FFBF9D;" d="M347.334,271.867c0,0,37.03,39.558,59.828,64.451c9.313,10.168,11.787,21.261,7.045,29.927
					c-6.191,11.315-67.475,54.621-87.989,68.12l-20.359-18.854l57.452-60.446l-39.767-36.417L347.334,271.867z"/>
			</g>
			<g>
				<g>
					<path style="fill:#FF9A6C;" d="M381.128,350.206c-0.008,0.089-1.135-0.006-2.943,0.073c-1.807,0.075-4.299,0.397-6.929,1.229
						c-2.627,0.841-4.848,2.019-6.366,3.001c-1.522,0.98-2.386,1.709-2.444,1.641c-0.024-0.027,0.171-0.233,0.546-0.584
						c0.37-0.356,0.947-0.826,1.692-1.362c1.487-1.076,3.731-2.334,6.414-3.192c2.685-0.85,5.243-1.119,7.079-1.101
						c0.918,0.007,1.661,0.057,2.169,0.134C380.854,350.115,381.132,350.17,381.128,350.206z"/>
				</g>
			</g>
		</g>
		<g>
			<g>
				<path style="fill:#FFBF9D;" d="M114.727,192.546c0,0-74.366,33.047-77.689,59.759c-1.996,16.046,3.936,29.728,20.153,33.009
					c17.977,3.637,84.598,5.701,84.598,5.701l1.946-51.681l-48.808,5.989c0,0,32.056-22.637,37.927-32.571L114.727,192.546z"/>
			</g>
			<g>
				<g>
					<path style="fill:#FF9A6C;" d="M76.367,259.296c-0.024-0.089,1.278-0.438,3.277-1.257c1.999-0.814,4.672-2.178,7.304-4.158
						c2.627-1.989,4.671-4.186,6.002-5.885c1.336-1.698,2.029-2.854,2.107-2.807c0.031,0.018-0.117,0.321-0.412,0.856
						c-0.288,0.539-0.764,1.286-1.402,2.173c-1.271,1.777-3.31,4.055-5.982,6.078c-2.677,2.014-5.427,3.35-7.484,4.086
						c-1.028,0.371-1.877,0.624-2.474,0.753C76.708,259.272,76.376,259.331,76.367,259.296z"/>
				</g>
			</g>
		</g>
		<g>
			<g>
				<path style="fill:#FF725E;" d="M219.111,236.023c0,0-23.131-4.835-29.532-5.369c-6.401-0.533-65.955,9.285-65.955,9.285
					l9.06,50.632l19.202,2.134l0,0l0.098,37.971l8.211,132.401c-4.877,0.719-6.644,4.256-3.502,9.541l162.506-0.69
					c0,0-8.593-48.382-10.727-56.205c-2.134-7.823,11.432-88.096,11.432-88.096l1.866-79.398l-44.679-10.956L219.111,236.023z"/>
			</g>
			<g>
				<path style="fill:#FF725E;" d="M320.724,248.011c0,0,5.501-1.281,24.091,18.334c7.001,7.388,38.955,44.147,38.955,44.147
					l-32.244,39.633c0,0-8.933-7.713-16.794-12.763c-5.021-3.226-14.008-9.565-14.008-9.565s-10.29,0-14.292-33.73
					C302.43,260.339,320.724,248.011,320.724,248.011z"/>
			</g>
			<g style="opacity:0.3;">
				<g>
					<path d="M226.375,367.001l-8.679-13.359c6.739,24.882,21.442,46.871,43.704,59.868
						C249.725,398.008,238.05,382.504,226.375,367.001z"/>
				</g>
			</g>
			<g>
				<g>
					<path style="fill:#263238;" d="M232.152,375.177c-0.014,0.011-0.192-0.202-0.517-0.616c-0.35-0.456-0.816-1.064-1.401-1.827
						c-1.216-1.587-2.911-3.934-4.943-6.875c-2.04-2.937-4.368-6.504-6.852-10.528c-2.461-4.038-5.064-8.541-7.626-13.36
						c-2.546-4.83-4.806-9.516-6.762-13.822c-1.931-4.317-3.572-8.249-4.854-11.587c-1.29-3.335-2.277-6.056-2.906-7.954
						c-0.302-0.912-0.543-1.64-0.723-2.185c-0.16-0.501-0.236-0.767-0.219-0.773c0.017-0.006,0.126,0.249,0.318,0.739
						c0.204,0.537,0.475,1.253,0.815,2.152c0.687,1.875,1.726,4.573,3.057,7.886c1.324,3.316,2.997,7.226,4.949,11.524
						c1.976,4.287,4.245,8.956,6.785,13.776c2.557,4.809,5.142,9.31,7.576,13.354c2.457,4.03,4.749,7.612,6.747,10.571
						c1.991,2.964,3.638,5.34,4.803,6.963c0.552,0.786,0.992,1.414,1.321,1.884C232.017,374.933,232.166,375.166,232.152,375.177z"
						/>
				</g>
			</g>
			<g>
				<g>
					<path style="fill:#263238;" d="M248.018,351.983c-0.01,0.015-0.253-0.14-0.706-0.448c-0.488-0.34-1.144-0.796-1.967-1.369
						c-0.429-0.303-0.901-0.637-1.415-1c-0.509-0.377-1.042-0.812-1.626-1.267c-1.154-0.924-2.51-1.928-3.889-3.182
						c-0.702-0.614-1.436-1.256-2.201-1.925c-0.762-0.674-1.502-1.43-2.297-2.183c-1.61-1.488-3.189-3.217-4.88-5.009
						c-3.289-3.667-6.692-7.895-9.885-12.604c-3.154-4.737-5.783-9.487-7.935-13.919c-1.02-2.243-2.023-4.359-2.793-6.412
						c-0.397-1.021-0.817-1.992-1.153-2.952c-0.33-0.96-0.647-1.883-0.95-2.765c-0.639-1.75-1.056-3.385-1.476-4.803
						c-0.2-0.712-0.402-1.37-0.558-1.984c-0.142-0.613-0.272-1.176-0.391-1.688c-0.219-0.979-0.394-1.758-0.524-2.339
						c-0.114-0.536-0.165-0.818-0.148-0.822c0.018-0.004,0.103,0.271,0.25,0.799c0.153,0.574,0.359,1.344,0.618,2.312
						c0.132,0.507,0.277,1.066,0.434,1.673c0.171,0.608,0.385,1.261,0.598,1.967c0.445,1.406,0.885,3.029,1.545,4.765
						c0.312,0.875,0.639,1.791,0.978,2.744c0.344,0.953,0.772,1.917,1.176,2.93c0.784,2.038,1.798,4.138,2.825,6.366
						c2.167,4.401,4.795,9.121,7.935,13.836c3.178,4.687,6.554,8.903,9.809,12.572c1.674,1.792,3.235,3.526,4.826,5.021
						c0.785,0.757,1.516,1.518,2.268,2.197c0.754,0.675,1.478,1.323,2.171,1.943c1.359,1.267,2.694,2.288,3.828,3.231
						c0.573,0.464,1.096,0.91,1.595,1.298c0.503,0.375,0.965,0.721,1.385,1.034c0.799,0.605,1.434,1.087,1.908,1.446
						C247.806,351.785,248.028,351.969,248.018,351.983z"/>
				</g>
			</g>
			<g>
				<g>
					<path style="fill:#263238;" d="M151.096,269.616c0.018-0.001,0.044,0.224,0.077,0.653c0.031,0.483,0.07,1.106,0.119,1.877
						c0.085,1.631,0.174,3.992,0.243,6.91c0.147,5.837,0.197,13.9,0.254,22.803c0.057,8.906,0.142,16.967,0.314,22.798
						c0.076,2.916,0.175,5.274,0.246,6.904c0.032,0.771,0.058,1.394,0.078,1.877c0.012,0.43,0.01,0.656-0.008,0.658
						c-0.018,0.001-0.051-0.222-0.096-0.65c-0.045-0.482-0.103-1.103-0.175-1.872c-0.133-1.627-0.288-3.986-0.411-6.903
						c-0.267-5.834-0.41-13.9-0.467-22.808c-0.04-8.875-0.075-16.909-0.102-22.801c-0.032-2.869-0.058-5.214-0.077-6.909
						c-0.009-0.772-0.016-1.395-0.021-1.879C151.069,269.843,151.079,269.617,151.096,269.616z"/>
				</g>
			</g>
			<g>
				<g>
					<path style="fill:#263238;" d="M328.748,283.056c0.017,0.004-0.01,0.198-0.078,0.565c-0.085,0.421-0.192,0.949-0.323,1.596
						c-0.31,1.453-0.734,3.435-1.25,5.854c-1.057,4.942-2.478,11.777-3.916,19.351c-1.436,7.577-2.616,14.458-3.443,19.444
						c-0.405,2.439-0.737,4.439-0.98,5.905c-0.115,0.65-0.209,1.18-0.284,1.603c-0.07,0.366-0.116,0.557-0.134,0.554
						c-0.018-0.003-0.007-0.198,0.03-0.569c0.049-0.427,0.111-0.962,0.187-1.618c0.171-1.404,0.449-3.431,0.817-5.932
						c0.734-5.003,1.858-11.9,3.295-19.484c1.439-7.581,2.919-14.41,4.068-19.334c0.574-2.462,1.058-4.451,1.412-5.819
						c0.17-0.638,0.308-1.159,0.419-1.574C328.669,283.238,328.731,283.052,328.748,283.056z"/>
				</g>
			</g>
			<g>
				<g>
					<path style="fill:#263238;" d="M293.51,465.67c-0.136,0.048-2.743-7.042-5.823-15.833c-3.081-8.794-5.468-15.959-5.332-16.007
						c0.136-0.048,2.743,7.04,5.824,15.835C291.258,458.456,293.646,465.623,293.51,465.67z"/>
				</g>
			</g>
			<g>
				<g>
					<path style="fill:#263238;" d="M303.068,448.322c-0.059,0.046-0.76-0.765-1.881-2.081c-1.121-1.317-2.67-3.131-4.423-5.099
						c-1.755-1.967-3.38-3.715-4.56-4.979c-1.179-1.264-1.904-2.053-1.852-2.107c0.048-0.05,0.865,0.647,2.115,1.848
						c1.25,1.201,2.924,2.916,4.686,4.891c1.76,1.975,3.271,3.835,4.321,5.215C302.525,447.389,303.123,448.28,303.068,448.322z"/>
				</g>
			</g>
			<g style="opacity:0.3;">
				<g>
					<path d="M326.816,293.413c-2.965,10.886-5.144,21.985-6.515,33.183l-0.08,1.212c2.314,1.1,5.197-0.349,6.549-2.526
						c1.352-2.177,1.555-4.853,1.687-7.412C328.879,309.676,328.933,301.341,326.816,293.413z"/>
				</g>
			</g>
		</g>
		<g>
			<g>
				<g>
					<g>
						<g>
							<path style="fill:#263238;" d="M288.476,190.029c5.643-8.545,11.268-17.17,15.358-26.558
								c4.089-9.388,6.606-19.656,5.722-29.858c-0.134-1.546-1.98-12.183-3.509-12.447c-1.093-0.189-0.779,9.345-1.573,10.12
								c-7.572,7.402-11.897,17.623-13.887,28.023C288.598,169.709,288.187,179.445,288.476,190.029"/>
						</g>
					</g>
				</g>
				<g>
					<g>
						<g>
							<path style="fill:#FFBF9D;" d="M274.859,96.284l-2.322-0.51c-23.375-5.129-46.765,8.554-53.754,31.442
								c-6.499,21.285-13.406,44.882-15.812,56.537c-4.981,24.135,18.272,33.158,18.272,33.158
								c0.053,0.014-5.723,22.185-5.723,22.185h0c11.257,14.75,31.118,19.93,48.145,12.556l8.133-3.522l28.051-95.491
								C307.485,128.12,299.581,103.238,274.859,96.284z"/>
						</g>
					</g>
				</g>
				<g>
					<g>
						<g>
							<path style="fill:#FF9A6C;" d="M221.243,216.912c0,0,14.977,4.218,33.372-2.392c0,0-11.508,16.443-35.051,9.008
								L221.243,216.912z"/>
						</g>
					</g>
				</g>
				<g>
					<g>
						<g>
							<path style="fill:#263238;" d="M221.655,150.812c-0.463,1.801,0.682,3.678,2.554,4.195c1.869,0.516,3.76-0.521,4.223-2.322
								c0.463-1.801-0.68-3.68-2.549-4.197C224.01,147.971,222.117,149.011,221.655,150.812z"/>
						</g>
					</g>
				</g>
				<g>
					<g>
						<g>
							<path style="fill:#263238;" d="M221.575,138.953c0.328,0.542,3.354-0.815,7.052,0.007c3.704,0.767,6.002,3.265,6.502,2.9
								c0.241-0.157-0.015-1.062-1.009-2.182c-0.975-1.112-2.777-2.381-5.084-2.876c-2.307-0.492-4.431-0.07-5.736,0.554
								C221.972,137.98,221.409,138.706,221.575,138.953z"/>
						</g>
					</g>
				</g>
				<g>
					<g>
						<g>
							<path style="fill:#263238;" d="M253.631,157.921c-0.462,1.801,0.682,3.678,2.554,4.195c1.869,0.517,3.761-0.52,4.223-2.322
								c0.462-1.801-0.682-3.68-2.55-4.196C255.986,155.08,254.094,156.121,253.631,157.921z"/>
						</g>
					</g>
				</g>
				<g>
					<g>
						<g>
							<path style="fill:#263238;" d="M257.645,147.762c0.329,0.542,3.359-0.812,7.053,0.008c3.703,0.767,6.001,3.265,6.502,2.9
								c0.24-0.158-0.012-1.06-1.01-2.181c-0.975-1.112-2.777-2.38-5.083-2.877c-2.307-0.492-4.431-0.068-5.736,0.554
								C258.045,146.79,257.48,147.516,257.645,147.762z"/>
						</g>
					</g>
				</g>
				<g>
					<g>
						<g>
							<path style="fill:#263238;" d="M238.143,173.275c0.063-0.207-2.149-1.108-5.77-2.402c-0.924-0.304-1.776-0.688-1.794-1.368
								c-0.072-0.731,0.546-1.663,1.245-2.662c1.389-2.091,2.844-4.283,4.37-6.579c6.125-9.39,10.78-17.193,10.4-17.437
								c-0.381-0.243-5.654,7.17-11.778,16.559c-1.488,2.321-2.908,4.532-4.263,6.649c-0.593,0.995-1.475,2.078-1.303,3.599
								c0.1,0.762,0.681,1.426,1.25,1.721c0.565,0.318,1.094,0.445,1.556,0.575C235.76,172.954,238.082,173.481,238.143,173.275z"/>
						</g>
					</g>
				</g>
				<g>
					<g>
						<g>
							<path style="fill:#263238;" d="M260.968,134.738c0.295,1.054,4.102,0.849,8.492,1.713c4.408,0.776,7.885,2.339,8.541,1.463
								c0.295-0.422-0.256-1.434-1.627-2.536c-1.357-1.099-3.572-2.213-6.21-2.708c-2.638-0.489-5.105-0.248-6.767,0.288
								C261.723,133.493,260.844,134.239,260.968,134.738z"/>
						</g>
					</g>
				</g>
				<g>
					<g>
						<g>
							<path style="fill:#263238;" d="M225.934,125.208c0.57,1.017,3.776,0.853,7.395,1.661c3.641,0.7,6.533,2.129,7.442,1.418
								c0.408-0.352,0.124-1.304-1.025-2.41c-1.13-1.099-3.18-2.262-5.675-2.781c-2.496-0.517-4.823-0.263-6.28,0.3
								C226.313,123.956,225.692,124.719,225.934,125.208z"/>
						</g>
					</g>
				</g>
				<g>
					<g>
						<g>
							<path style="fill:#FFBF9D;" d="M293.974,170.031c0.449-0.088,17.611-1.264,13.477,15.076
								c-4.135,16.34-19.687,8.819-19.597,8.343C287.945,192.974,293.974,170.031,293.974,170.031z"/>
						</g>
					</g>
				</g>
				<g>
					<g>
						<g>
							<path style="fill:#FF9A6C;" d="M294.412,188.523c0.085-0.034,0.234,0.271,0.66,0.613c0.414,0.333,1.184,0.685,2.116,0.582
								c1.886-0.197,4.033-2.57,4.858-5.495c0.418-1.476,0.464-2.971,0.235-4.277c-0.197-1.322-0.759-2.352-1.589-2.727
								c-0.815-0.418-1.561-0.054-1.878,0.356c-0.334,0.401-0.313,0.754-0.407,0.76c-0.055,0.029-0.281-0.363,0.021-1.004
								c0.15-0.308,0.439-0.645,0.902-0.861c0.472-0.22,1.09-0.237,1.679-0.018c1.238,0.405,2.079,1.852,2.333,3.286
								c0.321,1.457,0.304,3.146-0.166,4.804c-0.938,3.266-3.403,5.921-5.938,6.006c-1.226,0.01-2.097-0.58-2.494-1.091
								C294.342,188.924,294.348,188.538,294.412,188.523z"/>
						</g>
					</g>
				</g>
				<g>
					<g>
						<g>
							<path style="fill:#263238;" d="M236.424,102.961c-2.257-2.148,7.904-8.615,15.16-9.855
								c10.966-1.874,26.649-0.685,35.013,4.248c10.069,5.94,17.687,13.724,20.55,25.059c2.864,11.335,1.889,23.41-1.394,34.63
								c-1.002,3.424-2.303,6.925-4.911,9.357c-3.223,3.007-8.188,4.131-9.301,9.153c-0.407,1.836-1.407,3.534-2.999,4.533
								c-3.816,2.391-6.683-1.548-7.576-4.978c-1.908-7.326-0.306-15.054,1.299-22.453c1.141-5.258,2.323-10.625,5.1-15.234
								c1.51-2.508,3.466-4.74,4.835-7.328c1.37-2.588,2.108-5.739,0.981-8.442c-0.183-0.439-0.523-1.022-0.973-1.687
								c-3.554-5.258-9.7-8.166-16.025-7.637c-10.033,0.839-26.984,1.575-30.261-2.615c-4.714-6.028-5.356-9.321-5.356-9.321
								L236.424,102.961z"/>
						</g>
					</g>
				</g>
			</g>
			<g>
				<g>
					<path style="fill:#FF9A6C;" d="M245.646,185.04c-0.031-1.365-0.464-2.804-1.525-3.663c-0.825-0.668-1.932-0.903-2.993-0.862
						c-1.06,0.041-5.26,0.564-6.28,0.856c-1.249,2.369-2.156,6.431-0.641,8.639c1.574,2.292,4.93,3.021,7.444,1.832
						C244.165,190.652,245.709,187.82,245.646,185.04z"/>
				</g>
				<g>
					<g>
						<path style="fill:#263238;" d="M234.386,190.249c0.065-0.039,0.3,0.32,0.934,0.736c0.62,0.417,1.621,0.926,2.927,1.217
							c1.28,0.349,2.889,0,4.216-1.119c1.326-1.089,2.19-2.934,2.375-4.946c0.094-1.005,0.058-2.022-0.207-2.886
							c-0.245-0.868-0.858-1.456-1.629-1.763c-1.574-0.599-3.285-0.341-4.662-0.335c-1.377,0.036-2.457,0.213-3.145,0.507
							c-0.697,0.276-0.994,0.603-1.054,0.543c-0.038-0.023,0.178-0.457,0.891-0.87c0.7-0.429,1.864-0.722,3.263-0.842
							c1.368-0.072,3.079-0.466,5.022,0.193c0.954,0.322,1.886,1.201,2.188,2.286c0.332,1.055,0.364,2.154,0.265,3.257
							c-0.2,2.207-1.191,4.299-2.762,5.525c-0.77,0.613-1.64,1.023-2.503,1.201c-0.859,0.2-1.735,0.095-2.418-0.107
							c-1.396-0.402-2.396-1.034-2.995-1.574C234.482,190.729,234.335,190.267,234.386,190.249z"/>
					</g>
				</g>
			</g>
		</g>
		<g>
			<g>
				<path style="fill:#FFBF9D;" d="M312.376,408.3c-7.775,0.696-34.561-6.296-42.711-8.249c-8.15-1.953-19.481,6.513-19.481,6.513
					c3.071,7.939,7.026,2.329,11.756,1.527c4.73-0.802,12.248,1.753,12.248,1.753l-8.265,3.932l-14.279,13.35
					c0,0,1.524,4.558,7.449,6.086c5.925,1.527,17.432-7.656,17.432-7.656l8.277-0.159l-7.398,4.033c0,0-9.903,5.26-11.705,8.591
					c-1.802,3.331,1.266,5.034,1.266,5.034l14.445-9.118l9.952-1.378c0,0,19.752,8.658,28.127,8.138
					c8.375-0.519,14.131-15.595,14.131-15.595L312.376,408.3z"/>
			</g>
			<g>
				<g>
					<g>
						<path style="fill:#FF9A6C;" d="M286.853,415.425c0.051,0.189-1.999,0.737-5.309,0.834c-1.639,0.097-3.597,0.121-5.603,0.649
							c-1.961,0.547-4.072,1.715-6.152,3.012c-4.161,2.691-7.617,5.65-10.161,7.727c-2.534,2.097-4.139,3.366-4.27,3.223
							c-0.124-0.136,1.244-1.654,3.625-3.947c2.393-2.273,5.776-5.383,10.069-8.16c2.176-1.347,4.32-2.517,6.583-3.081
							c2.241-0.509,4.253-0.415,5.896-0.393C284.822,415.439,286.808,415.243,286.853,415.425z"/>
					</g>
				</g>
			</g>
		</g>
		<g>
			<g>
				<path style="fill:none;stroke:#FFFFFF;stroke-width:0.05;stroke-miterlimit:10;" d="M173.175,173.622"/>
			</g>
		</g>
		<g>
			<g>
				<g>
					<path style="fill:#E0E0E0;" d="M98.306,197.012l11.371,26.989c1.7,4.035,6.342,5.936,10.383,4.251l70.863-29.531
						c4.872-2.031,7.189-7.616,5.184-12.499l-9.752-23.745c-2.014-4.904-7.624-7.244-12.525-5.226l-71.224,29.323
						C98.523,188.256,96.592,192.942,98.306,197.012z"/>
				</g>
				<g>
					<polygon style="fill:#E0E0E0;" points="186.041,162.643 197.631,156.908 207.616,180.201 195.575,185.108 					"/>
				</g>
				<g>
					<path style="fill:#FAFAFA;" d="M201.533,175.36c-0.586-1.097-1.956-1.458-3.174-1.71c-3.505-0.726-7.127-1.453-10.635-0.744
						c-3.509,0.709-6.907,3.24-7.479,6.774c-0.331,2.05,0.289,4.264-0.548,6.165c-1.02,2.315-3.923,3.286-6.428,2.934
						c-2.505-0.352-4.734-1.712-6.951-2.93c-2.217-1.218-4.633-2.351-7.158-2.182c-5.077,0.341-8.286,5.549-12.796,7.905
						c-4.28,2.236-9.398,1.745-14.218,1.456c-2.355-0.141-4.824-0.181-7.165,0.175c-6.726-0.782-13.924-1.277-19.842-0.832
						c-0.924,0.07-1.515,1.012-1.163,1.869l0.918,2.24c2.537,6.876,5.625,13.244,8.974,19.764c1.06,2.064,2.459,4.335,4.745,4.732
						c1.454,0.253,2.907-0.339,4.264-0.919c8.125-3.469,16.251-6.937,24.376-10.406l0,0c11.102-3.875,22.027-8.619,33.129-12.494
						c3.594-1.254,7.734-3.114,8.435-6.855c0.632-3.371-1.754-7.527,0.69-9.933c1.215-1.196,3.125-1.279,4.819-1.092
						c1.694,0.186,3.45,0.562,5.068,0.028C201.016,178.77,202.336,176.863,201.533,175.36z"/>
				</g>
				<g>
					<polygon style="fill:#FF725E;" points="189.397,160.991 186.22,162.6 195.705,185.326 199.223,183.906 					"/>
				</g>
				<g style="opacity:0.3;">
					<g>
						<path d="M172.141,166.383c-1.642-1.455-3.762-2.228-5.827-2.969l-23.669,15.449c1.3,2.033,3.137,4.29,5.538,4.535
							c2.401,0.245,4.893-0.661,6.577-2.39c2.103,1.265,4.823,1.443,7.073,0.462c2.25-0.981,3.971-3.095,4.475-5.497
							c1.573,0.187,3.208,0.134,4.681-0.449c1.473-0.583,2.765-1.753,3.227-3.268C174.856,170.157,173.783,167.839,172.141,166.383z
							"/>
					</g>
				</g>
				<g style="opacity:0.3;">
					<path style="fill:#FFFFFF;" d="M108.968,183.955c0.783-0.322,47.905,28.956,47.905,28.956l9.374-3.906
						c0,0-49.528-28.241-49.381-28.301C117.013,180.643,108.968,183.955,108.968,183.955z"/>
				</g>
				<g>
					<g>
						<path style="fill:#FFFFFF;" d="M133.845,177.269c0.052,0.134-6.656,2.84-14.981,6.042c-8.327,3.204-15.117,5.691-15.169,5.557
							c-0.052-0.134,6.655-2.839,14.982-6.043C127.002,179.623,133.794,177.135,133.845,177.269z"/>
					</g>
				</g>
				<g>
					<path style="fill:#FF725E;" d="M186.559,163.148c-1.071-2.419-0.877-5.324,0.507-7.58l0.852,0.523
						c-1.215,1.98-1.385,4.528-0.445,6.651L186.559,163.148z"/>
				</g>
				<g>
					<path style="fill:#FF725E;" d="M189.001,163.1c-1.071-2.42-0.877-5.324,0.507-7.58l0.853,0.523
						c-1.215,1.979-1.385,4.529-0.445,6.652L189.001,163.1z"/>
				</g>
				<g>
					<g>
						<ellipse style="fill:#FF725E;" cx="188.825" cy="141.483" rx="9.099" ry="16.694"/>
					</g>
					<g>
						<g>
							<path style="fill:#263238;" d="M197.365,141.483c-0.06,0.001-0.039-1.069-0.249-2.98c-0.115-0.953-0.284-2.118-0.605-3.441
								c-0.304-1.326-0.787-2.809-1.534-4.341c-0.748-1.505-1.824-3.149-3.529-4.123c-0.844-0.475-1.875-0.685-2.877-0.457
								c-1.002,0.219-1.933,0.831-2.687,1.637c-1.528,1.621-2.523,3.837-3.195,6.184c-0.654,2.365-0.967,4.913-0.984,7.519
								c0.016,2.607,0.329,5.156,0.983,7.521c0.672,2.348,1.667,4.564,3.195,6.185c0.754,0.807,1.685,1.418,2.688,1.637
								c1.003,0.228,2.033,0.018,2.878-0.458c1.704-0.975,2.78-2.619,3.528-4.124c0.746-1.532,1.229-3.015,1.533-4.341
								c0.321-1.323,0.49-2.488,0.605-3.441C197.326,142.552,197.304,141.482,197.365,141.483c0.018,0,0.029,0.266,0.033,0.775
								c0.017,0.509-0.012,1.258-0.08,2.224c-0.085,0.963-0.225,2.142-0.523,3.487c-0.281,1.347-0.744,2.86-1.486,4.437
								c-0.749,1.548-1.819,3.264-3.652,4.341c-0.908,0.524-2.063,0.774-3.182,0.527c-1.12-0.237-2.133-0.904-2.935-1.751
								c-1.625-1.707-2.645-3.982-3.342-6.381c-0.675-2.416-0.997-5.009-1.013-7.66c0.017-2.65,0.338-5.242,1.013-7.658
								c0.696-2.398,1.717-4.673,3.341-6.38c0.802-0.846,1.815-1.514,2.935-1.751c1.119-0.248,2.274,0.002,3.182,0.526
								c1.833,1.076,2.902,2.792,3.652,4.34c0.742,1.577,1.206,3.09,1.486,4.437c0.298,1.345,0.438,2.524,0.523,3.487
								c0.068,0.965,0.098,1.715,0.08,2.224C197.393,141.217,197.383,141.483,197.365,141.483z"/>
						</g>
					</g>
					<g style="opacity:0.3;">
						<g>
							<path d="M183.092,141.483c0-8.192,3.196-14.906,7.267-15.599c-0.229-0.039-0.459-0.069-0.693-0.069
								c-4.396,0-7.96,7.015-7.96,15.668s3.564,15.667,7.96,15.667c0.234,0,0.464-0.03,0.693-0.069
								C186.288,156.389,183.092,149.675,183.092,141.483z"/>
						</g>
					</g>
				</g>
			</g>
			<g>
				<g>
					<path style="fill:#FFBF9D;" d="M172.723,170.42c-0.097-4.37-1.112-9.116-4.176-13.016c-1.851-1.647-3.293-3.319-5.752-3.63
						c-2.458-0.311-6.185,1.214-6.452,3.678c-1.843-1.421-3.569-1.787-5.728-0.918c-2.159,0.869-3.789,2.934-4.134,5.235
						c-1.782-1.639-4.79-1.424-6.651,0.125c-1.86,1.549-2.65,4.118-2.511,6.535c0.139,2.417,1.095,4.713,2.228,6.853
						c1.246,2.352,2.803,4.661,5.098,6.01c1.605,0.943,3.72,1.323,5.298,0.337c1.391-0.87,2.037-2.611,2.023-4.251
						c-0.013-1.64,0.162-3.219-0.398-4.76c0.873,2.082,1.066,4.249,2.805,5.689c1.739,1.441,4.541,1.869,6.188,0.324
						c0.992-0.931,1.357-2.34,1.566-3.684c0.368-2.371,0.387-4.795,0.057-7.171c1.592,1.505,2.437,3.654,3.962,5.228
						c1.524,1.574,4.372,2.347,5.784,0.671C172.667,172.799,172.748,171.561,172.723,170.42z"/>
				</g>
				<g>
					<g>
						<path style="fill:#FF9A6C;" d="M152.077,174.857c-0.163,0.036-0.745-3.245-2.516-6.898c-1.741-3.668-3.936-6.176-3.806-6.28
							c0.048-0.042,0.657,0.529,1.497,1.584c0.84,1.053,1.883,2.611,2.778,4.471c0.89,1.861,1.453,3.65,1.748,4.964
							C152.076,174.013,152.14,174.846,152.077,174.857z"/>
					</g>
				</g>
				<g>
					<g>
						<path style="fill:#FF9A6C;" d="M162.664,169.615c-0.161,0.042-0.823-3.039-2.651-6.41c-1.799-3.388-4-5.643-3.877-5.754
							c0.045-0.045,0.654,0.46,1.502,1.413c0.848,0.951,1.909,2.375,2.834,4.094c0.921,1.721,1.521,3.392,1.845,4.624
							C162.642,168.816,162.726,169.603,162.664,169.615z"/>
					</g>
				</g>
			</g>
			<g>
				<path style="fill:#FFBF9D;" d="M181.205,201.522c-0.423-1.587-1.042-3.184-2.216-4.332c-1.174-1.148-3.015-1.74-4.511-1.064
					c-1.028,0.465-1.738,1.43-2.287,2.416c-1.37,2.461-2.03,5.313-1.879,8.126l0.482,1.391c1.879,0.538,3.81,1.081,5.757,0.916
					c1.948-0.165,3.947-1.196,4.701-2.999C181.836,204.58,181.594,202.984,181.205,201.522z"/>
			</g>
		</g>
	</g>
</g>
</svg>
